<svg width="20" height="20" viewBox="0 0 20 20" fill="none" xmlns="http://www.w3.org/2000/svg">
<path fill-rule="evenodd" clip-rule="evenodd" d="M14.0886 8.89709H15.5834C16.6438 8.89709 17.5033 8.03757 17.5033 6.97713V6.97713C17.5033 5.91668 16.6438 5.05716 15.5834 5.05716H14.9431V4.41689C14.9431 3.35562 14.0827 2.49609 13.0223 2.49609V2.49609C11.9618 2.49609 11.1023 3.35562 11.1023 4.41606V5.91085C11.1023 6.13177 11.0148 6.34436 10.8581 6.50026L6.50124 10.8571C6.34451 11.0138 6.13275 11.1013 5.91183 11.1013H4.41704C3.35659 11.1013 2.49707 11.9609 2.49707 13.0213V13.0213C2.49707 14.0818 3.35659 14.9413 4.41704 14.9413H5.0573V15.5815C5.0573 16.6428 5.91766 17.5023 6.9781 17.5023V17.5023C8.03854 17.5023 8.89807 16.6428 8.89807 15.5824V14.0876C8.89807 13.8667 8.98561 13.6541 9.14234 13.4982L13.4992 9.14136C13.6559 8.98463 13.8676 8.89709 14.0886 8.89709Z" stroke="#323232" stroke-width="1.5" stroke-linecap="round" stroke-linejoin="round"/>
</svg>
