<svg width="20" height="20" viewBox="0 0 20 20" fill="none" xmlns="http://www.w3.org/2000/svg">
<path d="M15 4.16667H17.5" stroke="#1C1C1C" stroke-width="1.5" stroke-linecap="round" stroke-linejoin="round"/>
<path d="M2.5 4.16667H11.6667" stroke="#1C1C1C" stroke-width="1.5" stroke-linecap="round" stroke-linejoin="round"/>
<path d="M8.33325 9.99992H17.4999" stroke="#1C1C1C" stroke-width="1.5" stroke-linecap="round" stroke-linejoin="round"/>
<path d="M2.5 9.99992H5" stroke="#1C1C1C" stroke-width="1.5" stroke-linecap="round" stroke-linejoin="round"/>
<path d="M15 15.8334H17.5" stroke="#1C1C1C" stroke-width="1.5" stroke-linecap="round" stroke-linejoin="round"/>
<path d="M2.5 15.8334H11.6667" stroke="#1C1C1C" stroke-width="1.5" stroke-linecap="round" stroke-linejoin="round"/>
<path d="M14.5119 2.98816C15.1628 3.63903 15.1628 4.69431 14.5119 5.34518C13.8611 5.99605 12.8058 5.99605 12.1549 5.34518C11.504 4.69431 11.504 3.63903 12.1549 2.98816C12.8058 2.33728 13.8611 2.33728 14.5119 2.98816" stroke="#1C1C1C" stroke-width="1.5" stroke-linecap="round" stroke-linejoin="round"/>
<path d="M7.84518 8.82141C8.49605 9.47228 8.49605 10.5276 7.84518 11.1784C7.19431 11.8293 6.13903 11.8293 5.48816 11.1784C4.83728 10.5276 4.83728 9.47228 5.48816 8.82141C6.13903 8.17053 7.19431 8.17053 7.84518 8.82141" stroke="#1C1C1C" stroke-width="1.5" stroke-linecap="round" stroke-linejoin="round"/>
<path d="M14.5119 14.6549C15.1628 15.3058 15.1628 16.3611 14.5119 17.0119C13.8611 17.6628 12.8058 17.6628 12.1549 17.0119C11.504 16.3611 11.504 15.3058 12.1549 14.6549C12.8058 14.004 13.8611 14.004 14.5119 14.6549" stroke="#1C1C1C" stroke-width="1.5" stroke-linecap="round" stroke-linejoin="round"/>
</svg>
