<svg width="93" height="35" viewBox="0 0 93 35" fill="none" xmlns="http://www.w3.org/2000/svg">
<g clip-path="url(#clip0_601_38064)">
<path d="M7.7031 27.2775C7.62607 27.2775 7.55 27.2606 7.48029 27.2279C7.41058 27.1953 7.34893 27.1478 7.2998 27.0888C7.25062 27.0297 7.21516 26.9606 7.19588 26.8864C7.1766 26.8121 7.17399 26.7345 7.18827 26.6592L8.22138 21.191C8.24056 21.0877 8.29095 20.9926 8.36577 20.9185L21.017 8.32197C21.0916 8.2476 21.1871 8.19746 21.2909 8.17822L26.782 7.14967C26.8658 7.13392 26.9521 7.1388 27.0336 7.16387C27.1151 7.18895 27.1892 7.23341 27.2495 7.29343C27.3098 7.35344 27.3545 7.42722 27.3797 7.50837C27.4049 7.58947 27.4098 7.67551 27.3941 7.75895L26.3609 13.2269C26.3416 13.3302 26.2913 13.4253 26.2166 13.4996L13.5666 26.0959C13.4923 26.1704 13.3969 26.2206 13.2932 26.2397L7.80186 27.2685C7.7693 27.2745 7.7362 27.2776 7.7031 27.2775ZM26.8786 7.48085C26.867 7.481 26.8553 7.48205 26.8438 7.48409L21.3527 8.51284C21.3166 8.51947 21.2833 8.53692 21.2574 8.56279L8.60826 21.16C8.58237 21.1859 8.56484 21.2189 8.55793 21.2547L7.52501 26.7231C7.5193 26.752 7.5209 26.782 7.52972 26.8102C7.53848 26.8384 7.55416 26.864 7.57534 26.8847C7.59628 26.9056 7.62202 26.921 7.65031 26.9297C7.67856 26.9384 7.70856 26.9401 7.73765 26.9346L13.2292 25.9059C13.2652 25.8993 13.2982 25.8818 13.3239 25.8559L25.9739 13.2596C25.9998 13.2338 26.0173 13.2008 26.024 13.1649L27.0571 7.69674C27.0621 7.67062 27.0612 7.64375 27.0546 7.61798C27.0479 7.59226 27.0357 7.56823 27.0187 7.54775C27.0017 7.52721 26.9805 7.51066 26.9564 7.4992C26.9323 7.48778 26.9059 7.4817 26.8792 7.4815L26.8786 7.48085Z" fill="currentColor"/>
<path d="M26.878 27.2775C26.8454 27.2775 26.813 27.2745 26.781 27.2685L21.2898 26.2397C21.186 26.2207 21.0905 26.1705 21.016 26.096L8.36624 13.4996C8.29152 13.4254 8.24113 13.3303 8.2219 13.2269L7.18874 7.75897C7.17296 7.67553 7.17787 7.58949 7.20301 7.50834C7.2282 7.42719 7.27287 7.35341 7.33322 7.29335C7.39352 7.23333 7.46764 7.18882 7.54912 7.16379C7.63065 7.13877 7.71704 7.13393 7.80082 7.14969L13.2922 8.17823C13.3958 8.19758 13.4911 8.24772 13.5656 8.32199L26.2156 20.9183C26.2903 20.9927 26.3406 21.0878 26.36 21.1913L27.3931 26.6592C27.4073 26.7346 27.4047 26.8121 27.3854 26.8864C27.3661 26.9607 27.3306 27.0298 27.2814 27.0888C27.2322 27.1479 27.1706 27.1954 27.1009 27.228C27.0311 27.2606 26.9551 27.2775 26.878 27.2775ZM7.70292 7.48092C7.67627 7.48117 7.64998 7.4872 7.62589 7.49867C7.6018 7.51013 7.58057 7.52668 7.56364 7.54722C7.54671 7.56771 7.53449 7.59168 7.52783 7.61745C7.52122 7.64317 7.52032 7.67004 7.52528 7.69616L8.5582 13.1643C8.56506 13.2002 8.58264 13.2331 8.60853 13.259L21.2583 25.8553C21.2841 25.8812 21.3173 25.8987 21.3534 25.9053L26.8447 26.934C26.8738 26.9395 26.9039 26.9377 26.9322 26.929C26.9605 26.9203 26.9862 26.9048 27.0072 26.884C27.0281 26.8631 27.0437 26.8375 27.0524 26.8093C27.0611 26.7811 27.0629 26.7513 27.0574 26.7223L26.0243 21.2543C26.0176 21.2184 26.0001 21.1853 25.9741 21.1594L13.3242 8.56306C13.2984 8.53713 13.2653 8.51974 13.2293 8.51311L7.73797 7.48436C7.7264 7.48227 7.71469 7.48112 7.70292 7.48092Z" fill="currentColor"/>
<path d="M17.2902 31.2325C17.2051 31.2325 17.1211 31.2117 17.0458 31.1721C16.9705 31.1324 16.906 31.0751 16.858 31.005L13.705 26.4115C13.6452 26.3249 13.6134 26.2222 13.6138 26.1171V8.30314C13.6135 8.19806 13.6453 8.09538 13.705 8.00869L16.8576 3.41478C16.9056 3.34474 16.9701 3.28744 17.0454 3.24783C17.1207 3.20823 17.2046 3.18752 17.2898 3.1875C17.375 3.18756 17.4589 3.20829 17.5342 3.24789C17.6095 3.28749 17.674 3.34477 17.7221 3.41478L20.8744 8.00869C20.9339 8.09543 20.9657 8.19806 20.9656 8.30314V26.1171C20.9658 26.2222 20.934 26.3248 20.8744 26.4115L17.7231 31.0044C17.6751 31.0746 17.6106 31.1321 17.5351 31.1719C17.4597 31.2116 17.3756 31.2325 17.2902 31.2325ZM17.2902 3.52755C17.2605 3.52723 17.231 3.53429 17.2046 3.54807C17.1782 3.56185 17.1556 3.58194 17.139 3.60654L13.9864 8.20046C13.9658 8.23061 13.9548 8.26626 13.9549 8.30269V26.1166C13.9548 26.1532 13.9658 26.1889 13.9864 26.2191L17.139 30.8128C17.1556 30.8375 17.1781 30.8577 17.2046 30.8715C17.231 30.8853 17.2604 30.8924 17.2902 30.892C17.3201 30.8924 17.3495 30.8853 17.376 30.8715C17.4024 30.8577 17.4249 30.8375 17.4415 30.8128L20.593 26.2178C20.6138 26.1877 20.6249 26.1519 20.6248 26.1154V8.3014C20.6249 8.26491 20.6138 8.22922 20.593 8.19916L17.4407 3.60525C17.4241 3.58083 17.4016 3.56089 17.3754 3.54722C17.3491 3.53354 17.3198 3.52657 17.2902 3.52691V3.52755Z" fill="currentColor"/>
<path d="M20.9399 25.9996L17.2623 22.3374L13.5846 25.9996V20.8219H8.38525L12.0628 17.1599L8.38525 13.4981H13.5846V8.32031L17.2623 11.9823L20.9399 8.32031V13.4981H26.1388L22.4613 17.1604L26.1388 20.8219H20.9399V25.9996ZM17.5033 22.0965L20.5971 25.1772V20.8219H18.7833L17.5033 22.0965ZM13.9271 20.8219V25.1772L17.0211 22.0965L15.7412 20.8219H13.9271ZM16.2246 20.8219L17.2621 21.855L18.2995 20.8219H16.2246ZM20.9405 20.4815H25.3143L22.2203 17.4008L20.9405 18.6753V20.4815ZM19.1267 20.4815H20.5984V19.0158L19.1267 20.4815ZM15.8827 20.4815H18.643L20.5984 18.5342V15.7855L18.643 13.8382H15.8821L13.9265 15.7855V18.5344L15.8827 20.4815ZM13.9271 20.4815H15.399L13.9271 19.0158V20.4815ZM9.21154 20.4815H13.5852V18.6753L12.3053 17.4008L9.21154 20.4815ZM20.9405 16.1262V18.1937L21.978 17.1606L20.9405 16.1262ZM12.5471 17.1593L13.5846 18.1924V16.1249L12.5471 17.1593ZM20.9405 15.6437L22.2203 16.9185L25.3143 13.8376H20.9399L20.9405 15.6437ZM9.21154 13.8376L12.3046 16.9202L13.5846 15.6454V13.8382L9.21154 13.8376ZM19.1267 13.8376L20.5984 15.3032V13.8376H19.1267ZM13.9271 13.8376V15.3032L15.399 13.8376H13.9271ZM18.7846 13.497H20.5984V9.14244L17.5046 12.2232L18.7846 13.497ZM16.2246 13.497H18.3011L17.2636 12.464L16.2246 13.497ZM13.9271 13.497H15.7412L17.0211 12.2225L13.9271 9.14244V13.497Z" fill="currentColor"/>
<path d="M26.2355 20.8681H8.34595C8.24043 20.8683 8.13731 20.8365 8.05027 20.7771L3.43688 17.6378C3.36662 17.5899 3.30916 17.5257 3.26945 17.4507C3.22974 17.3757 3.20898 17.2922 3.20898 17.2074C3.20898 17.1226 3.22974 17.0391 3.26945 16.9641C3.30916 16.8891 3.36662 16.8249 3.43688 16.777L8.05027 13.6377C8.13736 13.5784 8.24048 13.5468 8.34595 13.5469H26.2355C26.341 13.5468 26.444 13.5785 26.5311 13.6377L31.1443 16.777C31.2146 16.8248 31.2721 16.889 31.3119 16.9641C31.3516 17.0391 31.3724 17.1226 31.3724 17.2074C31.3724 17.2922 31.3516 17.3757 31.3119 17.4508C31.2721 17.5257 31.2146 17.59 31.1443 17.6378L26.5311 20.7771C26.4441 20.8365 26.341 20.8683 26.2355 20.8681ZM8.34595 13.8865C8.30924 13.8865 8.27338 13.8976 8.24308 13.9181L3.62989 17.0574C3.60537 17.074 3.5853 17.0963 3.57143 17.1224C3.55756 17.1485 3.55031 17.1776 3.55031 17.2071C3.55031 17.2366 3.55756 17.2657 3.57143 17.2917C3.5853 17.3179 3.60537 17.3402 3.62989 17.3568L8.24308 20.496C8.27338 20.5167 8.30924 20.5277 8.34595 20.5276H26.2355C26.2721 20.5276 26.3079 20.5166 26.3381 20.496L30.9515 17.3568C30.9761 17.3402 30.9961 17.3179 31.01 17.2917C31.0239 17.2657 31.0311 17.2366 31.0311 17.2071C31.0311 17.1776 31.0239 17.1485 31.01 17.1224C30.9961 17.0963 30.9761 17.074 30.9515 17.0574L26.3381 13.9181C26.3079 13.8976 26.2721 13.8865 26.2355 13.8865H8.34595Z" fill="currentColor"/>
<path d="M18.7099 3.44821L21.2639 7.16639C21.2825 7.1935 21.3086 7.21464 21.339 7.22725C21.3695 7.23986 21.4029 7.2434 21.4353 7.23742L25.9093 6.41743C25.9323 6.4132 25.9542 6.40432 25.9736 6.39131C25.993 6.37825 26.0095 6.3614 26.0221 6.34176C26.0346 6.32212 26.0429 6.30009 26.0466 6.27706C26.0502 6.25403 26.049 6.23056 26.0431 6.20802L24.4562 0.127108C24.4497 0.101707 24.4372 0.0781709 24.42 0.0583597C24.4027 0.0385488 24.3811 0.023006 24.3567 0.0129482C24.3324 0.00289035 24.306 -0.00140589 24.2798 0.000403147C24.2535 0.00221218 24.228 0.010076 24.2053 0.0233717L18.7643 3.2063C18.7442 3.21806 18.7267 3.23382 18.7129 3.25261C18.6991 3.27138 18.6894 3.29279 18.6843 3.31547C18.6792 3.33816 18.6788 3.36165 18.6832 3.38448C18.6876 3.40732 18.6967 3.42901 18.7099 3.44821Z" fill="currentColor"/>
<path d="M28.1184 8.61398L27.2824 13.0519C27.2761 13.0843 27.2794 13.1179 27.2921 13.1485C27.3046 13.1791 27.3259 13.2054 27.3533 13.2241L31.1074 15.8001C31.1266 15.8133 31.1485 15.8225 31.1716 15.827C31.1946 15.8314 31.2183 15.8311 31.2412 15.8261C31.2641 15.821 31.2857 15.8113 31.3046 15.7975C31.3236 15.7837 31.3395 15.7662 31.3514 15.7461L34.5545 10.3166C34.5679 10.294 34.5758 10.2685 34.5776 10.2423C34.5795 10.216 34.5752 10.1898 34.5651 10.1654C34.555 10.1412 34.5393 10.1195 34.5195 10.1022C34.4995 10.085 34.4758 10.0725 34.4503 10.0659L28.3291 8.48209C28.3066 8.47621 28.2831 8.47501 28.26 8.47855C28.2369 8.48209 28.2149 8.49026 28.1951 8.50263C28.1754 8.51499 28.1584 8.53124 28.1452 8.55043C28.132 8.56957 28.1229 8.5912 28.1184 8.61398Z" fill="currentColor"/>
<path d="M8.75906 6.3516L13.0884 7.16062C13.12 7.16645 13.1525 7.16311 13.1822 7.1509C13.2118 7.13873 13.2373 7.11825 13.2555 7.09198L15.7685 3.46029C15.7816 3.44159 15.7906 3.4204 15.7951 3.39807C15.7995 3.37572 15.7992 3.35272 15.7943 3.33048C15.7893 3.30824 15.7798 3.28726 15.7664 3.26886C15.7529 3.25045 15.7358 3.23503 15.716 3.22355L10.419 0.124339C10.3968 0.1114 10.3721 0.103736 10.3465 0.101962C10.3209 0.100187 10.2953 0.104345 10.2716 0.114106C10.2479 0.123868 10.2268 0.138972 10.2099 0.158224C10.1931 0.177476 10.181 0.200353 10.1745 0.225061L8.62915 6.14672C8.62324 6.16871 8.62198 6.19164 8.62544 6.21412C8.6289 6.23665 8.63696 6.25818 8.64913 6.27742C8.66135 6.29666 8.67737 6.31316 8.6963 6.32592C8.71524 6.33868 8.73657 6.34746 8.75906 6.3516Z" fill="currentColor"/>
<path d="M3.47059 15.8087L7.21318 13.2594C7.24043 13.2409 7.26166 13.2149 7.27433 13.1845C7.287 13.1542 7.29051 13.1208 7.2845 13.0885L6.45912 8.62353C6.45486 8.60055 6.4459 8.57872 6.43283 8.55933C6.4197 8.53999 6.40278 8.52349 6.383 8.51098C6.36321 8.49841 6.34103 8.49009 6.31789 8.48645C6.2947 8.48281 6.27106 8.48396 6.24838 8.48989L0.127633 10.0737C0.102107 10.0803 0.0784716 10.0928 0.058581 10.11C0.0386904 10.1273 0.0230831 10.1489 0.0129899 10.1732C0.00289662 10.1974 -0.00141066 10.2237 0.000404852 10.2499C0.00222037 10.2761 0.0101098 10.3015 0.0234543 10.3242L3.22701 15.7545C3.23889 15.7746 3.25478 15.792 3.2737 15.8057C3.29262 15.8194 3.31416 15.8291 3.33699 15.8342C3.35983 15.8393 3.38347 15.8397 3.40644 15.8353C3.42943 15.8309 3.45126 15.8219 3.47059 15.8087Z" fill="currentColor"/>
<path d="M6.46265 25.8085L7.29865 21.3709C7.30491 21.3384 7.30156 21.3048 7.28899 21.2743C7.27637 21.2437 7.25513 21.2174 7.22779 21.1986L3.47371 18.6237C3.4544 18.6105 3.43256 18.6014 3.40954 18.5969C3.38653 18.5924 3.36284 18.5927 3.33995 18.5978C3.31705 18.6028 3.29545 18.6125 3.27648 18.6262C3.25751 18.6399 3.24158 18.6574 3.22969 18.6776L0.0263546 24.1072C0.0130118 24.1299 0.0051305 24.1553 0.0033282 24.1815C0.0015259 24.2077 0.00585372 24.234 0.0159693 24.2583C0.0260849 24.2826 0.0417141 24.3042 0.0616294 24.3214C0.081545 24.3387 0.105203 24.3511 0.130748 24.3577L6.25191 25.9418C6.27455 25.9476 6.29819 25.9487 6.32133 25.9451C6.34446 25.9415 6.3666 25.9332 6.38633 25.9207C6.40611 25.9082 6.42309 25.8918 6.43621 25.8725C6.44933 25.8532 6.45835 25.8314 6.46265 25.8085Z" fill="currentColor"/>
<path d="M15.8726 30.9717L13.3186 27.2535C13.2999 27.2264 13.2738 27.2053 13.2434 27.1927C13.213 27.1801 13.1795 27.1765 13.1471 27.1825L8.67317 28.0025C8.65013 28.0067 8.62824 28.0156 8.60886 28.0286C8.58943 28.0416 8.57295 28.0584 8.56038 28.0781C8.54781 28.0978 8.5394 28.1198 8.53574 28.1428C8.53214 28.1658 8.53329 28.1893 8.53915 28.2119L10.1262 34.293C10.1328 34.3184 10.1452 34.3419 10.1625 34.3617C10.1798 34.3815 10.2015 34.397 10.2258 34.407C10.2501 34.4171 10.2765 34.4213 10.3027 34.4195C10.329 34.4177 10.3545 34.4098 10.3772 34.3965L15.8181 31.2136C15.8383 31.2018 15.8558 31.1861 15.8695 31.1673C15.8833 31.1485 15.8931 31.1271 15.8982 31.1044C15.9033 31.0817 15.9036 31.0582 15.8992 31.0354C15.8949 31.0126 15.8858 30.9909 15.8726 30.9717Z" fill="currentColor"/>
<path d="M25.9165 27.9988L21.4689 27.167C21.4365 27.1609 21.403 27.1644 21.3726 27.1769C21.3421 27.1894 21.3159 27.2105 21.2973 27.2375L18.7155 30.9684C18.7023 30.9876 18.6932 31.0093 18.6887 31.0322C18.6842 31.055 18.6845 31.0786 18.6896 31.1013C18.6947 31.124 18.7044 31.1455 18.7181 31.1643C18.7319 31.1831 18.7494 31.199 18.7696 31.2108L24.2114 34.3941C24.2341 34.4074 24.2596 34.4153 24.2859 34.4171C24.3122 34.4189 24.3386 34.4146 24.3629 34.4046C24.3872 34.3946 24.4089 34.3791 24.4262 34.3593C24.4435 34.3395 24.4559 34.316 24.4626 34.2906L26.0501 28.2073C26.0558 28.1848 26.0568 28.1615 26.0531 28.1386C26.0494 28.1157 26.0411 28.0938 26.0285 28.0743C26.0161 28.0548 25.9996 28.038 25.9804 28.025C25.9611 28.012 25.9394 28.0031 25.9165 27.9988Z" fill="currentColor"/>
<path d="M31.1104 18.6153L27.3678 21.1644C27.3404 21.1831 27.319 21.2093 27.3063 21.2399C27.2937 21.2705 27.2903 21.3041 27.2965 21.3366L28.1219 25.8014C28.1261 25.8244 28.1351 25.8462 28.1481 25.8655C28.1613 25.8849 28.1782 25.9014 28.198 25.9139C28.2178 25.9265 28.2399 25.9348 28.2631 25.9385C28.2863 25.9421 28.31 25.9409 28.3326 25.935L34.4531 24.3512C34.4787 24.3446 34.5023 24.3322 34.5223 24.3149C34.5422 24.2977 34.5578 24.2761 34.5679 24.2518C34.578 24.2275 34.5824 24.2012 34.5806 24.175C34.5788 24.1488 34.5709 24.1234 34.5575 24.1007L31.354 18.6706C31.3422 18.6505 31.3264 18.6329 31.3075 18.619C31.2887 18.6052 31.2671 18.5954 31.2443 18.5902C31.2214 18.585 31.1978 18.5846 31.1747 18.5889C31.1517 18.5932 31.1298 18.6022 31.1104 18.6153Z" fill="currentColor"/>
<path d="M19.8648 8.03135L17.5089 4.59788C17.4845 4.56285 17.4519 4.53423 17.414 4.51446C17.3761 4.4947 17.3339 4.48438 17.2911 4.48438C17.2482 4.48438 17.2061 4.4947 17.1681 4.51446C17.1302 4.53423 17.0976 4.56285 17.0732 4.59788L14.7173 8.03135C14.4761 8.34364 14.7627 8.62877 14.9252 8.79062L15.9728 9.83382C15.9856 9.84648 16.0011 9.85605 16.0181 9.86179C16.0352 9.86757 16.0533 9.86931 16.0711 9.86697C16.089 9.86463 16.1061 9.8582 16.121 9.84823C16.136 9.83826 16.1484 9.825 16.1574 9.8095L17.1895 8.0296C17.1998 8.01185 17.2146 7.99715 17.2324 7.98688C17.2503 7.97666 17.2705 7.97128 17.2911 7.97128C17.3116 7.97128 17.3319 7.97666 17.3497 7.98688C17.3675 7.99715 17.3824 8.01185 17.3926 8.0296L18.4247 9.8095C18.4337 9.825 18.4461 9.83826 18.4611 9.84823C18.4761 9.8582 18.4931 9.86463 18.511 9.86697C18.5288 9.86931 18.5469 9.86757 18.564 9.86179C18.581 9.85605 18.5965 9.84648 18.6093 9.83382L19.6569 8.79062C19.8196 8.62877 20.0878 8.38601 19.8648 8.03135Z" fill="currentColor"/>
<path d="M8.95299 21.8905L8.18049 25.9767C8.17288 26.0187 8.17559 26.0619 8.18836 26.1025C8.20113 26.1433 8.22361 26.1803 8.25391 26.2104C8.28416 26.2406 8.32132 26.263 8.36219 26.2758C8.403 26.2885 8.44637 26.2912 8.48849 26.2836L12.5929 25.5151C12.9852 25.4641 12.985 25.0607 12.985 24.8317V23.3564C12.985 23.3385 12.9809 23.3208 12.9729 23.3047C12.965 23.2887 12.9534 23.2746 12.9392 23.2637C12.9249 23.2528 12.9083 23.2453 12.8906 23.2419C12.873 23.2384 12.8547 23.239 12.8374 23.2437L10.8437 23.7757C10.8239 23.781 10.8029 23.781 10.783 23.7757C10.7631 23.7703 10.7449 23.7599 10.7304 23.7454C10.7158 23.7309 10.7054 23.7128 10.7 23.693C10.6947 23.6732 10.6947 23.6524 10.7 23.6326L11.2341 21.6471C11.2388 21.6298 11.2394 21.6117 11.2359 21.5941C11.2324 21.5765 11.2249 21.56 11.2139 21.5458C11.203 21.5316 11.1888 21.52 11.1727 21.5121C11.1566 21.5042 11.1388 21.5001 11.1208 21.5001H9.6392C9.41033 21.5001 9.04789 21.4831 8.95299 21.8905Z" fill="currentColor"/>
<path d="M21.9895 25.515L26.093 26.2844C26.1351 26.292 26.1785 26.2892 26.2193 26.2765C26.2602 26.2638 26.2973 26.2413 26.3276 26.2112C26.3579 26.181 26.3803 26.144 26.3931 26.1033C26.4059 26.0626 26.4086 26.0194 26.401 25.9775L25.6294 21.8904C25.5781 21.4998 25.1731 21.5 24.9431 21.5H23.4615C23.4435 21.5 23.4258 21.5041 23.4096 21.512C23.3935 21.5199 23.3794 21.5314 23.3684 21.5457C23.3575 21.5599 23.3499 21.5764 23.3465 21.594C23.343 21.6116 23.3436 21.6297 23.3482 21.647L23.8824 23.6322C23.8877 23.652 23.8878 23.6729 23.8825 23.6928C23.8772 23.7126 23.8667 23.7307 23.8521 23.7452C23.8375 23.7598 23.8194 23.7702 23.7994 23.7755C23.7795 23.7808 23.7585 23.7807 23.7386 23.7753L21.745 23.2435C21.7276 23.2389 21.7094 23.2382 21.6917 23.2417C21.6741 23.2452 21.6575 23.2527 21.6432 23.2636C21.6289 23.2745 21.6174 23.2885 21.6094 23.3046C21.6015 23.3207 21.5973 23.3384 21.5974 23.3563V24.8316C21.5969 25.0606 21.5798 25.4207 21.9895 25.515Z" fill="currentColor"/>
<path d="M25.6289 12.53L26.4014 8.44374C26.409 8.40177 26.4063 8.35865 26.3936 8.31793C26.3808 8.27725 26.3583 8.24026 26.328 8.21011C26.2978 8.17995 26.2606 8.15757 26.2197 8.14486C26.1789 8.1321 26.1355 8.12945 26.0934 8.13703L21.989 8.90538C21.5967 8.95642 21.5967 9.35973 21.5967 9.58873V11.0641C21.5967 11.082 21.6009 11.0997 21.6088 11.1158C21.6168 11.1319 21.6284 11.1459 21.6427 11.1568C21.657 11.1677 21.6736 11.1752 21.6913 11.1787C21.7089 11.1821 21.7271 11.1815 21.7445 11.1769L23.7382 10.645C23.7581 10.6397 23.779 10.6397 23.7989 10.645C23.8188 10.6503 23.8369 10.6608 23.8515 10.6753C23.8661 10.6898 23.8766 10.7079 23.8819 10.7277C23.8872 10.7475 23.8872 10.7684 23.8819 10.7882L23.3476 12.7734C23.343 12.7907 23.3424 12.8088 23.3459 12.8264C23.3495 12.844 23.357 12.8605 23.3679 12.8747C23.379 12.8889 23.393 12.9004 23.4092 12.9084C23.4253 12.9163 23.4431 12.9204 23.4611 12.9204H24.9427C25.1726 12.9215 25.5343 12.9389 25.6289 12.53Z" fill="currentColor"/>
<path d="M8.07322 14.6468L4.62521 16.9927C4.59004 17.017 4.5613 17.0494 4.54145 17.0872C4.5216 17.125 4.51123 17.167 4.51123 17.2096C4.51123 17.2523 4.5216 17.2943 4.54145 17.3321C4.5613 17.3698 4.59004 17.4023 4.62521 17.4266L8.07322 19.7725C8.38663 20.0127 8.67299 19.7276 8.83575 19.5655L9.88334 18.5223C9.89606 18.5096 9.90568 18.4942 9.91144 18.4772C9.9172 18.4603 9.919 18.4422 9.91665 18.4244C9.91429 18.4066 9.90783 18.3897 9.89782 18.3748C9.88785 18.3599 9.87453 18.3475 9.8589 18.3385L8.07147 17.3108C8.05369 17.3006 8.03887 17.2858 8.0286 17.2681C8.01834 17.2503 8.01288 17.2302 8.01288 17.2096C8.01288 17.1892 8.01834 17.169 8.0286 17.1513C8.03887 17.1335 8.05369 17.1188 8.07147 17.1085L9.8589 16.0808C9.87453 16.0719 9.88785 16.0595 9.89782 16.0446C9.90783 16.0297 9.91429 16.0127 9.91665 15.9949C9.919 15.9772 9.9172 15.9591 9.91144 15.9421C9.90568 15.9251 9.89606 15.9097 9.88334 15.897L8.83575 14.8545C8.67299 14.692 8.4294 14.4253 8.07322 14.6468Z" fill="currentColor"/>
<path d="M14.7175 26.3916L17.0734 29.8248C17.0978 29.8598 17.1304 29.8885 17.1683 29.9083C17.2062 29.9281 17.2484 29.9384 17.2913 29.9384C17.3341 29.9384 17.3763 29.9281 17.4143 29.9083C17.4522 29.8885 17.4847 29.8598 17.5091 29.8248L19.865 26.3916C20.1062 26.0793 19.8196 25.7941 19.6571 25.6322L18.6095 24.5888C18.5967 24.5762 18.5812 24.5666 18.5642 24.5609C18.5471 24.5551 18.529 24.5534 18.5112 24.5557C18.4934 24.558 18.4763 24.5645 18.4613 24.5744C18.4463 24.5844 18.4339 24.5977 18.4249 24.6132L17.3928 26.3931C17.3826 26.4108 17.3677 26.4255 17.3499 26.4358C17.3321 26.446 17.3118 26.4514 17.2913 26.4514C17.2707 26.4514 17.2504 26.446 17.2326 26.4358C17.2148 26.4255 17.2 26.4108 17.1897 26.3931L16.1576 24.6132C16.1487 24.5977 16.1362 24.5844 16.1212 24.5744C16.1063 24.5645 16.0892 24.558 16.0713 24.5557C16.0535 24.5534 16.0354 24.5551 16.0183 24.5609C16.0013 24.5666 15.9858 24.5762 15.973 24.5888L14.9254 25.6322C14.7627 25.7941 14.4951 26.0367 14.7175 26.3916Z" fill="currentColor"/>
<path d="M26.509 19.7728L29.957 17.4269C29.9921 17.4026 30.0209 17.3702 30.0408 17.3324C30.0606 17.2946 30.071 17.2526 30.071 17.21C30.071 17.1673 30.0606 17.1253 30.0408 17.0876C30.0209 17.0498 29.9921 17.0173 29.957 16.9931L26.509 14.6471C26.1956 14.4069 25.9092 14.6923 25.7464 14.8542L24.6989 15.8973C24.6861 15.91 24.6765 15.9254 24.6708 15.9424C24.665 15.9594 24.6632 15.9775 24.6656 15.9952C24.6679 16.013 24.6744 16.03 24.6844 16.0449C24.6944 16.0598 24.7077 16.0722 24.7233 16.0811L26.5107 17.1088C26.5286 17.1191 26.5434 17.1338 26.5538 17.1516C26.5641 17.1694 26.5695 17.1895 26.5695 17.2101C26.5695 17.2306 26.5641 17.2508 26.5538 17.2686C26.5434 17.2864 26.5286 17.3011 26.5107 17.3113L24.7233 18.3388C24.7077 18.3477 24.6944 18.3602 24.6844 18.3751C24.6744 18.39 24.6679 18.407 24.6656 18.4247C24.6632 18.4425 24.665 18.4606 24.6708 18.4776C24.6765 18.4945 24.6861 18.51 24.6989 18.5226L25.7464 19.5658C25.9092 19.7279 26.1528 19.9943 26.509 19.7728Z" fill="currentColor"/>
<path d="M12.6479 8.92204L8.54432 8.1526C8.5022 8.14508 8.45883 8.14777 8.41796 8.16053C8.3771 8.17329 8.33994 8.19567 8.30969 8.22583C8.27939 8.25599 8.2569 8.29297 8.24408 8.3337C8.23126 8.37437 8.22856 8.41754 8.23612 8.45951L9.00796 12.5466C9.05915 12.937 9.4642 12.937 9.69417 12.937H11.1758C11.1937 12.937 11.2115 12.9329 11.2276 12.9249C11.2437 12.917 11.2578 12.9055 11.2688 12.8913C11.2797 12.8771 11.2872 12.8606 11.2907 12.843C11.2943 12.8254 11.2937 12.8073 11.289 12.79L10.7547 10.8046C10.7494 10.7848 10.7494 10.7639 10.7547 10.7441C10.7601 10.7243 10.7706 10.7062 10.7851 10.6917C10.7997 10.6772 10.8178 10.6668 10.8377 10.6615C10.8576 10.6561 10.8786 10.6561 10.8985 10.6615L12.8923 11.1935C12.9097 11.1982 12.9279 11.1988 12.9456 11.1953C12.9632 11.1918 12.9798 11.1843 12.9941 11.1734C13.0084 11.1625 13.0199 11.1485 13.0279 11.1324C13.0359 11.1163 13.04 11.0986 13.04 11.0807V9.60535C13.04 9.37635 13.057 9.01631 12.6479 8.92204Z" fill="currentColor"/>
<path d="M15.7879 12.3604L15.5392 12.6081C15.4501 12.6968 15.3295 12.7466 15.2035 12.7467H14.8489C14.7728 12.7467 14.6998 12.7165 14.646 12.6629C14.5923 12.6093 14.562 12.5367 14.562 12.4609V11C14.5621 10.9783 14.5685 10.9572 14.5806 10.9393C14.5927 10.9213 14.6098 10.9073 14.6299 10.899C14.65 10.8907 14.672 10.8885 14.6934 10.8927C14.7147 10.8969 14.7342 10.9073 14.7497 10.9225L15.7871 11.9556C15.8139 11.9821 15.8353 12.0135 15.8499 12.0482C15.8645 12.083 15.872 12.1202 15.8721 12.1578C15.8722 12.1955 15.8648 12.2327 15.8503 12.2675C15.8359 12.3022 15.8147 12.3338 15.7879 12.3604Z" fill="currentColor"/>
<path d="M19.663 12.7244H19.3109C19.1851 12.7242 19.0645 12.6745 18.9755 12.586L18.7248 12.3363C18.6981 12.3098 18.6769 12.2783 18.6625 12.2436C18.648 12.2089 18.6406 12.1718 18.6406 12.1342C18.6406 12.0967 18.648 12.0595 18.6625 12.0248C18.6769 11.9901 18.6981 11.9587 18.7248 11.9321L19.7622 10.8991C19.7776 10.8838 19.7972 10.8735 19.8185 10.8693C19.8398 10.8651 19.8619 10.8672 19.8819 10.8756C19.902 10.8838 19.9192 10.8978 19.9313 10.9158C19.9433 10.9338 19.9498 10.9549 19.9498 10.9765V12.4386C19.9498 12.4761 19.9425 12.5132 19.928 12.5479C19.9136 12.5826 19.8925 12.6141 19.8659 12.6406C19.8393 12.6672 19.8076 12.6882 19.7728 12.7026C19.738 12.717 19.7007 12.7244 19.663 12.7244Z" fill="currentColor"/>
<path d="M22.1451 15.7129L21.8963 15.4652C21.8074 15.3765 21.7574 15.2563 21.7573 15.1309V14.7778C21.7573 14.702 21.7876 14.6294 21.8414 14.5758C21.8951 14.5222 21.9681 14.4922 22.0441 14.4922H23.5115C23.5332 14.4921 23.5545 14.4985 23.5726 14.5106C23.5907 14.5226 23.6048 14.5397 23.6131 14.5597C23.6214 14.5797 23.6235 14.6018 23.6193 14.623C23.615 14.6442 23.6045 14.6637 23.5891 14.679L22.5517 15.712C22.525 15.7387 22.4934 15.7599 22.4585 15.7744C22.4237 15.7889 22.3863 15.7963 22.3485 15.7964C22.3108 15.7965 22.2734 15.7892 22.2385 15.7749C22.2035 15.7605 22.1718 15.7395 22.1451 15.7129Z" fill="currentColor"/>
<path d="M21.7808 19.5728V19.2222C21.7809 19.0968 21.8308 18.9766 21.9197 18.8879L22.1705 18.6383C22.2243 18.5847 22.2972 18.5547 22.3733 18.5547C22.4494 18.5547 22.5224 18.5847 22.5761 18.6383L23.6136 19.6714C23.629 19.6866 23.6396 19.7062 23.6438 19.7274C23.6481 19.7487 23.6459 19.7707 23.6376 19.7907C23.6292 19.8107 23.6151 19.8278 23.597 19.8398C23.5789 19.8519 23.5576 19.8582 23.5358 19.8581H22.0676C21.9916 19.8581 21.9186 19.8281 21.8648 19.7746C21.8111 19.7211 21.7808 19.6485 21.7808 19.5728Z" fill="currentColor"/>
<path d="M18.7827 22.0424L19.0317 21.7946C19.0757 21.7508 19.1281 21.7159 19.1857 21.6922C19.2433 21.6684 19.305 21.6562 19.3673 21.6563H19.7218C19.7979 21.6563 19.8708 21.6864 19.9246 21.7399C19.9784 21.7935 20.0086 21.8661 20.0086 21.9418V23.4028C20.0086 23.4244 20.0023 23.4457 19.9902 23.4637C19.9781 23.4818 19.961 23.4958 19.9409 23.5041C19.9208 23.5124 19.8986 23.5146 19.8773 23.5103C19.856 23.5061 19.8364 23.4956 19.821 23.4803L18.7836 22.4472C18.7567 22.4207 18.7354 22.3892 18.7209 22.3545C18.7063 22.3198 18.6988 22.2826 18.6987 22.2449C18.6986 22.2074 18.706 22.1701 18.7204 22.1353C18.7348 22.1005 18.756 22.069 18.7827 22.0424Z" fill="currentColor"/>
<path d="M14.9081 21.6797H15.26C15.3859 21.6798 15.5066 21.7297 15.5957 21.8183L15.8464 22.0679C15.9001 22.1216 15.9303 22.1942 15.9303 22.27C15.9303 22.3457 15.9001 22.4184 15.8464 22.472L14.8089 23.505C14.7935 23.5203 14.7739 23.5308 14.7526 23.535C14.7312 23.5392 14.7091 23.537 14.689 23.5288C14.6689 23.5205 14.6517 23.5064 14.6396 23.4884C14.6276 23.4704 14.6211 23.4492 14.6211 23.4275V21.9655C14.6211 21.8897 14.6514 21.8171 14.7052 21.7635C14.759 21.7099 14.832 21.6798 14.9081 21.6797Z" fill="currentColor"/>
<path d="M12.4252 18.693L12.6742 18.9409C12.7631 19.0296 12.8131 19.1497 12.8132 19.2749V19.6282C12.8132 19.7039 12.7829 19.7765 12.7291 19.8301C12.6752 19.8837 12.6023 19.9137 12.5261 19.9137H11.059C11.0373 19.9137 11.0161 19.9072 10.998 19.8952C10.98 19.8832 10.9659 19.8661 10.9576 19.8461C10.9493 19.8262 10.9471 19.8042 10.9513 19.783C10.9555 19.7617 10.9659 19.7423 10.9812 19.7269L12.0187 18.6939C12.0453 18.6671 12.0769 18.646 12.1118 18.6315C12.1466 18.617 12.184 18.6095 12.2217 18.6094C12.2596 18.6093 12.297 18.6167 12.3319 18.631C12.3668 18.6454 12.3985 18.6664 12.4252 18.693Z" fill="currentColor"/>
<path d="M12.7904 14.8326V15.1831C12.7903 15.3084 12.7403 15.4286 12.6514 15.5173L12.4007 15.7669C12.3468 15.8205 12.2739 15.8505 12.1978 15.8505C12.1217 15.8505 12.0488 15.8205 11.995 15.7669L10.9575 14.7339C10.9421 14.7185 10.9317 14.6991 10.9274 14.6778C10.9232 14.6565 10.9254 14.6345 10.9337 14.6145C10.942 14.5944 10.9561 14.5773 10.9742 14.5653C10.9923 14.5533 11.0135 14.5468 11.0353 14.5469H12.5038C12.5798 14.547 12.6527 14.5771 12.7064 14.6307C12.7602 14.6843 12.7904 14.7569 12.7904 14.8326Z" fill="currentColor"/>
<path d="M16.2987 18.7246H18.2826V18.2017H18.8078V16.2261H18.2826V15.7031H16.2987V16.2261H15.7734V18.2017H16.2987V18.7246Z" fill="currentColor"/>
<path d="M57.362 15.8792L56.6328 14.1565H53.3084L52.5792 15.8792H50.8364L54.3837 7.67188H55.6442L59.0922 15.8792H57.362ZM53.8147 12.8522H56.163L54.9891 9.89905L53.8147 12.8522Z" fill="currentColor"/>
<path d="M64.0822 9.05H62.2282V15.8792H60.6216V9.05H58.7676V7.67188H64.0822V9.05Z" fill="currentColor"/>
<path d="M65.1001 7.67188H66.7067V12.8276C66.7067 13.3444 66.8384 13.7504 67.1023 14.0457C67.4153 14.4231 67.852 14.6118 68.4124 14.6118C68.9728 14.6118 69.4095 14.4231 69.7225 14.0457C69.986 13.7504 70.1177 13.3444 70.1177 12.8276V7.67188H71.7248V12.6922C71.7248 13.6274 71.5184 14.3575 71.1068 14.8825C70.8183 15.2598 70.4312 15.551 69.9449 15.7562C69.4671 15.9612 68.9563 16.0638 68.4124 16.0638C67.8686 16.0638 67.3537 15.9612 66.8674 15.7562C66.3897 15.551 66.0066 15.2598 65.7181 14.8825C65.3059 14.3575 65.1001 13.6274 65.1001 12.6922V7.67188Z" fill="currentColor"/>
<path d="M73.4365 7.67188H75.8214C76.7278 7.67188 77.4285 7.87695 77.9228 8.28714C78.4666 8.74648 78.7386 9.36175 78.7386 10.1328C78.7386 10.986 78.4171 11.6299 77.7745 12.0647C77.5271 12.237 77.2266 12.3559 76.8721 12.4215L79.4427 15.8792H77.4405L75.2409 12.5815H75.0431V15.8792H73.4365V7.67188ZM75.0431 8.97618V11.4494H75.5004C75.6321 11.4494 75.7598 11.4413 75.8835 11.4248C76.0152 11.4003 76.184 11.3551 76.3903 11.2895C76.5961 11.2157 76.7609 11.0885 76.8846 10.9081C77.0163 10.7194 77.0824 10.4856 77.0824 10.2067C77.0824 9.92776 77.0203 9.69807 76.8966 9.51762C76.7734 9.32895 76.6086 9.20179 76.4023 9.13614C76.1965 9.06231 76.0317 9.0172 75.908 9.0008C75.7843 8.9844 75.6566 8.97618 75.5249 8.97618H75.0431Z" fill="currentColor"/>
<path d="M86.1447 15.8792L85.4155 14.1565H82.0911L81.3619 15.8792H79.6191L83.1664 7.67188H84.4269L87.8749 15.8792H86.1447ZM82.5979 12.8522H84.9462L83.7718 9.89905L82.5979 12.8522Z" fill="currentColor"/>
<path d="M88.8374 7.67188H90.4445V14.501H92.9901V15.8792H88.8374V7.67188Z" fill="currentColor"/>
<path d="M44.6546 15.8791H43.0479V7.67188H44.1602L48.2617 13.1475V7.67188H49.8683V15.8791H48.7561L44.6546 10.3912V15.8791Z" fill="currentColor"/>
<path d="M58.0146 18.4766V19.8857H54.4985V21.7603H57.8874V23.1695H54.4985V25.4593H58.0146V26.8684H52.8418V18.4766H58.0146Z" fill="currentColor"/>
<path d="M66.8592 26.8684L66.1075 25.107H62.68L61.9282 26.8684H60.1313L63.7882 18.4766H65.0878L68.6431 26.8684H66.8592ZM63.2023 23.7734H65.6232L64.4128 20.7538L63.2023 23.7734Z" fill="currentColor"/>
<path d="M71.0889 18.4766H72.7455V25.4593H75.8285V26.8684H71.0889V18.4766Z" fill="currentColor"/>
<path d="M83.7049 19.8857H81.3351V26.8684H79.6789V19.8857H77.3091V18.4766H83.7049V19.8857Z" fill="currentColor"/>
<path d="M87.6936 18.4766V21.7226H91.4026V18.4766H92.9897V26.8684H91.4026V23.1317H87.6936V26.8684H86.1406V18.4766H87.6936Z" fill="currentColor"/>
<path d="M44.601 18.3828V21.6288H48.3095V18.3828H49.897V26.7746H48.3095V23.0379H44.601V26.7746H43.0479V18.3828H44.601Z" fill="currentColor"/>
<path d="M45.0492 29.8424L44.9264 30.095C44.8287 29.9977 44.8452 30.0053 44.7303 29.9518C44.591 29.8886 44.4505 29.857 44.3087 29.857C44.0277 29.857 43.7932 29.9555 43.605 30.1525C43.4193 30.3471 43.3264 30.5866 43.3264 30.8712C43.3264 31.1777 43.4278 31.4197 43.6306 31.5972C43.8359 31.7748 44.0631 31.8636 44.3124 31.8636C44.4688 31.8636 44.6203 31.8258 44.7669 31.7505C44.8696 31.6994 44.9636 31.6313 45.0492 31.5461V31.8818C44.8268 32.0399 44.5812 32.1189 44.3124 32.1189C43.9508 32.1189 43.649 31.9986 43.407 31.7578C43.1675 31.517 43.0479 31.2202 43.0479 30.8676C43.0479 30.5051 43.1688 30.2036 43.4107 29.9628C43.6551 29.722 43.9605 29.6016 44.3271 29.6016C44.5959 29.6016 44.8366 29.6819 45.0492 29.8424Z" fill="currentColor"/>
<path d="M50.2482 31.7578C50.004 31.9986 49.7034 32.1189 49.3466 32.1189C48.9898 32.1189 48.688 31.9986 48.4412 31.7578C48.1969 31.517 48.0747 31.2178 48.0747 30.8603C48.0747 30.5003 48.1981 30.2011 48.4449 29.9628C48.6917 29.722 48.9923 29.6016 49.3466 29.6016C49.7009 29.6016 50.0015 29.722 50.2482 29.9628C50.4951 30.2011 50.6183 30.5003 50.6183 30.8603C50.6183 31.2178 50.4951 31.517 50.2482 31.7578ZM50.0504 30.1488C49.8573 29.9542 49.6227 29.857 49.3466 29.857C49.0705 29.857 48.8359 29.9542 48.6429 30.1488C48.4498 30.3434 48.3533 30.5806 48.3533 30.8603C48.3533 31.14 48.4498 31.3771 48.6429 31.5717C48.8359 31.7663 49.0705 31.8636 49.3466 31.8636C49.6227 31.8636 49.8573 31.7663 50.0504 31.5717C50.2432 31.3771 50.3398 31.14 50.3398 30.8603C50.3398 30.5806 50.2432 30.3434 50.0504 30.1488Z" fill="currentColor"/>
<path d="M53.7749 29.6406H54.167C54.431 29.6406 54.6288 29.6856 54.761 29.7756C54.9393 29.8948 55.0284 30.0748 55.0284 30.3156C55.0284 30.5029 54.9708 30.6586 54.8561 30.7826C54.744 30.9066 54.5957 30.9747 54.4124 30.9869L55.1897 32.0741H54.8596L54.1159 31.0088H54.0458V32.0741H53.7749V29.6406ZM54.0458 29.896V30.768H54.2181C54.3869 30.768 54.5191 30.7291 54.6143 30.6512C54.7094 30.5734 54.757 30.464 54.757 30.3229C54.757 30.1575 54.6924 30.0383 54.5627 29.9653C54.48 29.9191 54.3623 29.896 54.2111 29.896H54.0458Z" fill="currentColor"/>
<path d="M58.272 29.6406H58.7157C58.9941 29.6406 59.1995 29.6978 59.3312 29.8121C59.4804 29.9386 59.555 30.1125 59.555 30.3338C59.555 30.5236 59.4899 30.6853 59.3607 30.8191C59.2335 30.9504 59.0407 31.0161 58.7813 31.0161H58.5434V32.0741H58.272V29.6406ZM58.5434 29.896V30.7607H58.7668C58.928 30.7607 59.0537 30.7218 59.1444 30.6439C59.237 30.5661 59.2836 30.4579 59.2836 30.3192C59.2836 30.0371 59.1038 29.896 58.7447 29.896H58.5434Z" fill="currentColor"/>
<path d="M64.6427 31.7578C64.3983 31.9986 64.0979 32.1189 63.7413 32.1189C63.3842 32.1189 63.0827 31.9986 62.8358 31.7578C62.5914 31.517 62.4692 31.2178 62.4692 30.8603C62.4692 30.5003 62.5924 30.2011 62.8393 29.9628C63.0862 29.722 63.3867 29.6016 63.7413 29.6016C64.0954 29.6016 64.3958 29.722 64.6427 29.9628C64.8896 30.2011 65.0128 30.5003 65.0128 30.8603C65.0128 31.2178 64.8896 31.517 64.6427 31.7578ZM64.4449 30.1488C64.2516 29.9542 64.0172 29.857 63.7413 29.857C63.4648 29.857 63.2305 29.9542 63.0372 30.1488C62.8443 30.3434 62.7477 30.5806 62.7477 30.8603C62.7477 31.14 62.8443 31.3771 63.0372 31.5717C63.2305 31.7663 63.4648 31.8636 63.7413 31.8636C64.0172 31.8636 64.2516 31.7663 64.4449 31.5717C64.6377 31.3771 64.7344 31.14 64.7344 30.8603C64.7344 30.5806 64.6377 30.3434 64.4449 30.1488Z" fill="currentColor"/>
<path d="M68.1689 29.6406H68.5611C68.825 29.6406 69.0228 29.6856 69.1545 29.7756C69.3333 29.8948 69.4225 30.0748 69.4225 30.3156C69.4225 30.5029 69.3649 30.6586 69.2502 30.7826C69.1375 30.9066 68.9898 30.9747 68.8065 30.9869L69.5837 32.0741H69.2537L68.5095 31.0088H68.4399V32.0741H68.1689V29.6406ZM68.4399 29.896V30.768H68.6122C68.7809 30.768 68.9126 30.7291 69.0083 30.6512C69.1035 30.5734 69.151 30.464 69.151 30.3229C69.151 30.1575 69.0864 30.0383 68.9567 29.9653C68.8736 29.9191 68.7564 29.896 68.6052 29.896H68.4399Z" fill="currentColor"/>
<path d="M74.301 32.0768L74.015 31.3909H72.9743L72.6809 32.0768H72.3804L73.4551 29.6406H73.5052H73.5548L74.6014 32.0768H74.301ZM73.0805 31.1355H73.9088L73.4982 30.1614L73.0805 31.1355Z" fill="currentColor"/>
<path d="M78.6337 29.896H78.0402V32.0741H77.7688V29.896H77.1748V29.6406H78.6337V29.896Z" fill="currentColor"/>
<path d="M81.6572 29.6406H81.9287V32.0741H81.6572V29.6406Z" fill="currentColor"/>
<path d="M87.258 31.7578C87.0136 31.9986 86.7131 32.1189 86.3565 32.1189C85.9999 32.1189 85.698 31.9986 85.4511 31.7578C85.2067 31.517 85.0845 31.2178 85.0845 30.8603C85.0845 30.5003 85.2082 30.2011 85.4546 29.9628C85.7015 29.722 86.0019 29.6016 86.3565 29.6016C86.7106 29.6016 87.0116 29.722 87.258 29.9628C87.5049 30.2011 87.6286 30.5003 87.6286 30.8603C87.6286 31.2178 87.5049 31.517 87.258 31.7578ZM87.0602 30.1488C86.8673 29.9542 86.6325 29.857 86.3565 29.857C86.0806 29.857 85.8457 29.9542 85.6529 30.1488C85.4596 30.3434 85.3629 30.5806 85.3629 30.8603C85.3629 31.14 85.4596 31.3771 85.6529 31.5717C85.8457 31.7663 86.0806 31.8636 86.3565 31.8636C86.6325 31.8636 86.8673 31.7663 87.0602 31.5717C87.2535 31.3771 87.3496 31.14 87.3496 30.8603C87.3496 30.5806 87.2535 30.3434 87.0602 30.1488Z" fill="currentColor"/>
<path d="M91.0561 32.0741H90.7847V29.6406H91.0561L92.6907 31.6171V29.6406H92.9622V32.0741H92.6907L91.0561 30.0939V32.0741Z" fill="currentColor"/>
</g>
<defs>
<clipPath id="clip0_601_38064">
<rect width="93" height="34.4444" fill="white"/>
</clipPath>
</defs>
</svg>
