<svg width="20" height="20" viewBox="0 0 20 20" fill="none" xmlns="http://www.w3.org/2000/svg">
<path fill-rule="evenodd" clip-rule="evenodd" d="M9.99997 10.0015C11.5796 8.37966 11.9699 5.9403 10.9754 3.90648C10.9132 3.75842 10.9415 3.58778 11.0483 3.46782C11.1551 3.34786 11.3213 3.29992 11.4756 3.34458C12.6635 3.65079 13.7479 4.26939 14.6161 5.13616C17.3031 7.7539 17.3599 12.0541 14.7428 14.7418C12.0553 17.3591 7.75508 17.3028 5.13711 14.6159C4.26984 13.7484 3.6509 12.6642 3.3447 11.4763C3.29981 11.3218 3.34781 11.1553 3.46805 11.0484C3.58828 10.9416 3.75929 10.9134 3.90743 10.9761C5.94035 11.9702 8.3786 11.5802 9.99997 10.0015Z" stroke="#323232" stroke-width="1.5" stroke-linecap="round" stroke-linejoin="round"/>
</svg>
