<svg width="40" height="40" viewBox="0 0 40 40" fill="none" xmlns="http://www.w3.org/2000/svg">
<path d="M10.7036 30.2775C10.6266 30.2775 10.5505 30.2606 10.4808 30.2279C10.4111 30.1953 10.3494 30.1478 10.3003 30.0888C10.2511 30.0297 10.2156 29.9606 10.1964 29.8864C10.1771 29.8121 10.1745 29.7345 10.1888 29.6592L11.2219 24.191C11.2411 24.0877 11.2914 23.9926 11.3663 23.9185L24.0175 11.322C24.0921 11.2476 24.1876 11.1975 24.2914 11.1782L29.7825 10.1497C29.8663 10.1339 29.9526 10.1388 30.0341 10.1639C30.1156 10.1889 30.1897 10.2334 30.25 10.2934C30.3103 10.3534 30.355 10.4272 30.3802 10.5084C30.4054 10.5895 30.4103 10.6755 30.3946 10.7589L29.3614 16.2269C29.3421 16.3302 29.2918 16.4253 29.2171 16.4996L16.5671 29.0959C16.4928 29.1704 16.3974 29.2206 16.2937 29.2397L10.8023 30.2685C10.7698 30.2745 10.7367 30.2776 10.7036 30.2775ZM29.8791 10.4809C29.8674 10.481 29.8558 10.482 29.8443 10.4841L24.3532 11.5128C24.317 11.5195 24.2838 11.5369 24.2578 11.5628L11.6087 24.16C11.5829 24.1859 11.5653 24.2189 11.5584 24.2547L10.5255 29.7231C10.5198 29.752 10.5214 29.782 10.5302 29.8102C10.539 29.8384 10.5546 29.864 10.5758 29.8847C10.5968 29.9056 10.6225 29.921 10.6508 29.9297C10.679 29.9384 10.709 29.9401 10.7381 29.9346L16.2297 28.9059C16.2657 28.8993 16.2987 28.8818 16.3244 28.8559L28.9744 16.2596C29.0003 16.2338 29.0178 16.2008 29.0245 16.1649L30.0576 10.6967C30.0626 10.6706 30.0617 10.6438 30.055 10.618C30.0484 10.5923 30.0362 10.5682 30.0192 10.5477C30.0022 10.5272 29.981 10.5107 29.9568 10.4992C29.9328 10.4878 29.9064 10.4817 29.8797 10.4815L29.8791 10.4809Z" fill="#1C1C1C"/>
<path d="M29.878 30.2775C29.8454 30.2775 29.813 30.2745 29.781 30.2685L24.2898 29.2397C24.186 29.2207 24.0905 29.1705 24.016 29.096L11.3662 16.4996C11.2915 16.4254 11.2411 16.3303 11.2219 16.2269L10.1887 10.759C10.173 10.6755 10.1779 10.5895 10.203 10.5083C10.2282 10.4272 10.2729 10.3534 10.3332 10.2933C10.3935 10.2333 10.4676 10.1888 10.5491 10.1638C10.6306 10.1388 10.717 10.1339 10.8008 10.1497L16.2922 11.1782C16.3958 11.1976 16.4911 11.2477 16.5656 11.322L29.2156 23.9183C29.2903 23.9927 29.3406 24.0878 29.36 24.1913L30.3931 29.6592C30.4073 29.7346 30.4047 29.8121 30.3854 29.8864C30.3661 29.9607 30.3306 30.0298 30.2814 30.0888C30.2322 30.1479 30.1706 30.1954 30.1009 30.228C30.0311 30.2606 29.9551 30.2775 29.878 30.2775ZM10.7029 10.4809C10.6763 10.4812 10.65 10.4872 10.6259 10.4987C10.6018 10.5101 10.5806 10.5267 10.5636 10.5472C10.5467 10.5677 10.5345 10.5917 10.5278 10.6175C10.5212 10.6432 10.5203 10.67 10.5253 10.6962L11.5582 16.1643C11.5651 16.2002 11.5826 16.2331 11.6085 16.259L24.2583 28.8553C24.2841 28.8812 24.3173 28.8987 24.3534 28.9053L29.8447 29.934C29.8738 29.9395 29.9039 29.9377 29.9322 29.929C29.9605 29.9203 29.9862 29.9048 30.0072 29.884C30.0281 29.8631 30.0437 29.8375 30.0524 29.8093C30.0611 29.7811 30.0629 29.7513 30.0574 29.7223L29.0243 24.2543C29.0176 24.2184 29.0001 24.1853 28.9741 24.1594L16.3242 11.5631C16.2984 11.5371 16.2653 11.5197 16.2293 11.5131L10.738 10.4844C10.7264 10.4823 10.7147 10.4811 10.7029 10.4809Z" fill="#1C1C1C"/>
<path d="M20.2898 34.2325C20.2046 34.2325 20.1206 34.2117 20.0453 34.1721C19.97 34.1324 19.9055 34.0751 19.8575 34.005L16.7045 29.4115C16.6447 29.3249 16.6129 29.2222 16.6133 29.1171V11.3031C16.613 11.1981 16.6448 11.0954 16.7045 11.0087L19.8571 6.41478C19.9051 6.34474 19.9696 6.28744 20.0449 6.24783C20.1202 6.20823 20.2041 6.18752 20.2893 6.1875C20.3745 6.18756 20.4584 6.20829 20.5337 6.24789C20.609 6.28749 20.6735 6.34477 20.7216 6.41478L23.8739 11.0087C23.9334 11.0954 23.9652 11.1981 23.9651 11.3031V29.1171C23.9653 29.2222 23.9335 29.3248 23.8739 29.4115L20.7227 34.0044C20.6746 34.0746 20.6101 34.1321 20.5346 34.1719C20.4592 34.2116 20.3751 34.2325 20.2898 34.2325ZM20.2898 6.52755C20.26 6.52723 20.2305 6.53429 20.2041 6.54807C20.1777 6.56185 20.1551 6.58194 20.1385 6.60654L16.9859 11.2005C16.9653 11.2306 16.9543 11.2663 16.9544 11.3027V29.1166C16.9543 29.1532 16.9653 29.1889 16.9859 29.2191L20.1385 33.8128C20.1551 33.8375 20.1776 33.8577 20.2041 33.8715C20.2305 33.8853 20.2599 33.8924 20.2898 33.892C20.3196 33.8924 20.3491 33.8853 20.3755 33.8715C20.4019 33.8577 20.4244 33.8375 20.4411 33.8128L23.5925 29.2178C23.6133 29.1877 23.6244 29.1519 23.6243 29.1154V11.3014C23.6244 11.2649 23.6133 11.2292 23.5925 11.1992L20.4402 6.60525C20.4236 6.58083 20.4011 6.56089 20.3749 6.54722C20.3486 6.53354 20.3194 6.52657 20.2898 6.52691V6.52755Z" fill="#1C1C1C"/>
<path d="M23.9374 28.9996L20.2599 25.3374L16.5821 28.9996V23.8219H11.3828L15.0603 20.1599L11.3828 16.4981H16.5821V11.3203L20.2599 14.9823L23.9374 11.3203V16.4981H29.1363L25.4588 20.1604L29.1363 23.8219H23.9374V28.9996ZM20.5009 25.0965L23.5947 28.1772V23.8219H21.7808L20.5009 25.0965ZM16.9247 23.8219V28.1772L20.0187 25.0965L18.7387 23.8219H16.9247ZM19.2222 23.8219L20.2597 24.855L21.2971 23.8219H19.2222ZM23.9381 23.4815H28.3118L25.2178 20.4008L23.9381 21.6753V23.4815ZM22.1243 23.4815H23.596V22.0158L22.1243 23.4815ZM18.8803 23.4815H21.6406L23.596 21.5342V18.7855L21.6406 16.8382H18.8797L16.924 18.7855V21.5344L18.8803 23.4815ZM16.9247 23.4815H18.3966L16.9247 22.0158V23.4815ZM12.2091 23.4815H16.5828V21.6753L15.3028 20.4008L12.2091 23.4815ZM23.9381 19.1262V21.1937L24.9755 20.1606L23.9381 19.1262ZM15.5447 20.1593L16.5821 21.1924V19.1249L15.5447 20.1593ZM23.9381 18.6437L25.2178 19.9185L28.3118 16.8376H23.9374L23.9381 18.6437ZM12.2091 16.8376L15.3022 19.9202L16.5821 18.6454V16.8382L12.2091 16.8376ZM22.1243 16.8376L23.596 18.3032V16.8376H22.1243ZM16.9247 16.8376V18.3032L18.3966 16.8376H16.9247ZM21.7821 16.497H23.596V12.1424L20.5022 15.2232L21.7821 16.497ZM19.2222 16.497H21.2987L20.2612 15.464L19.2222 16.497ZM16.9247 16.497H18.7387L20.0187 15.2225L16.9247 12.1424V16.497Z" fill="#1C1C1C"/>
<path d="M29.2374 23.872H11.3479C11.2424 23.8722 11.1393 23.8404 11.0522 23.781L6.43883 20.6417C6.36858 20.5938 6.31111 20.5296 6.2714 20.4546C6.23169 20.3796 6.21094 20.2961 6.21094 20.2113C6.21094 20.1265 6.23169 20.043 6.2714 19.968C6.31111 19.893 6.36858 19.8288 6.43883 19.7809L11.0522 16.6416C11.1393 16.5823 11.2424 16.5507 11.3479 16.5508H29.2374C29.3429 16.5507 29.446 16.5824 29.5331 16.6416L34.1463 19.7809C34.2166 19.8287 34.2741 19.8929 34.3138 19.968C34.3536 20.043 34.3743 20.1265 34.3743 20.2113C34.3743 20.2961 34.3536 20.3796 34.3138 20.4547C34.2741 20.5296 34.2166 20.5939 34.1463 20.6417L29.5331 23.781C29.446 23.8404 29.343 23.8722 29.2374 23.872ZM11.3479 16.8904C11.3112 16.8904 11.2753 16.9015 11.245 16.922L6.63184 20.0613C6.60732 20.0779 6.58725 20.1002 6.57338 20.1263C6.55951 20.1524 6.55226 20.1815 6.55226 20.211C6.55226 20.2405 6.55951 20.2696 6.57338 20.2957C6.58725 20.3218 6.60732 20.3441 6.63184 20.3607L11.245 23.4999C11.2753 23.5206 11.3112 23.5316 11.3479 23.5315H29.2374C29.2741 23.5315 29.3098 23.5205 29.3401 23.4999L33.9535 20.3607C33.978 20.3441 33.9981 20.3218 34.012 20.2957C34.0258 20.2696 34.033 20.2405 34.033 20.211C34.033 20.1815 34.0258 20.1524 34.012 20.1263C33.9981 20.1002 33.978 20.0779 33.9535 20.0613L29.3401 16.922C29.3098 16.9015 29.2741 16.8904 29.2374 16.8904H11.3479Z" fill="#1C1C1C"/>
<path d="M21.7094 6.44821L24.2634 10.1664C24.282 10.1935 24.3081 10.2146 24.3385 10.2273C24.369 10.2399 24.4024 10.2434 24.4348 10.2374L28.9088 9.41743C28.9318 9.4132 28.9537 9.40432 28.9731 9.39131C28.9925 9.37825 29.009 9.3614 29.0216 9.34176C29.0341 9.32212 29.0425 9.30009 29.0461 9.27706C29.0497 9.25403 29.0485 9.23056 29.0426 9.20802L27.4557 3.12711C27.4492 3.10171 27.4368 3.07817 27.4195 3.05836C27.4022 3.03855 27.3806 3.02301 27.3562 3.01295C27.3319 3.00289 27.3055 2.99859 27.2793 3.0004C27.253 3.00221 27.2275 3.01008 27.2048 3.02337L21.7638 6.2063C21.7437 6.21806 21.7262 6.23382 21.7124 6.25261C21.6987 6.27138 21.6889 6.29279 21.6838 6.31547C21.6787 6.33816 21.6783 6.36165 21.6827 6.38448C21.6871 6.40732 21.6962 6.42901 21.7094 6.44821Z" fill="#1C1C1C"/>
<path d="M31.1204 11.614L30.2844 16.0519C30.278 16.0843 30.2814 16.1179 30.294 16.1485C30.3066 16.1791 30.3279 16.2054 30.3553 16.2241L34.1093 18.8001C34.1286 18.8133 34.1505 18.8225 34.1735 18.827C34.1965 18.8314 34.2202 18.8311 34.2431 18.8261C34.266 18.821 34.2877 18.8113 34.3066 18.7975C34.3256 18.7837 34.3414 18.7662 34.3533 18.7461L37.5564 13.3166C37.5698 13.294 37.5778 13.2685 37.5796 13.2423C37.5814 13.216 37.5771 13.1898 37.567 13.1654C37.5569 13.1412 37.5413 13.1195 37.5214 13.1022C37.5015 13.085 37.4778 13.0725 37.4523 13.0659L31.3311 11.4821C31.3086 11.4762 31.285 11.475 31.2619 11.4785C31.2389 11.4821 31.2168 11.4903 31.1971 11.5026C31.1773 11.515 31.1603 11.5312 31.1471 11.5504C31.1339 11.5696 31.1249 11.5912 31.1204 11.614Z" fill="#1C1C1C"/>
<path d="M11.7605 9.34769L16.0899 10.1567C16.1215 10.1625 16.154 10.1592 16.1837 10.147C16.2133 10.1348 16.2388 10.1143 16.257 10.0881L18.77 6.45638C18.783 6.43769 18.7921 6.4165 18.7965 6.39416C18.8009 6.37182 18.8007 6.34881 18.7957 6.32657C18.7908 6.30434 18.7813 6.28335 18.7678 6.26495C18.7544 6.24655 18.7372 6.23112 18.7175 6.21964L13.4204 3.12043C13.3983 3.10749 13.3735 3.09983 13.3479 3.09806C13.3224 3.09628 13.2967 3.10044 13.2731 3.1102C13.2493 3.11996 13.2282 3.13507 13.2114 3.15432C13.1946 3.17357 13.1825 3.19645 13.176 3.22115L11.6306 9.14282C11.6247 9.1648 11.6234 9.18773 11.6269 9.21021C11.6304 9.23274 11.6384 9.25428 11.6506 9.27352C11.6628 9.29276 11.6788 9.30926 11.6978 9.32202C11.7167 9.33478 11.738 9.34355 11.7605 9.34769Z" fill="#1C1C1C"/>
<path d="M6.47059 18.8048L10.2132 16.2555C10.2404 16.237 10.2617 16.211 10.2743 16.1806C10.287 16.1503 10.2905 16.1169 10.2845 16.0846L9.45912 11.6196C9.45486 11.5966 9.4459 11.5748 9.43283 11.5554C9.4197 11.5361 9.40278 11.5196 9.383 11.5071C9.36321 11.4945 9.34103 11.4862 9.31789 11.4825C9.2947 11.4789 9.27106 11.4801 9.24838 11.486L3.12763 13.0698C3.10211 13.0764 3.07847 13.0889 3.05858 13.1061C3.03869 13.1234 3.02308 13.145 3.01299 13.1693C3.0029 13.1935 2.99859 13.2198 3.0004 13.246C3.00222 13.2722 3.01011 13.2976 3.02345 13.3203L6.22701 18.7506C6.23889 18.7707 6.25478 18.7881 6.2737 18.8018C6.29262 18.8155 6.31416 18.8252 6.33699 18.8303C6.35983 18.8354 6.38347 18.8358 6.40644 18.8314C6.42943 18.827 6.45126 18.818 6.47059 18.8048Z" fill="#1C1C1C"/>
<path d="M9.46363 28.8046L10.2996 24.367C10.3059 24.3345 10.3025 24.3009 10.29 24.2704C10.2773 24.2397 10.2561 24.2135 10.2288 24.1947L6.47469 21.6198C6.45538 21.6066 6.43354 21.5974 6.41052 21.593C6.38751 21.5885 6.36382 21.5888 6.34092 21.5939C6.31803 21.5989 6.29642 21.6086 6.27746 21.6223C6.25849 21.636 6.24256 21.6535 6.23067 21.6737L3.02733 27.1033C3.01399 27.126 3.00611 27.1514 3.0043 27.1776C3.0025 27.2038 3.00683 27.2301 3.01695 27.2544C3.02706 27.2787 3.04269 27.3003 3.06261 27.3175C3.08252 27.3348 3.10618 27.3472 3.13172 27.3538L9.25289 28.9378C9.27553 28.9437 9.29917 28.9448 9.3223 28.9412C9.34544 28.9376 9.36758 28.9293 9.38731 28.9168C9.40709 28.9043 9.42407 28.8879 9.43719 28.8686C9.45031 28.8493 9.45932 28.8275 9.46363 28.8046Z" fill="#1C1C1C"/>
<path d="M18.8702 33.9717L16.3161 30.2535C16.2975 30.2264 16.2714 30.2053 16.2409 30.1927C16.2105 30.1801 16.1771 30.1765 16.1447 30.1825L11.6707 31.0025C11.6477 31.0067 11.6258 31.0156 11.6064 31.0286C11.587 31.0416 11.5705 31.0584 11.5579 31.0781C11.5454 31.0978 11.537 31.1198 11.5333 31.1428C11.5297 31.1658 11.5308 31.1893 11.5367 31.2119L13.1238 37.293C13.1304 37.3184 13.1428 37.3419 13.1601 37.3617C13.1774 37.3815 13.199 37.397 13.2233 37.407C13.2477 37.4171 13.274 37.4213 13.3003 37.4195C13.3265 37.4177 13.352 37.4098 13.3747 37.3965L18.8157 34.2136C18.8358 34.2018 18.8534 34.1861 18.8671 34.1673C18.8809 34.1485 18.8906 34.1271 18.8957 34.1044C18.9008 34.0817 18.9012 34.0582 18.8968 34.0354C18.8924 34.0126 18.8834 33.9909 18.8702 33.9717Z" fill="#1C1C1C"/>
<path d="M28.9185 30.9988L24.4708 30.167C24.4384 30.1609 24.405 30.1644 24.3745 30.1769C24.3441 30.1894 24.3179 30.2105 24.2992 30.2375L21.7175 33.9684C21.7042 33.9876 21.6951 34.0093 21.6907 34.0322C21.6861 34.055 21.6865 34.0786 21.6916 34.1013C21.6966 34.124 21.7063 34.1455 21.7201 34.1643C21.7339 34.1831 21.7513 34.199 21.7715 34.2108L27.2134 37.3941C27.2361 37.4074 27.2616 37.4153 27.2879 37.4171C27.3142 37.4189 27.3405 37.4146 27.3649 37.4046C27.3892 37.3946 27.4108 37.3791 27.4282 37.3593C27.4454 37.3395 27.4579 37.316 27.4645 37.2906L29.052 31.2073C29.0577 31.1848 29.0588 31.1615 29.0551 31.1386C29.0514 31.1157 29.043 31.0938 29.0305 31.0743C29.018 31.0548 29.0016 31.038 28.9823 31.025C28.9631 31.012 28.9413 31.0031 28.9185 30.9988Z" fill="#1C1C1C"/>
<path d="M34.1099 21.6153L30.3673 24.1644C30.3399 24.1831 30.3185 24.2093 30.3059 24.2399C30.2932 24.2705 30.2898 24.3041 30.296 24.3366L31.1214 28.8014C31.1256 28.8244 31.1346 28.8462 31.1477 28.8655C31.1608 28.8849 31.1778 28.9014 31.1975 28.9139C31.2173 28.9265 31.2395 28.9348 31.2626 28.9385C31.2858 28.9421 31.3095 28.9409 31.3322 28.935L37.4526 27.3512C37.4782 27.3446 37.5019 27.3322 37.5218 27.3149C37.5417 27.2977 37.5573 27.2761 37.5674 27.2518C37.5775 27.2275 37.5819 27.2012 37.5801 27.175C37.5783 27.1488 37.5704 27.1234 37.557 27.1007L34.3535 21.6706C34.3417 21.6505 34.3259 21.6329 34.3071 21.619C34.2882 21.6052 34.2666 21.5954 34.2438 21.5902C34.2209 21.585 34.1973 21.5846 34.1742 21.5889C34.1512 21.5932 34.1293 21.6022 34.1099 21.6153Z" fill="#1C1C1C"/>
<path d="M22.8653 11.0313L20.5094 7.59788C20.485 7.56285 20.4524 7.53423 20.4145 7.51446C20.3765 7.4947 20.3344 7.48438 20.2916 7.48438C20.2487 7.48438 20.2066 7.4947 20.1686 7.51446C20.1307 7.53423 20.0981 7.56285 20.0737 7.59788L17.7178 11.0313C17.4766 11.3436 17.7632 11.6288 17.9257 11.7906L18.9733 12.8338C18.9861 12.8465 19.0016 12.8561 19.0186 12.8618C19.0357 12.8676 19.0538 12.8693 19.0716 12.867C19.0895 12.8646 19.1065 12.8582 19.1215 12.8482C19.1365 12.8383 19.1489 12.825 19.1579 12.8095L20.19 11.0296C20.2003 11.0119 20.2151 10.9972 20.2329 10.9869C20.2507 10.9767 20.271 10.9713 20.2916 10.9713C20.3121 10.9713 20.3324 10.9767 20.3502 10.9869C20.368 10.9972 20.3829 11.0119 20.3931 11.0296L21.4252 12.8095C21.4342 12.825 21.4466 12.8383 21.4616 12.8482C21.4766 12.8582 21.4936 12.8646 21.5115 12.867C21.5293 12.8693 21.5474 12.8676 21.5645 12.8618C21.5815 12.8561 21.597 12.8465 21.6098 12.8338L22.6574 11.7906C22.8201 11.6288 23.0883 11.386 22.8653 11.0313Z" fill="#1C1C1C"/>
<path d="M11.9525 24.8866L11.18 28.9728C11.1724 29.0148 11.1751 29.058 11.1879 29.0986C11.2006 29.1394 11.2231 29.1764 11.2534 29.2065C11.2837 29.2367 11.3208 29.2591 11.3617 29.2719C11.4025 29.2846 11.4459 29.2873 11.488 29.2797L15.5924 28.5112C15.9847 28.4602 15.9845 28.0568 15.9845 27.8278V26.3525C15.9845 26.3346 15.9804 26.3169 15.9724 26.3008C15.9645 26.2848 15.953 26.2707 15.9387 26.2598C15.9244 26.2489 15.9078 26.2414 15.8901 26.238C15.8725 26.2345 15.8542 26.2351 15.8369 26.2398L13.8433 26.7718C13.8234 26.7771 13.8024 26.7771 13.7825 26.7718C13.7626 26.7664 13.7444 26.756 13.7299 26.7415C13.7153 26.727 13.7049 26.7089 13.6995 26.6891C13.6942 26.6693 13.6942 26.6484 13.6995 26.6287L14.2336 24.6432C14.2383 24.6259 14.2389 24.6078 14.2354 24.5902C14.2319 24.5726 14.2244 24.5561 14.2134 24.5419C14.2025 24.5276 14.1884 24.5161 14.1722 24.5082C14.1561 24.5003 14.1383 24.4962 14.1204 24.4962H12.6387C12.4098 24.4962 12.0474 24.4792 11.9525 24.8866Z" fill="#1C1C1C"/>
<path d="M24.9899 28.5111L29.0935 29.2805C29.1356 29.2881 29.179 29.2853 29.2198 29.2726C29.2607 29.2598 29.2978 29.2374 29.3281 29.2073C29.3583 29.1771 29.3808 29.1401 29.3936 29.0994C29.4064 29.0587 29.4091 29.0155 29.4015 28.9736L28.6299 24.8865C28.5786 24.4959 28.1736 24.4961 27.9436 24.4961H26.462C26.444 24.4961 26.4263 24.5002 26.4101 24.5081C26.394 24.516 26.3799 24.5275 26.3689 24.5418C26.3579 24.556 26.3504 24.5725 26.347 24.5901C26.3435 24.6077 26.3441 24.6258 26.3487 24.6431L26.8828 26.6283C26.8882 26.6481 26.8883 26.669 26.8829 26.6889C26.8777 26.7087 26.8672 26.7268 26.8526 26.7413C26.838 26.7559 26.8198 26.7663 26.7999 26.7716C26.78 26.7769 26.759 26.7768 26.7391 26.7714L24.7454 26.2396C24.7281 26.235 24.7099 26.2343 24.6922 26.2378C24.6746 26.2413 24.658 26.2488 24.6437 26.2597C24.6294 26.2706 24.6178 26.2846 24.6099 26.3007C24.602 26.3168 24.5978 26.3345 24.5979 26.3524V27.8277C24.5974 28.0567 24.5803 28.4168 24.9899 28.5111Z" fill="#1C1C1C"/>
<path d="M28.626 15.53L29.3984 11.4437C29.4061 11.4018 29.4034 11.3587 29.3906 11.3179C29.3779 11.2773 29.3554 11.2403 29.3251 11.2101C29.2948 11.1799 29.2577 11.1576 29.2168 11.1449C29.1759 11.1321 29.1326 11.1295 29.0905 11.137L24.9861 11.9054C24.5938 11.9564 24.5938 12.3597 24.5938 12.5887V14.0641C24.5938 14.082 24.598 14.0997 24.6059 14.1158C24.6139 14.1319 24.6255 14.1459 24.6398 14.1568C24.654 14.1677 24.6707 14.1752 24.6884 14.1787C24.706 14.1821 24.7242 14.1815 24.7416 14.1769L26.7353 13.645C26.7551 13.6397 26.7761 13.6397 26.796 13.645C26.8159 13.6503 26.834 13.6608 26.8486 13.6753C26.8632 13.6898 26.8736 13.7079 26.879 13.7277C26.8843 13.7475 26.8843 13.7684 26.879 13.7882L26.3447 15.7734C26.3401 15.7907 26.3395 15.8088 26.343 15.8264C26.3465 15.844 26.354 15.8605 26.365 15.8747C26.376 15.8889 26.3901 15.9004 26.4063 15.9084C26.4224 15.9163 26.4402 15.9204 26.4582 15.9204H27.9397C28.1697 15.9215 28.5314 15.9389 28.626 15.53Z" fill="#1C1C1C"/>
<path d="M11.0737 17.6468L7.6257 19.9927C7.59053 20.017 7.56178 20.0494 7.54194 20.0872C7.52209 20.125 7.51172 20.167 7.51172 20.2096C7.51172 20.2523 7.52209 20.2943 7.54194 20.3321C7.56178 20.3698 7.59053 20.4023 7.6257 20.4266L11.0737 22.7725C11.3871 23.0127 11.6735 22.7276 11.8362 22.5655L12.8838 21.5223C12.8966 21.5096 12.9062 21.4942 12.9119 21.4772C12.9177 21.4603 12.9195 21.4422 12.9171 21.4244C12.9148 21.4066 12.9083 21.3897 12.8983 21.3748C12.8883 21.3599 12.875 21.3475 12.8594 21.3385L11.072 20.3108C11.0542 20.3006 11.0394 20.2858 11.0291 20.2681C11.0188 20.2503 11.0134 20.2302 11.0134 20.2096C11.0134 20.1892 11.0188 20.169 11.0291 20.1513C11.0394 20.1335 11.0542 20.1188 11.072 20.1085L12.8594 19.0808C12.875 19.0719 12.8883 19.0595 12.8983 19.0446C12.9083 19.0297 12.9148 19.0127 12.9171 18.9949C12.9195 18.9772 12.9177 18.9591 12.9119 18.9421C12.9062 18.9251 12.8966 18.9097 12.8838 18.897L11.8362 17.8545C11.6735 17.692 11.4299 17.4253 11.0737 17.6468Z" fill="#1C1C1C"/>
<path d="M17.7175 29.3877L20.0734 32.8209C20.0978 32.8559 20.1304 32.8846 20.1683 32.9044C20.2062 32.9242 20.2484 32.9345 20.2913 32.9345C20.3341 32.9345 20.3763 32.9242 20.4143 32.9044C20.4522 32.8846 20.4847 32.8559 20.5091 32.8209L22.865 29.3877C23.1062 29.0754 22.8196 28.7902 22.6571 28.6283L21.6095 27.5849C21.5967 27.5723 21.5812 27.5627 21.5642 27.557C21.5471 27.5512 21.529 27.5494 21.5112 27.5518C21.4934 27.5541 21.4763 27.5606 21.4613 27.5705C21.4463 27.5805 21.4339 27.5938 21.4249 27.6093L20.3928 29.3892C20.3826 29.4069 20.3677 29.4216 20.3499 29.4319C20.3321 29.4421 20.3118 29.4475 20.2913 29.4475C20.2707 29.4475 20.2504 29.4421 20.2326 29.4319C20.2148 29.4216 20.2 29.4069 20.1897 29.3892L19.1576 27.6093C19.1487 27.5938 19.1362 27.5805 19.1212 27.5705C19.1063 27.5606 19.0892 27.5541 19.0713 27.5518C19.0535 27.5494 19.0354 27.5512 19.0183 27.557C19.0013 27.5627 18.9858 27.5723 18.973 27.5849L17.9254 28.6283C17.7627 28.7902 17.4951 29.0328 17.7175 29.3877Z" fill="#1C1C1C"/>
<path d="M29.5085 22.7728L32.9565 20.4269C32.9917 20.4026 33.0204 20.3702 33.0403 20.3324C33.0601 20.2946 33.0705 20.2526 33.0705 20.21C33.0705 20.1673 33.0601 20.1253 33.0403 20.0876C33.0204 20.0498 32.9917 20.0173 32.9565 19.9931L29.5085 17.6471C29.1951 17.4069 28.9087 17.6923 28.746 17.8542L27.6984 18.8973C27.6857 18.91 27.676 18.9254 27.6703 18.9424C27.6645 18.9594 27.6627 18.9775 27.6651 18.9952C27.6674 19.013 27.6739 19.03 27.6839 19.0449C27.6939 19.0598 27.7072 19.0722 27.7228 19.0811L29.5102 20.1088C29.5281 20.1191 29.5429 20.1338 29.5533 20.1516C29.5636 20.1694 29.569 20.1895 29.569 20.2101C29.569 20.2306 29.5636 20.2508 29.5533 20.2686C29.5429 20.2864 29.5281 20.3011 29.5102 20.3113L27.7228 21.3388C27.7072 21.3477 27.6939 21.3602 27.6839 21.3751C27.6739 21.39 27.6674 21.407 27.6651 21.4247C27.6627 21.4425 27.6645 21.4606 27.6703 21.4776C27.676 21.4945 27.6857 21.51 27.6984 21.5226L28.746 22.5658C28.9087 22.7279 29.1523 22.9943 29.5085 22.7728Z" fill="#1C1C1C"/>
<path d="M15.6503 11.922L11.5468 11.1526C11.5046 11.1451 11.4613 11.1478 11.4204 11.1605C11.3795 11.1733 11.3424 11.1957 11.3121 11.2258C11.2818 11.256 11.2593 11.293 11.2465 11.3337C11.2337 11.3744 11.231 11.4175 11.2386 11.4595L12.0104 15.5466C12.0616 15.937 12.4666 15.937 12.6966 15.937H14.1782C14.1962 15.937 14.2139 15.9329 14.23 15.9249C14.2462 15.917 14.2602 15.9055 14.2712 15.8913C14.2821 15.8771 14.2897 15.8606 14.2932 15.843C14.2967 15.8254 14.2961 15.8073 14.2915 15.79L13.7572 13.8046C13.7519 13.7848 13.7519 13.7639 13.7572 13.7441C13.7625 13.7243 13.773 13.7062 13.7876 13.6917C13.8021 13.6772 13.8203 13.6668 13.8402 13.6615C13.8601 13.6561 13.881 13.6561 13.9009 13.6615L15.8948 14.1935C15.9121 14.1982 15.9304 14.1988 15.948 14.1953C15.9657 14.1918 15.9823 14.1843 15.9965 14.1734C16.0108 14.1625 16.0224 14.1485 16.0303 14.1324C16.0383 14.1163 16.0424 14.0986 16.0424 14.0807V12.6054C16.0424 12.3764 16.0594 12.0163 15.6503 11.922Z" fill="#1C1C1C"/>
<path d="M18.7884 15.3643L18.5397 15.6121C18.4506 15.7007 18.3299 15.7505 18.204 15.7506H17.8494C17.7732 15.7506 17.7003 15.7204 17.6465 15.6668C17.5927 15.6133 17.5625 15.5406 17.5625 15.4648V14.0039C17.5626 13.9823 17.569 13.9611 17.5811 13.9432C17.5932 13.9252 17.6103 13.9112 17.6304 13.9029C17.6504 13.8946 17.6725 13.8924 17.6939 13.8966C17.7151 13.9008 17.7347 13.9112 17.7502 13.9264L18.7876 14.9595C18.8144 14.986 18.8358 15.0174 18.8504 15.0521C18.865 15.0869 18.8725 15.1241 18.8726 15.1617C18.8727 15.1994 18.8653 15.2366 18.8508 15.2714C18.8364 15.3061 18.8152 15.3377 18.7884 15.3643Z" fill="#1C1C1C"/>
<path d="M22.663 15.7283H22.3109C22.1851 15.7281 22.0645 15.6784 21.9755 15.5899L21.7248 15.3402C21.6981 15.3137 21.6769 15.2822 21.6625 15.2475C21.648 15.2128 21.6406 15.1757 21.6406 15.1382C21.6406 15.1006 21.648 15.0634 21.6625 15.0287C21.6769 14.994 21.6981 14.9626 21.7248 14.936L22.7622 13.903C22.7776 13.8877 22.7972 13.8774 22.8185 13.8732C22.8398 13.869 22.8619 13.8711 22.8819 13.8795C22.902 13.8877 22.9192 13.9017 22.9313 13.9197C22.9433 13.9377 22.9498 13.9588 22.9498 13.9804V15.4425C22.9498 15.48 22.9425 15.5171 22.928 15.5518C22.9136 15.5865 22.8925 15.618 22.8659 15.6445C22.8393 15.6711 22.8076 15.6922 22.7728 15.7065C22.738 15.7209 22.7007 15.7283 22.663 15.7283Z" fill="#1C1C1C"/>
<path d="M25.1456 18.7129L24.8968 18.4652C24.8079 18.3765 24.7579 18.2563 24.7578 18.1309V17.7778C24.7578 17.702 24.7881 17.6294 24.8418 17.5758C24.8956 17.5222 24.9686 17.4922 25.0446 17.4922H26.512C26.5337 17.4921 26.555 17.4985 26.5731 17.5106C26.5912 17.5226 26.6052 17.5397 26.6136 17.5597C26.6219 17.5797 26.624 17.6018 26.6198 17.623C26.6155 17.6442 26.605 17.6637 26.5896 17.679L25.5521 18.712C25.5255 18.7387 25.4939 18.7599 25.459 18.7744C25.4242 18.7889 25.3868 18.7963 25.349 18.7964C25.3113 18.7965 25.2738 18.7892 25.2389 18.7749C25.204 18.7605 25.1723 18.7395 25.1456 18.7129Z" fill="#1C1C1C"/>
<path d="M24.7812 22.5728V22.2222C24.7814 22.0968 24.8313 21.9766 24.9202 21.8879L25.171 21.6383C25.2248 21.5847 25.2977 21.5547 25.3738 21.5547C25.4499 21.5547 25.5228 21.5847 25.5766 21.6383L26.6141 22.6714C26.6295 22.6866 26.64 22.7062 26.6443 22.7274C26.6486 22.7487 26.6464 22.7707 26.638 22.7907C26.6297 22.8107 26.6156 22.8278 26.5975 22.8398C26.5793 22.8519 26.5581 22.8582 26.5363 22.8581H25.0681C24.992 22.8581 24.9191 22.8281 24.8653 22.7746C24.8115 22.7211 24.7813 22.6485 24.7812 22.5728Z" fill="#1C1C1C"/>
<path d="M21.7832 25.0424L22.0322 24.7946C22.0762 24.7508 22.1286 24.7159 22.1862 24.6922C22.2437 24.6684 22.3055 24.6562 22.3678 24.6563H22.7223C22.7983 24.6563 22.8713 24.6864 22.9251 24.7399C22.9789 24.7935 23.0091 24.8661 23.0091 24.9418V26.4028C23.0091 26.4244 23.0028 26.4457 22.9907 26.4637C22.9786 26.4818 22.9615 26.4958 22.9414 26.5041C22.9212 26.5124 22.8991 26.5146 22.8778 26.5103C22.8564 26.5061 22.8369 26.4956 22.8215 26.4803L21.7841 25.4472C21.7572 25.4207 21.7359 25.3892 21.7214 25.3545C21.7068 25.3198 21.6993 25.2826 21.6992 25.2449C21.6991 25.2074 21.7065 25.1701 21.7209 25.1353C21.7353 25.1005 21.7565 25.069 21.7832 25.0424Z" fill="#1C1C1C"/>
<path d="M17.9081 24.6797H18.26C18.3859 24.6798 18.5066 24.7297 18.5957 24.8183L18.8464 25.0679C18.9001 25.1216 18.9303 25.1942 18.9303 25.27C18.9303 25.3457 18.9001 25.4184 18.8464 25.472L17.8089 26.505C17.7935 26.5203 17.7739 26.5308 17.7526 26.535C17.7312 26.5392 17.7091 26.537 17.689 26.5288C17.6689 26.5205 17.6517 26.5064 17.6396 26.4884C17.6276 26.4704 17.6211 26.4492 17.6211 26.4275V24.9655C17.6211 24.8897 17.6514 24.8171 17.7052 24.7635C17.759 24.7099 17.832 24.6798 17.9081 24.6797Z" fill="#1C1C1C"/>
<path d="M15.4252 21.693L15.6742 21.9409C15.7631 22.0296 15.8131 22.1497 15.8132 22.2749V22.6282C15.8132 22.7039 15.7829 22.7765 15.7291 22.8301C15.6752 22.8837 15.6023 22.9137 15.5261 22.9137H14.059C14.0373 22.9137 14.0161 22.9072 13.998 22.8952C13.98 22.8832 13.9659 22.8661 13.9576 22.8461C13.9493 22.8262 13.9471 22.8042 13.9513 22.783C13.9555 22.7617 13.9659 22.7423 13.9812 22.7269L15.0187 21.6939C15.0453 21.6671 15.0769 21.646 15.1118 21.6315C15.1466 21.617 15.184 21.6095 15.2217 21.6094C15.2596 21.6093 15.297 21.6167 15.3319 21.631C15.3668 21.6454 15.3985 21.6664 15.4252 21.693Z" fill="#1C1C1C"/>
<path d="M15.7909 17.8366V18.187C15.7908 18.3123 15.7408 18.4325 15.6519 18.5212L15.4012 18.7708C15.3473 18.8244 15.2744 18.8544 15.1983 18.8544C15.1222 18.8544 15.0493 18.8244 14.9955 18.7708L13.958 17.7378C13.9426 17.7225 13.9322 17.703 13.9279 17.6817C13.9236 17.6604 13.9258 17.6384 13.9342 17.6184C13.9425 17.5983 13.9566 17.5812 13.9747 17.5692C13.9928 17.5572 14.014 17.5507 14.0358 17.5508H15.5042C15.5803 17.5509 15.6532 17.581 15.7069 17.6346C15.7607 17.6882 15.7909 17.7608 15.7909 17.8366Z" fill="#1C1C1C"/>
<path d="M19.2987 21.7207H21.2826V21.1978H21.8078V19.2222H21.2826V18.6992H19.2987V19.2222H18.7734V21.1978H19.2987V21.7207Z" fill="#1C1C1C"/>
</svg>
