<svg width="14" height="14" viewBox="0 0 14 14" fill="none" xmlns="http://www.w3.org/2000/svg">
<g clip-path="url(#clip0_647_28692)">
<path d="M0.541764 13.4615L1.45176 10.1177C0.852145 9.0898 0.537117 7.92076 0.539072 6.73077C0.539072 3.01336 3.55244 0 7.26984 0C10.9872 0 14.0006 3.01336 14.0006 6.73077C14.0006 10.4482 10.9872 13.4615 7.26984 13.4615C6.08036 13.4635 4.91182 13.1487 3.88426 12.5495L0.541764 13.4615ZM4.8407 3.57269C4.75378 3.57809 4.66885 3.60098 4.59099 3.64C4.51798 3.68135 4.45133 3.73303 4.39311 3.79346C4.31234 3.86952 4.26657 3.93548 4.21744 3.99942C3.96867 4.32317 3.83487 4.72057 3.83715 5.12884C3.83849 5.45865 3.92465 5.77971 4.05926 6.0799C4.33455 6.68702 4.78753 7.3298 5.3859 7.92548C5.52993 8.06884 5.67061 8.21288 5.82205 8.34682C6.56472 9.00069 7.44972 9.47223 8.40666 9.72394L8.78965 9.7825C8.91416 9.78923 9.03868 9.7798 9.16388 9.77375C9.3599 9.76363 9.55131 9.71055 9.72455 9.61827C9.81269 9.57286 9.89871 9.52345 9.98234 9.47019C9.98234 9.47019 10.0113 9.45134 10.0665 9.40961C10.1573 9.3423 10.2132 9.29452 10.2886 9.21576C10.3445 9.15788 10.3929 9.0899 10.4299 9.0125C10.4824 8.90278 10.5349 8.69346 10.5565 8.51913C10.5726 8.38586 10.5679 8.31317 10.5659 8.26807C10.5632 8.19605 10.5033 8.12134 10.438 8.08971L10.0463 7.91404C10.0463 7.91404 9.4607 7.65894 9.1033 7.49605C9.06561 7.47963 9.02523 7.47027 8.98416 7.46846C8.93811 7.46373 8.89158 7.46891 8.8477 7.48365C8.80381 7.4984 8.76359 7.52236 8.72974 7.55394V7.55259C8.72638 7.55259 8.68128 7.59096 8.19464 8.18057C8.16671 8.21811 8.12824 8.24647 8.08413 8.26205C8.04002 8.27764 7.99226 8.27973 7.94695 8.26807C7.9031 8.25635 7.86013 8.2415 7.8184 8.22365C7.73493 8.18865 7.70599 8.17519 7.64878 8.15028L7.64541 8.14894C7.26035 7.98082 6.90383 7.75374 6.58868 7.47586C6.50388 7.40182 6.42513 7.32105 6.34436 7.24298C6.07955 6.98939 5.84878 6.70251 5.65782 6.38952L5.61811 6.32557C5.58958 6.28261 5.56652 6.23626 5.54945 6.18759C5.52388 6.08865 5.59051 6.00923 5.59051 6.00923C5.59051 6.00923 5.75407 5.83019 5.83013 5.73327C5.89346 5.65271 5.95254 5.56891 6.00715 5.48221C6.08657 5.35432 6.11147 5.22307 6.06974 5.12144C5.88128 4.66106 5.68609 4.20269 5.48551 3.74769C5.4458 3.6575 5.32801 3.59288 5.22099 3.58009C5.18465 3.57606 5.1483 3.57202 5.11195 3.56933C5.02156 3.56483 4.93099 3.56573 4.8407 3.57202V3.57269Z" fill="currentColor"/>
</g>
<defs>
<clipPath id="clip0_647_28692">
<rect width="14" height="14" fill="white"/>
</clipPath>
</defs>
</svg>
