<svg width="24" height="24" viewBox="0 0 24 24" fill="none" xmlns="http://www.w3.org/2000/svg">
<path d="M12 5C12.663 5 13.2989 5.26339 13.7678 5.73223C14.2366 6.20107 14.5 6.83696 14.5 7.5V8H9.5V7.5C9.5 6.83696 9.76339 6.20107 10.2322 5.73223C10.7011 5.26339 11.337 5 12 5V5ZM15.5 8V7.5C15.5 6.57174 15.1313 5.6815 14.4749 5.02513C13.8185 4.36875 12.9283 4 12 4C11.0717 4 10.1815 4.36875 9.52513 5.02513C8.86875 5.6815 8.5 6.57174 8.5 7.5V8H5V18C5 18.5304 5.21071 19.0391 5.58579 19.4142C5.96086 19.7893 6.46957 20 7 20H17C17.5304 20 18.0391 19.7893 18.4142 19.4142C18.7893 19.0391 19 18.5304 19 18V8H15.5ZM6 9H18V18C18 18.2652 17.8946 18.5196 17.7071 18.7071C17.5196 18.8946 17.2652 19 17 19H7C6.73478 19 6.48043 18.8946 6.29289 18.7071C6.10536 18.5196 6 18.2652 6 18V9Z" fill="#1C1C1C"/>
</svg>
