<svg width="20" height="20" viewBox="0 0 20 20" fill="none" xmlns="http://www.w3.org/2000/svg">
<path d="M4.16699 9.16673H8.38449C9.02449 9.16673 9.66449 8.92256 10.152 8.43423C11.1287 7.45756 11.1287 5.87506 10.152 4.89839C9.17533 3.92173 7.59283 3.92173 6.61616 4.89839" stroke="currentColor" stroke-width="1.5" stroke-linecap="round" stroke-linejoin="round"/>
<path d="M2.5 12.5H9.72083C10.2542 12.5 10.7875 12.7033 11.1942 13.11C12.0075 13.9233 12.0075 15.2425 11.1942 16.0567C10.3808 16.8708 9.06167 16.87 8.2475 16.0567" stroke="currentColor" stroke-width="1.5" stroke-linecap="round" stroke-linejoin="round"/>
<path d="M12.5 10.8333H15.5475C16.0475 10.8333 16.5467 10.6425 16.9283 10.2616C17.6908 9.49914 17.6908 8.26248 16.9283 7.49998C16.1658 6.73748 14.9292 6.73748 14.1667 7.49998" stroke="currentColor" stroke-width="1.5" stroke-linecap="round" stroke-linejoin="round"/>
</svg>
