<svg width="11" height="15" viewBox="0 0 11 15" fill="none" xmlns="http://www.w3.org/2000/svg">
<path d="M3.20287 14.5078C3.1467 14.5088 3.09133 14.4944 3.04273 14.4662C2.97339 14.4315 2.91733 14.375 2.88307 14.3054C2.8488 14.2358 2.83822 14.1569 2.85292 14.0807L3.74262 9.63224L0.23129 8.31549C0.175932 8.29533 0.126679 8.26128 0.0882522 8.21663C0.049825 8.17197 0.0235112 8.11819 0.0118318 8.06044C-0.00352549 8.00445 -0.00393992 7.94542 0.0106299 7.88922C0.0251997 7.83302 0.0542447 7.78163 0.0948698 7.74015L6.73792 0.622593C6.79025 0.565786 6.85963 0.527542 6.93559 0.513632C7.01156 0.499723 7.08999 0.510903 7.15905 0.545486C7.22821 0.582059 7.28391 0.639739 7.31805 0.710141C7.35218 0.780543 7.36297 0.859996 7.34885 0.936952L6.45915 5.37949L9.97048 6.70217C10.0252 6.72263 10.0741 6.75625 10.1128 6.80008C10.1514 6.8439 10.1787 6.89657 10.1922 6.95344C10.2057 7.01031 10.205 7.06962 10.1901 7.12615C10.1752 7.18267 10.1466 7.23465 10.1069 7.27751L3.46385 14.3951C3.3951 14.4655 3.30131 14.506 3.20287 14.5078Z" fill="#1C1C1C"/>
</svg>
