<svg width="76" height="19" viewBox="0 0 76 19" fill="none" xmlns="http://www.w3.org/2000/svg">
<g clip-path="url(#clip0_647_28640)">
<path fill-rule="evenodd" clip-rule="evenodd" d="M40.8606 4.60131C41.0434 4.79254 42.6885 9.34849 42.8606 9.91096C43.0319 10.5136 43.2739 11.0917 43.581 11.6321C44.1509 11.7671 44.2047 11.1709 44.3767 10.6984C45.3122 8.14482 46.7315 4.42132 47.4412 1.91273C47.9358 0.697811 47.9789 0.371582 47.0864 0.371582C46.1939 0.371582 46.2907 0.979043 45.9358 1.76649C45.624 3.26264 44.4197 6.42369 43.9789 7.87484C43.9789 8.06608 43.9789 8.06608 43.753 8.06608C43.0111 5.90622 42.1509 3.26264 41.3122 1.12528C41.0864 0.70906 40.6885 0.619066 40.4197 1.55275C39.9681 3.03766 39.3444 4.80379 38.8606 6.2437C38.8606 6.2437 38.2799 8.06608 38.2369 8.15607C37.9294 7.63881 37.7043 7.07273 37.5703 6.47993C36.9036 4.75879 36.3229 2.90267 35.7531 1.18153C35.6133 0.855301 35.6133 0.664063 35.3014 0.472826C34.9889 0.351651 34.6509 0.32057 34.3229 0.382832C33.4412 0.529072 34.0111 1.27152 34.1939 1.82274C35.2692 4.84879 36.4627 8.4823 37.6563 11.3621C37.6842 11.4335 37.7296 11.4959 37.788 11.543C37.8463 11.5901 37.9155 11.6204 37.9885 11.6306C38.0616 11.6409 38.1359 11.6308 38.2041 11.6015C38.2722 11.5721 38.3318 11.5245 38.3767 11.4634C38.5487 11.1146 40.7315 4.60131 40.8606 4.60131Z" fill="white"/>
<path fill-rule="evenodd" clip-rule="evenodd" d="M0.17209 0.562104C0.127641 0.749501 0.14274 0.946945 0.2151 1.12457C0.397896 1.91201 -0.139738 10.8889 4.64898e-05 11.2489C0.435288 11.4537 0.923268 11.5012 1.38714 11.3839C1.6022 11.1477 1.51618 10.9227 1.51618 10.5514C1.51618 8.9653 1.64521 7.4354 1.64521 5.80426C1.69897 5.1968 1.74198 4.78058 1.74198 4.40935C1.74198 4.03813 1.74198 4.08312 1.828 3.99313C1.91403 3.90313 3.32263 6.46797 3.46241 6.7492C3.73123 7.30041 4.25811 8.14411 4.61295 8.79656C5.15058 9.82024 5.4194 9.12279 5.54843 8.88656C5.86026 8.47033 8.26886 4.04937 8.44091 3.95938C8.6022 4.13937 8.6022 8.56033 8.6022 8.88656C8.6022 11.3051 8.33338 11.5414 9.79575 11.4401C10.2474 11.4401 10.2904 11.0689 10.2474 10.6527C10.2474 9.86524 10.2474 8.97655 10.2474 8.1891C10.1291 6.18673 10.0431 3.90313 10.0431 1.91201C10.0431 1.67578 10.1291 0.787089 10.1291 0.652098C9.99744 0.496908 9.81912 0.393366 9.6236 0.358593C9.42808 0.323819 9.22707 0.359897 9.05381 0.46086C8.74198 0.652098 8.65596 1.06832 8.43016 1.34955C7.52693 3.02569 6.31188 4.92682 5.46241 6.51296C5.15058 7.07543 5.15058 6.88419 4.88177 6.51296C4.30112 5.62427 3.54843 4.09437 3.02155 3.20568L1.94628 1.34955C1.79682 1.02699 1.605 0.727869 1.37639 0.46086C1.07532 0.235875 0.483918 0.415863 0.17209 0.562104Z" fill="white"/>
<path fill-rule="evenodd" clip-rule="evenodd" d="M56.9122 5.76998C57.2928 5.44511 57.7442 5.22376 58.2264 5.12562C58.7085 5.02748 59.2064 5.05562 59.6756 5.20752C61.095 5.85998 61.2778 8.05358 60.6541 9.12226C60.3885 9.53875 60.0059 9.85874 59.5591 10.0381C59.1122 10.2174 58.6232 10.2472 58.1595 10.1234C57.7103 10.0307 57.2851 9.83896 56.9122 9.56098V5.76998ZM56.9122 4.18384C56.8451 2.95867 56.8451 1.7305 56.9122 0.50533C56.9122 -0.000886341 56.7401 -0.0908804 56.2885 0.0891077C55.2132 0.561577 55.2132 0.370339 55.3638 1.39402C55.4498 1.91149 55.3638 7.90734 55.3638 8.75104C55.3638 10.4159 55.138 10.7984 57.4498 11.4959C58.1081 11.6403 58.7875 11.644 59.4472 11.5067C60.1068 11.3695 60.7332 11.0941 61.2885 10.6972C63.5573 8.75104 62.9337 3.2614 58.7939 3.67762C58.433 3.69805 58.0739 3.74315 57.7186 3.81261C57.5788 3.85761 57.052 4.18384 56.9874 4.18384H56.9122Z" fill="white"/>
<path fill-rule="evenodd" clip-rule="evenodd" d="M25.5571 11.3502C25.7252 10.7636 25.7729 10.1464 25.6968 9.53909C25.6528 8.90246 25.6528 8.26334 25.6968 7.62672C25.8259 7.62672 25.9657 7.86295 26.2345 8.14418C26.5033 8.42541 28.7183 10.844 29.0732 11.114C29.197 11.2345 29.3462 11.3228 29.5088 11.3717C29.6713 11.4205 29.8426 11.4286 30.0087 11.3952C30.3205 11.3952 30.8151 11.3952 30.9872 11.1702C30.9872 10.844 30.3635 10.3265 30.0947 10.0453C29.8259 9.76408 29.4818 9.4041 29.17 9.02163C28.486 8.39192 27.8464 7.71145 27.256 6.98551C27.256 6.88427 29.6968 4.73566 30.1485 4.33068C30.3205 4.13945 30.5033 4.09445 30.4603 3.81322C29.9068 3.63461 29.3148 3.63461 28.7614 3.81322C28.5463 3.91446 27.0732 5.30937 26.6753 5.68059C26.5463 5.81559 25.7829 6.65928 25.6968 6.61428C25.5678 6.18681 25.6968 0.370944 25.6108 0.0447153C25.5248 -0.281513 24.0087 0.235953 24.0517 0.798416C24.136 1.19361 24.1792 1.59717 24.1807 2.00209V10.0453C24.1807 10.3265 24.0947 11.1702 24.2775 11.3052C24.6958 11.4171 25.1325 11.4324 25.5571 11.3502Z" fill="white"/>
<path fill-rule="evenodd" clip-rule="evenodd" d="M13.9738 7.53573C14.4684 7.40074 16.1243 7.81696 16.1996 8.27818C16.2426 8.77588 16.2426 9.27663 16.1996 9.77433C15.8878 10.1906 13.748 11.023 13.0383 9.5381C12.9427 9.32716 12.8931 9.09661 12.8931 8.86314C12.8931 8.62967 12.9427 8.39913 13.0383 8.18819C13.1416 8.01667 13.2783 7.8699 13.4395 7.75747C13.6007 7.64503 13.7828 7.56947 13.9738 7.53573ZM16.2426 6.97327C15.8248 6.68368 15.3575 6.48124 14.8663 6.37706C14.2542 6.30615 13.6348 6.35188 13.0383 6.51205C12.5361 6.66254 12.0932 6.97768 11.7749 7.4111C11.4566 7.84452 11.2796 8.37337 11.2699 8.91986C11.2603 9.46636 11.4186 10.0017 11.7214 10.4471C12.0242 10.8925 12.4557 11.2245 12.9523 11.3942C13.8028 11.6976 14.7255 11.6976 15.576 11.3942C15.7588 11.3042 16.1136 11.068 16.2426 11.023C16.3717 10.978 16.4254 11.3492 16.5975 11.4392C16.7695 11.5292 17.576 11.4392 17.8018 11.2142C18.0276 10.9893 18.0706 11.023 17.9308 10.6968C17.7228 10.2663 17.6476 9.77891 17.7157 9.30186V5.94958C17.772 5.47492 17.6612 4.99507 17.4039 4.59967C16.5545 2.83354 11.4362 3.53099 11.8448 5.02714C12.2534 6.5233 12.92 4.50968 15.1781 4.79091C16.3932 4.9259 16.2641 6.14082 16.2641 6.97327H16.2426Z" fill="white"/>
<path fill-rule="evenodd" clip-rule="evenodd" d="M68.8811 6.74965H65.1929C65.2424 6.28776 65.4438 5.85824 65.7628 5.53473C66.111 5.21528 66.5485 5.02196 67.0101 4.98352C67.2506 4.96274 67.4926 4.99287 67.7217 5.07211C67.9508 5.15136 68.1622 5.27809 68.3435 5.44474C68.5259 5.60177 68.6699 5.8021 68.7634 6.02906C68.8569 6.25603 68.8972 6.50308 68.8811 6.74965ZM65.0962 7.95332C65.365 7.81833 69.3972 7.95332 70.1284 7.95332C70.8596 7.95332 70.5263 5.44474 69.1929 4.42106C68.6482 3.9962 67.9997 3.74118 67.3224 3.68544C66.645 3.62969 65.9664 3.7755 65.3649 4.10603C64.7634 4.43656 64.2635 4.93832 63.9229 5.5534C63.5824 6.16847 63.415 6.87177 63.4402 7.5821C63.4147 8.27201 63.5682 8.95628 63.8843 9.56232C64.2005 10.1684 64.6675 10.6736 65.2359 11.0244C66.4295 11.8681 69.6338 11.8231 70.0316 10.5182C70.5262 8.84202 69.365 9.7757 68.9564 9.95569C68.6127 10.1031 68.2506 10.1978 67.8811 10.2369C65.5048 10.5182 64.9241 8.32455 65.0962 7.95332Z" fill="white"/>
<path fill-rule="evenodd" clip-rule="evenodd" d="M48.9542 6.74792C48.9919 6.26745 49.2007 5.81931 49.5392 5.49224C49.8777 5.16516 50.3213 4.98299 50.7821 4.98179C51.7069 4.88054 52.7821 5.72424 52.5993 6.74792H48.9542ZM48.7714 7.87285C48.9972 7.87285 53.18 7.87285 53.7606 7.87285C54.3413 7.87285 54.2445 7.50162 54.2015 7.0404C54.1701 6.41579 53.9841 5.81043 53.6618 5.28361C53.3395 4.75679 52.892 4.32658 52.363 4.03513C51.834 3.74368 51.2417 3.60097 50.6442 3.62099C50.0466 3.64101 49.4643 3.82307 48.9542 4.14934C48.3806 4.50384 47.9116 5.01688 47.5986 5.6321C47.2856 6.24731 47.1407 6.94089 47.18 7.63661C47.1343 8.32339 47.2822 9.0091 47.6051 9.60891C47.9281 10.2087 48.4121 10.6963 48.9972 11.0114C50.5133 11.9901 53.4918 11.5739 53.7606 10.4602C53.7606 10.1339 53.9757 9.33525 53.4918 9.52649C52.9073 9.87217 52.2711 10.1118 51.6101 10.2352C51.2577 10.2844 50.8995 10.2601 50.5562 10.1635C50.2129 10.067 49.8913 9.90017 49.6101 9.67273C49.223 9.3465 48.5993 8.36781 48.7714 7.87285Z" fill="white"/>
<path fill-rule="evenodd" clip-rule="evenodd" d="M72.9218 11.3947C73.1906 11.1135 73.1476 10.9785 73.1476 10.5623V9.43736C73.1476 7.95245 72.8788 5.48887 74.524 5.11764C74.8788 5.02765 74.9648 5.34263 75.4165 5.25263C75.6828 5.00266 75.8828 4.6849 75.9971 4.33019C75.9971 3.62149 74.9218 3.4865 73.9433 3.94772C73.6315 4.09396 73.3734 4.60017 73.1476 4.64517C73.1476 4.22895 73.2337 4.04896 72.9648 3.67773C72.6202 3.71231 72.2866 3.82354 71.9863 4.00396C71.5455 4.22895 71.4595 4.22895 71.5455 4.79141C71.6315 5.35387 71.5455 9.21237 71.5455 10.1348C71.5885 11.541 71.5885 11.496 72.9218 11.3947Z" fill="white"/>
<path fill-rule="evenodd" clip-rule="evenodd" d="M20.494 11.3497V11.2597C20.6188 10.1172 20.6511 8.96567 20.5907 7.81744C20.5907 6.92875 20.8058 5.48884 21.7413 5.20761C22.494 4.92638 22.537 5.66883 23.0316 5.20761C24.1821 3.94769 22.6337 3.44148 21.6983 3.8577C20.7628 4.27392 20.8918 4.60015 20.623 4.69015C20.6014 4.5071 20.6014 4.32197 20.623 4.13893C20.623 3.9027 20.5262 3.9027 20.4402 3.76771C20.0954 3.76477 19.7566 3.86214 19.4617 4.04894C19.0208 4.22893 18.8811 4.27392 19.0208 4.83639C19.1154 5.69881 19.1442 6.56776 19.1069 7.43496V9.9998C19.2036 11.3947 19.0208 11.4959 20.494 11.3497Z" fill="white"/>
<path fill-rule="evenodd" clip-rule="evenodd" d="M40.5481 12.8473C38.773 13.0764 37.0276 13.5103 35.3438 14.141C34.8169 14.3772 34.2685 14.5122 33.7416 14.7484C32.6664 15.1646 31.6556 15.5359 30.5911 15.9633C30.2363 16.0983 27.6986 16.8858 27.2578 16.987C25.1072 17.5382 21.8814 18.1907 19.8276 17.212C18.8492 16.7058 18.7524 18.2807 20.9782 18.8432C22.2798 19.0816 23.6155 19.0202 24.8922 18.6632C25.9674 18.4269 27.2578 18.0107 28.2793 17.6845C29.3008 17.3582 30.5051 16.987 31.6126 16.6608C31.8814 16.5596 32.0965 16.4696 32.4083 16.3796L34.0535 15.8621C34.3653 15.7721 34.5911 15.6371 34.8599 15.5359L36.5588 15.1196C36.8707 15.0297 37.0965 14.9397 37.3653 14.8384C39.6166 14.336 41.9128 14.0871 44.2147 14.096C44.7846 14.096 45.6341 14.2422 46.2147 14.3322C47.29 14.4672 47.0535 13.871 46.3438 13.4885C44.4986 12.7488 42.5003 12.5278 40.5481 12.8473Z" fill="white"/>
</g>
<defs>
<clipPath id="clip0_647_28640">
<rect width="76" height="19" fill="white"/>
</clipPath>
</defs>
</svg>
