<svg width="40" height="11" viewBox="0 0 40 11" fill="none" xmlns="http://www.w3.org/2000/svg">
<g clip-path="url(#clip0_851_68028)">
<path fill-rule="evenodd" clip-rule="evenodd" d="M6.26594 8.17556H4.54111C1.85039 8.17556 3.8052 2.61744 6.07047 2.61744H8.79571C9.23265 2.61744 10.0031 2.69573 10.3825 1.64449L10.969 0.0117188H7.23185C5.20807 0.0117188 3.6327 0.705087 2.49432 1.86815C0.528016 3.85878 -0.138916 6.96776 0.332538 8.45514C0.780993 9.83068 1.99987 10.7365 3.90867 10.7589L5.39204 10.7701H7.22034L7.66881 9.46164C8.00227 8.53343 7.25485 8.17556 6.26594 8.17556ZM27.2629 5.87178L27.8262 4.09364H21.8124C20.812 4.09364 20.3635 4.36204 20.1911 4.92119L19.6276 6.69936H25.6415C26.6419 6.69936 27.0904 6.43096 27.2629 5.87178ZM18.7307 9.00313L18.1673 10.7813H24.1812C25.1701 10.7813 25.63 10.5129 25.8025 9.95372L26.366 8.17556H20.3521C19.3632 8.17556 18.9147 8.44396 18.7307 9.00313ZM28.6657 1.80105L29.2293 0.0229019H23.2153C22.2149 0.0229019 21.7664 0.291302 21.5939 0.850469L21.0305 2.62862H27.0444C28.0334 2.62862 28.4817 2.36022 28.6657 1.80105ZM19.5816 2.15892C19.3286 0.503787 18.4202 0.0229019 16.2125 0.0229019H12.1879L9.84211 6.69936H11.3254C12.2109 6.69936 12.6593 6.71054 13.1308 5.48037L14.1082 2.61744H15.603C16.8794 2.61744 16.5919 4.17193 15.948 5.68167C15.3731 7.01248 14.3726 8.18674 13.1653 8.18674H10.67C9.66961 8.18674 9.20967 8.45514 9.02567 9.01432L8.40473 10.7925H10.2331L12.0269 10.7813C13.6137 10.7701 14.9131 10.6583 16.4309 9.32744C18.0408 7.90716 19.9036 4.26138 19.5816 2.15892ZM39.7967 0.0117188H36.3126L33.0353 3.40027C32.6558 3.79168 32.2649 4.18309 31.8853 4.64163H31.8508L33.4836 0.0117188H30.6436L26.8144 10.7813H29.6547L30.8734 7.39273L32.1382 6.35267L33.1388 9.41692C33.4491 10.3675 33.7713 10.7813 34.4613 10.7813H36.6345L34.4036 4.76464L39.7967 0.0117188Z" fill="#00B33C"/>
</g>
<defs>
<clipPath id="clip0_851_68028">
<rect width="40" height="11" fill="white"/>
</clipPath>
</defs>
</svg>
