<svg width="24" height="24" viewBox="0 0 24 24" fill="none" xmlns="http://www.w3.org/2000/svg">
<path fill-rule="evenodd" clip-rule="evenodd" d="M10.8571 3.5C6.79391 3.5 3.5 6.79391 3.5 10.8571C3.5 14.9204 6.79391 18.2143 10.8571 18.2143C12.7088 18.2143 14.4007 17.5302 15.6939 16.401L19.6464 20.3536C19.8417 20.5488 20.1583 20.5488 20.3536 20.3536C20.5488 20.1583 20.5488 19.8417 20.3536 19.6464L16.401 15.6939C17.5302 14.4007 18.2143 12.7088 18.2143 10.8571C18.2143 6.79391 14.9204 3.5 10.8571 3.5ZM4.5 10.8571C4.5 7.34619 7.34619 4.5 10.8571 4.5C14.3681 4.5 17.2143 7.34619 17.2143 10.8571C17.2143 14.3681 14.3681 17.2143 10.8571 17.2143C7.34619 17.2143 4.5 14.3681 4.5 10.8571Z" fill="#1C1C1C"/>
</svg>
