<svg width="14" height="14" viewBox="0 0 14 14" fill="none" xmlns="http://www.w3.org/2000/svg">
<g clip-path="url(#clip0_647_28695)">
<path fill-rule="evenodd" clip-rule="evenodd" d="M14 7C14 10.8657 10.8657 14 7 14C3.13425 14 0 10.8657 0 7C0 3.13425 3.13425 0 7 0C10.8657 0 14 3.13425 14 7ZM7.25083 5.16775C6.57008 5.45067 5.20917 6.03692 3.16867 6.92592C2.83733 7.05775 2.6635 7.18667 2.64775 7.31267C2.62092 7.52617 2.88808 7.61017 3.25092 7.72392C3.3005 7.73967 3.35183 7.75542 3.40433 7.77292C3.76192 7.889 4.24258 8.02492 4.49225 8.03017C4.71917 8.03483 4.97233 7.9415 5.25175 7.75017C7.15808 6.46275 8.14217 5.81233 8.204 5.79833C8.24775 5.78842 8.30842 5.77558 8.34925 5.81233C8.39008 5.8485 8.386 5.91733 8.38192 5.936C8.35508 6.04858 7.30858 7.02217 6.76608 7.52617C6.59692 7.68308 6.47733 7.7945 6.45283 7.82017C6.398 7.87675 6.342 7.931 6.28833 7.98292C5.95583 8.30258 5.70733 8.54292 6.30233 8.93492C6.58817 9.12333 6.81683 9.27908 7.04492 9.43425C7.294 9.604 7.5425 9.77317 7.8645 9.98433C7.94617 10.038 8.02433 10.0934 8.10075 10.1477C8.39067 10.3547 8.65142 10.5402 8.97342 10.5111C9.16008 10.4936 9.35375 10.318 9.45175 9.79358C9.68333 8.55342 10.1395 5.86775 10.2451 4.76058C10.2515 4.66866 10.2476 4.5763 10.2334 4.48525C10.2249 4.41171 10.1891 4.34404 10.1331 4.29567C10.0497 4.22742 9.92017 4.21283 9.86183 4.214C9.59875 4.21867 9.19508 4.35925 7.25083 5.16775Z" fill="currentColor"/>
</g>
<defs>
<clipPath id="clip0_647_28695">
<rect width="14" height="14" fill="white"/>
</clipPath>
</defs>
</svg>
