<svg width="299" height="297" viewBox="0 0 299 297" fill="none" xmlns="http://www.w3.org/2000/svg">
<g opacity="0.04">
<path d="M66.9121 235.179C66.2485 235.179 65.5931 235.033 64.9924 234.752C64.3918 234.471 63.8607 234.061 63.4375 233.552C63.0138 233.044 62.7083 232.448 62.5422 231.808C62.3761 231.169 62.3536 230.5 62.4766 229.851L71.3773 182.731C71.5425 181.84 71.9766 181.021 72.6212 180.383L181.617 71.838C182.26 71.1971 183.082 70.765 183.976 70.5991L231.284 61.7361C232.007 61.6004 232.751 61.6425 233.453 61.8586C234.154 62.0746 234.793 62.4577 235.312 62.9749C235.832 63.492 236.217 64.1278 236.434 64.8271C236.652 65.5259 236.694 66.2673 236.558 66.9863L227.657 114.104C227.491 114.994 227.057 115.814 226.414 116.453L117.429 224.997C116.789 225.638 115.967 226.071 115.073 226.236L67.7629 235.101C67.4824 235.153 67.1972 235.179 66.9121 235.179ZM232.117 64.5899C232.016 64.5913 231.916 64.6003 231.817 64.6178L184.508 73.4827C184.197 73.5398 183.911 73.6901 183.688 73.913L74.7104 182.464C74.4873 182.687 74.3363 182.971 74.2767 183.28L65.3777 230.401C65.3285 230.651 65.3424 230.909 65.4183 231.152C65.4938 231.395 65.6288 231.615 65.8113 231.794C65.9917 231.974 66.2135 232.107 66.4573 232.182C66.7006 232.257 66.9591 232.271 67.2098 232.225L114.522 223.36C114.831 223.302 115.116 223.152 115.337 222.929L224.322 114.386C224.546 114.163 224.696 113.879 224.754 113.57L233.655 66.4503C233.697 66.2252 233.69 65.9937 233.633 65.7716C233.576 65.55 233.47 65.343 233.324 65.1664C233.177 64.9895 232.995 64.8468 232.787 64.748C232.579 64.6497 232.352 64.5973 232.122 64.5955L232.117 64.5899Z" fill="#1C1C1C"/>
<path d="M232.121 235.179C231.839 235.179 231.56 235.153 231.284 235.101L183.973 226.236C183.078 226.072 182.254 225.64 181.613 224.997L72.6218 116.454C71.978 115.814 71.5439 114.995 71.3783 114.104L62.4764 66.9866C62.3405 66.2675 62.3828 65.5261 62.5993 64.8268C62.8164 64.1275 63.2014 63.4918 63.7213 62.9742C64.2408 62.4571 64.8794 62.0735 65.5815 61.8578C66.284 61.6422 67.0283 61.6006 67.7502 61.7363L115.064 70.5993C115.957 70.766 116.778 71.1981 117.42 71.8381L226.413 180.382C227.057 181.022 227.49 181.842 227.657 182.733L236.558 229.851C236.681 230.5 236.658 231.169 236.491 231.808C236.326 232.449 236.02 233.044 235.596 233.553C235.172 234.062 234.641 234.471 234.041 234.752C233.44 235.033 232.785 235.179 232.121 235.179ZM66.9066 64.5906C66.677 64.5927 66.4505 64.6447 66.2429 64.7435C66.0354 64.8423 65.8524 64.9849 65.7066 65.1618C65.5608 65.3384 65.4555 65.545 65.3981 65.767C65.3411 65.9887 65.3334 66.2203 65.376 66.4453L74.2758 113.565C74.3349 113.874 74.4863 114.157 74.7094 114.381L183.7 222.923C183.923 223.147 184.209 223.297 184.52 223.354L231.834 232.219C232.084 232.266 232.343 232.251 232.587 232.176C232.831 232.101 233.053 231.968 233.233 231.788C233.414 231.608 233.547 231.388 233.623 231.145C233.698 230.902 233.714 230.644 233.666 230.394L224.764 183.277C224.707 182.967 224.556 182.682 224.333 182.459L115.34 73.9154C115.118 73.692 114.832 73.5421 114.522 73.485L67.2086 64.6202C67.109 64.6021 67.008 64.5923 66.9066 64.5906Z" fill="#1C1C1C"/>
<path d="M149.514 268.878C148.775 268.878 148.046 268.699 147.392 268.359C146.738 268.018 146.179 267.526 145.761 266.924L118.393 227.464C117.874 226.719 117.598 225.837 117.602 224.934L117.602 71.9031C117.599 71.0004 117.875 70.1183 118.393 69.3736L145.758 29.9095C146.175 29.3079 146.735 28.8156 147.389 28.4754C148.042 28.1352 148.771 27.9573 149.51 27.957C150.249 27.9575 150.977 28.1356 151.631 28.4759C152.285 28.816 152.845 29.3081 153.262 29.9095L180.625 69.3736C181.142 70.1187 181.418 71.0004 181.417 71.9031V224.934C181.418 225.837 181.142 226.719 180.625 227.464L153.271 266.918C152.855 267.522 152.294 268.016 151.639 268.357C150.985 268.699 150.254 268.878 149.514 268.878ZM149.514 30.8783C149.255 30.8755 148.999 30.9362 148.771 31.0545C148.541 31.173 148.345 31.3456 148.2 31.5568L120.836 71.0209C120.656 71.28 120.562 71.5861 120.562 71.8992L120.562 224.93C120.562 225.244 120.656 225.551 120.836 225.81L148.2 265.272C148.345 265.485 148.541 265.658 148.77 265.777C148.999 265.895 149.254 265.956 149.514 265.953C149.773 265.957 150.029 265.896 150.258 265.777C150.487 265.659 150.683 265.485 150.827 265.272L178.183 225.799C178.363 225.54 178.459 225.233 178.458 224.92V71.8881C178.459 71.5746 178.363 71.268 178.183 71.0098L150.82 31.5457C150.675 31.3359 150.481 31.1646 150.253 31.0472C150.024 30.9297 149.771 30.8698 149.514 30.8728V30.8783Z" fill="#1C1C1C"/>
<path d="M180.943 224.422L149.158 192.784L117.371 224.422V179.693H72.4336L104.219 148.058L72.4336 116.425H117.371V71.6953L149.158 103.331L180.943 71.6953V116.425H225.877L194.092 148.062L225.877 179.693H180.943V224.422ZM151.241 190.704L177.981 217.317V179.693H162.304L151.241 190.704ZM120.332 179.693V217.317L147.073 190.704L136.01 179.693H120.332ZM140.189 179.693L149.156 188.618L158.123 179.693H140.189ZM180.949 176.752H218.751L192.01 150.139L180.949 161.15V176.752ZM165.272 176.752H177.992V164.09L165.272 176.752ZM137.234 176.752H161.091L177.992 159.93V136.185L161.091 119.363H137.229L120.327 136.185V159.932L137.234 176.752ZM120.332 176.752H133.054L120.332 164.09V176.752ZM79.5749 176.752H117.377V161.15L106.315 150.139L79.5749 176.752ZM180.949 139.128V156.988L189.915 148.064L180.949 139.128ZM108.404 148.053L117.371 156.977V139.117L108.404 148.053ZM180.949 134.96L192.01 145.972L218.751 119.357H180.943L180.949 134.96ZM79.5749 119.357L106.309 145.988L117.371 134.975V119.363L79.5749 119.357ZM165.272 119.357L177.992 132.019V119.357H165.272ZM120.332 119.357V132.019L133.054 119.357H120.332ZM162.315 116.416H177.992V78.7973L151.252 105.411L162.315 116.416ZM140.189 116.416H158.136L149.169 107.491L140.189 116.416ZM120.332 116.416H136.01L147.073 105.406L120.332 78.7973V116.416Z" fill="#1C1C1C"/>
<path d="M227.166 179.971H71.8553C70.9392 179.972 70.044 179.699 69.2883 179.186L29.2363 152.13C28.6264 151.718 28.1275 151.164 27.7828 150.518C27.438 149.871 27.2578 149.152 27.2578 148.421C27.2578 147.69 27.438 146.971 27.7828 146.324C28.1275 145.677 28.6264 145.124 29.2363 144.711L69.2883 117.655C70.0444 117.145 70.9397 116.872 71.8553 116.873L227.166 116.873C228.082 116.872 228.977 117.145 229.733 117.655L269.783 144.711C270.394 145.124 270.893 145.677 271.238 146.324C271.583 146.97 271.764 147.69 271.764 148.421C271.764 149.152 271.583 149.872 271.238 150.518C270.893 151.165 270.394 151.718 269.783 152.13L229.733 179.186C228.978 179.699 228.083 179.972 227.166 179.971ZM71.8553 119.8C71.5366 119.8 71.2253 119.895 70.9622 120.072L30.912 147.128C30.6991 147.271 30.5249 147.464 30.4045 147.689C30.2841 147.913 30.2211 148.164 30.2211 148.418C30.2211 148.673 30.2841 148.924 30.4045 149.148C30.5249 149.373 30.6991 149.565 30.912 149.708L70.9622 176.764C71.2253 176.942 71.5366 177.037 71.8553 177.036H227.166C227.485 177.036 227.795 176.941 228.058 176.764L268.11 149.708C268.323 149.565 268.497 149.373 268.617 149.148C268.738 148.924 268.8 148.673 268.8 148.418C268.8 148.164 268.738 147.913 268.617 147.689C268.497 147.464 268.323 147.271 268.11 147.128L228.058 120.072C227.795 119.895 227.485 119.8 227.166 119.8L71.8553 119.8Z" fill="#1C1C1C"/>
<path d="M161.593 29.7094L183.712 61.7449C183.874 61.9785 184.1 62.1606 184.363 62.2693C184.627 62.3779 184.916 62.4084 185.197 62.3569L223.945 55.292C224.144 55.2554 224.333 55.179 224.501 55.0669C224.67 54.9544 224.812 54.8093 224.921 54.64C225.03 54.4708 225.102 54.281 225.134 54.0825C225.165 53.8841 225.155 53.6818 225.103 53.4877L211.36 1.09515C211.303 0.876295 211.196 0.673513 211.046 0.502821C210.897 0.332132 210.709 0.198217 210.499 0.11156C210.288 0.0249029 210.059 -0.012113 209.832 0.00347346C209.604 0.01906 209.384 0.0868134 209.187 0.201369L162.064 27.6251C161.89 27.7265 161.739 27.8623 161.62 28.0241C161.5 28.1859 161.416 28.3703 161.372 28.5658C161.327 28.7612 161.324 28.9637 161.362 29.1604C161.4 29.3572 161.479 29.544 161.593 29.7094Z" fill="#1C1C1C"/>
<path d="M243.156 74.3142L235.929 112.395C235.875 112.672 235.904 112.961 236.012 113.224C236.121 113.486 236.305 113.711 236.542 113.872L268.997 135.976C269.163 136.089 269.352 136.168 269.551 136.206C269.75 136.245 269.955 136.242 270.153 136.199C270.351 136.155 270.538 136.072 270.702 135.953C270.866 135.835 271.004 135.685 271.106 135.512L298.797 88.9236C298.914 88.7293 298.982 88.5106 298.997 88.286C299.013 88.0606 298.976 87.8352 298.889 87.6261C298.802 87.4178 298.666 87.2323 298.494 87.0838C298.322 86.936 298.118 86.8289 297.897 86.772L244.978 73.1822C244.783 73.1317 244.58 73.1214 244.38 73.1518C244.181 73.1822 243.99 73.2523 243.819 73.3584C243.649 73.4645 243.502 73.6039 243.388 73.7686C243.274 73.9328 243.196 74.1184 243.156 74.3142Z" fill="#1C1C1C"/>
<path d="M75.7606 54.6499L113.403 61.6322C113.678 61.6825 113.961 61.6537 114.218 61.5483C114.476 61.4433 114.697 61.2664 114.855 61.0398L136.706 29.6965C136.819 29.5351 136.897 29.3523 136.936 29.1595C136.974 28.9666 136.972 28.7681 136.93 28.5762C136.887 28.3842 136.804 28.2032 136.687 28.0444C136.569 27.8855 136.42 27.7524 136.249 27.6533L90.1928 0.905556C90.0004 0.793886 89.7847 0.727743 89.5624 0.712433C89.34 0.697109 89.1176 0.732997 88.911 0.817244C88.7051 0.901491 88.5217 1.03185 88.3757 1.198C88.2289 1.36415 88.1233 1.5616 88.0672 1.77483L74.6308 52.8817C74.5792 53.0715 74.5687 53.2694 74.5986 53.4634C74.6286 53.6578 74.699 53.8437 74.8045 54.0097C74.9108 54.1758 75.0501 54.3182 75.2148 54.4284C75.3795 54.5385 75.5645 54.6142 75.7606 54.6499Z" fill="#1C1C1C"/>
<path d="M30.0505 135.979L62.4561 114.105C62.692 113.946 62.8758 113.723 62.9855 113.462C63.0953 113.203 63.1256 112.916 63.0736 112.639L55.9269 74.3285C55.8901 74.1316 55.8125 73.9442 55.6993 73.7778C55.5856 73.6119 55.4391 73.4703 55.2678 73.363C55.0965 73.2552 54.9044 73.1838 54.7041 73.1525C54.5033 73.1214 54.2987 73.1312 54.1022 73.1821L1.10512 86.7715C0.884105 86.8284 0.679454 86.9355 0.507229 87.0833C0.335004 87.231 0.199867 87.4165 0.112474 87.6248C0.0250807 87.8332 -0.0122144 88.0586 0.00350546 88.2832C0.0192253 88.5085 0.0875366 88.7265 0.203081 88.9208L27.9414 135.513C28.0442 135.686 28.1818 135.836 28.3457 135.953C28.5095 136.071 28.696 136.154 28.8937 136.198C29.0914 136.241 29.2961 136.245 29.495 136.207C29.694 136.17 29.8831 136.092 30.0505 135.979Z" fill="#1C1C1C"/>
<path d="M55.8562 222.516L63.0835 184.437C63.1376 184.158 63.1086 183.871 62.9999 183.608C62.8908 183.346 62.7073 183.12 62.4708 182.96L30.0167 160.865C29.8498 160.751 29.661 160.673 29.4621 160.634C29.2631 160.596 29.0583 160.599 28.8603 160.642C28.6624 160.685 28.4756 160.768 28.3117 160.886C28.1477 161.004 28.01 161.154 27.9072 161.327L0.214228 207.917C0.0988789 208.112 0.0307449 208.33 0.0151639 208.554C-0.000417031 208.78 0.0369971 209.006 0.124446 209.214C0.211896 209.422 0.347011 209.607 0.519179 209.755C0.691351 209.904 0.895873 210.01 1.11672 210.067L54.0344 223.659C54.2301 223.709 54.4345 223.719 54.6345 223.688C54.8345 223.657 55.0258 223.586 55.1965 223.479C55.3675 223.372 55.5143 223.231 55.6276 223.065C55.7411 222.9 55.819 222.713 55.8562 222.516Z" fill="#1C1C1C"/>
<path d="M137.418 267.137L115.299 235.101C115.137 234.868 114.911 234.685 114.648 234.577C114.384 234.469 114.094 234.438 113.814 234.489L75.0671 241.554C74.868 241.591 74.6786 241.667 74.5104 241.779C74.3421 241.891 74.1994 242.036 74.0905 242.206C73.9817 242.375 73.9089 242.565 73.8772 242.763C73.8459 242.962 73.8559 243.164 73.9066 243.358L87.651 295.753C87.7085 295.971 87.8159 296.174 87.9658 296.345C88.1157 296.515 88.3028 296.648 88.5131 296.735C88.7242 296.822 88.9524 296.858 89.1799 296.843C89.4073 296.827 89.6281 296.76 89.8249 296.645L136.946 269.221C137.12 269.119 137.272 268.983 137.391 268.822C137.51 268.66 137.595 268.476 137.639 268.28C137.683 268.085 137.686 267.882 137.648 267.686C137.61 267.489 137.532 267.302 137.418 267.137Z" fill="#1C1C1C"/>
<path d="M223.95 241.644L185.437 234.49C185.157 234.438 184.867 234.467 184.603 234.575C184.34 234.683 184.113 234.864 183.951 235.097L161.596 267.183C161.48 267.348 161.402 267.535 161.363 267.731C161.324 267.928 161.328 268.13 161.371 268.326C161.415 268.521 161.499 268.706 161.618 268.868C161.738 269.03 161.889 269.166 162.064 269.267L209.185 296.645C209.381 296.759 209.603 296.827 209.83 296.842C210.058 296.859 210.286 296.822 210.497 296.735C210.707 296.648 210.895 296.515 211.045 296.345C211.194 296.175 211.302 295.973 211.36 295.754L225.106 243.437C225.156 243.244 225.165 243.043 225.132 242.846C225.1 242.649 225.028 242.461 224.92 242.293C224.812 242.125 224.669 241.981 224.502 241.869C224.336 241.758 224.147 241.681 223.95 241.644Z" fill="#1C1C1C"/>
<path d="M268.951 160.863L236.546 182.733C236.309 182.894 236.124 183.118 236.014 183.381C235.904 183.643 235.875 183.931 235.928 184.21L243.076 222.515C243.112 222.713 243.19 222.9 243.303 223.066C243.416 223.233 243.563 223.374 243.735 223.481C243.906 223.589 244.098 223.661 244.298 223.692C244.499 223.723 244.704 223.713 244.9 223.662L297.894 210.074C298.115 210.017 298.319 209.911 298.492 209.763C298.665 209.615 298.8 209.429 298.888 209.221C298.975 209.013 299.013 208.787 298.997 208.563C298.982 208.337 298.913 208.12 298.797 207.924L271.06 161.338C270.958 161.165 270.822 161.014 270.658 160.896C270.494 160.777 270.308 160.693 270.11 160.648C269.912 160.603 269.708 160.6 269.508 160.637C269.308 160.674 269.119 160.751 268.951 160.863Z" fill="#1C1C1C"/>
<path d="M172.07 69.4214L151.452 39.6975C151.238 39.3942 150.953 39.1465 150.62 38.9753C150.289 38.8042 149.92 38.7148 149.545 38.7148C149.17 38.7148 148.801 38.8042 148.469 38.9753C148.137 39.1465 147.852 39.3942 147.638 39.6975L127.019 69.4214C124.908 72.1249 127.416 74.593 128.839 75.9945L138.007 85.0259C138.12 85.1355 138.255 85.2182 138.404 85.2674C138.553 85.3181 138.712 85.333 138.868 85.3129C139.024 85.292 139.173 85.2369 139.304 85.1504C139.436 85.0639 139.544 84.9491 139.623 84.8149L148.656 69.4063C148.745 69.2527 148.876 69.1254 149.032 69.0364C149.188 68.948 149.365 68.9014 149.545 68.9014C149.725 68.9014 149.902 68.948 150.058 69.0364C150.214 69.1254 150.344 69.2527 150.434 69.4063L159.466 84.8149C159.545 84.9491 159.654 85.0639 159.785 85.1504C159.916 85.2369 160.065 85.292 160.221 85.3129C160.377 85.333 160.536 85.3181 160.685 85.2674C160.835 85.2182 160.97 85.1355 161.082 85.0259L170.251 75.9945C171.675 74.593 174.022 72.4918 172.07 69.4214Z" fill="#1C1C1C"/>
<path d="M77.1067 189.095L70.3106 224.588C70.2436 224.953 70.2674 225.328 70.3798 225.681C70.4921 226.035 70.69 226.357 70.9565 226.618C71.2226 226.88 71.5495 227.075 71.9091 227.186C72.2681 227.297 72.6497 227.32 73.0202 227.254L109.129 220.578C112.58 220.136 112.578 216.632 112.578 214.643V201.828C112.578 201.672 112.542 201.518 112.472 201.379C112.402 201.239 112.301 201.118 112.175 201.023C112.049 200.928 111.903 200.862 111.748 200.833C111.592 200.803 111.433 200.808 111.28 200.848L93.7405 205.47C93.5655 205.516 93.3806 205.516 93.2064 205.47C93.0314 205.424 92.8715 205.333 92.7435 205.207C92.6155 205.081 92.5231 204.924 92.4761 204.752C92.4291 204.58 92.4291 204.399 92.4761 204.227L97.1745 186.981C97.2162 186.83 97.2215 186.673 97.1904 186.52C97.1593 186.367 97.0934 186.224 96.9972 186.1C96.901 185.977 96.7768 185.877 96.6344 185.808C96.4927 185.739 96.3366 185.704 96.1783 185.704H83.1437C81.1301 185.704 77.9415 185.556 77.1067 189.095Z" fill="#1C1C1C"/>
<path d="M189.885 220.574L225.991 227.256C226.361 227.322 226.743 227.298 227.102 227.188C227.462 227.077 227.789 226.882 228.056 226.621C228.322 226.358 228.519 226.037 228.632 225.684C228.744 225.331 228.768 224.955 228.701 224.591L221.912 189.096C221.461 185.704 217.898 185.705 215.874 185.705H202.837C202.68 185.705 202.523 185.741 202.381 185.81C202.239 185.879 202.115 185.978 202.018 186.102C201.922 186.226 201.856 186.369 201.826 186.522C201.795 186.674 201.8 186.832 201.841 186.982L206.54 204.223C206.588 204.395 206.588 204.577 206.542 204.749C206.495 204.921 206.402 205.079 206.274 205.204C206.146 205.331 205.986 205.421 205.81 205.467C205.635 205.513 205.451 205.513 205.276 205.466L187.734 200.847C187.581 200.807 187.421 200.801 187.266 200.832C187.11 200.862 186.964 200.927 186.838 201.022C186.713 201.117 186.611 201.238 186.541 201.378C186.472 201.518 186.435 201.671 186.435 201.827V214.639C186.432 216.629 186.282 219.756 189.885 220.574Z" fill="#1C1C1C"/>
<path d="M221.906 107.74L228.701 72.2476C228.768 71.883 228.744 71.5085 228.632 71.1547C228.519 70.8015 228.322 70.4802 228.055 70.2182C227.789 69.9563 227.462 69.7619 227.103 69.6515C226.743 69.5407 226.362 69.5177 225.992 69.5835L189.885 76.2574C186.434 76.7009 186.434 80.2036 186.434 82.1931V95.007C186.434 95.1633 186.471 95.3167 186.54 95.4565C186.611 95.5964 186.712 95.7176 186.838 95.8125C186.964 95.9075 187.11 95.9726 187.265 96.0025C187.421 96.0324 187.581 96.0272 187.734 95.9868L205.273 91.3675C205.448 91.3219 205.632 91.3219 205.807 91.3675C205.982 91.4139 206.141 91.5044 206.269 91.6308C206.397 91.7564 206.49 91.9135 206.537 92.0855C206.584 92.2575 206.584 92.4393 206.537 92.6106L201.836 109.855C201.796 110.004 201.791 110.162 201.821 110.315C201.853 110.468 201.919 110.611 202.015 110.734C202.112 110.858 202.236 110.958 202.378 111.027C202.52 111.095 202.676 111.131 202.835 111.131H215.869C217.891 111.14 221.073 111.291 221.906 107.74Z" fill="#1C1C1C"/>
<path d="M69.9056 126.204L39.7243 146.507C39.4164 146.717 39.1648 146.998 38.9911 147.324C38.8173 147.651 38.7266 148.015 38.7266 148.384C38.7266 148.753 38.8173 149.116 38.9911 149.444C39.1648 149.771 39.4164 150.051 39.7243 150.262L69.9056 170.564C72.6489 172.643 75.1555 170.175 76.5801 168.772L85.7503 159.744C85.8611 159.634 85.9455 159.501 85.996 159.354C86.0465 159.207 86.0623 159.05 86.0412 158.897C86.0209 158.743 85.9643 158.597 85.8769 158.468C85.7894 158.339 85.6726 158.231 85.5362 158.153L69.8903 149.259C69.7346 149.171 69.6048 149.043 69.515 148.89C69.4251 148.736 69.3773 148.562 69.3773 148.384C69.3773 148.206 69.4251 148.032 69.515 147.879C69.6048 147.725 69.7346 147.598 69.8903 147.509L85.5362 138.615C85.6726 138.537 85.7894 138.43 85.8769 138.301C85.9643 138.172 86.0209 138.025 86.0412 137.872C86.0623 137.718 86.0465 137.561 85.996 137.414C85.9455 137.267 85.8611 137.134 85.7503 137.024L76.5801 128.002C75.1555 126.595 73.0232 124.287 69.9056 126.204Z" fill="#1C1C1C"/>
<path d="M126.948 227.419L147.568 257.14C147.782 257.444 148.067 257.692 148.399 257.863C148.731 258.035 149.1 258.124 149.475 258.124C149.849 258.124 150.219 258.035 150.552 257.863C150.883 257.692 151.168 257.444 151.382 257.14L172.001 227.419C174.113 224.716 171.604 222.247 170.181 220.846L161.013 211.813C160.901 211.704 160.766 211.621 160.616 211.571C160.467 211.521 160.308 211.506 160.152 211.526C159.996 211.546 159.847 211.602 159.716 211.689C159.585 211.774 159.476 211.889 159.397 212.023L150.364 227.432C150.274 227.586 150.144 227.713 149.988 227.802C149.832 227.891 149.655 227.937 149.475 227.937C149.295 227.937 149.118 227.891 148.962 227.802C148.805 227.713 148.677 227.586 148.586 227.432L139.553 212.023C139.474 211.889 139.366 211.774 139.235 211.689C139.103 211.602 138.954 211.546 138.797 211.526C138.641 211.506 138.483 211.521 138.334 211.571C138.185 211.621 138.049 211.704 137.937 211.813L128.768 220.846C127.344 222.247 125.002 224.347 126.948 227.419Z" fill="#1C1C1C"/>
<path d="M229.114 170.636L259.295 150.334C259.603 150.124 259.854 149.843 260.028 149.516C260.202 149.189 260.292 148.825 260.292 148.457C260.292 148.088 260.202 147.724 260.028 147.397C259.854 147.07 259.603 146.789 259.295 146.579L229.114 126.276C226.37 124.198 223.864 126.668 222.439 128.068L213.269 137.096C213.158 137.206 213.074 137.34 213.023 137.487C212.973 137.634 212.957 137.79 212.977 137.944C212.998 138.098 213.055 138.245 213.142 138.374C213.23 138.502 213.347 138.61 213.483 138.687L229.129 147.581C229.286 147.67 229.415 147.798 229.506 147.951C229.596 148.105 229.643 148.28 229.643 148.457C229.643 148.635 229.596 148.81 229.506 148.963C229.415 149.118 229.286 149.245 229.129 149.334L213.483 158.226C213.347 158.303 213.23 158.411 213.142 158.54C213.055 158.669 212.998 158.816 212.977 158.97C212.957 159.123 212.973 159.28 213.023 159.426C213.074 159.573 213.158 159.707 213.269 159.817L222.439 168.845C223.864 170.247 225.996 172.553 229.114 170.636Z" fill="#1C1C1C"/>
<path d="M109.199 77.4695L73.7058 71.0174C73.3415 70.9543 72.9664 70.9768 72.6129 71.0838C72.2595 71.1908 71.9381 71.3785 71.6764 71.6313C71.4144 71.8843 71.2199 72.1944 71.109 72.5359C70.9981 72.877 70.9747 73.2389 71.0401 73.5909L77.7158 107.862C78.1589 111.136 81.6625 111.136 83.6511 111.136H96.4663C96.6219 111.136 96.7754 111.101 96.9146 111.035C97.0539 110.968 97.1753 110.872 97.2707 110.752C97.3653 110.633 97.4301 110.495 97.4606 110.347C97.4911 110.2 97.4859 110.048 97.4457 109.903L92.8242 93.2546C92.7787 93.0893 92.7787 92.9138 92.8242 92.7477C92.8711 92.5817 92.9612 92.43 93.0871 92.3087C93.2137 92.1867 93.3701 92.0993 93.5422 92.0546C93.715 92.0105 93.8959 92.0105 94.068 92.0546L111.313 96.5162C111.464 96.5552 111.622 96.5603 111.774 96.5314C111.927 96.5018 112.07 96.439 112.194 96.3473C112.317 96.2563 112.417 96.1386 112.486 96.0035C112.555 95.8692 112.591 95.7205 112.591 95.5703V83.1991C112.591 81.2792 112.737 78.2595 109.199 77.4695Z" fill="#1C1C1C"/>
<path d="M136.232 106.985L134.053 109.186C133.273 109.974 132.217 110.417 131.114 110.417H128.008C127.341 110.417 126.703 110.15 126.231 109.673C125.761 109.197 125.496 108.551 125.496 107.878V94.8978C125.496 94.705 125.553 94.5175 125.658 94.3584C125.765 94.1985 125.915 94.0738 126.09 94.0003C126.266 93.9261 126.459 93.907 126.646 93.9445C126.832 93.9812 127.004 94.0738 127.139 94.2092L136.224 103.388C136.459 103.624 136.647 103.903 136.775 104.212C136.902 104.52 136.969 104.851 136.969 105.186C136.969 105.52 136.904 105.85 136.778 106.16C136.652 106.469 136.466 106.749 136.232 106.985Z" fill="#1C1C1C"/>
<path d="M170.299 109.7H167.213C166.111 109.699 165.054 109.276 164.274 108.524L162.077 106.404C161.843 106.179 161.658 105.912 161.531 105.617C161.405 105.322 161.34 105.007 161.34 104.688C161.34 104.369 161.405 104.053 161.531 103.758C161.658 103.464 161.843 103.197 162.077 102.971L171.168 94.1967C171.303 94.0672 171.474 93.9787 171.662 93.9436C171.848 93.9078 172.041 93.9261 172.217 93.997C172.393 94.0672 172.544 94.1857 172.649 94.3386C172.755 94.4915 172.812 94.6707 172.812 94.8542V107.273C172.812 107.592 172.747 107.907 172.621 108.202C172.495 108.496 172.31 108.763 172.077 108.989C171.843 109.214 171.566 109.393 171.261 109.515C170.955 109.637 170.629 109.7 170.299 109.7Z" fill="#1C1C1C"/>
<path d="M191.302 135.495L189.101 133.317C188.314 132.536 187.872 131.479 187.871 130.377V127.27C187.871 126.603 188.139 125.964 188.615 125.493C189.091 125.022 189.736 124.758 190.409 124.758H203.39C203.583 124.757 203.771 124.814 203.931 124.92C204.091 125.025 204.215 125.176 204.289 125.352C204.362 125.528 204.381 125.721 204.344 125.908C204.307 126.095 204.213 126.267 204.077 126.401L194.899 135.488C194.663 135.723 194.383 135.909 194.075 136.036C193.767 136.164 193.435 136.229 193.102 136.23C192.767 136.231 192.437 136.167 192.128 136.041C191.819 135.914 191.539 135.73 191.302 135.495Z" fill="#1C1C1C"/>
<path d="M187.859 168.853V165.768C187.86 164.664 188.302 163.606 189.088 162.826L191.305 160.628C191.78 160.157 192.426 159.893 193.098 159.893C193.771 159.893 194.416 160.157 194.892 160.628L204.065 169.721C204.202 169.855 204.295 170.027 204.332 170.214C204.37 170.402 204.351 170.596 204.276 170.772C204.203 170.948 204.078 171.098 203.918 171.204C203.758 171.31 203.57 171.366 203.377 171.365H190.395C189.723 171.365 189.078 171.1 188.602 170.63C188.127 170.158 187.859 169.519 187.859 168.853Z" fill="#1C1C1C"/>
<path d="M162.786 189.854L164.967 187.653C165.353 187.263 165.811 186.954 166.316 186.743C166.82 186.532 167.361 186.423 167.907 186.424H171.011C171.678 186.424 172.317 186.692 172.787 187.167C173.258 187.643 173.523 188.288 173.523 188.961V201.941C173.523 202.134 173.468 202.322 173.362 202.483C173.256 202.643 173.106 202.768 172.93 202.842C172.754 202.915 172.56 202.934 172.373 202.897C172.186 202.859 172.015 202.766 171.88 202.63L162.794 193.451C162.559 193.215 162.373 192.936 162.245 192.628C162.118 192.319 162.052 191.988 162.051 191.654C162.05 191.32 162.115 190.989 162.241 190.68C162.368 190.371 162.552 190.091 162.786 189.854Z" fill="#1C1C1C"/>
<path d="M128.722 187.139H131.805C132.909 187.14 133.967 187.563 134.747 188.316L136.944 190.436C137.415 190.891 137.679 191.508 137.679 192.152C137.679 192.795 137.415 193.412 136.944 193.867L127.853 202.641C127.718 202.771 127.546 202.859 127.359 202.895C127.172 202.932 126.978 202.913 126.802 202.842C126.626 202.772 126.476 202.653 126.369 202.499C126.264 202.347 126.207 202.167 126.207 201.982V189.566C126.208 188.922 126.473 188.305 126.944 187.85C127.416 187.395 128.056 187.139 128.722 187.139Z" fill="#1C1C1C"/>
<path d="M107.715 161.343L109.918 163.523C110.704 164.304 111.146 165.359 111.148 166.461V169.568C111.147 170.234 110.879 170.873 110.404 171.344C109.927 171.816 109.281 172.08 108.608 172.08H95.6279C95.4359 172.08 95.2478 172.023 95.0878 171.918C94.9285 171.812 94.8036 171.662 94.7305 171.485C94.6566 171.31 94.6375 171.117 94.6748 170.93C94.7114 170.743 94.8036 170.572 94.9392 170.437L104.118 161.35C104.354 161.116 104.633 160.929 104.942 160.802C105.25 160.674 105.581 160.608 105.915 160.607C106.249 160.607 106.58 160.672 106.889 160.798C107.198 160.924 107.479 161.109 107.715 161.343Z" fill="#1C1C1C"/>
<path d="M110.435 127.99V131.073C110.434 132.176 110.011 133.234 109.259 134.014L107.139 136.211C106.683 136.683 106.066 136.947 105.423 136.947C104.779 136.947 104.162 136.683 103.707 136.211L94.9325 127.121C94.8028 126.985 94.714 126.814 94.6783 126.626C94.6419 126.439 94.6608 126.245 94.7307 126.069C94.8014 125.893 94.9208 125.743 95.0738 125.637C95.2267 125.531 95.4066 125.474 95.5909 125.475H108.01C108.654 125.475 109.27 125.741 109.725 126.213C110.179 126.684 110.435 127.323 110.435 127.99Z" fill="#1C1C1C"/>
<path d="M142.862 159.176H159.74V154.709H164.207V137.832H159.74V133.363H142.862V137.832H138.395V154.709H142.862V159.176Z" fill="#1C1C1C"/>
</g>
</svg>
