<svg width="216" height="214" viewBox="0 0 216 214" fill="none" xmlns="http://www.w3.org/2000/svg">
<g opacity="0.02" clip-path="url(#clip0_808_63858)">
<path d="M48.2086 169.527C47.7282 169.527 47.2538 169.422 46.8191 169.219C46.3843 169.016 45.9999 168.721 45.6935 168.355C45.3868 167.988 45.1657 167.559 45.0454 167.098C44.9252 166.637 44.9089 166.155 44.998 165.687L51.4407 131.729C51.5603 131.088 51.8745 130.497 52.3411 130.037L131.237 51.8127C131.702 51.3509 132.298 51.0395 132.945 50.92L167.189 44.5327C167.711 44.4349 168.25 44.4652 168.758 44.6209C169.266 44.7766 169.728 45.0528 170.104 45.4255C170.48 45.7982 170.759 46.2563 170.916 46.7603C171.074 47.2639 171.104 47.7982 171.006 48.3164L164.563 82.2723C164.442 82.914 164.129 83.5043 163.663 83.9656L84.7747 162.189C84.3112 162.651 83.7163 162.963 83.0698 163.082L48.8244 169.471C48.6214 169.508 48.415 169.527 48.2086 169.527ZM167.791 46.5894C167.719 46.5903 167.646 46.5968 167.574 46.6095L133.33 52.998C133.105 53.0392 132.898 53.1475 132.736 53.3082L53.8533 131.537C53.6919 131.697 53.5826 131.902 53.5395 132.125L47.098 166.084C47.0624 166.264 47.0724 166.45 47.1273 166.625C47.182 166.8 47.2797 166.959 47.4118 167.087C47.5424 167.217 47.7029 167.313 47.8794 167.367C48.0555 167.421 48.2426 167.432 48.4241 167.397L82.6706 161.009C82.8949 160.968 83.101 160.859 83.2612 160.699L162.149 82.4754C162.311 82.3153 162.42 82.1104 162.462 81.8872L168.905 47.93C168.935 47.7678 168.93 47.601 168.889 47.441C168.847 47.2812 168.771 47.132 168.665 47.0048C168.559 46.8773 168.427 46.7745 168.276 46.7033C168.126 46.6324 167.962 46.5946 167.795 46.5934L167.791 46.5894Z" fill="black"/>
<path d="M167.794 169.527C167.591 169.527 167.388 169.508 167.189 169.471L132.942 163.082C132.294 162.964 131.699 162.652 131.234 162.189L52.3415 83.966C51.8755 83.505 51.5613 82.9144 51.4414 82.2724L44.9978 48.3165C44.8995 47.7983 44.9301 47.264 45.0869 46.7601C45.244 46.2561 45.5226 45.798 45.8989 45.425C46.275 45.0523 46.7373 44.7758 47.2454 44.6204C47.7539 44.465 48.2927 44.435 48.8152 44.5328L83.0631 50.9201C83.7093 51.0402 84.3037 51.3516 84.7685 51.8129L163.662 130.036C164.128 130.498 164.442 131.089 164.563 131.731L171.006 165.687C171.095 166.155 171.078 166.637 170.958 167.098C170.838 167.559 170.616 167.988 170.309 168.355C170.003 168.721 169.618 169.016 169.183 169.219C168.749 169.422 168.274 169.527 167.794 169.527ZM48.2046 46.5898C48.0385 46.5914 47.8745 46.6288 47.7242 46.7C47.574 46.7712 47.4416 46.874 47.336 47.0015C47.2304 47.1287 47.1542 47.2776 47.1127 47.4377C47.0715 47.5974 47.0658 47.7642 47.0968 47.9264L53.5387 81.8836C53.5815 82.1065 53.6912 82.3111 53.8526 82.4718L132.745 160.695C132.906 160.856 133.113 160.964 133.338 161.005L167.586 167.393C167.768 167.428 167.955 167.417 168.132 167.363C168.308 167.309 168.469 167.212 168.599 167.083C168.73 166.953 168.827 166.794 168.881 166.619C168.936 166.444 168.947 166.259 168.913 166.078L162.469 132.123C162.428 131.899 162.318 131.694 162.157 131.533L83.2627 53.3099C83.1022 53.1489 82.8954 53.0409 82.6708 52.9997L48.4233 46.6112C48.3511 46.5982 48.278 46.591 48.2046 46.5898Z" fill="black"/>
<path d="M108.001 194.364C107.474 194.364 106.954 194.235 106.488 193.988C106.022 193.742 105.623 193.385 105.325 192.949L85.8033 164.379C85.433 163.84 85.2361 163.201 85.2383 162.547V51.748C85.2367 51.0944 85.4336 50.4558 85.8033 49.9166L105.322 21.3433C105.62 20.9077 106.019 20.5513 106.485 20.305C106.952 20.0586 107.471 19.9298 107.999 19.9297C108.526 19.9301 109.045 20.059 109.512 20.3053C109.978 20.5516 110.378 20.9079 110.675 21.3433L130.193 49.9166C130.561 50.4561 130.758 51.0944 130.758 51.748V162.547C130.759 163.201 130.562 163.839 130.193 164.379L110.682 192.945C110.384 193.382 109.985 193.74 109.517 193.987C109.05 194.234 108.53 194.364 108.001 194.364ZM108.001 22.0448C107.817 22.0428 107.635 22.0866 107.471 22.1724C107.308 22.2581 107.168 22.383 107.065 22.536L87.5456 51.1093C87.4178 51.2969 87.3499 51.5186 87.3502 51.7452V162.545C87.3499 162.772 87.4178 162.994 87.5456 163.182L107.065 191.754C107.168 191.907 107.307 192.033 107.471 192.119C107.634 192.205 107.817 192.249 108.001 192.246C108.186 192.249 108.369 192.205 108.532 192.119C108.696 192.033 108.835 191.908 108.938 191.754L128.451 163.174C128.579 162.986 128.648 162.764 128.647 162.537V51.7372C128.648 51.5102 128.579 51.2882 128.451 51.1013L108.933 22.528C108.83 22.3761 108.691 22.2521 108.529 22.1671C108.366 22.082 108.185 22.0386 108.001 22.0408V22.0448Z" fill="black"/>
<path d="M130.798 161.728L107.856 138.935L84.9123 161.728V129.503H52.4766L75.4186 106.711L52.4766 83.9212H84.9123V51.6953L107.856 74.4871L130.798 51.6953V83.9212H163.231L140.289 106.714L163.231 129.503H130.798V161.728ZM109.359 137.436L128.659 156.609V129.503H117.344L109.359 137.436ZM87.0493 129.503V156.609L106.351 137.436L98.366 129.503H87.0493ZM101.382 129.503L107.854 135.933L114.326 129.503H101.382ZM130.802 127.384H158.087L138.786 108.21L130.802 116.143V127.384ZM119.487 127.384H128.668V118.262L119.487 127.384ZM99.2492 127.384H116.469L128.668 115.264V98.1575L116.469 86.0376H99.2452L87.0453 98.1575V115.266L99.2492 127.384ZM87.0493 127.384H96.2315L87.0493 118.262V127.384ZM57.6313 127.384H84.9164V116.143L76.9314 108.21L57.6313 127.384ZM130.802 100.278V113.145L137.274 106.715L130.802 100.278ZM78.4401 106.707L84.9123 113.137V100.27L78.4401 106.707ZM130.802 97.2748L138.786 105.209L158.087 86.0336H130.798L130.802 97.2748ZM57.6313 86.0336L76.9273 105.219L84.9123 97.2854V86.0376L57.6313 86.0336ZM119.487 86.0336L128.668 95.1556V86.0336H119.487ZM87.0493 86.0336V95.1556L96.2315 86.0336H87.0493ZM117.352 83.9143H128.668V56.8121L109.367 75.9859L117.352 83.9143ZM101.382 83.9143H114.336L107.864 77.4849L101.382 83.9143ZM87.0493 83.9143H98.366L106.351 75.9818L87.0493 56.8121V83.9143Z" fill="black"/>
<path d="M163.893 129.958H52.1041C51.4447 129.959 50.8004 129.761 50.2565 129.391L21.428 109.825C20.989 109.527 20.6299 109.126 20.3817 108.659C20.1336 108.191 20.0039 107.671 20.0039 107.143C20.0039 106.614 20.1336 106.094 20.3817 105.626C20.6299 105.159 20.989 104.759 21.428 104.46L50.2565 84.8942C50.8007 84.5248 51.445 84.3275 52.1041 84.3281H163.893C164.553 84.3278 165.197 84.5251 165.741 84.8942L194.568 104.46C195.007 104.758 195.367 105.158 195.615 105.626C195.863 106.093 195.993 106.614 195.993 107.143C195.993 107.671 195.863 108.192 195.615 108.659C195.367 109.127 195.007 109.527 194.568 109.825L165.741 129.391C165.197 129.761 164.553 129.959 163.893 129.958ZM52.1041 86.4451C51.8747 86.4451 51.6506 86.5137 51.4613 86.642L22.6341 106.208C22.4809 106.311 22.3555 106.45 22.2688 106.613C22.1821 106.775 22.1368 106.957 22.1368 107.14C22.1368 107.325 22.1821 107.506 22.2688 107.668C22.3555 107.831 22.4809 107.97 22.6341 108.073L51.4613 127.639C51.6506 127.768 51.8747 127.836 52.1041 127.836H163.893C164.122 127.836 164.346 127.768 164.535 127.639L193.363 108.073C193.517 107.97 193.642 107.831 193.729 107.668C193.815 107.506 193.86 107.325 193.86 107.14C193.86 106.957 193.815 106.775 193.729 106.613C193.642 106.45 193.517 106.311 193.363 106.208L164.535 86.642C164.346 86.5137 164.122 86.4451 163.893 86.4451H52.1041Z" fill="black"/>
<path d="M116.74 21.4566L132.719 44.593C132.836 44.7618 132.999 44.8933 133.189 44.9718C133.38 45.0502 133.589 45.0723 133.792 45.035L161.782 39.9326C161.926 39.9063 162.063 39.8511 162.184 39.7701C162.306 39.6888 162.409 39.584 162.488 39.4618C162.566 39.3396 162.618 39.2025 162.641 39.0592C162.664 38.9159 162.656 38.7698 162.619 38.6296L152.691 0.790933C152.65 0.632873 152.573 0.486421 152.465 0.363144C152.357 0.239871 152.221 0.143155 152.069 0.0805703C151.917 0.0179853 151.752 -0.00874817 151.588 0.00250859C151.423 0.0137654 151.264 0.062698 151.121 0.145431L117.081 19.9513C116.955 20.0245 116.846 20.1226 116.76 20.2394C116.673 20.3563 116.613 20.4895 116.581 20.6306C116.549 20.7718 116.546 20.918 116.574 21.06C116.601 21.2021 116.658 21.3371 116.74 21.4566Z" fill="black"/>
<path d="M175.714 53.4206L170.5 81.133C170.46 81.3357 170.481 81.5455 170.56 81.7366C170.639 81.9274 170.771 82.0914 170.942 82.2082L194.355 98.294C194.475 98.3768 194.611 98.4341 194.755 98.4621C194.898 98.4898 195.047 98.4879 195.189 98.4565C195.332 98.4247 195.467 98.364 195.585 98.2781C195.703 98.1919 195.802 98.0826 195.876 97.9569L215.853 64.0527C215.937 63.9114 215.986 63.7523 215.997 63.5886C216.009 63.4245 215.982 63.2605 215.919 63.1086C215.856 62.957 215.759 62.8219 215.635 62.7139C215.51 62.6062 215.363 62.5284 215.203 62.487L177.028 52.597C176.887 52.5603 176.741 52.5528 176.597 52.5749C176.453 52.597 176.315 52.6481 176.192 52.7252C176.069 52.8024 175.963 52.9039 175.881 53.0238C175.798 53.1433 175.742 53.2784 175.714 53.4206Z" fill="black"/>
<path d="M54.7731 39.4293L81.716 44.4582C81.9123 44.4945 82.1149 44.4737 82.2994 44.3978C82.4839 44.3222 82.6425 44.1949 82.7557 44.0316L98.3948 21.4565C98.4761 21.3402 98.5322 21.2085 98.5599 21.0697C98.5874 20.9308 98.5858 20.7878 98.555 20.6495C98.5244 20.5113 98.4652 20.3809 98.3814 20.2665C98.2975 20.1521 98.1909 20.0562 98.0681 19.9848L65.1032 0.719709C64.9655 0.639276 64.8112 0.591639 64.6519 0.580608C64.493 0.569574 64.3334 0.595419 64.186 0.656099C64.0383 0.716778 63.9071 0.810665 63.8023 0.930341C63.6976 1.05001 63.6222 1.19222 63.582 1.34581L53.9646 38.1557C53.9278 38.2924 53.92 38.4349 53.9415 38.5747C53.963 38.7147 54.0132 38.8486 54.089 38.9682C54.165 39.0878 54.2647 39.1904 54.3826 39.2697C54.5004 39.349 54.6331 39.4035 54.7731 39.4293Z" fill="black"/>
<path d="M21.6786 98.2968L45.0562 82.3786C45.2263 82.2628 45.359 82.1004 45.4381 81.9108C45.5173 81.7216 45.5392 81.5133 45.5016 81.3117L40.346 53.4314C40.3194 53.2879 40.2634 53.1516 40.1818 53.0305C40.0998 52.9097 39.9941 52.8067 39.8705 52.7286C39.7469 52.6502 39.6084 52.5982 39.4638 52.5755C39.319 52.5527 39.1713 52.5599 39.0296 52.5969L0.797244 62.4864C0.637795 62.5278 0.490162 62.6056 0.365918 62.7133C0.241674 62.821 0.144186 62.9561 0.0811393 63.1077C0.0180933 63.2589 -0.0088115 63.423 0.00252885 63.5867C0.0138692 63.7504 0.0631495 63.9091 0.146504 64.0508L20.1571 97.9581C20.2313 98.0836 20.3305 98.1925 20.4487 98.2781C20.5669 98.3637 20.7014 98.4241 20.8441 98.4558C20.9867 98.4876 21.1344 98.4901 21.2779 98.4627C21.4214 98.4353 21.5578 98.3789 21.6786 98.2968Z" fill="black"/>
<path d="M40.2866 160.573L45.5003 132.861C45.5394 132.658 45.5184 132.449 45.44 132.258C45.3613 132.067 45.2289 131.903 45.0584 131.786L21.6458 115.707C21.5254 115.624 21.3892 115.567 21.2456 115.539C21.1021 115.511 20.9543 115.513 20.8116 115.545C20.6688 115.576 20.534 115.637 20.4157 115.722C20.2974 115.808 20.1981 115.917 20.124 116.043L0.146091 149.949C0.0628776 150.09 0.0137256 150.249 0.00248534 150.413C-0.00875482 150.576 0.018236 150.741 0.0813224 150.892C0.144409 151.044 0.241882 151.179 0.366085 151.286C0.49029 151.394 0.637833 151.472 0.797151 151.513L38.9723 161.405C39.1134 161.441 39.2609 161.448 39.4052 161.426C39.5495 161.403 39.6875 161.351 39.8106 161.273C39.9339 161.195 40.0398 161.093 40.1216 160.972C40.2035 160.852 40.2597 160.716 40.2866 160.573Z" fill="black"/>
<path d="M99.2615 192.541L83.2827 169.405C83.1662 169.236 83.0029 169.105 82.8124 169.026C82.6222 168.948 82.413 168.926 82.2102 168.963L54.2202 174.065C54.0761 174.091 53.9392 174.147 53.8179 174.228C53.6964 174.309 53.5933 174.413 53.5146 174.536C53.436 174.658 53.3834 174.795 53.3605 174.938C53.3379 175.082 53.3451 175.228 53.3818 175.368L63.3108 213.208C63.3521 213.366 63.4298 213.512 63.5379 213.636C63.646 213.759 63.7817 213.855 63.9336 213.918C64.0859 213.98 64.2507 214.007 64.4149 213.995C64.5794 213.984 64.7388 213.935 64.8808 213.852L98.9206 194.046C99.0465 193.973 99.1562 193.875 99.242 193.758C99.3282 193.641 99.3893 193.508 99.4213 193.367C99.4532 193.226 99.4554 193.08 99.4278 192.938C99.4006 192.796 99.3439 192.66 99.2615 192.541Z" fill="black"/>
<path d="M162.07 174.13L134.075 168.963C133.871 168.926 133.66 168.947 133.468 169.025C133.277 169.103 133.112 169.234 132.994 169.402L116.743 192.575C116.66 192.694 116.603 192.829 116.575 192.971C116.546 193.113 116.548 193.259 116.58 193.4C116.612 193.542 116.673 193.675 116.76 193.792C116.847 193.909 116.957 194.007 117.084 194.08L151.337 213.853C151.481 213.935 151.641 213.984 151.807 213.995C151.972 214.007 152.138 213.98 152.291 213.918C152.444 213.855 152.58 213.759 152.69 213.636C152.798 213.513 152.877 213.367 152.918 213.21L162.911 175.425C162.947 175.286 162.954 175.14 162.93 174.998C162.907 174.856 162.854 174.72 162.776 174.599C162.697 174.478 162.594 174.373 162.472 174.293C162.351 174.212 162.214 174.157 162.07 174.13Z" fill="black"/>
<path d="M194.322 115.703L170.945 131.618C170.774 131.735 170.64 131.899 170.561 132.09C170.482 132.281 170.461 132.49 170.499 132.693L175.655 160.57C175.681 160.713 175.737 160.85 175.819 160.97C175.901 161.091 176.007 161.194 176.131 161.273C176.254 161.351 176.392 161.403 176.537 161.426C176.682 161.448 176.83 161.441 176.971 161.404L215.201 151.516C215.361 151.474 215.509 151.397 215.633 151.289C215.758 151.181 215.855 151.046 215.918 150.895C215.981 150.743 216.009 150.579 215.997 150.415C215.986 150.252 215.937 150.093 215.854 149.951L195.843 116.048C195.77 115.922 195.671 115.813 195.553 115.726C195.435 115.64 195.301 115.579 195.158 115.546C195.015 115.514 194.868 115.511 194.724 115.538C194.58 115.565 194.443 115.621 194.322 115.703Z" fill="black"/>
<path d="M124.138 49.9887L109.388 28.4389C109.235 28.2191 109.031 28.0395 108.794 27.9154C108.556 27.7914 108.292 27.7266 108.024 27.7266C107.756 27.7266 107.492 27.7914 107.254 27.9154C107.017 28.0395 106.813 28.2191 106.66 28.4389L91.9092 49.9887C90.3991 51.9487 92.1933 53.7383 93.2111 54.7541L99.7702 61.3017C99.8502 61.3811 99.9471 61.4412 100.054 61.4772C100.161 61.5135 100.274 61.5244 100.386 61.5097C100.498 61.495 100.604 61.4547 100.698 61.3921C100.792 61.3295 100.87 61.2463 100.926 61.149L107.388 49.9777C107.452 49.8663 107.545 49.774 107.657 49.7096C107.768 49.6455 107.895 49.6117 108.024 49.6117C108.153 49.6117 108.279 49.6455 108.391 49.7096C108.503 49.774 108.595 49.8663 108.66 49.9777L115.122 61.149C115.178 61.2463 115.256 61.3295 115.35 61.3921C115.443 61.4547 115.55 61.495 115.662 61.5097C115.774 61.5244 115.887 61.5135 115.994 61.4772C116.101 61.4412 116.197 61.3811 116.277 61.3017L122.837 54.7541C123.856 53.7383 125.535 52.2147 124.138 49.9887Z" fill="black"/>
<path d="M56.14 136.141L51.3426 161.528C51.2954 161.789 51.3122 162.057 51.3915 162.31C51.4708 162.563 51.6104 162.793 51.7986 162.98C51.9864 163.167 52.2172 163.307 52.471 163.386C52.7245 163.465 52.9938 163.482 53.2554 163.435L78.7446 158.66C81.1807 158.343 81.1795 155.837 81.1795 154.415V145.249C81.1795 145.137 81.154 145.027 81.1045 144.927C81.0554 144.828 80.9836 144.74 80.8949 144.672C80.8063 144.605 80.703 144.558 80.5932 144.537C80.4838 144.515 80.3706 144.519 80.2626 144.548L67.8819 147.853C67.7584 147.886 67.6281 147.886 67.5047 147.853C67.3812 147.82 67.2683 147.755 67.1781 147.665C67.0876 147.575 67.0226 147.463 66.9893 147.34C66.9563 147.217 66.9563 147.087 66.9893 146.964L70.3059 134.629C70.3352 134.521 70.3389 134.409 70.3171 134.299C70.2954 134.19 70.2487 134.087 70.1806 133.999C70.1128 133.911 70.0251 133.839 69.9249 133.79C69.8248 133.741 69.7144 133.715 69.6027 133.715H60.4015C58.9801 133.715 56.7294 133.61 56.14 136.141Z" fill="black"/>
<path d="M137.257 158.656L162.744 163.435C163.006 163.482 163.275 163.465 163.529 163.386C163.783 163.307 164.013 163.168 164.201 162.98C164.389 162.793 164.529 162.563 164.608 162.31C164.688 162.058 164.704 161.789 164.657 161.529L159.865 136.14C159.546 133.714 157.031 133.715 155.602 133.715H146.4C146.288 133.715 146.178 133.74 146.078 133.789C145.977 133.839 145.89 133.91 145.822 133.998C145.754 134.087 145.707 134.19 145.686 134.299C145.664 134.408 145.667 134.521 145.696 134.628L149.014 146.96C149.047 147.083 149.047 147.213 149.014 147.336C148.982 147.459 148.916 147.572 148.826 147.662C148.735 147.752 148.623 147.817 148.499 147.85C148.375 147.883 148.245 147.882 148.121 147.849L135.738 144.545C135.63 144.517 135.517 144.513 135.408 144.534C135.298 144.556 135.195 144.602 135.106 144.67C135.018 144.738 134.946 144.825 134.896 144.925C134.847 145.025 134.821 145.135 134.822 145.246V154.411C134.819 155.833 134.713 158.07 137.257 158.656Z" fill="black"/>
<path d="M159.86 77.8576L164.657 52.4708C164.705 52.21 164.688 51.9421 164.608 51.6891C164.529 51.4364 164.389 51.2066 164.201 51.0193C164.013 50.8319 163.783 50.6929 163.529 50.6139C163.275 50.5346 163.006 50.5182 162.744 50.5653L137.257 55.3388C134.821 55.6559 134.82 58.1616 134.82 59.5843V68.7502C134.821 68.8617 134.846 68.9716 134.896 69.0714C134.945 69.1714 135.017 69.2584 135.106 69.3262C135.195 69.3941 135.298 69.4405 135.408 69.4622C135.517 69.4836 135.63 69.4798 135.738 69.451L148.119 66.147C148.242 66.1138 148.372 66.1138 148.496 66.147C148.62 66.1798 148.732 66.2448 148.823 66.335C148.913 66.4251 148.978 66.5372 149.011 66.6604C149.044 66.7834 149.044 66.9131 149.011 67.0361L145.693 79.3698C145.665 79.4772 145.661 79.59 145.683 79.6993C145.705 79.8086 145.751 79.9111 145.82 79.9994C145.888 80.0876 145.975 80.1592 146.076 80.2084C146.176 80.2577 146.286 80.283 146.398 80.283H155.599C157.027 80.2899 159.272 80.3979 159.86 77.8576Z" fill="black"/>
<path d="M50.4705 90.9225L28.8363 105.616C28.6156 105.768 28.4352 105.971 28.3107 106.208C28.1861 106.445 28.1211 106.708 28.1211 106.975C28.1211 107.242 28.1861 107.505 28.3107 107.742C28.4352 107.978 28.6156 108.182 28.8363 108.334L50.4705 123.027C52.437 124.532 54.2337 122.746 55.255 121.73L61.828 115.197C61.9078 115.117 61.9681 115.021 62.0043 114.914C62.0404 114.808 62.0517 114.695 62.037 114.584C62.0222 114.472 61.9816 114.366 61.9188 114.273C61.8563 114.179 61.7727 114.101 61.6746 114.045L50.4595 107.609C50.348 107.544 50.255 107.452 50.1906 107.341C50.1261 107.23 50.0919 107.103 50.0919 106.975C50.0919 106.846 50.1261 106.72 50.1906 106.609C50.255 106.498 50.348 106.406 50.4595 106.341L61.6746 99.9044C61.7727 99.8485 61.8563 99.7707 61.9188 99.6774C61.9816 99.584 62.0222 99.4776 62.037 99.3664C62.0517 99.2553 62.0404 99.1419 62.0043 99.0355C61.9681 98.9293 61.9078 98.8325 61.828 98.7532L55.255 92.2232C54.2337 91.2057 52.7053 89.5353 50.4705 90.9225Z" fill="black"/>
<path d="M91.8585 164.204L106.61 185.567C106.763 185.785 106.966 185.963 107.204 186.086C107.441 186.21 107.706 186.274 107.974 186.274C108.242 186.274 108.506 186.21 108.744 186.086C108.981 185.963 109.185 185.785 109.338 185.567L124.089 164.204C125.6 162.26 123.805 160.486 122.787 159.479L116.228 152.986C116.148 152.907 116.051 152.848 115.944 152.812C115.838 152.776 115.724 152.765 115.612 152.78C115.501 152.794 115.394 152.834 115.3 152.896C115.206 152.958 115.129 153.041 115.072 153.137L108.61 164.213C108.546 164.323 108.453 164.415 108.341 164.479C108.229 164.542 108.103 164.576 107.974 164.576C107.845 164.576 107.718 164.542 107.607 164.479C107.495 164.415 107.403 164.323 107.338 164.213L100.876 153.137C100.82 153.041 100.742 152.958 100.648 152.896C100.554 152.834 100.447 152.794 100.335 152.78C100.224 152.765 100.11 152.776 100.003 152.812C99.8968 152.848 99.7999 152.907 99.7199 152.986L93.1605 159.479C92.1413 160.486 90.4659 161.995 91.8585 164.204Z" fill="black"/>
<path d="M165.526 123.078L187.16 108.385C187.381 108.232 187.561 108.029 187.686 107.793C187.81 107.556 187.875 107.293 187.875 107.026C187.875 106.759 187.81 106.496 187.686 106.259C187.561 106.022 187.381 105.819 187.16 105.667L165.526 90.9733C163.559 89.469 161.763 91.2565 160.741 92.2702L154.168 98.804C154.089 98.8836 154.028 98.9801 153.992 99.0865C153.956 99.1927 153.945 99.306 153.959 99.4172C153.974 99.5286 154.015 99.6351 154.078 99.7281C154.14 99.8215 154.224 99.8992 154.322 99.9554L165.537 106.392C165.649 106.456 165.742 106.549 165.807 106.66C165.871 106.771 165.905 106.898 165.905 107.026C165.905 107.155 165.871 107.281 165.807 107.393C165.742 107.504 165.649 107.597 165.537 107.661L154.322 114.096C154.224 114.152 154.14 114.23 154.078 114.323C154.015 114.417 153.974 114.523 153.959 114.634C153.945 114.746 153.956 114.859 153.992 114.965C154.028 115.071 154.089 115.168 154.168 115.247L160.741 121.781C161.763 122.796 163.291 124.465 165.526 123.078Z" fill="black"/>
<path d="M79.01 55.6337L53.2754 50.854C53.0113 50.8072 52.7393 50.824 52.483 50.9032C52.2268 50.9825 51.9937 51.1215 51.804 51.3089C51.614 51.4962 51.473 51.726 51.3926 51.979C51.3122 52.2316 51.2952 52.4998 51.3427 52.7605L56.1831 78.1493C56.5041 80.5744 59.0443 80.5744 60.4865 80.5744H69.7779C69.8906 80.5744 70.0018 80.5487 70.103 80.4995C70.2041 80.4503 70.2923 80.3787 70.3611 80.2905C70.4296 80.2022 70.477 80.0997 70.499 79.9904C70.521 79.8814 70.5172 79.7687 70.4883 79.6613L67.1375 67.328C67.1042 67.205 67.1042 67.0753 67.1375 66.9524C67.1711 66.8291 67.2368 66.717 67.3282 66.6269C67.4195 66.5368 67.5332 66.4721 67.6579 66.439C67.7829 66.4058 67.9142 66.4058 68.0389 66.439L80.5429 69.7438C80.6519 69.7729 80.7662 69.7767 80.8768 69.755C80.9877 69.7333 81.0916 69.6869 81.1811 69.619C81.2706 69.5512 81.3432 69.4642 81.3931 69.3642C81.4431 69.2645 81.4688 69.1546 81.4688 69.0434V59.8784C81.4688 58.4559 81.5756 56.2193 79.01 55.6337Z" fill="black"/>
<path d="M98.6358 77.0148L97.0944 78.5567C96.5426 79.1083 95.7947 79.4185 95.0145 79.4192H92.8167C92.345 79.4188 91.8931 79.2311 91.5598 78.8976C91.2265 78.5641 91.0391 78.1118 91.0391 77.6402V68.5478C91.0394 68.4131 91.0794 68.2816 91.1542 68.1699C91.2293 68.0579 91.3354 67.9707 91.4599 67.9192C91.584 67.8674 91.7209 67.8541 91.8531 67.8801C91.985 67.9062 92.1063 67.9707 92.2019 68.0657L98.6305 74.4954C98.7969 74.6601 98.9291 74.8559 99.0197 75.0718C99.11 75.288 99.1569 75.5198 99.1572 75.754C99.1578 75.9882 99.1119 76.22 99.0225 76.4365C98.9331 76.6528 98.8015 76.8494 98.6358 77.0148Z" fill="black"/>
<path d="M122.894 79.1301H120.711C119.931 79.1292 119.183 78.8197 118.631 78.2691L117.076 76.7163C116.911 76.5514 116.78 76.3554 116.69 76.1396C116.601 75.9238 116.555 75.6928 116.555 75.4593C116.555 75.2259 116.601 74.9946 116.69 74.7788C116.78 74.563 116.911 74.3673 117.076 74.2021L123.51 67.7765C123.605 67.6816 123.726 67.6171 123.859 67.5911C123.991 67.565 124.127 67.5784 124.252 67.6301C124.376 67.6816 124.483 67.7687 124.558 67.8807C124.632 67.9923 124.673 68.1238 124.673 68.2583V77.3522C124.673 77.5857 124.627 77.8167 124.538 78.0325C124.448 78.248 124.318 78.4439 124.152 78.6092C123.987 78.7741 123.791 78.9053 123.575 78.9946C123.359 79.0839 123.128 79.1301 122.894 79.1301Z" fill="black"/>
<path d="M138.389 97.6742L136.841 96.1384C136.288 95.5883 135.977 94.8431 135.977 94.0658V91.8761C135.977 91.4063 136.165 90.956 136.499 90.6241C136.834 90.2918 137.288 90.1055 137.761 90.1055H146.89C147.025 90.1052 147.158 90.1447 147.27 90.2195C147.383 90.294 147.47 90.4 147.522 90.5243C147.574 90.6482 147.587 90.7848 147.561 90.9165C147.534 91.0481 147.469 91.169 147.373 91.2635L140.918 97.6689C140.753 97.8343 140.556 97.9656 140.339 98.0552C140.122 98.1452 139.89 98.1915 139.655 98.1918C139.42 98.1925 139.187 98.147 138.97 98.0583C138.753 97.9693 138.555 97.8389 138.389 97.6742Z" fill="black"/>
<path d="M135.977 121.772V119.519C135.977 118.714 136.288 117.942 136.841 117.372L138.4 115.768C138.734 115.424 139.188 115.23 139.661 115.23C140.134 115.23 140.588 115.424 140.922 115.768L147.373 122.406C147.469 122.504 147.534 122.629 147.561 122.766C147.587 122.902 147.574 123.044 147.522 123.172C147.47 123.301 147.382 123.411 147.27 123.488C147.157 123.565 147.024 123.606 146.889 123.606H137.76C137.287 123.606 136.834 123.413 136.499 123.069C136.165 122.725 135.977 122.259 135.977 121.772Z" fill="black"/>
<path d="M117.364 136.981L118.907 135.439C119.18 135.166 119.505 134.949 119.862 134.802C120.219 134.654 120.601 134.578 120.987 134.578H123.184C123.656 134.578 124.108 134.766 124.441 135.099C124.775 135.432 124.962 135.884 124.962 136.355V145.448C124.962 145.582 124.923 145.715 124.848 145.827C124.773 145.939 124.667 146.027 124.542 146.078C124.417 146.13 124.28 146.143 124.148 146.117C124.016 146.091 123.894 146.025 123.799 145.93L117.37 139.5C117.203 139.336 117.071 139.14 116.981 138.924C116.891 138.708 116.844 138.476 116.844 138.242C116.843 138.008 116.889 137.776 116.978 137.56C117.068 137.343 117.199 137.147 117.364 136.981Z" fill="black"/>
<path d="M93.1078 134.867H95.2897C96.0704 134.868 96.8191 135.178 97.3712 135.729L98.9258 137.282C99.259 137.615 99.4462 138.067 99.4462 138.538C99.4462 139.009 99.259 139.461 98.9258 139.795L92.4926 146.219C92.3973 146.315 92.2759 146.38 92.1433 146.406C92.011 146.432 91.8737 146.419 91.7492 146.367C91.6244 146.316 91.5179 146.228 91.443 146.116C91.3682 146.004 91.3281 145.873 91.3281 145.738V136.645C91.3284 136.174 91.516 135.722 91.8498 135.388C92.1834 135.055 92.6361 134.868 93.1078 134.867Z" fill="black"/>
<path d="M77.6092 116.327L79.1584 117.864C79.7112 118.414 80.0222 119.158 80.0231 119.935V122.125C80.0228 122.594 79.8343 123.045 79.4996 123.376C79.1647 123.709 78.7107 123.895 78.2371 123.895H69.109C68.974 123.895 68.8419 123.855 68.7294 123.78C68.6173 123.706 68.5297 123.6 68.478 123.476C68.4263 123.352 68.4126 123.216 68.4387 123.084C68.4649 122.953 68.5297 122.832 68.6251 122.737L75.0797 116.332C75.2452 116.167 75.4421 116.035 75.6589 115.946C75.8758 115.856 76.1083 115.809 76.3432 115.809C76.5785 115.808 76.8112 115.854 77.0284 115.943C77.2456 116.032 77.4428 116.162 77.6092 116.327Z" fill="black"/>
<path d="M80.0231 92.2305V94.4817C80.0225 95.2868 79.7117 96.0589 79.1589 96.6289L77.6 98.2327C77.2652 98.5766 76.8115 98.7697 76.3385 98.7697C75.8655 98.7697 75.4117 98.5766 75.0773 98.2327L68.6261 91.5961C68.5305 91.4974 68.4654 91.3722 68.4389 91.2355C68.4125 91.0991 68.4262 90.9575 68.4779 90.8288C68.5296 90.7 68.6174 90.5902 68.7298 90.513C68.8425 90.4355 68.9746 90.3942 69.11 90.3945H78.2409C78.7139 90.3952 79.167 90.5889 79.5012 90.9332C79.8353 91.2774 80.0231 91.744 80.0231 92.2305Z" fill="black"/>
<path d="M101.84 116.389H114.162V113.14H117.424V100.866H114.162V97.6172H101.84V100.866H98.5781V113.14H101.84V116.389Z" fill="black"/>
</g>
<defs>
<clipPath id="clip0_808_63858">
<rect width="216" height="214" fill="white"/>
</clipPath>
</defs>
</svg>
