<svg width="20" height="20" viewBox="0 0 20 20" fill="none" xmlns="http://www.w3.org/2000/svg">
<path fill-rule="evenodd" clip-rule="evenodd" d="M14.0886 8.89782H15.5834C16.6438 8.89782 17.5033 8.0383 17.5033 6.97786V6.97786C17.5033 5.91742 16.6438 5.05789 15.5834 5.05789H14.9431V4.41763C14.9431 3.35635 14.0827 2.49683 13.0223 2.49683V2.49683C11.9618 2.49683 11.1023 3.35635 11.1023 4.41679V5.91158C11.1023 6.13251 11.0148 6.3451 10.8581 6.50099L6.50124 10.8578C6.34451 11.0145 6.13275 11.1021 5.91183 11.1021H4.41704C3.35659 11.1021 2.49707 11.9616 2.49707 13.022V13.022C2.49707 14.0825 3.35659 14.942 4.41704 14.942H5.0573V15.5823C5.0573 16.6436 5.91766 17.5031 6.9781 17.5031V17.5031C8.03854 17.5031 8.89807 16.6436 8.89807 15.5831V14.0883C8.89807 13.8674 8.98561 13.6548 9.14234 13.4989L13.4992 9.14209C13.6559 8.98536 13.8676 8.89782 14.0886 8.89782Z" stroke="currentColor" stroke-width="1.5" stroke-linecap="round" stroke-linejoin="round"/>
</svg>
