<svg width="20" height="20" viewBox="0 0 20 20" fill="none" xmlns="http://www.w3.org/2000/svg">
<path d="M17.5033 10.8336V9.99995C17.5033 6.77694 14.8906 4.16419 11.6676 4.16419H10.8339C10.0969 4.16419 9.47248 3.68649 9.25155 3.02371C9.14234 2.69441 8.80303 2.49683 8.45705 2.49683H7.6092C7.06564 2.49683 6.6613 3.01204 6.79719 3.53809C7.07814 4.62771 7.79011 5.54309 8.73884 6.09582C8.99311 6.24422 9.16651 6.49432 9.16651 6.78861C9.16651 8.0383 9.16651 11.3222 9.16651 11.3222C9.16651 11.9733 8.63879 12.501 7.98769 12.501C7.67506 12.501 7.37493 12.3768 7.15401 12.1558L6.52291 11.5248C5.84346 10.8453 4.79136 10.6235 3.84597 11.0579C2.99561 11.4481 2.49707 12.3509 2.49707 13.2863V15.8357C2.49707 16.526 3.0573 17.0862 3.74759 17.0862C4.43788 17.0862 4.99811 16.526 4.99811 15.8357V14.1684L6.75384 15.9241C7.7651 16.9353 9.13567 17.5031 10.5654 17.5031V17.5031C14.397 17.5031 17.5033 14.3968 17.5033 10.5652" stroke="currentColor" stroke-width="1.5" stroke-linecap="round" stroke-linejoin="round"/>
</svg>
