<svg width="225" height="141" viewBox="0 0 225 141" fill="none" xmlns="http://www.w3.org/2000/svg">
<path opacity="0.1" d="M31.7497 80.4741C38.3412 66.6935 43.1581 51.9553 49.4747 37.9808C51.2876 33.9699 48.6233 45.7469 55.6745 44.7069C67.7138 42.9312 78.7399 33.7151 83.8914 23.1042C85.2957 20.2117 94.4042 -6.25447 87.7066 2.92576C71.5759 25.036 61.6272 52.8809 52.7336 78.4167C42.0351 109.134 33.6064 141.034 29.2857 173.295C28.1862 181.505 27.6651 189.639 27.4575 197.904C27.4071 199.913 27.4536 205.181 26.0268 203.76C17.8625 195.632 14.0398 179.374 8.38131 169.417C6.13448 165.464 2.13719 160.583 1.22772 155.965C-0.937311 144.972 12.9067 130.924 18.5553 123.838C42.3575 93.9805 68.6893 65.5701 96.9268 39.8008C98.0922 38.7373 104.716 31.209 104.716 36.319C104.716 42.5622 107.638 40.2398 111.393 37.1103C113.509 35.3463 115.538 33.571 117.354 31.492C118.167 30.5614 119.427 27.5525 119.818 28.7225C120.424 30.532 118.686 34.5099 119.103 36.7938C119.788 40.5435 122 26.257 122 31.492C122 35.2458 129.773 34.8903 131.582 33.1538C135.553 29.3419 139.112 22.8262 141.676 18.0398C145.99 9.9874 138.179 20.2995 136.828 22.0755C132.384 27.9188 129.785 33.0939 125.5 39C119.801 46.8563 127.691 25.9553 125.5 29.5C119.286 39.5528 117.453 54.3935 106.465 61.0079C100.066 64.86 96.6052 54.9831 100.265 53.4113C106.1 50.9054 113.827 50.1045 119.818 48.6635C144.441 42.7408 168.674 35.302 192.864 27.852C210.762 22.3398 224 18.0398 224 18.0398" stroke="#1C1C1C" stroke-linecap="round"/>
</svg>
