<svg width="199" height="183" viewBox="0 0 199 183" fill="none" xmlns="http://www.w3.org/2000/svg">
<path opacity="0.1" d="M28.1645 71.8611C33.9875 59.574 38.2428 46.4331 43.8229 33.973C45.4245 30.3968 43.0708 40.8975 49.2999 39.9702C59.9355 38.387 69.676 30.1696 74.2269 20.7086C75.4675 18.1296 83.514 -5.46827 77.5973 2.71706C63.3473 22.4311 54.5586 47.2584 46.7018 70.0267C37.2507 97.4155 29.8047 125.858 25.9878 154.622C25.0165 161.942 24.5562 169.195 24.3728 176.565C24.3283 178.356 24.3693 183.053 23.1089 181.786C15.8965 174.539 12.5194 160.043 7.52071 151.165C5.53584 147.64 2.0046 143.288 1.20117 139.171C-0.711436 129.37 11.5184 116.843 16.5085 110.525C37.5355 83.9038 60.7973 58.5723 85.7425 35.5958C86.772 34.6475 92.6238 27.9351 92.6238 32.4913C92.6238 38.0579 95.2051 35.9873 98.522 33.1969C100.392 31.6241 102.184 30.0411 103.788 28.1875C104.506 27.3577 105.619 24.6749 105.965 25.718C106.5 27.3315 104.965 30.8783 105.333 32.9147C105.938 36.258 107.892 23.5198 107.892 28.1875C107.892 31.5344 114.759 31.2174 116.357 29.6691C119.865 26.2704 123.01 20.4608 125.275 16.1931C129.086 9.0134 122.185 18.208 120.991 19.7914C117.066 25.0015 114.769 29.6157 110.984 34.8818C105.949 41.8866 112.92 23.2508 110.984 26.4113C105.495 35.3747 103.875 48.607 94.1686 54.5046C88.5154 57.9392 85.4584 49.1327 88.6916 47.7313C93.8465 45.4969 100.672 44.7829 105.965 43.498C127.717 38.2172 149.125 31.5846 170.495 24.9419C186.306 20.0271 198 16.1931 198 16.1931" stroke="#1C1C1C" stroke-linecap="round"/>
</svg>
