<svg width="313" height="283" viewBox="0 0 313 283" fill="none" xmlns="http://www.w3.org/2000/svg">
<path d="M70.1829 218.445C69.4911 218.445 68.8079 218.293 68.1817 218C67.5556 217.707 67.0019 217.28 66.5607 216.749C66.119 216.219 65.8005 215.598 65.6274 214.931C65.4542 214.265 65.4308 213.568 65.559 212.891L74.8378 163.77C75.01 162.841 75.4625 161.987 76.1345 161.322L189.76 48.1668C190.43 47.4987 191.287 47.0483 192.219 46.8754L241.536 37.6359C242.289 37.4944 243.065 37.5383 243.797 37.7635C244.528 37.9887 245.194 38.3882 245.736 38.9273C246.277 39.4664 246.678 40.1292 246.905 40.8582C247.132 41.5867 247.176 42.3595 247.034 43.1091L237.755 92.2279C237.582 93.1562 237.129 94.0102 236.459 94.677L122.845 207.83C122.178 208.499 121.321 208.95 120.39 209.122L71.0698 218.364C70.7775 218.419 70.4802 218.446 70.1829 218.445ZM242.405 40.6109C242.299 40.6123 242.195 40.6217 242.092 40.64L192.774 49.8814C192.45 49.9409 192.151 50.0976 191.918 50.33L78.3124 163.491C78.0798 163.724 77.9224 164.02 77.8603 164.342L68.5833 213.465C68.5321 213.725 68.5465 213.994 68.6256 214.248C68.7044 214.501 68.8451 214.73 69.0354 214.917C69.2234 215.104 69.4547 215.243 69.7088 215.321C69.9625 215.399 70.2319 215.414 70.4932 215.365L119.815 206.124C120.137 206.064 120.434 205.907 120.665 205.675L234.279 92.5219C234.511 92.2898 234.668 91.9936 234.729 91.671L244.008 42.5503C244.052 42.3157 244.044 42.0743 243.985 41.8428C243.925 41.6117 243.815 41.3959 243.663 41.2119C243.51 41.0274 243.319 40.8787 243.103 40.7757C242.886 40.6732 242.65 40.6186 242.41 40.6167L242.405 40.6109Z" fill="#00766E"/>
<path d="M242.408 218.445C242.115 218.445 241.824 218.418 241.537 218.364L192.215 209.123C191.282 208.952 190.424 208.501 189.756 207.831L76.1351 94.6778C75.464 94.011 75.0115 93.157 74.8388 92.228L65.5588 43.1093C65.4171 42.3597 65.4612 41.5869 65.687 40.8579C65.9133 40.1289 66.3146 39.4662 66.8566 38.9266C67.3982 38.3875 68.0639 37.9876 68.7958 37.7628C69.5281 37.538 70.304 37.4946 71.0566 37.6361L120.38 46.8756C121.311 47.0493 122.167 47.4998 122.836 48.167L236.458 161.321C237.129 161.988 237.581 162.843 237.755 163.772L247.034 212.891C247.162 213.568 247.139 214.265 246.965 214.931C246.792 215.599 246.473 216.219 246.031 216.75C245.589 217.281 245.036 217.707 244.41 218C243.783 218.293 243.1 218.445 242.408 218.445ZM70.1772 40.6116C69.9379 40.6138 69.7017 40.6681 69.4853 40.771C69.269 40.874 69.0782 41.0226 68.9262 41.2071C68.7742 41.3912 68.6645 41.6066 68.6046 41.838C68.5452 42.0691 68.5371 42.3105 68.5816 42.5451L77.8593 91.6656C77.921 91.9882 78.0788 92.2836 78.3114 92.5165L191.931 205.669C192.163 205.903 192.462 206.059 192.786 206.119L242.109 215.359C242.37 215.409 242.64 215.393 242.895 215.314C243.148 215.237 243.38 215.098 243.568 214.911C243.756 214.723 243.896 214.493 243.974 214.24C244.053 213.986 244.069 213.718 244.019 213.457L234.739 164.339C234.68 164.016 234.522 163.718 234.289 163.486L120.667 50.3324C120.436 50.0996 120.138 49.9433 119.815 49.8838L70.492 40.6425C70.3882 40.6237 70.2829 40.6134 70.1772 40.6116Z" fill="#00766E"/>
<path d="M156.302 253.577C155.531 253.577 154.771 253.39 154.09 253.035C153.409 252.681 152.825 252.167 152.39 251.539L123.859 210.403C123.319 209.628 123.03 208.708 123.034 207.766V48.2358C123.032 47.2949 123.319 46.3753 123.859 45.599L152.386 4.45873C152.821 3.83155 153.405 3.31834 154.086 2.96369C154.767 2.60903 155.527 2.42357 156.298 2.42334C157.068 2.42388 157.827 2.6095 158.509 2.96423C159.191 3.31881 159.775 3.83178 160.209 4.45873L188.735 45.599C189.273 46.3757 189.561 47.2949 189.56 48.2358V207.766C189.561 208.708 189.273 209.627 188.735 210.403L160.219 251.534C159.785 252.163 159.2 252.678 158.517 253.034C157.835 253.39 157.074 253.577 156.302 253.577ZM156.302 5.46872C156.032 5.46579 155.766 5.52902 155.527 5.65241C155.288 5.77587 155.084 5.95578 154.933 6.17602L126.406 47.3162C126.219 47.5864 126.12 47.9055 126.121 48.2318V207.762C126.12 208.09 126.219 208.409 126.406 208.68L154.933 249.818C155.083 250.039 155.287 250.22 155.526 250.344C155.765 250.467 156.031 250.531 156.302 250.527C156.572 250.531 156.839 250.468 157.078 250.344C157.316 250.221 157.52 250.039 157.671 249.818L186.188 208.668C186.376 208.398 186.477 208.078 186.476 207.751V48.2203C186.477 47.8935 186.376 47.5738 186.188 47.3047L157.663 6.16445C157.513 5.94575 157.31 5.76715 157.072 5.64477C156.834 5.52231 156.57 5.45985 156.302 5.46293V5.46872Z" fill="#00766E"/>
<path d="M189.06 207.232L155.925 174.251L122.789 207.232V160.604H75.9424L109.078 127.625L75.9424 94.649H122.789V48.019L155.925 80.9982L189.06 48.019V94.649H235.903L202.768 127.63L235.903 160.604H189.06V207.232ZM158.097 172.082L185.972 199.826V160.604H169.629L158.097 172.082ZM125.875 160.604V199.826L153.752 172.082L142.219 160.604H125.875ZM146.576 160.604L155.924 169.907L165.271 160.604H146.576ZM189.066 157.538H228.474L200.597 129.795L189.066 141.273V157.538ZM172.724 157.538H185.984V144.338L172.724 157.538ZM143.495 157.538H168.365L185.984 140.001V115.248L168.365 97.7114H143.49L125.87 115.248V140.003L143.495 157.538ZM125.875 157.538H139.137L125.875 144.338V157.538ZM83.387 157.538H122.795V141.273L111.262 129.795L83.387 157.538ZM189.066 118.316V136.935L198.414 127.631L189.066 118.316ZM113.441 127.62L122.789 136.923V118.304L113.441 127.62ZM189.066 113.971L200.597 125.45L228.474 97.7052H189.06L189.066 113.971ZM83.387 97.7052L111.256 125.467L122.789 113.986V97.7114L83.387 97.7052ZM172.724 97.7052L185.984 110.905V97.7052H172.724ZM125.875 97.7052V110.905L139.137 97.7052H125.875ZM169.641 94.6389H185.984V55.4227L158.108 83.1664L169.641 94.6389ZM146.576 94.6389H165.285L155.937 85.3354L146.576 94.6389ZM125.875 94.6389H142.219L153.752 83.161L125.875 55.4227V94.6389Z" fill="#00766E"/>
<path d="M237.251 160.89H75.3432C74.3882 160.891 73.4549 160.606 72.6672 160.072L30.9141 131.867C30.2783 131.436 29.7582 130.859 29.3988 130.185C29.0394 129.512 28.8516 128.762 28.8516 128C28.8516 127.238 29.0394 126.488 29.3988 125.813C29.7582 125.14 30.2783 124.563 30.9141 124.132L72.6672 95.9273C73.4554 95.395 74.3887 95.1103 75.3432 95.1118L237.251 95.1118C238.205 95.111 239.138 95.3958 239.926 95.9273L281.678 124.132C282.314 124.562 282.834 125.14 283.194 125.813C283.554 126.487 283.742 127.238 283.742 128C283.742 128.762 283.554 129.512 283.194 130.186C282.834 130.86 282.314 131.437 281.678 131.867L239.926 160.072C239.139 160.606 238.206 160.891 237.251 160.89ZM75.3432 98.1632C75.011 98.1632 74.6865 98.2622 74.4122 98.4471L32.6609 126.652C32.439 126.801 32.2574 127.002 32.1319 127.236C32.0063 127.471 31.9407 127.731 31.9407 127.997C31.9407 128.262 32.0063 128.524 32.1319 128.757C32.2574 128.992 32.439 129.192 32.6609 129.341L74.4122 157.546C74.6865 157.732 75.011 157.831 75.3432 157.83H237.251C237.583 157.83 237.906 157.731 238.18 157.546L279.933 129.341C280.155 129.192 280.337 128.992 280.462 128.757C280.587 128.524 280.653 128.262 280.653 127.997C280.653 127.731 280.587 127.471 280.462 127.236C280.337 127.002 280.155 126.801 279.933 126.652L238.18 98.4471C237.906 98.2622 237.583 98.1632 237.251 98.1632H75.3432Z" fill="#00766E"/>
<path d="M168.899 4.24272L191.958 37.6388C192.126 37.8824 192.361 38.0722 192.636 38.1855C192.911 38.2987 193.213 38.3305 193.506 38.2768L233.899 30.9118C234.106 30.8737 234.304 30.7941 234.479 30.6772C234.655 30.5599 234.803 30.4086 234.917 30.2322C235.03 30.0558 235.106 29.8579 235.138 29.651C235.171 29.4442 235.16 29.2333 235.106 29.031L220.779 -25.5869C220.72 -25.815 220.608 -26.0264 220.452 -26.2043C220.297 -26.3823 220.101 -26.5219 219.881 -26.6122C219.662 -26.7026 219.424 -26.7411 219.186 -26.7249C218.949 -26.7086 218.719 -26.638 218.514 -26.5186L169.39 2.06991C169.209 2.17564 169.051 2.31718 168.927 2.48586C168.802 2.65455 168.714 2.84675 168.668 3.05055C168.622 3.25427 168.619 3.46534 168.658 3.67038C168.698 3.8755 168.78 4.07025 168.899 4.24272Z" fill="#00766E"/>
<path d="M253.93 50.7442L246.396 90.4419C246.339 90.7315 246.37 91.0327 246.483 91.3062C246.596 91.5796 246.788 91.8146 247.035 91.9817L280.868 115.025C281.042 115.143 281.239 115.225 281.446 115.265C281.653 115.305 281.867 115.302 282.074 115.257C282.28 115.212 282.475 115.125 282.646 115.001C282.817 114.878 282.96 114.722 283.067 114.542L311.934 65.9741C312.056 65.7715 312.127 65.5435 312.142 65.3094C312.16 65.0744 312.121 64.8395 312.03 64.6215C311.939 64.4043 311.798 64.2109 311.619 64.0561C311.439 63.9021 311.226 63.7904 310.995 63.7311L255.83 49.5641C255.626 49.5115 255.415 49.5008 255.206 49.5324C254.999 49.5641 254.799 49.6372 254.621 49.7478C254.444 49.8584 254.29 50.0037 254.171 50.1754C254.053 50.3466 253.971 50.5401 253.93 50.7442Z" fill="#00766E"/>
<path d="M79.4142 30.2495L118.655 37.5283C118.942 37.5807 119.237 37.5507 119.505 37.4408C119.774 37.3314 120.005 37.147 120.169 36.9107L142.948 4.23627C143.066 4.068 143.148 3.87741 143.188 3.67644C143.228 3.47539 143.226 3.26838 143.181 3.06834C143.137 2.86823 143.05 2.6795 142.928 2.51393C142.806 2.34829 142.65 2.20954 142.472 2.10626L94.4593 -25.7775C94.2587 -25.8939 94.0339 -25.9629 93.8021 -25.9788C93.5703 -25.9948 93.3385 -25.9574 93.1231 -25.8696C92.9084 -25.7817 92.7172 -25.6458 92.565 -25.4726C92.412 -25.2994 92.302 -25.0936 92.2435 -24.8713L78.2364 28.4062C78.1826 28.604 78.1716 28.8103 78.2029 29.0126C78.2341 29.2153 78.3074 29.409 78.4175 29.5821C78.5283 29.7553 78.6735 29.9037 78.8452 30.0185C79.0169 30.1333 79.2097 30.2123 79.4142 30.2495Z" fill="#00766E"/>
<path d="M31.7741 115.028L65.556 92.2252C65.8019 92.0596 65.9936 91.827 66.1079 91.5551C66.2223 91.2848 66.254 90.9859 66.1997 90.6971L58.7495 50.7591C58.7111 50.5538 58.6302 50.3585 58.5122 50.185C58.3937 50.012 58.2409 49.8645 58.0624 49.7525C57.8839 49.6402 57.6836 49.5658 57.4748 49.5332C57.2655 49.5007 57.0521 49.5109 56.8473 49.564L1.59933 63.7305C1.36892 63.7898 1.15558 63.9015 0.976038 64.0556C0.796498 64.2096 0.655622 64.403 0.564517 64.6202C0.473412 64.8374 0.434532 65.0723 0.45092 65.3064C0.467307 65.5414 0.53852 65.7686 0.658972 65.9711L29.5754 114.543C29.6826 114.723 29.826 114.878 29.9969 115.001C30.1676 115.124 30.362 115.21 30.5681 115.256C30.7743 115.301 30.9876 115.305 31.195 115.266C31.4025 115.227 31.5996 115.146 31.7741 115.028Z" fill="#00766E"/>
<path d="M58.6636 205.244L66.1978 165.548C66.2543 165.257 66.224 164.957 66.1107 164.684C65.997 164.41 65.8056 164.175 65.5592 164.008L31.7267 140.974C31.5527 140.856 31.3558 140.774 31.1484 140.734C30.941 140.694 30.7275 140.697 30.5211 140.742C30.3148 140.787 30.1201 140.874 29.9492 140.997C29.7782 141.119 29.6347 141.276 29.5276 141.456L0.658376 190.025C0.538128 190.228 0.4671 190.455 0.450857 190.69C0.434614 190.924 0.473618 191.16 0.564781 191.377C0.655945 191.594 0.796799 191.787 0.976279 191.941C1.15576 192.096 1.36897 192.207 1.5992 192.266L56.7644 206.436C56.9684 206.488 57.1814 206.498 57.39 206.466C57.5985 206.433 57.7979 206.359 57.9758 206.248C58.1541 206.136 58.3071 205.989 58.4253 205.816C58.5436 205.644 58.6248 205.449 58.6636 205.244Z" fill="#00766E"/>
<path d="M143.695 251.758L120.637 218.362C120.468 218.119 120.232 217.929 119.958 217.816C119.684 217.703 119.381 217.67 119.089 217.724L78.6965 225.089C78.4889 225.127 78.2915 225.207 78.1162 225.324C77.9408 225.44 77.792 225.592 77.6785 225.768C77.565 225.945 77.4891 226.143 77.456 226.349C77.4235 226.556 77.4339 226.768 77.4867 226.969L91.8149 281.59C91.8748 281.817 91.9867 282.029 92.143 282.207C92.2993 282.384 92.4944 282.523 92.7136 282.614C92.9337 282.704 93.1716 282.742 93.4087 282.726C93.6458 282.71 93.8759 282.639 94.0812 282.519L143.203 253.931C143.385 253.825 143.543 253.683 143.667 253.515C143.792 253.346 143.88 253.154 143.926 252.95C143.972 252.747 143.975 252.535 143.936 252.33C143.896 252.126 143.814 251.931 143.695 251.758Z" fill="#00766E"/>
<path d="M233.904 225.182L193.756 217.725C193.464 217.671 193.161 217.701 192.886 217.813C192.612 217.926 192.375 218.115 192.207 218.358L168.902 251.807C168.782 251.979 168.7 252.173 168.659 252.378C168.618 252.583 168.622 252.794 168.667 252.998C168.713 253.202 168.801 253.394 168.925 253.563C169.05 253.732 169.207 253.873 169.389 253.979L218.512 282.519C218.717 282.639 218.948 282.709 219.185 282.726C219.422 282.743 219.66 282.704 219.88 282.614C220.099 282.523 220.295 282.384 220.451 282.208C220.607 282.03 220.719 281.819 220.779 281.591L235.11 227.052C235.161 226.851 235.17 226.641 235.137 226.435C235.104 226.231 235.028 226.035 234.915 225.86C234.803 225.684 234.654 225.534 234.48 225.417C234.307 225.301 234.11 225.221 233.904 225.182Z" fill="#00766E"/>
<path d="M280.82 140.969L247.039 163.767C246.792 163.935 246.599 164.169 246.485 164.442C246.37 164.716 246.339 165.016 246.395 165.307L253.846 205.239C253.884 205.445 253.965 205.641 254.083 205.813C254.201 205.987 254.354 206.134 254.533 206.246C254.712 206.358 254.912 206.433 255.121 206.465C255.33 206.499 255.544 206.488 255.748 206.435L310.993 192.27C311.223 192.211 311.436 192.1 311.617 191.945C311.796 191.791 311.937 191.598 312.029 191.38C312.12 191.163 312.159 190.928 312.143 190.694C312.126 190.459 312.055 190.232 311.935 190.029L283.019 141.464C282.913 141.283 282.771 141.126 282.6 141.003C282.429 140.879 282.235 140.791 282.029 140.744C281.822 140.698 281.609 140.694 281.401 140.732C281.193 140.772 280.995 140.852 280.82 140.969Z" fill="#00766E"/>
<path d="M179.815 45.646L158.321 14.6596C158.098 14.3435 157.801 14.0852 157.454 13.9068C157.109 13.7284 156.724 13.6353 156.333 13.6353C155.942 13.6353 155.558 13.7284 155.211 13.9068C154.865 14.0852 154.568 14.3435 154.345 14.6596L132.851 45.646C130.65 48.4643 133.265 51.0372 134.748 52.4982L144.305 61.9132C144.423 62.0275 144.563 62.1137 144.719 62.165C144.874 62.2179 145.04 62.2334 145.203 62.2124C145.365 62.1907 145.521 62.1332 145.658 62.043C145.794 61.9529 145.907 61.8332 145.99 61.6933L155.406 45.6302C155.5 45.4701 155.635 45.3374 155.798 45.2447C155.961 45.1525 156.145 45.1039 156.333 45.1039C156.521 45.1039 156.705 45.1525 156.868 45.2447C157.031 45.3374 157.166 45.4701 157.259 45.6302L166.675 61.6933C166.758 61.8332 166.871 61.9529 167.008 62.043C167.145 62.1332 167.3 62.1907 167.463 62.2124C167.625 62.2334 167.791 62.2179 167.947 62.165C168.102 62.1137 168.244 62.0275 168.36 61.9132L177.918 52.4982C179.403 51.0372 181.85 48.8468 179.815 45.646Z" fill="#00766E"/>
<path d="M80.8237 170.403L73.7389 207.404C73.6691 207.785 73.6939 208.176 73.811 208.544C73.9282 208.912 74.1344 209.248 74.4123 209.521C74.6897 209.794 75.0305 209.997 75.4053 210.112C75.7796 210.228 76.1773 210.252 76.5636 210.183L114.206 203.224C117.804 202.763 117.802 199.11 117.802 197.037V183.678C117.802 183.515 117.764 183.355 117.691 183.209C117.618 183.064 117.512 182.937 117.381 182.838C117.25 182.74 117.098 182.671 116.936 182.64C116.774 182.609 116.607 182.614 116.448 182.656L98.1639 187.474C97.9815 187.522 97.7888 187.522 97.6072 187.474C97.4247 187.426 97.2581 187.331 97.1246 187.2C96.9912 187.069 96.8948 186.905 96.8459 186.726C96.7969 186.546 96.7969 186.358 96.8459 186.178L101.744 168.2C101.787 168.043 101.793 167.878 101.76 167.719C101.728 167.56 101.659 167.411 101.559 167.282C101.459 167.153 101.329 167.049 101.181 166.977C101.033 166.905 100.87 166.869 100.705 166.869H87.1171C85.018 166.869 81.694 166.714 80.8237 170.403Z" fill="#00766E"/>
<path d="M198.39 203.218L236.029 210.184C236.416 210.252 236.814 210.227 237.188 210.113C237.563 209.996 237.904 209.794 238.182 209.521C238.459 209.247 238.665 208.913 238.783 208.544C238.9 208.176 238.924 207.785 238.855 207.405L231.777 170.402C231.307 166.866 227.592 166.868 225.483 166.868H211.892C211.728 166.868 211.565 166.905 211.417 166.977C211.268 167.049 211.14 167.152 211.039 167.282C210.938 167.41 210.87 167.56 210.838 167.719C210.806 167.878 210.811 168.043 210.854 168.199L215.752 186.172C215.802 186.351 215.802 186.541 215.754 186.72C215.706 186.9 215.609 187.064 215.475 187.195C215.342 187.327 215.175 187.421 214.992 187.469C214.809 187.517 214.617 187.516 214.434 187.468L196.148 182.653C195.988 182.611 195.821 182.605 195.659 182.637C195.498 182.668 195.345 182.736 195.214 182.835C195.084 182.934 194.977 183.06 194.904 183.206C194.832 183.352 194.794 183.512 194.794 183.675V197.031C194.79 199.105 194.633 202.365 198.39 203.218Z" fill="#00766E"/>
<path d="M231.77 85.5922L238.854 48.5922C238.924 48.2122 238.9 47.8218 238.783 47.453C238.665 47.0847 238.459 46.7499 238.181 46.4767C237.904 46.2037 237.563 46.001 237.189 45.8859C236.814 45.7704 236.416 45.7464 236.03 45.8151L198.39 52.7724C194.792 53.2348 194.792 56.8862 194.792 58.9602V72.3183C194.792 72.4813 194.831 72.6411 194.903 72.7869C194.977 72.9327 195.083 73.0591 195.214 73.1581C195.345 73.2571 195.497 73.3249 195.659 73.3561C195.821 73.3873 195.988 73.3819 196.148 73.3398L214.431 68.5242C214.613 68.4767 214.805 68.4767 214.988 68.5242C215.17 68.5726 215.337 68.6669 215.47 68.7987C215.604 68.9297 215.7 69.0934 215.749 69.2728C215.798 69.4521 215.798 69.6416 215.749 69.8201L210.849 87.7965C210.807 87.9524 210.802 88.1169 210.833 88.276C210.866 88.4358 210.935 88.5848 211.035 88.7134C211.136 88.8421 211.266 88.9466 211.414 89.0183C211.562 89.09 211.725 89.1275 211.89 89.1275H225.477C227.586 89.1368 230.903 89.2943 231.77 85.5922Z" fill="#00766E"/>
<path d="M73.3138 104.841L41.8507 126.005C41.5297 126.224 41.2674 126.517 41.0863 126.858C40.9052 127.199 40.8105 127.578 40.8105 127.962C40.8105 128.348 40.9052 128.726 41.0863 129.067C41.2674 129.408 41.5297 129.7 41.8507 129.92L73.3138 151.085C76.1737 153.252 78.7867 150.679 80.2718 149.216L89.8314 139.805C89.9469 139.69 90.0349 139.552 90.0876 139.398C90.1402 139.245 90.1567 139.082 90.1347 138.922C90.1135 138.762 90.0546 138.609 89.9634 138.474C89.8723 138.34 89.7505 138.227 89.6083 138.147L73.2978 128.875C73.1356 128.783 73.0003 128.65 72.9066 128.49C72.813 128.329 72.7631 128.148 72.7631 127.962C72.7631 127.777 72.813 127.596 72.9066 127.436C73.0003 127.276 73.1356 127.143 73.2978 127.05L89.6083 117.778C89.7505 117.697 89.8723 117.585 89.9634 117.451C90.0546 117.317 90.1135 117.164 90.1347 117.004C90.1567 116.843 90.1402 116.68 90.0876 116.527C90.0349 116.373 89.9469 116.234 89.8314 116.12L80.2718 106.714C78.7867 105.248 76.5639 102.842 73.3138 104.841Z" fill="#00766E"/>
<path d="M132.776 210.355L154.272 241.338C154.495 241.654 154.792 241.913 155.138 242.092C155.484 242.27 155.869 242.364 156.26 242.364C156.65 242.364 157.036 242.27 157.383 242.092C157.728 241.913 158.025 241.654 158.248 241.338L179.743 210.355C181.944 207.536 179.329 204.962 177.846 203.502L168.288 194.086C168.171 193.971 168.03 193.885 167.875 193.833C167.719 193.781 167.553 193.765 167.391 193.786C167.228 193.807 167.073 193.866 166.936 193.956C166.799 194.045 166.686 194.165 166.603 194.305L157.187 210.368C157.093 210.528 156.958 210.661 156.795 210.753C156.632 210.846 156.448 210.894 156.26 210.894C156.072 210.894 155.887 210.846 155.725 210.753C155.562 210.661 155.428 210.528 155.334 210.368L145.917 194.305C145.835 194.165 145.721 194.045 145.585 193.956C145.448 193.866 145.292 193.807 145.129 193.786C144.966 193.765 144.801 193.781 144.646 193.833C144.49 193.885 144.349 193.971 144.233 194.086L134.674 203.502C133.189 204.962 130.748 207.151 132.776 210.355Z" fill="#00766E"/>
<path d="M239.28 151.158L270.743 129.993C271.064 129.774 271.326 129.482 271.507 129.141C271.689 128.8 271.783 128.421 271.783 128.036C271.783 127.652 271.689 127.272 271.507 126.931C271.326 126.591 271.064 126.298 270.743 126.079L239.28 104.914C236.42 102.747 233.807 105.322 232.322 106.782L222.762 116.193C222.646 116.308 222.559 116.447 222.506 116.6C222.453 116.753 222.437 116.916 222.458 117.077C222.48 117.237 222.539 117.39 222.63 117.525C222.721 117.659 222.843 117.771 222.985 117.852L239.296 127.123C239.459 127.216 239.594 127.349 239.688 127.509C239.783 127.669 239.831 127.852 239.831 128.037C239.831 128.223 239.783 128.404 239.688 128.564C239.594 128.725 239.459 128.858 239.296 128.95L222.985 138.22C222.843 138.301 222.721 138.413 222.63 138.547C222.539 138.682 222.48 138.836 222.458 138.996C222.437 139.156 222.453 139.319 222.506 139.472C222.559 139.625 222.646 139.765 222.762 139.879L232.322 149.29C233.807 150.752 236.03 153.156 239.28 151.158Z" fill="#00766E"/>
<path d="M114.264 54.0351L77.2639 47.3089C76.8842 47.2431 76.4931 47.2666 76.1246 47.3781C75.7561 47.4897 75.4211 47.6853 75.1483 47.9489C74.8752 48.2126 74.6724 48.5359 74.5568 48.8919C74.4412 49.2475 74.4168 49.6248 74.485 49.9917L81.4442 85.7184C81.9062 89.1313 85.5585 89.1313 87.6316 89.1313H100.991C101.153 89.1313 101.313 89.0952 101.458 89.026C101.604 88.9567 101.73 88.8558 101.83 88.7316C101.928 88.6074 101.996 88.4637 102.028 88.3094C102.059 88.1558 102.054 87.9977 102.012 87.8464L97.1943 70.4906C97.1469 70.3183 97.1469 70.1353 97.1943 69.9622C97.2432 69.7891 97.3371 69.631 97.4684 69.5045C97.6004 69.3773 97.7634 69.2863 97.9428 69.2396C98.1229 69.1937 98.3116 69.1937 98.4909 69.2396L116.469 73.8907C116.625 73.9314 116.79 73.9366 116.948 73.9065C117.108 73.8757 117.257 73.8102 117.386 73.7146C117.515 73.6197 117.619 73.497 117.692 73.3563C117.763 73.2163 117.8 73.0612 117.8 72.9046V60.008C117.8 58.0065 117.953 54.8586 114.264 54.0351Z" fill="#00766E"/>
<path d="M142.447 84.8063L140.176 87.1011C139.363 87.9218 138.262 88.3836 137.113 88.3844H133.875C133.18 88.3844 132.514 88.1053 132.022 87.6084C131.532 87.1122 131.256 86.4391 131.256 85.7372V72.2057C131.256 72.0047 131.315 71.8093 131.425 71.6434C131.536 71.4767 131.692 71.3466 131.875 71.2701C132.059 71.1927 132.26 71.1728 132.455 71.2118C132.649 71.2501 132.828 71.3466 132.969 71.4878L142.44 81.0568C142.685 81.3024 142.88 81.5936 143.013 81.915C143.146 82.2364 143.216 82.5818 143.216 82.9304C143.216 83.2789 143.149 83.6235 143.017 83.9457C142.885 84.268 142.692 84.5607 142.447 84.8063Z" fill="#00766E"/>
<path d="M177.97 87.635H174.754C173.605 87.6335 172.503 87.1928 171.689 86.4089L169.399 84.1985C169.156 83.9637 168.962 83.6854 168.83 83.3781C168.699 83.0708 168.631 82.7422 168.631 82.4098C168.631 82.0773 168.699 81.7479 168.83 81.4407C168.962 81.1334 169.156 80.8551 169.399 80.6195L178.876 71.4729C179.017 71.3379 179.196 71.2456 179.391 71.209C179.585 71.1717 179.787 71.1907 179.97 71.2647C180.153 71.3379 180.311 71.4614 180.421 71.6208C180.531 71.7801 180.59 71.9669 180.591 72.1583V85.1043C180.591 85.4368 180.523 85.7654 180.392 86.0727C180.259 86.3792 180.067 86.6583 179.824 86.8931C179.58 87.1279 179.291 87.3148 178.973 87.4421C178.655 87.5694 178.314 87.635 177.97 87.635Z" fill="#00766E"/>
<path d="M199.863 114.526L197.569 112.255C196.749 111.441 196.288 110.339 196.287 109.189V105.95C196.287 105.256 196.567 104.59 197.062 104.099C197.559 103.608 198.231 103.332 198.933 103.332H212.465C212.666 103.331 212.863 103.39 213.029 103.501C213.196 103.611 213.326 103.768 213.403 103.951C213.479 104.135 213.499 104.336 213.46 104.531C213.421 104.727 213.323 104.905 213.181 105.045L203.613 114.518C203.367 114.763 203.076 114.957 202.754 115.09C202.433 115.222 202.088 115.291 201.74 115.292C201.391 115.292 201.047 115.225 200.725 115.094C200.403 114.962 200.11 114.77 199.863 114.526Z" fill="#00766E"/>
<path d="M196.287 149.301V146.084C196.288 144.934 196.748 143.831 197.568 143.017L199.879 140.727C200.375 140.235 201.048 139.959 201.749 139.959C202.45 139.959 203.123 140.235 203.618 140.727L213.181 150.205C213.324 150.345 213.42 150.525 213.459 150.72C213.499 150.915 213.479 151.117 213.401 151.301C213.325 151.485 213.194 151.641 213.027 151.752C212.861 151.861 212.665 151.92 212.464 151.919H198.93C198.23 151.919 197.558 151.643 197.062 151.153C196.567 150.661 196.287 149.995 196.287 149.301Z" fill="#00766E"/>
<path d="M170.144 171.194L172.418 168.899C172.821 168.492 173.298 168.17 173.824 167.95C174.35 167.73 174.914 167.616 175.483 167.617H178.719C179.414 167.617 180.08 167.896 180.57 168.392C181.062 168.889 181.338 169.561 181.338 170.262V183.794C181.338 183.995 181.28 184.191 181.169 184.358C181.059 184.525 180.903 184.656 180.72 184.732C180.536 184.809 180.334 184.829 180.139 184.79C179.944 184.751 179.765 184.653 179.624 184.511L170.153 174.943C169.908 174.697 169.714 174.406 169.581 174.085C169.448 173.762 169.38 173.418 169.378 173.069C169.377 172.722 169.445 172.376 169.576 172.054C169.708 171.732 169.901 171.44 170.144 171.194Z" fill="#00766E"/>
<path d="M134.626 168.363H137.84C138.991 168.365 140.093 168.805 140.907 169.591L143.197 171.801C143.687 172.275 143.964 172.919 143.964 173.589C143.964 174.26 143.687 174.903 143.197 175.377L133.72 184.524C133.579 184.659 133.4 184.752 133.205 184.789C133.01 184.827 132.808 184.807 132.625 184.734C132.44 184.661 132.284 184.537 132.173 184.376C132.063 184.217 132.004 184.03 132.004 183.837V170.894C132.005 170.223 132.281 169.579 132.772 169.105C133.264 168.631 133.931 168.364 134.626 168.363Z" fill="#00766E"/>
<path d="M112.728 141.473L115.024 143.746C115.844 144.559 116.305 145.66 116.306 146.809V150.048C116.306 150.742 116.026 151.408 115.53 151.899C115.033 152.39 114.36 152.666 113.658 152.666H100.127C99.9271 152.666 99.7309 152.607 99.5641 152.497C99.3981 152.386 99.2679 152.23 99.1916 152.046C99.1146 151.864 99.0947 151.662 99.1336 151.467C99.1718 151.272 99.2679 151.094 99.4092 150.953L108.978 141.481C109.223 141.236 109.515 141.042 109.837 140.909C110.158 140.776 110.503 140.707 110.851 140.706C111.199 140.705 111.545 140.773 111.867 140.904C112.188 141.036 112.481 141.229 112.728 141.473Z" fill="#00766E"/>
<path d="M115.559 106.702V109.917C115.558 111.066 115.117 112.169 114.333 112.982L112.123 115.273C111.648 115.764 111.005 116.04 110.334 116.04C109.663 116.04 109.02 115.764 108.546 115.273L99.3981 105.796C99.263 105.655 99.1704 105.476 99.1332 105.281C99.0952 105.086 99.1149 104.884 99.1878 104.7C99.2615 104.516 99.386 104.36 99.5454 104.249C99.7049 104.139 99.8924 104.079 100.085 104.08H113.031C113.702 104.081 114.345 104.357 114.819 104.85C115.292 105.341 115.559 106.007 115.559 106.702Z" fill="#00766E"/>
<path d="M149.369 139.212H166.963V134.554H171.62V116.96H166.963V112.302H149.369V116.96H144.711V134.554H149.369V139.212Z" fill="#00766E"/>
</svg>
