<svg width="313" height="310" viewBox="0 0 313 310" fill="none" xmlns="http://www.w3.org/2000/svg">
<path d="M70.4719 245.242C69.7801 245.242 69.0969 245.09 68.4708 244.797C67.8446 244.504 67.291 244.077 66.8498 243.546C66.4081 243.016 66.0896 242.395 65.9164 241.728C65.7433 241.062 65.7198 240.365 65.8481 239.688L75.1268 190.566C75.2991 189.638 75.7516 188.784 76.4236 188.119L190.049 74.9637C190.719 74.2956 191.576 73.8451 192.508 73.6722L241.825 64.4328C242.578 64.2913 243.354 64.3352 244.086 64.5604C244.817 64.7856 245.483 65.1851 246.025 65.7242C246.566 66.2633 246.967 66.9261 247.194 67.655C247.421 68.3836 247.465 69.1564 247.323 69.906L238.044 119.025C237.871 119.953 237.418 120.807 236.748 121.474L123.134 234.627C122.467 235.296 121.61 235.747 120.679 235.919L71.3589 245.161C71.0665 245.215 70.7692 245.242 70.4719 245.242ZM242.694 67.4078C242.588 67.4092 242.484 67.4186 242.381 67.4369L193.063 76.6782C192.739 76.7378 192.44 76.8945 192.207 77.1269L78.6014 190.288C78.3689 190.521 78.2115 190.817 78.1494 191.139L68.8724 240.262C68.8211 240.522 68.8356 240.791 68.9147 241.044C68.9934 241.297 69.1342 241.527 69.3245 241.714C69.5125 241.901 69.7437 242.04 69.9979 242.117C70.2515 242.196 70.521 242.211 70.7823 242.162L120.104 232.921C120.427 232.861 120.724 232.704 120.954 232.472L234.568 119.319C234.8 119.087 234.957 118.79 235.018 118.468L244.297 69.3472C244.341 69.1125 244.333 68.8712 244.274 68.6397C244.214 68.4086 244.104 68.1928 243.952 68.0088C243.799 67.8243 243.609 67.6756 243.392 67.5726C243.175 67.4701 242.939 67.4155 242.699 67.4136L242.694 67.4078Z" fill="#00766E"/>
<path d="M242.697 245.242C242.404 245.242 242.113 245.215 241.826 245.161L192.504 235.92C191.571 235.749 190.713 235.298 190.045 234.628L76.4242 121.475C75.7531 120.808 75.3005 119.954 75.1278 119.025L65.8479 69.9062C65.7062 69.1566 65.7503 68.3837 65.976 67.6548C66.2024 66.9258 66.6036 66.2631 67.1457 65.7235C67.6872 65.1844 68.3529 64.7845 69.0848 64.5597C69.8171 64.3349 70.5931 64.2915 71.3456 64.433L120.669 73.6724C121.6 73.8462 122.456 74.2967 123.125 74.9639L236.747 188.117C237.418 188.785 237.87 189.64 238.044 190.569L247.323 239.688C247.451 240.365 247.428 241.062 247.254 241.728C247.081 242.396 246.762 243.016 246.32 243.547C245.878 244.078 245.325 244.504 244.699 244.797C244.072 245.09 243.39 245.242 242.697 245.242ZM70.4662 67.4085C70.2269 67.4107 69.9908 67.4649 69.7744 67.5679C69.558 67.6708 69.3673 67.8195 69.2152 68.004C69.0633 68.188 68.9535 68.4035 68.8937 68.6349C68.8343 68.866 68.8262 69.1074 68.8707 69.342L78.1484 118.462C78.21 118.785 78.3679 119.081 78.6005 119.313L192.22 232.466C192.452 232.7 192.751 232.856 193.075 232.915L242.398 242.156C242.659 242.206 242.929 242.19 243.184 242.111C243.437 242.034 243.669 241.895 243.857 241.707C244.045 241.519 244.185 241.29 244.264 241.037C244.342 240.783 244.358 240.515 244.308 240.254L235.029 191.136C234.969 190.812 234.811 190.515 234.578 190.283L120.956 77.1293C120.725 76.8965 120.427 76.7402 120.104 76.6806L70.7811 67.4394C70.6772 67.4205 70.572 67.4102 70.4662 67.4085Z" fill="#00766E"/>
<path d="M156.591 280.372C155.82 280.372 155.06 280.185 154.379 279.831C153.698 279.476 153.114 278.962 152.679 278.335L124.148 237.199C123.608 236.423 123.319 235.503 123.323 234.561V75.0313C123.321 74.0903 123.608 73.1707 124.148 72.3944L152.675 31.2541C153.11 30.627 153.694 30.1138 154.376 29.7591C155.057 29.4044 155.816 29.219 156.587 29.2188C157.358 29.2193 158.116 29.4049 158.798 29.7596C159.48 30.1142 160.064 30.6272 160.499 31.2541L189.024 72.3944C189.562 73.1711 189.85 74.0903 189.849 75.0313V234.561C189.851 235.503 189.562 236.422 189.024 237.199L160.508 278.329C160.074 278.959 159.489 279.474 158.806 279.829C158.124 280.185 157.363 280.372 156.591 280.372ZM156.591 32.2641C156.321 32.2612 156.055 32.3244 155.816 32.4478C155.577 32.5713 155.373 32.7512 155.222 32.9714L126.695 74.1116C126.508 74.3818 126.409 74.7009 126.41 75.0272V234.558C126.409 234.885 126.508 235.205 126.695 235.475L155.222 276.613C155.372 276.835 155.576 277.015 155.815 277.139C156.054 277.263 156.32 277.326 156.591 277.323C156.861 277.327 157.128 277.264 157.367 277.139C157.605 277.016 157.809 276.835 157.96 276.613L186.477 235.464C186.665 235.194 186.766 234.874 186.765 234.547V75.0157C186.766 74.6889 186.665 74.3692 186.477 74.1001L157.952 32.9599C157.802 32.7412 157.599 32.5626 157.361 32.4402C157.123 32.3177 156.859 32.2553 156.591 32.2583V32.2641Z" fill="#00766E"/>
<path d="M189.349 234.026L156.214 201.044L123.078 234.026V187.397H76.2314L109.367 154.418L76.2314 121.442H123.078V74.8125L156.214 107.792L189.349 74.8125V121.442H236.192L203.057 154.423L236.192 187.397H189.349V234.026ZM158.386 198.875L186.261 226.619V187.397H169.918L158.386 198.875ZM126.164 187.397V226.619L154.041 198.875L142.509 187.397H126.164ZM146.865 187.397L156.213 196.701L165.56 187.397H146.865ZM189.355 184.331H228.763L200.886 156.588L189.355 168.066V184.331ZM173.013 184.331H186.273V171.132L173.013 184.331ZM143.784 184.331H168.654L186.273 166.794V142.042L168.654 124.505H143.779L126.159 142.042V166.797L143.784 184.331ZM126.164 184.331H139.426L126.164 171.132V184.331ZM83.676 184.331H123.084V168.066L111.551 156.588L83.676 184.331ZM189.355 145.109V163.728L198.703 154.425L189.355 145.109ZM113.73 154.413L123.078 163.716V145.098L113.73 154.413ZM189.355 140.764L200.886 152.244L228.763 124.499H189.349L189.355 140.764ZM83.676 124.499L111.545 152.26L123.078 140.78V124.505L83.676 124.499ZM173.013 124.499L186.273 137.698V124.499H173.013ZM126.164 124.499V137.698L139.426 124.499H126.164ZM169.93 121.432H186.273V82.2161L158.398 109.96L169.93 121.432ZM146.865 121.432H165.574L156.226 112.129L146.865 121.432ZM126.164 121.432H142.509L154.041 109.954L126.164 82.2161V121.432Z" fill="#00766E"/>
<path d="M237.54 187.684H75.6328C74.6778 187.685 73.7445 187.401 72.9567 186.866L31.2036 158.661C30.5679 158.231 30.0477 157.654 29.6884 156.98C29.3289 156.306 29.1411 155.556 29.1411 154.794C29.1411 154.032 29.3289 153.282 29.6884 152.608C30.0477 151.934 30.5679 151.358 31.2036 150.927L72.9567 122.722C73.745 122.189 74.6782 121.905 75.6328 121.906L237.54 121.906C238.495 121.905 239.428 122.19 240.216 122.722L281.967 150.927C282.604 151.357 283.124 151.934 283.484 152.608C283.843 153.282 284.032 154.032 284.032 154.794C284.032 155.556 283.843 156.307 283.484 156.981C283.124 157.654 282.604 158.232 281.967 158.661L240.216 186.866C239.429 187.401 238.496 187.685 237.54 187.684ZM75.6328 124.958C75.3005 124.958 74.976 125.057 74.7018 125.242L32.9505 153.446C32.7286 153.595 32.547 153.796 32.4214 154.031C32.2959 154.265 32.2303 154.526 32.2303 154.791C32.2303 155.056 32.2959 155.318 32.4214 155.552C32.547 155.787 32.7286 155.986 32.9505 156.136L74.7018 184.341C74.976 184.526 75.3005 184.625 75.6328 184.625H237.54C237.872 184.625 238.196 184.526 238.469 184.341L280.222 156.136C280.444 155.986 280.626 155.787 280.752 155.552C280.877 155.318 280.942 155.056 280.942 154.791C280.942 154.526 280.877 154.265 280.752 154.031C280.626 153.796 280.444 153.595 280.222 153.446L238.469 125.242C238.196 125.057 237.872 124.958 237.54 124.958H75.6328Z" fill="#00766E"/>
<path d="M169.187 31.0376L192.246 64.4338C192.414 64.6773 192.65 64.8671 192.924 64.9804C193.2 65.0937 193.501 65.1254 193.794 65.0718L234.187 57.7067C234.395 57.6687 234.593 57.589 234.767 57.4721C234.943 57.3548 235.092 57.2035 235.205 57.0271C235.319 56.8507 235.394 56.6528 235.427 56.4459C235.459 56.2391 235.449 56.0282 235.395 55.8259L221.068 1.20807C221.009 0.979919 220.897 0.768525 220.741 0.590583C220.585 0.412645 220.389 0.273042 220.17 0.182705C219.951 0.0923668 219.712 0.0537788 219.475 0.0700272C219.238 0.0862757 219.008 0.156907 218.803 0.276328L169.679 28.8648C169.497 28.9706 169.34 29.1121 169.215 29.2808C169.091 29.4495 169.003 29.6417 168.957 29.8455C168.91 30.0492 168.907 30.2603 168.947 30.4653C168.987 30.6704 169.068 30.8652 169.187 31.0376Z" fill="#00766E"/>
<path d="M254.22 77.5382L246.686 117.236C246.629 117.525 246.659 117.827 246.772 118.1C246.886 118.374 247.077 118.609 247.324 118.776L281.157 141.818C281.331 141.937 281.528 142.019 281.736 142.059C281.943 142.099 282.157 142.096 282.363 142.051C282.57 142.006 282.765 141.919 282.935 141.795C283.106 141.672 283.25 141.516 283.356 141.335L312.224 92.7681C312.345 92.5655 312.417 92.3375 312.432 92.1033C312.449 91.8684 312.41 91.6334 312.319 91.4154C312.229 91.1982 312.087 91.0049 311.908 90.8501C311.729 90.696 311.515 90.5843 311.285 90.525L256.119 76.358C255.916 76.3054 255.704 76.2947 255.495 76.3264C255.288 76.358 255.089 76.4311 254.911 76.5417C254.733 76.6523 254.58 76.7977 254.461 76.9693C254.342 77.1405 254.261 77.334 254.22 77.5382Z" fill="#00766E"/>
<path d="M79.7033 57.0444L118.944 64.3232C119.231 64.3757 119.526 64.3456 119.794 64.2357C120.063 64.1264 120.294 63.942 120.458 63.7057L143.237 31.0312C143.355 30.8629 143.437 30.6723 143.477 30.4714C143.517 30.2703 143.515 30.0633 143.47 29.8633C143.426 29.6631 143.339 29.4744 143.217 29.3089C143.095 29.1432 142.939 29.0045 142.761 28.9012L94.7484 1.01742C94.5478 0.901007 94.323 0.832055 94.0912 0.816095C93.8594 0.80012 93.6276 0.837532 93.4121 0.925358C93.1975 1.01318 93.0063 1.14907 92.8541 1.32228C92.7011 1.49549 92.5911 1.70133 92.5325 1.92362L78.5255 55.2011C78.4716 55.3989 78.4607 55.6052 78.4919 55.8075C78.5231 56.0102 78.5965 56.204 78.7066 56.377C78.8174 56.5502 78.9626 56.6986 79.1343 56.8134C79.306 56.9283 79.4988 57.0072 79.7033 57.0444Z" fill="#00766E"/>
<path d="M32.0631 141.822L65.845 119.019C66.091 118.854 66.2826 118.621 66.397 118.349C66.5114 118.079 66.543 117.78 66.4888 117.491L59.0386 77.553C59.0002 77.3478 58.9193 77.1524 58.8013 76.979C58.6828 76.806 58.53 76.6584 58.3515 76.5465C58.1729 76.4342 57.9726 76.3597 57.7638 76.3271C57.5545 76.2946 57.3412 76.3049 57.1364 76.3579L1.88839 90.5245C1.65798 90.5838 1.44464 90.6955 1.2651 90.8495C1.08556 91.0036 0.944684 91.1969 0.853579 91.4141C0.762474 91.6313 0.723595 91.8662 0.739982 92.1004C0.75637 92.3353 0.827583 92.5625 0.948034 92.7651L29.8645 141.337C29.9717 141.517 30.1151 141.672 30.2859 141.795C30.4567 141.918 30.6511 142.004 30.8572 142.05C31.0633 142.095 31.2767 142.099 31.4841 142.06C31.6915 142.021 31.8886 141.94 32.0631 141.822Z" fill="#00766E"/>
<path d="M58.9527 232.038L66.4869 192.342C66.5433 192.051 66.5131 191.751 66.3998 191.478C66.2861 191.204 66.0947 190.969 65.8482 190.802L32.0157 167.768C31.8417 167.65 31.6448 167.568 31.4375 167.528C31.23 167.488 31.0166 167.491 30.8102 167.536C30.6039 167.581 30.4091 167.667 30.2383 167.791C30.0673 167.913 29.9237 168.07 29.8166 168.25L0.947438 216.819C0.82719 217.022 0.756162 217.249 0.73992 217.483C0.723677 217.718 0.76268 217.954 0.853844 218.171C0.945007 218.388 1.08586 218.581 1.26534 218.735C1.44483 218.89 1.65803 219.001 1.88826 219.06L57.0535 233.23C57.2575 233.282 57.4705 233.292 57.679 233.26C57.8876 233.227 58.087 233.153 58.2649 233.042C58.4431 232.93 58.5962 232.783 58.7144 232.61C58.8326 232.438 58.9139 232.243 58.9527 232.038Z" fill="#00766E"/>
<path d="M143.984 278.552L120.926 245.155C120.757 244.912 120.522 244.722 120.247 244.609C119.973 244.496 119.67 244.464 119.378 244.517L78.9856 251.883C78.778 251.921 78.5805 252 78.4052 252.117C78.2298 252.234 78.081 252.385 77.9675 252.562C77.8541 252.738 77.7781 252.936 77.7451 253.143C77.7125 253.35 77.7229 253.561 77.7758 253.763L92.104 308.383C92.1639 308.611 92.2758 308.822 92.4321 309C92.5883 309.177 92.7835 309.317 93.0027 309.407C93.2227 309.498 93.4606 309.536 93.6977 309.519C93.9349 309.503 94.165 309.433 94.3702 309.313L143.492 280.724C143.674 280.618 143.832 280.477 143.956 280.308C144.081 280.139 144.169 279.948 144.215 279.743C144.261 279.54 144.264 279.329 144.225 279.124C144.185 278.919 144.103 278.724 143.984 278.552Z" fill="#00766E"/>
<path d="M234.193 251.976L194.044 244.518C193.752 244.464 193.45 244.495 193.175 244.607C192.9 244.72 192.664 244.908 192.495 245.151L169.191 278.6C169.07 278.772 168.988 278.967 168.948 279.171C168.907 279.377 168.911 279.587 168.956 279.791C169.002 279.995 169.09 280.187 169.214 280.356C169.338 280.526 169.496 280.667 169.678 280.773L218.8 309.313C219.006 309.433 219.236 309.503 219.473 309.519C219.711 309.536 219.948 309.497 220.168 309.407C220.388 309.317 220.583 309.178 220.74 309.001C220.895 308.823 221.008 308.613 221.068 308.385L235.398 253.846C235.45 253.644 235.459 253.434 235.426 253.229C235.392 253.024 235.317 252.828 235.204 252.653C235.091 252.478 234.943 252.327 234.769 252.211C234.595 252.095 234.399 252.015 234.193 251.976Z" fill="#00766E"/>
<path d="M281.11 167.763L247.328 190.561C247.081 190.729 246.888 190.963 246.774 191.236C246.66 191.51 246.629 191.81 246.685 192.101L254.136 232.033C254.174 232.239 254.254 232.435 254.373 232.607C254.491 232.781 254.644 232.928 254.823 233.04C255.001 233.152 255.201 233.227 255.41 233.259C255.619 233.293 255.833 233.282 256.037 233.229L311.282 219.064C311.513 219.005 311.726 218.894 311.906 218.739C312.086 218.585 312.226 218.391 312.318 218.174C312.409 217.957 312.449 217.722 312.432 217.488C312.416 217.253 312.345 217.026 312.224 216.823L283.308 168.258C283.202 168.077 283.06 167.92 282.889 167.797C282.719 167.673 282.525 167.585 282.319 167.538C282.112 167.492 281.899 167.488 281.691 167.526C281.482 167.566 281.285 167.646 281.11 167.763Z" fill="#00766E"/>
<path d="M180.104 72.4404L158.61 41.454C158.387 41.1379 158.09 40.8796 157.743 40.7012C157.398 40.5229 157.013 40.4297 156.622 40.4297C156.231 40.4297 155.847 40.5229 155.5 40.7012C155.155 40.8796 154.857 41.1379 154.634 41.454L133.14 72.4404C130.939 75.2588 133.554 77.8316 135.037 79.2927L144.595 88.7077C144.712 88.8219 144.852 88.9082 145.008 88.9595C145.163 89.0123 145.329 89.0279 145.492 89.0069C145.654 88.9851 145.81 88.9276 145.947 88.8375C146.083 88.7473 146.197 88.6276 146.279 88.4877L155.695 72.4246C155.789 72.2645 155.924 72.1318 156.087 72.0391C156.25 71.9469 156.434 71.8984 156.622 71.8984C156.81 71.8984 156.995 71.9469 157.157 72.0391C157.32 72.1318 157.455 72.2645 157.548 72.4246L166.965 88.4877C167.047 88.6276 167.16 88.7473 167.297 88.8375C167.434 88.9276 167.589 88.9851 167.752 89.0069C167.914 89.0279 168.08 89.0123 168.236 88.9595C168.391 88.9082 168.533 88.8219 168.649 88.7077L178.207 79.2927C179.692 77.8316 182.139 75.6412 180.104 72.4404Z" fill="#00766E"/>
<path d="M81.1132 197.2L74.0285 234.201C73.9587 234.581 73.9835 234.972 74.1006 235.34C74.2177 235.709 74.424 236.044 74.7018 236.317C74.9793 236.59 75.32 236.793 75.6948 236.909C76.0692 237.024 76.4669 237.048 76.8531 236.98L114.495 230.021C118.093 229.559 118.091 225.907 118.091 223.833V210.474C118.091 210.311 118.054 210.151 117.981 210.005C117.908 209.86 117.802 209.733 117.671 209.634C117.54 209.536 117.387 209.467 117.226 209.437C117.064 209.405 116.897 209.41 116.737 209.452L98.4535 214.27C98.271 214.318 98.0784 214.318 97.8967 214.27C97.7143 214.222 97.5476 214.128 97.4142 213.996C97.2807 213.865 97.1844 213.701 97.1354 213.522C97.0864 213.343 97.0864 213.154 97.1354 212.975L102.033 194.996C102.077 194.839 102.082 194.675 102.05 194.516C102.018 194.357 101.949 194.207 101.849 194.078C101.748 193.95 101.619 193.845 101.47 193.773C101.323 193.702 101.16 193.665 100.995 193.665H87.4066C85.3075 193.665 81.9835 193.511 81.1132 197.2Z" fill="#00766E"/>
<path d="M198.679 230.014L236.318 236.98C236.705 237.049 237.103 237.024 237.477 236.909C237.852 236.793 238.193 236.59 238.471 236.317C238.748 236.044 238.954 235.709 239.072 235.34C239.189 234.972 239.213 234.581 239.144 234.201L232.066 197.199C231.596 193.663 227.881 193.664 225.772 193.664H212.182C212.017 193.664 211.854 193.701 211.706 193.773C211.558 193.845 211.429 193.949 211.328 194.078C211.227 194.207 211.159 194.356 211.127 194.515C211.095 194.674 211.1 194.839 211.143 194.996L216.041 212.969C216.091 213.147 216.091 213.338 216.043 213.517C215.995 213.696 215.898 213.861 215.764 213.992C215.631 214.123 215.464 214.218 215.281 214.265C215.098 214.314 214.906 214.313 214.723 214.264L196.437 209.45C196.277 209.408 196.11 209.401 195.949 209.433C195.787 209.464 195.634 209.532 195.503 209.631C195.373 209.73 195.266 209.857 195.193 210.002C195.121 210.148 195.083 210.308 195.083 210.471V223.827C195.079 225.901 194.923 229.161 198.679 230.014Z" fill="#00766E"/>
<path d="M232.06 112.386L239.143 75.3857C239.213 75.0057 239.189 74.6153 239.072 74.2465C238.954 73.8782 238.748 73.5433 238.47 73.2702C238.193 72.9971 237.852 72.7945 237.478 72.6794C237.103 72.5638 236.705 72.5399 236.319 72.6085L198.679 79.5658C195.081 80.0282 195.081 83.6796 195.081 85.7537V99.1118C195.081 99.2747 195.12 99.4346 195.192 99.5804C195.266 99.7262 195.372 99.8525 195.503 99.9515C195.634 100.051 195.786 100.118 195.948 100.15C196.11 100.181 196.277 100.175 196.437 100.133L214.72 95.3177C214.903 95.2701 215.094 95.2701 215.277 95.3177C215.459 95.366 215.626 95.4604 215.759 95.5921C215.893 95.7231 215.989 95.8869 216.038 96.0662C216.087 96.2455 216.087 96.435 216.038 96.6136L211.138 114.59C211.096 114.746 211.091 114.91 211.122 115.069C211.155 115.229 211.224 115.378 211.324 115.507C211.425 115.636 211.555 115.74 211.703 115.812C211.851 115.883 212.014 115.921 212.179 115.921H225.766C227.875 115.93 231.192 116.088 232.06 112.386Z" fill="#00766E"/>
<path d="M73.6033 131.636L42.1402 152.8C41.8192 153.019 41.5569 153.312 41.3758 153.652C41.1947 153.994 41.1001 154.373 41.1001 154.757C41.1001 155.143 41.1947 155.521 41.3758 155.862C41.5569 156.203 41.8192 156.495 42.1402 156.715L73.6033 177.88C76.4632 180.046 79.0763 177.474 80.5614 176.011L90.121 166.6C90.2365 166.485 90.3245 166.347 90.3771 166.193C90.4298 166.04 90.4463 165.877 90.4243 165.717C90.4031 165.557 90.3441 165.404 90.253 165.269C90.1619 165.135 90.0401 165.022 89.8978 164.941L73.5874 155.67C73.4251 155.578 73.2898 155.445 73.1962 155.285C73.1025 155.124 73.0527 154.943 73.0527 154.757C73.0527 154.572 73.1025 154.391 73.1962 154.23C73.2898 154.07 73.4251 153.938 73.5874 153.845L89.8978 144.573C90.0401 144.492 90.1619 144.38 90.253 144.246C90.3441 144.112 90.4031 143.958 90.4243 143.798C90.4463 143.638 90.4298 143.475 90.3771 143.321C90.3245 143.168 90.2365 143.029 90.121 142.915L80.5614 133.509C79.0763 132.043 76.8534 129.637 73.6033 131.636Z" fill="#00766E"/>
<path d="M133.065 237.148L154.561 268.131C154.784 268.447 155.081 268.706 155.427 268.885C155.773 269.063 156.158 269.157 156.549 269.157C156.939 269.157 157.325 269.063 157.672 268.885C158.017 268.706 158.314 268.447 158.537 268.131L180.032 237.148C182.233 234.329 179.618 231.755 178.135 230.295L168.577 220.879C168.46 220.764 168.319 220.678 168.164 220.626C168.008 220.574 167.842 220.558 167.68 220.579C167.517 220.6 167.362 220.659 167.225 220.749C167.088 220.838 166.975 220.958 166.893 221.098L157.476 237.161C157.382 237.321 157.247 237.454 157.084 237.546C156.921 237.639 156.737 237.687 156.549 237.687C156.361 237.687 156.177 237.639 156.014 237.546C155.851 237.454 155.717 237.321 155.623 237.161L146.206 221.098C146.124 220.958 146.01 220.838 145.874 220.749C145.737 220.659 145.582 220.6 145.418 220.579C145.255 220.558 145.09 220.574 144.935 220.626C144.779 220.678 144.638 220.764 144.522 220.879L134.963 230.295C133.478 231.755 131.037 233.944 133.065 237.148Z" fill="#00766E"/>
<path d="M239.568 177.953L271.031 156.788C271.352 156.569 271.614 156.277 271.796 155.936C271.977 155.595 272.071 155.216 272.071 154.831C272.071 154.446 271.977 154.067 271.796 153.726C271.614 153.386 271.352 153.093 271.031 152.874L239.568 131.709C236.708 129.542 234.096 132.117 232.61 133.577L223.051 142.988C222.935 143.103 222.847 143.242 222.795 143.395C222.742 143.548 222.726 143.711 222.747 143.871C222.769 144.032 222.828 144.185 222.919 144.32C223.01 144.454 223.132 144.566 223.274 144.647L239.584 153.918C239.748 154.011 239.883 154.144 239.977 154.304C240.071 154.464 240.12 154.647 240.12 154.832C240.12 155.017 240.071 155.199 239.977 155.359C239.883 155.52 239.748 155.653 239.584 155.745L223.274 165.015C223.132 165.096 223.01 165.208 222.919 165.342C222.828 165.477 222.769 165.631 222.747 165.791C222.726 165.951 222.742 166.114 222.795 166.267C222.847 166.42 222.935 166.56 223.051 166.674L232.61 176.085C234.096 177.547 236.318 179.951 239.568 177.953Z" fill="#00766E"/>
<path d="M114.554 80.829L77.5535 74.1028C77.1737 74.037 76.7827 74.0605 76.4142 74.1721C76.0457 74.2836 75.7107 74.4793 75.4379 74.7429C75.1647 75.0066 74.9619 75.3299 74.8463 75.6858C74.7308 76.0414 74.7063 76.4188 74.7746 76.7856L81.7337 112.512C82.1957 115.925 85.8481 115.925 87.9212 115.925H101.281C101.443 115.925 101.603 115.889 101.748 115.82C101.893 115.751 102.02 115.65 102.119 115.526C102.218 115.401 102.285 115.258 102.317 115.103C102.349 114.95 102.344 114.792 102.302 114.64L97.4838 97.2846C97.4365 97.1122 97.4365 96.9293 97.4838 96.7561C97.5327 96.583 97.6267 96.4249 97.7579 96.2985C97.8899 96.1713 98.053 96.0802 98.2323 96.0335C98.4124 95.9876 98.6011 95.9876 98.7805 96.0335L116.758 100.685C116.915 100.725 117.08 100.731 117.238 100.7C117.398 100.67 117.547 100.604 117.676 100.509C117.805 100.414 117.909 100.291 117.981 100.15C118.052 100.01 118.09 99.8552 118.09 99.6986V86.802C118.09 84.8005 118.243 81.6525 114.554 80.829Z" fill="#00766E"/>
<path d="M142.737 111.602L140.465 113.897C139.652 114.718 138.551 115.18 137.402 115.18H134.164C133.469 115.18 132.803 114.901 132.311 114.404C131.821 113.908 131.545 113.235 131.545 112.533V99.0016C131.545 98.8006 131.604 98.6052 131.714 98.4393C131.825 98.2726 131.981 98.1425 132.164 98.066C132.348 97.9886 132.549 97.9687 132.744 98.0077C132.938 98.046 133.117 98.1425 133.258 98.2837L142.729 107.853C142.974 108.098 143.169 108.389 143.303 108.711C143.435 109.032 143.505 109.378 143.505 109.726C143.505 110.075 143.438 110.419 143.306 110.742C143.174 111.064 142.981 111.357 142.737 111.602Z" fill="#00766E"/>
<path d="M178.259 114.429H175.042C173.893 114.427 172.791 113.987 171.978 113.203L169.688 110.992C169.444 110.758 169.251 110.479 169.118 110.172C168.987 109.865 168.919 109.536 168.919 109.204C168.919 108.871 168.987 108.542 169.118 108.235C169.251 107.927 169.444 107.649 169.688 107.413L179.165 98.2668C179.306 98.1318 179.484 98.0396 179.68 98.003C179.874 97.9656 180.075 97.9847 180.258 98.0586C180.442 98.1318 180.599 98.2554 180.709 98.4147C180.819 98.5741 180.878 98.7609 180.879 98.9523V111.898C180.879 112.231 180.811 112.559 180.68 112.867C180.548 113.173 180.355 113.452 180.112 113.687C179.868 113.922 179.58 114.109 179.262 114.236C178.943 114.363 178.603 114.429 178.259 114.429Z" fill="#00766E"/>
<path d="M200.152 141.323L197.858 139.052C197.038 138.238 196.577 137.136 196.576 135.986V132.747C196.576 132.052 196.856 131.387 197.351 130.896C197.848 130.405 198.52 130.129 199.222 130.129H212.754C212.955 130.128 213.152 130.187 213.318 130.298C213.485 130.408 213.615 130.565 213.692 130.748C213.768 130.932 213.788 131.133 213.749 131.328C213.71 131.523 213.612 131.702 213.47 131.842L203.903 141.315C203.656 141.56 203.365 141.754 203.043 141.886C202.722 142.019 202.377 142.088 202.029 142.089C201.68 142.089 201.336 142.022 201.014 141.891C200.692 141.759 200.399 141.567 200.152 141.323Z" fill="#00766E"/>
<path d="M196.576 176.095V172.879C196.577 171.728 197.037 170.625 197.857 169.812L200.169 167.521C200.664 167.03 201.337 166.754 202.038 166.754C202.739 166.754 203.412 167.03 203.907 167.521L213.47 177C213.613 177.14 213.709 177.319 213.748 177.514C213.788 177.709 213.768 177.912 213.69 178.095C213.614 178.279 213.483 178.435 213.317 178.546C213.15 178.656 212.954 178.714 212.753 178.714H199.219C198.519 178.714 197.847 178.438 197.351 177.947C196.856 177.456 196.576 176.79 196.576 176.095Z" fill="#00766E"/>
<path d="M170.433 197.99L172.707 195.696C173.109 195.289 173.587 194.967 174.112 194.747C174.638 194.527 175.202 194.413 175.771 194.414H179.007C179.702 194.414 180.368 194.693 180.859 195.189C181.35 195.685 181.626 196.358 181.626 197.059V210.59C181.626 210.791 181.569 210.988 181.458 211.155C181.348 211.322 181.191 211.453 181.008 211.529C180.824 211.606 180.622 211.626 180.427 211.587C180.232 211.548 180.054 211.45 179.913 211.308L170.442 201.74C170.196 201.494 170.002 201.203 169.869 200.882C169.736 200.559 169.668 200.215 169.667 199.866C169.666 199.519 169.733 199.173 169.865 198.851C169.997 198.529 170.189 198.237 170.433 197.99Z" fill="#00766E"/>
<path d="M134.915 195.16H138.129C139.28 195.162 140.383 195.602 141.196 196.388L143.486 198.598C143.977 199.072 144.253 199.715 144.253 200.386C144.253 201.056 143.977 201.7 143.486 202.174L134.009 211.32C133.869 211.456 133.689 211.548 133.494 211.586C133.299 211.624 133.097 211.604 132.914 211.531C132.73 211.458 132.573 211.333 132.462 211.173C132.352 211.014 132.293 210.826 132.293 210.634V197.691C132.294 197.02 132.57 196.376 133.061 195.902C133.553 195.428 134.22 195.161 134.915 195.16Z" fill="#00766E"/>
<path d="M113.017 168.267L115.313 170.54C116.133 171.353 116.594 172.454 116.595 173.603V176.841C116.595 177.535 116.315 178.202 115.819 178.693C115.322 179.184 114.65 179.46 113.947 179.46H100.416C100.216 179.46 100.02 179.4 99.8532 179.291C99.6872 179.18 99.5569 179.024 99.4807 178.84C99.4036 178.657 99.3838 178.456 99.4227 178.261C99.4608 178.066 99.5569 177.888 99.6983 177.747L109.267 168.275C109.512 168.03 109.804 167.836 110.126 167.703C110.447 167.569 110.792 167.501 111.14 167.5C111.489 167.499 111.834 167.567 112.156 167.698C112.477 167.83 112.77 168.023 113.017 168.267Z" fill="#00766E"/>
<path d="M115.848 133.497V136.711C115.847 137.861 115.406 138.964 114.622 139.777L112.412 142.068C111.937 142.559 111.294 142.835 110.623 142.835C109.952 142.835 109.309 142.559 108.835 142.068L99.6872 132.591C99.5521 132.449 99.4594 132.271 99.4222 132.076C99.3843 131.881 99.404 131.678 99.4769 131.495C99.5505 131.311 99.6751 131.155 99.8345 131.044C99.9939 130.933 100.181 130.874 100.374 130.875H113.32C113.992 130.876 114.634 131.152 115.108 131.644C115.581 132.136 115.848 132.802 115.848 133.497Z" fill="#00766E"/>
<path d="M149.658 166.007H167.252V161.35H171.909V143.756H167.252V139.098H149.658V143.756H145V161.35H149.658V166.007Z" fill="#00766E"/>
</svg>
