<svg width="64" height="64" viewBox="0 0 64 64" fill="none" xmlns="http://www.w3.org/2000/svg">
<rect width="64" height="64" rx="32" fill="#007D75"/>
<path d="M22.7036 42.2775C22.6266 42.2775 22.5505 42.2606 22.4808 42.2279C22.4111 42.1953 22.3494 42.1478 22.3003 42.0888C22.2511 42.0297 22.2156 41.9606 22.1964 41.8864C22.1771 41.8121 22.1745 41.7345 22.1888 41.6592L23.2219 36.191C23.2411 36.0877 23.2914 35.9926 23.3663 35.9185L36.0175 23.322C36.0921 23.2476 36.1876 23.1975 36.2914 23.1782L41.7825 22.1497C41.8663 22.1339 41.9526 22.1388 42.0341 22.1639C42.1156 22.1889 42.1897 22.2334 42.25 22.2934C42.3103 22.3534 42.355 22.4272 42.3802 22.5084C42.4054 22.5895 42.4103 22.6755 42.3946 22.7589L41.3614 28.2269C41.3421 28.3302 41.2918 28.4253 41.2171 28.4996L28.5671 41.0959C28.4928 41.1704 28.3974 41.2206 28.2937 41.2397L22.8023 42.2685C22.7698 42.2745 22.7367 42.2776 22.7036 42.2775ZM41.8791 22.4809C41.8674 22.481 41.8558 22.482 41.8443 22.4841L36.3532 23.5128C36.317 23.5195 36.2838 23.5369 36.2578 23.5628L23.6087 36.16C23.5829 36.1859 23.5653 36.2189 23.5584 36.2547L22.5255 41.7231C22.5198 41.752 22.5214 41.782 22.5302 41.8102C22.539 41.8384 22.5546 41.864 22.5758 41.8847C22.5968 41.9056 22.6225 41.921 22.6508 41.9297C22.679 41.9384 22.709 41.9401 22.7381 41.9346L28.2297 40.9059C28.2657 40.8993 28.2987 40.8818 28.3244 40.8559L40.9744 28.2596C41.0003 28.2338 41.0178 28.2008 41.0245 28.1649L42.0576 22.6967C42.0626 22.6706 42.0617 22.6438 42.055 22.618C42.0484 22.5923 42.0362 22.5682 42.0192 22.5477C42.0022 22.5272 41.981 22.5107 41.9568 22.4992C41.9328 22.4878 41.9064 22.4817 41.8797 22.4815L41.8791 22.4809Z" fill="white"/>
<path d="M41.878 42.2775C41.8454 42.2775 41.813 42.2745 41.781 42.2685L36.2898 41.2397C36.186 41.2207 36.0905 41.1705 36.016 41.096L23.3662 28.4996C23.2915 28.4254 23.2411 28.3303 23.2219 28.2269L22.1887 22.759C22.173 22.6755 22.1779 22.5895 22.203 22.5083C22.2282 22.4272 22.2729 22.3534 22.3332 22.2933C22.3935 22.2333 22.4676 22.1888 22.5491 22.1638C22.6306 22.1388 22.717 22.1339 22.8008 22.1497L28.2922 23.1782C28.3958 23.1976 28.4911 23.2477 28.5656 23.322L41.2156 35.9183C41.2903 35.9927 41.3406 36.0878 41.36 36.1913L42.3931 41.6592C42.4073 41.7346 42.4047 41.8121 42.3854 41.8864C42.3661 41.9607 42.3306 42.0298 42.2814 42.0888C42.2322 42.1479 42.1706 42.1954 42.1009 42.228C42.0311 42.2606 41.9551 42.2775 41.878 42.2775ZM22.7029 22.4809C22.6763 22.4812 22.65 22.4872 22.6259 22.4987C22.6018 22.5101 22.5806 22.5267 22.5636 22.5472C22.5467 22.5677 22.5345 22.5917 22.5278 22.6175C22.5212 22.6432 22.5203 22.67 22.5253 22.6962L23.5582 28.1643C23.5651 28.2002 23.5826 28.2331 23.6085 28.259L36.2583 40.8553C36.2841 40.8812 36.3173 40.8987 36.3534 40.9053L41.8447 41.934C41.8738 41.9395 41.9039 41.9377 41.9322 41.929C41.9605 41.9203 41.9862 41.9048 42.0072 41.884C42.0281 41.8631 42.0437 41.8375 42.0524 41.8093C42.0611 41.7811 42.0629 41.7513 42.0574 41.7223L41.0243 36.2543C41.0176 36.2184 41.0001 36.1853 40.9741 36.1594L28.3242 23.5631C28.2984 23.5371 28.2653 23.5197 28.2293 23.5131L22.738 22.4844C22.7264 22.4823 22.7147 22.4811 22.7029 22.4809Z" fill="white"/>
<path d="M32.2898 46.2325C32.2046 46.2325 32.1206 46.2117 32.0453 46.1721C31.97 46.1324 31.9055 46.0751 31.8575 46.005L28.7045 41.4115C28.6447 41.3249 28.6129 41.2222 28.6133 41.1171V23.3031C28.613 23.1981 28.6448 23.0954 28.7045 23.0087L31.8571 18.4148C31.9051 18.3447 31.9696 18.2874 32.0449 18.2478C32.1202 18.2082 32.2041 18.1875 32.2893 18.1875C32.3745 18.1876 32.4584 18.2083 32.5337 18.2479C32.609 18.2875 32.6735 18.3448 32.7216 18.4148L35.8739 23.0087C35.9334 23.0954 35.9652 23.1981 35.9651 23.3031V41.1171C35.9653 41.2222 35.9335 41.3248 35.8739 41.4115L32.7227 46.0044C32.6746 46.0746 32.6101 46.1321 32.5346 46.1719C32.4592 46.2116 32.3751 46.2325 32.2898 46.2325ZM32.2898 18.5276C32.26 18.5272 32.2305 18.5343 32.2041 18.5481C32.1777 18.5619 32.1551 18.5819 32.1385 18.6065L28.9859 23.2005C28.9653 23.2306 28.9543 23.2663 28.9544 23.3027V41.1166C28.9543 41.1532 28.9653 41.1889 28.9859 41.2191L32.1385 45.8128C32.1551 45.8375 32.1776 45.8577 32.2041 45.8715C32.2305 45.8853 32.2599 45.8924 32.2898 45.892C32.3196 45.8924 32.3491 45.8853 32.3755 45.8715C32.4019 45.8577 32.4244 45.8375 32.4411 45.8128L35.5925 41.2178C35.6133 41.1877 35.6244 41.1519 35.6243 41.1154V23.3014C35.6244 23.2649 35.6133 23.2292 35.5925 23.1992L32.4402 18.6052C32.4236 18.5808 32.4011 18.5609 32.3749 18.5472C32.3486 18.5335 32.3194 18.5266 32.2898 18.5269V18.5276Z" fill="white"/>
<path d="M35.9374 40.9996L32.2599 37.3374L28.5821 40.9996V35.8219H23.3828L27.0603 32.1599L23.3828 28.4981H28.5821V23.3203L32.2599 26.9823L35.9374 23.3203V28.4981H41.1363L37.4588 32.1604L41.1363 35.8219H35.9374V40.9996ZM32.5009 37.0965L35.5947 40.1772V35.8219H33.7808L32.5009 37.0965ZM28.9247 35.8219V40.1772L32.0187 37.0965L30.7387 35.8219H28.9247ZM31.2222 35.8219L32.2597 36.855L33.2971 35.8219H31.2222ZM35.9381 35.4815H40.3118L37.2178 32.4008L35.9381 33.6753V35.4815ZM34.1243 35.4815H35.596V34.0158L34.1243 35.4815ZM30.8803 35.4815H33.6406L35.596 33.5342V30.7855L33.6406 28.8382H30.8797L28.924 30.7855V33.5344L30.8803 35.4815ZM28.9247 35.4815H30.3966L28.9247 34.0158V35.4815ZM24.2091 35.4815H28.5828V33.6753L27.3028 32.4008L24.2091 35.4815ZM35.9381 31.1262V33.1937L36.9755 32.1606L35.9381 31.1262ZM27.5447 32.1593L28.5821 33.1924V31.1249L27.5447 32.1593ZM35.9381 30.6437L37.2178 31.9185L40.3118 28.8376H35.9374L35.9381 30.6437ZM24.2091 28.8376L27.3022 31.9202L28.5821 30.6454V28.8382L24.2091 28.8376ZM34.1243 28.8376L35.596 30.3032V28.8376H34.1243ZM28.9247 28.8376V30.3032L30.3966 28.8376H28.9247ZM33.7821 28.497H35.596V24.1424L32.5022 27.2232L33.7821 28.497ZM31.2222 28.497H33.2987L32.2612 27.464L31.2222 28.497ZM28.9247 28.497H30.7387L32.0187 27.2225L28.9247 24.1424V28.497Z" fill="white"/>
<path d="M41.2374 35.872H23.3479C23.2424 35.8722 23.1393 35.8404 23.0522 35.781L18.4388 32.6417C18.3686 32.5938 18.3111 32.5296 18.2714 32.4546C18.2317 32.3796 18.2109 32.2961 18.2109 32.2113C18.2109 32.1265 18.2317 32.043 18.2714 31.968C18.3111 31.893 18.3686 31.8288 18.4388 31.7809L23.0522 28.6416C23.1393 28.5823 23.2424 28.5507 23.3479 28.5508H41.2374C41.3429 28.5507 41.446 28.5824 41.5331 28.6416L46.1463 31.7809C46.2166 31.8287 46.2741 31.8929 46.3138 31.968C46.3536 32.043 46.3743 32.1265 46.3743 32.2113C46.3743 32.2961 46.3536 32.3796 46.3138 32.4547C46.2741 32.5296 46.2166 32.5939 46.1463 32.6417L41.5331 35.781C41.446 35.8404 41.343 35.8722 41.2374 35.872ZM23.3479 28.8904C23.3112 28.8904 23.2753 28.9015 23.245 28.922L18.6318 32.0613C18.6073 32.0779 18.5873 32.1002 18.5734 32.1263C18.5595 32.1524 18.5523 32.1815 18.5523 32.211C18.5523 32.2405 18.5595 32.2696 18.5734 32.2957C18.5873 32.3218 18.6073 32.3441 18.6318 32.3607L23.245 35.4999C23.2753 35.5206 23.3112 35.5316 23.3479 35.5315H41.2374C41.2741 35.5315 41.3098 35.5205 41.3401 35.4999L45.9535 32.3607C45.978 32.3441 45.9981 32.3218 46.012 32.2957C46.0258 32.2696 46.033 32.2405 46.033 32.211C46.033 32.1815 46.0258 32.1524 46.012 32.1263C45.9981 32.1002 45.978 32.0779 45.9535 32.0613L41.3401 28.922C41.3098 28.9015 41.2741 28.8904 41.2374 28.8904H23.3479Z" fill="white"/>
<path d="M33.7094 18.4482L36.2634 22.1664C36.282 22.1935 36.3081 22.2146 36.3385 22.2273C36.369 22.2399 36.4024 22.2434 36.4348 22.2374L40.9088 21.4174C40.9318 21.4132 40.9537 21.4043 40.9731 21.3913C40.9925 21.3783 41.009 21.3614 41.0216 21.3418C41.0341 21.3221 41.0425 21.3001 41.0461 21.2771C41.0497 21.254 41.0485 21.2306 41.0426 21.208L39.4557 15.1271C39.4492 15.1017 39.4368 15.0782 39.4195 15.0584C39.4022 15.0385 39.3806 15.023 39.3562 15.0129C39.3319 15.0029 39.3055 14.9986 39.2793 15.0004C39.253 15.0022 39.2275 15.0101 39.2048 15.0234L33.7638 18.2063C33.7437 18.2181 33.7262 18.2338 33.7124 18.2526C33.6987 18.2714 33.6889 18.2928 33.6838 18.3155C33.6787 18.3382 33.6783 18.3617 33.6827 18.3845C33.6871 18.4073 33.6962 18.429 33.7094 18.4482Z" fill="white"/>
<path d="M43.1204 23.614L42.2844 28.0519C42.278 28.0843 42.2814 28.1179 42.294 28.1485C42.3066 28.1791 42.3279 28.2054 42.3553 28.2241L46.1093 30.8001C46.1286 30.8133 46.1505 30.8225 46.1735 30.827C46.1965 30.8314 46.2202 30.8311 46.2431 30.8261C46.266 30.821 46.2877 30.8113 46.3066 30.7975C46.3256 30.7837 46.3414 30.7662 46.3533 30.7461L49.5564 25.3166C49.5698 25.294 49.5778 25.2685 49.5796 25.2423C49.5814 25.216 49.5771 25.1898 49.567 25.1654C49.5569 25.1412 49.5413 25.1195 49.5214 25.1022C49.5015 25.085 49.4778 25.0725 49.4523 25.0659L43.3311 23.4821C43.3086 23.4762 43.285 23.475 43.2619 23.4785C43.2389 23.4821 43.2168 23.4903 43.1971 23.5026C43.1773 23.515 43.1603 23.5312 43.1471 23.5504C43.1339 23.5696 43.1249 23.5912 43.1204 23.614Z" fill="white"/>
<path d="M23.7605 21.3477L28.0899 22.1567C28.1215 22.1625 28.154 22.1592 28.1837 22.147C28.2133 22.1348 28.2388 22.1143 28.257 22.0881L30.77 18.4564C30.783 18.4377 30.7921 18.4165 30.7965 18.3942C30.8009 18.3718 30.8007 18.3488 30.7957 18.3266C30.7908 18.3043 30.7813 18.2834 30.7678 18.265C30.7544 18.2465 30.7372 18.2311 30.7175 18.2196L25.4204 15.1204C25.3983 15.1075 25.3735 15.0998 25.3479 15.0981C25.3224 15.0963 25.2967 15.1004 25.2731 15.1102C25.2493 15.12 25.2282 15.1351 25.2114 15.1543C25.1946 15.1736 25.1825 15.1964 25.176 15.2212L23.6306 21.1428C23.6247 21.1648 23.6234 21.1877 23.6269 21.2102C23.6304 21.2327 23.6384 21.2543 23.6506 21.2735C23.6628 21.2928 23.6788 21.3093 23.6978 21.322C23.7167 21.3348 23.738 21.3436 23.7605 21.3477Z" fill="white"/>
<path d="M18.4706 30.8048L22.2132 28.2555C22.2404 28.237 22.2617 28.211 22.2743 28.1806C22.287 28.1503 22.2905 28.1169 22.2845 28.0846L21.4591 23.6196C21.4549 23.5966 21.4459 23.5748 21.4328 23.5554C21.4197 23.5361 21.4028 23.5196 21.383 23.5071C21.3632 23.4945 21.341 23.4862 21.3179 23.4825C21.2947 23.4789 21.2711 23.4801 21.2484 23.486L15.1276 25.0698C15.1021 25.0764 15.0785 25.0889 15.0586 25.1061C15.0387 25.1234 15.0231 25.145 15.013 25.1693C15.0029 25.1935 14.9986 25.2198 15.0004 25.246C15.0022 25.2722 15.0101 25.2976 15.0235 25.3203L18.227 30.7506C18.2389 30.7707 18.2548 30.7881 18.2737 30.8018C18.2926 30.8155 18.3142 30.8252 18.337 30.8303C18.3598 30.8354 18.3835 30.8358 18.4064 30.8314C18.4294 30.827 18.4513 30.818 18.4706 30.8048Z" fill="white"/>
<path d="M21.4636 40.8046L22.2996 36.367C22.3059 36.3345 22.3025 36.3009 22.29 36.2704C22.2773 36.2397 22.2561 36.2135 22.2288 36.1947L18.4747 33.6198C18.4554 33.6066 18.4335 33.5974 18.4105 33.593C18.3875 33.5885 18.3638 33.5888 18.3409 33.5939C18.318 33.5989 18.2964 33.6086 18.2775 33.6223C18.2585 33.636 18.2426 33.6535 18.2307 33.6737L15.0273 39.1033C15.014 39.126 15.0061 39.1514 15.0043 39.1776C15.0025 39.2038 15.0068 39.2301 15.0169 39.2544C15.0271 39.2787 15.0427 39.3003 15.0626 39.3175C15.0825 39.3348 15.1062 39.3472 15.1317 39.3538L21.2529 40.9378C21.2755 40.9437 21.2992 40.9448 21.3223 40.9412C21.3454 40.9376 21.3676 40.9293 21.3873 40.9168C21.4071 40.9043 21.4241 40.8879 21.4372 40.8686C21.4503 40.8493 21.4593 40.8275 21.4636 40.8046Z" fill="white"/>
<path d="M30.8702 45.9717L28.3161 42.2535C28.2975 42.2264 28.2714 42.2053 28.2409 42.1927C28.2105 42.1801 28.1771 42.1765 28.1447 42.1825L23.6707 43.0025C23.6477 43.0067 23.6258 43.0156 23.6064 43.0286C23.587 43.0416 23.5705 43.0584 23.5579 43.0781C23.5454 43.0978 23.537 43.1198 23.5333 43.1428C23.5297 43.1658 23.5308 43.1893 23.5367 43.2119L25.1238 49.293C25.1304 49.3184 25.1428 49.3419 25.1601 49.3617C25.1774 49.3815 25.199 49.397 25.2233 49.407C25.2477 49.4171 25.274 49.4213 25.3003 49.4195C25.3265 49.4177 25.352 49.4098 25.3747 49.3965L30.8157 46.2136C30.8358 46.2018 30.8534 46.1861 30.8671 46.1673C30.8809 46.1485 30.8906 46.1271 30.8957 46.1044C30.9008 46.0817 30.9012 46.0582 30.8968 46.0354C30.8924 46.0126 30.8834 45.9909 30.8702 45.9717Z" fill="white"/>
<path d="M40.9185 42.9988L36.4708 42.167C36.4384 42.1609 36.405 42.1644 36.3745 42.1769C36.3441 42.1894 36.3179 42.2105 36.2992 42.2375L33.7175 45.9684C33.7042 45.9876 33.6951 46.0093 33.6907 46.0322C33.6861 46.055 33.6865 46.0786 33.6916 46.1013C33.6966 46.124 33.7063 46.1455 33.7201 46.1643C33.7339 46.1831 33.7513 46.199 33.7715 46.2108L39.2134 49.3941C39.2361 49.4074 39.2616 49.4153 39.2879 49.4171C39.3142 49.4189 39.3405 49.4146 39.3649 49.4046C39.3892 49.3946 39.4108 49.3791 39.4282 49.3593C39.4454 49.3395 39.4579 49.316 39.4645 49.2906L41.052 43.2073C41.0577 43.1848 41.0588 43.1615 41.0551 43.1386C41.0514 43.1157 41.043 43.0938 41.0305 43.0743C41.018 43.0548 41.0016 43.038 40.9823 43.025C40.9631 43.012 40.9413 43.0031 40.9185 42.9988Z" fill="white"/>
<path d="M46.1099 33.6153L42.3673 36.1644C42.3399 36.1831 42.3185 36.2093 42.3059 36.2399C42.2932 36.2705 42.2898 36.3041 42.296 36.3366L43.1214 40.8014C43.1256 40.8244 43.1346 40.8462 43.1477 40.8655C43.1608 40.8849 43.1778 40.9014 43.1975 40.9139C43.2173 40.9265 43.2395 40.9348 43.2626 40.9385C43.2858 40.9421 43.3095 40.9409 43.3322 40.935L49.4526 39.3512C49.4782 39.3446 49.5019 39.3322 49.5218 39.3149C49.5417 39.2977 49.5573 39.2761 49.5674 39.2518C49.5775 39.2275 49.5819 39.2012 49.5801 39.175C49.5783 39.1488 49.5704 39.1234 49.557 39.1007L46.3535 33.6706C46.3417 33.6505 46.3259 33.6329 46.3071 33.619C46.2882 33.6052 46.2666 33.5954 46.2438 33.5902C46.2209 33.585 46.1973 33.5846 46.1742 33.5889C46.1512 33.5932 46.1293 33.6022 46.1099 33.6153Z" fill="white"/>
<path d="M34.8653 23.0313L32.5094 19.5979C32.485 19.5628 32.4524 19.5342 32.4145 19.5145C32.3765 19.4947 32.3344 19.4844 32.2916 19.4844C32.2487 19.4844 32.2066 19.4947 32.1686 19.5145C32.1307 19.5342 32.0981 19.5628 32.0737 19.5979L29.7178 23.0313C29.4766 23.3436 29.7632 23.6288 29.9257 23.7906L30.9733 24.8338C30.9861 24.8465 31.0016 24.8561 31.0186 24.8618C31.0357 24.8676 31.0538 24.8693 31.0716 24.867C31.0895 24.8646 31.1065 24.8582 31.1215 24.8482C31.1365 24.8383 31.1489 24.825 31.1579 24.8095L32.19 23.0296C32.2003 23.0119 32.2151 22.9972 32.2329 22.9869C32.2507 22.9767 32.271 22.9713 32.2916 22.9713C32.3121 22.9713 32.3324 22.9767 32.3502 22.9869C32.368 22.9972 32.3829 23.0119 32.3931 23.0296L33.4252 24.8095C33.4342 24.825 33.4466 24.8383 33.4616 24.8482C33.4766 24.8582 33.4936 24.8646 33.5115 24.867C33.5293 24.8693 33.5474 24.8676 33.5645 24.8618C33.5815 24.8561 33.597 24.8465 33.6098 24.8338L34.6574 23.7906C34.8201 23.6288 35.0883 23.386 34.8653 23.0313Z" fill="white"/>
<path d="M23.9525 36.8866L23.18 40.9728C23.1724 41.0148 23.1751 41.058 23.1879 41.0986C23.2006 41.1394 23.2231 41.1764 23.2534 41.2065C23.2837 41.2367 23.3208 41.2591 23.3617 41.2719C23.4025 41.2846 23.4459 41.2873 23.488 41.2797L27.5924 40.5112C27.9847 40.4602 27.9845 40.0568 27.9845 39.8278V38.3525C27.9845 38.3346 27.9804 38.3169 27.9724 38.3008C27.9645 38.2848 27.953 38.2707 27.9387 38.2598C27.9244 38.2489 27.9078 38.2414 27.8901 38.238C27.8725 38.2345 27.8542 38.2351 27.8369 38.2398L25.8433 38.7718C25.8234 38.7771 25.8024 38.7771 25.7825 38.7718C25.7626 38.7664 25.7444 38.756 25.7299 38.7415C25.7153 38.727 25.7049 38.7089 25.6995 38.6891C25.6942 38.6693 25.6942 38.6484 25.6995 38.6287L26.2336 36.6432C26.2383 36.6259 26.2389 36.6078 26.2354 36.5902C26.2319 36.5726 26.2244 36.5561 26.2134 36.5419C26.2025 36.5276 26.1884 36.5161 26.1722 36.5082C26.1561 36.5003 26.1383 36.4962 26.1204 36.4962H24.6387C24.4098 36.4962 24.0474 36.4792 23.9525 36.8866Z" fill="white"/>
<path d="M36.9899 40.5111L41.0935 41.2805C41.1356 41.2881 41.179 41.2853 41.2198 41.2726C41.2607 41.2598 41.2978 41.2374 41.3281 41.2073C41.3583 41.1771 41.3808 41.1401 41.3936 41.0994C41.4064 41.0587 41.4091 41.0155 41.4015 40.9736L40.6299 36.8865C40.5786 36.4959 40.1736 36.4961 39.9436 36.4961H38.462C38.444 36.4961 38.4263 36.5002 38.4101 36.5081C38.394 36.516 38.3799 36.5275 38.3689 36.5418C38.3579 36.556 38.3504 36.5725 38.347 36.5901C38.3435 36.6077 38.3441 36.6258 38.3487 36.6431L38.8828 38.6283C38.8882 38.6481 38.8883 38.669 38.8829 38.6889C38.8777 38.7087 38.8672 38.7268 38.8526 38.7413C38.838 38.7559 38.8198 38.7663 38.7999 38.7716C38.78 38.7769 38.759 38.7768 38.7391 38.7714L36.7454 38.2396C36.7281 38.235 36.7099 38.2343 36.6922 38.2378C36.6746 38.2413 36.658 38.2488 36.6437 38.2597C36.6294 38.2706 36.6178 38.2846 36.6099 38.3007C36.602 38.3168 36.5978 38.3345 36.5979 38.3524V39.8277C36.5974 40.0567 36.5803 40.4168 36.9899 40.5111Z" fill="white"/>
<path d="M40.626 27.53L41.3984 23.4437C41.4061 23.4018 41.4034 23.3587 41.3906 23.3179C41.3779 23.2773 41.3554 23.2403 41.3251 23.2101C41.2948 23.1799 41.2577 23.1576 41.2168 23.1449C41.1759 23.1321 41.1326 23.1295 41.0905 23.137L36.9861 23.9054C36.5938 23.9564 36.5938 24.3597 36.5938 24.5887V26.0641C36.5938 26.082 36.598 26.0997 36.6059 26.1158C36.6139 26.1319 36.6255 26.1459 36.6398 26.1568C36.654 26.1677 36.6707 26.1752 36.6884 26.1787C36.706 26.1821 36.7242 26.1815 36.7416 26.1769L38.7353 25.645C38.7551 25.6397 38.7761 25.6397 38.796 25.645C38.8159 25.6503 38.834 25.6608 38.8486 25.6753C38.8632 25.6898 38.8736 25.7079 38.879 25.7277C38.8843 25.7475 38.8843 25.7684 38.879 25.7882L38.3447 27.7734C38.3401 27.7907 38.3395 27.8088 38.343 27.8264C38.3465 27.844 38.354 27.8605 38.365 27.8747C38.376 27.8889 38.3901 27.9004 38.4063 27.9084C38.4224 27.9163 38.4402 27.9204 38.4582 27.9204H39.9397C40.1697 27.9215 40.5314 27.9389 40.626 27.53Z" fill="white"/>
<path d="M23.0737 29.6468L19.6257 31.9927C19.5905 32.017 19.5618 32.0494 19.5419 32.0872C19.5221 32.125 19.5117 32.167 19.5117 32.2096C19.5117 32.2523 19.5221 32.2943 19.5419 32.3321C19.5618 32.3698 19.5905 32.4023 19.6257 32.4266L23.0737 34.7725C23.3871 35.0127 23.6735 34.7276 23.8362 34.5655L24.8838 33.5223C24.8966 33.5096 24.9062 33.4942 24.9119 33.4772C24.9177 33.4603 24.9195 33.4422 24.9171 33.4244C24.9148 33.4066 24.9083 33.3897 24.8983 33.3748C24.8883 33.3599 24.875 33.3475 24.8594 33.3385L23.072 32.3108C23.0542 32.3006 23.0394 32.2858 23.0291 32.2681C23.0188 32.2503 23.0134 32.2302 23.0134 32.2096C23.0134 32.1892 23.0188 32.169 23.0291 32.1513C23.0394 32.1335 23.0542 32.1188 23.072 32.1085L24.8594 31.0808C24.875 31.0719 24.8883 31.0595 24.8983 31.0446C24.9083 31.0297 24.9148 31.0127 24.9171 30.9949C24.9195 30.9772 24.9177 30.9591 24.9119 30.9421C24.9062 30.9251 24.8966 30.9097 24.8838 30.897L23.8362 29.8545C23.6735 29.692 23.4299 29.4253 23.0737 29.6468Z" fill="white"/>
<path d="M29.7175 41.3877L32.0734 44.8209C32.0978 44.8559 32.1304 44.8846 32.1683 44.9044C32.2062 44.9242 32.2484 44.9345 32.2913 44.9345C32.3341 44.9345 32.3763 44.9242 32.4143 44.9044C32.4522 44.8846 32.4847 44.8559 32.5091 44.8209L34.865 41.3877C35.1062 41.0754 34.8196 40.7902 34.6571 40.6283L33.6095 39.5849C33.5967 39.5723 33.5812 39.5627 33.5642 39.557C33.5471 39.5512 33.529 39.5494 33.5112 39.5518C33.4934 39.5541 33.4763 39.5606 33.4613 39.5705C33.4463 39.5805 33.4339 39.5938 33.4249 39.6093L32.3928 41.3892C32.3826 41.4069 32.3677 41.4216 32.3499 41.4319C32.3321 41.4421 32.3118 41.4475 32.2913 41.4475C32.2707 41.4475 32.2504 41.4421 32.2326 41.4319C32.2148 41.4216 32.2 41.4069 32.1897 41.3892L31.1576 39.6093C31.1487 39.5938 31.1362 39.5805 31.1212 39.5705C31.1063 39.5606 31.0892 39.5541 31.0713 39.5518C31.0535 39.5494 31.0354 39.5512 31.0183 39.557C31.0013 39.5627 30.9858 39.5723 30.973 39.5849L29.9254 40.6283C29.7627 40.7902 29.4951 41.0328 29.7175 41.3877Z" fill="white"/>
<path d="M41.5085 34.7728L44.9565 32.4269C44.9917 32.4026 45.0204 32.3702 45.0403 32.3324C45.0601 32.2946 45.0705 32.2526 45.0705 32.21C45.0705 32.1673 45.0601 32.1253 45.0403 32.0876C45.0204 32.0498 44.9917 32.0173 44.9565 31.9931L41.5085 29.6471C41.1951 29.4069 40.9087 29.6923 40.746 29.8542L39.6984 30.8973C39.6857 30.91 39.676 30.9254 39.6703 30.9424C39.6645 30.9594 39.6627 30.9775 39.6651 30.9952C39.6674 31.013 39.6739 31.03 39.6839 31.0449C39.6939 31.0598 39.7072 31.0722 39.7228 31.0811L41.5102 32.1088C41.5281 32.1191 41.5429 32.1338 41.5533 32.1516C41.5636 32.1694 41.569 32.1895 41.569 32.2101C41.569 32.2306 41.5636 32.2508 41.5533 32.2686C41.5429 32.2864 41.5281 32.3011 41.5102 32.3113L39.7228 33.3388C39.7072 33.3477 39.6939 33.3602 39.6839 33.3751C39.6739 33.39 39.6674 33.407 39.6651 33.4247C39.6627 33.4425 39.6645 33.4606 39.6703 33.4776C39.676 33.4945 39.6857 33.51 39.6984 33.5226L40.746 34.5658C40.9087 34.7279 41.1523 34.9943 41.5085 34.7728Z" fill="white"/>
<path d="M27.6503 23.922L23.5468 23.1526C23.5046 23.1451 23.4613 23.1478 23.4204 23.1605C23.3795 23.1733 23.3424 23.1957 23.3121 23.2258C23.2818 23.256 23.2593 23.293 23.2465 23.3337C23.2337 23.3744 23.231 23.4175 23.2386 23.4595L24.0104 27.5466C24.0616 27.937 24.4666 27.937 24.6966 27.937H26.1782C26.1962 27.937 26.2139 27.9329 26.23 27.9249C26.2462 27.917 26.2602 27.9055 26.2712 27.8913C26.2821 27.8771 26.2897 27.8606 26.2932 27.843C26.2967 27.8254 26.2961 27.8073 26.2915 27.79L25.7572 25.8046C25.7519 25.7848 25.7519 25.7639 25.7572 25.7441C25.7625 25.7243 25.773 25.7062 25.7876 25.6917C25.8021 25.6772 25.8203 25.6668 25.8402 25.6615C25.8601 25.6561 25.881 25.6561 25.9009 25.6615L27.8948 26.1935C27.9121 26.1982 27.9304 26.1988 27.948 26.1953C27.9657 26.1918 27.9823 26.1843 27.9965 26.1734C28.0108 26.1625 28.0224 26.1485 28.0303 26.1324C28.0383 26.1163 28.0424 26.0986 28.0424 26.0807V24.6054C28.0424 24.3764 28.0594 24.0163 27.6503 23.922Z" fill="white"/>
<path d="M30.7884 27.3643L30.5397 27.6121C30.4506 27.7007 30.3299 27.7505 30.204 27.7506H29.8494C29.7732 27.7506 29.7003 27.7204 29.6465 27.6668C29.5927 27.6133 29.5625 27.5406 29.5625 27.4648V26.0039C29.5626 25.9823 29.569 25.9611 29.5811 25.9432C29.5932 25.9252 29.6103 25.9112 29.6304 25.9029C29.6504 25.8946 29.6725 25.8924 29.6939 25.8966C29.7151 25.9008 29.7347 25.9112 29.7502 25.9264L30.7876 26.9595C30.8144 26.986 30.8358 27.0174 30.8504 27.0521C30.865 27.0869 30.8725 27.1241 30.8726 27.1617C30.8727 27.1994 30.8653 27.2366 30.8508 27.2714C30.8364 27.3061 30.8152 27.3377 30.7884 27.3643Z" fill="white"/>
<path d="M34.663 27.7283H34.3109C34.1851 27.7281 34.0645 27.6784 33.9755 27.5899L33.7248 27.3402C33.6981 27.3137 33.6769 27.2822 33.6625 27.2475C33.648 27.2128 33.6406 27.1757 33.6406 27.1382C33.6406 27.1006 33.648 27.0634 33.6625 27.0287C33.6769 26.994 33.6981 26.9626 33.7248 26.936L34.7622 25.903C34.7776 25.8877 34.7972 25.8774 34.8185 25.8732C34.8398 25.869 34.8619 25.8711 34.8819 25.8795C34.902 25.8877 34.9192 25.9017 34.9313 25.9197C34.9433 25.9377 34.9498 25.9588 34.9498 25.9804V27.4425C34.9498 27.48 34.9425 27.5171 34.928 27.5518C34.9136 27.5865 34.8925 27.618 34.8659 27.6445C34.8393 27.6711 34.8076 27.6922 34.7728 27.7065C34.738 27.7209 34.7007 27.7283 34.663 27.7283Z" fill="white"/>
<path d="M37.1456 30.7129L36.8968 30.4652C36.8079 30.3765 36.7579 30.2563 36.7578 30.1309V29.7778C36.7578 29.702 36.7881 29.6294 36.8418 29.5758C36.8956 29.5222 36.9686 29.4922 37.0446 29.4922H38.512C38.5337 29.4921 38.555 29.4985 38.5731 29.5106C38.5912 29.5226 38.6052 29.5397 38.6136 29.5597C38.6219 29.5797 38.624 29.6018 38.6198 29.623C38.6155 29.6442 38.605 29.6637 38.5896 29.679L37.5521 30.712C37.5255 30.7387 37.4939 30.7599 37.459 30.7744C37.4242 30.7889 37.3868 30.7963 37.349 30.7964C37.3113 30.7965 37.2738 30.7892 37.2389 30.7749C37.204 30.7605 37.1723 30.7395 37.1456 30.7129Z" fill="white"/>
<path d="M36.7812 34.5728V34.2222C36.7814 34.0968 36.8313 33.9766 36.9202 33.8879L37.171 33.6383C37.2248 33.5847 37.2977 33.5547 37.3738 33.5547C37.4499 33.5547 37.5228 33.5847 37.5766 33.6383L38.6141 34.6714C38.6295 34.6866 38.64 34.7062 38.6443 34.7274C38.6486 34.7487 38.6464 34.7707 38.638 34.7907C38.6297 34.8107 38.6156 34.8278 38.5975 34.8398C38.5793 34.8519 38.5581 34.8582 38.5363 34.8581H37.0681C36.992 34.8581 36.9191 34.8281 36.8653 34.7746C36.8115 34.7211 36.7813 34.6485 36.7812 34.5728Z" fill="white"/>
<path d="M33.7832 37.0424L34.0322 36.7946C34.0762 36.7508 34.1286 36.7159 34.1862 36.6922C34.2437 36.6684 34.3055 36.6562 34.3678 36.6563H34.7223C34.7983 36.6563 34.8713 36.6864 34.9251 36.7399C34.9789 36.7935 35.0091 36.8661 35.0091 36.9418V38.4028C35.0091 38.4244 35.0028 38.4457 34.9907 38.4637C34.9786 38.4818 34.9615 38.4958 34.9414 38.5041C34.9212 38.5124 34.8991 38.5146 34.8778 38.5103C34.8564 38.5061 34.8369 38.4956 34.8215 38.4803L33.7841 37.4472C33.7572 37.4207 33.7359 37.3892 33.7214 37.3545C33.7068 37.3198 33.6993 37.2826 33.6992 37.2449C33.6991 37.2074 33.7065 37.1701 33.7209 37.1353C33.7353 37.1005 33.7565 37.069 33.7832 37.0424Z" fill="white"/>
<path d="M29.9081 36.6797H30.26C30.3859 36.6798 30.5066 36.7297 30.5957 36.8183L30.8464 37.0679C30.9001 37.1216 30.9303 37.1942 30.9303 37.27C30.9303 37.3457 30.9001 37.4184 30.8464 37.472L29.8089 38.505C29.7935 38.5203 29.7739 38.5308 29.7526 38.535C29.7312 38.5392 29.7091 38.537 29.689 38.5288C29.6689 38.5205 29.6517 38.5064 29.6396 38.4884C29.6276 38.4704 29.6211 38.4492 29.6211 38.4275V36.9655C29.6211 36.8897 29.6514 36.8171 29.7052 36.7635C29.759 36.7099 29.832 36.6798 29.9081 36.6797Z" fill="white"/>
<path d="M27.4252 33.693L27.6742 33.9409C27.7631 34.0296 27.8131 34.1497 27.8132 34.2749V34.6282C27.8132 34.7039 27.7829 34.7765 27.7291 34.8301C27.6752 34.8837 27.6023 34.9137 27.5261 34.9137H26.059C26.0373 34.9137 26.0161 34.9072 25.998 34.8952C25.98 34.8832 25.9659 34.8661 25.9576 34.8461C25.9493 34.8262 25.9471 34.8042 25.9513 34.783C25.9555 34.7617 25.9659 34.7423 25.9812 34.7269L27.0187 33.6939C27.0453 33.6671 27.0769 33.646 27.1118 33.6315C27.1466 33.617 27.184 33.6095 27.2217 33.6094C27.2596 33.6093 27.297 33.6167 27.3319 33.631C27.3668 33.6454 27.3985 33.6664 27.4252 33.693Z" fill="white"/>
<path d="M27.7909 29.8366V30.187C27.7908 30.3123 27.7408 30.4325 27.6519 30.5212L27.4012 30.7708C27.3473 30.8244 27.2744 30.8544 27.1983 30.8544C27.1222 30.8544 27.0493 30.8244 26.9955 30.7708L25.958 29.7378C25.9426 29.7225 25.9322 29.703 25.9279 29.6817C25.9236 29.6604 25.9258 29.6384 25.9342 29.6184C25.9425 29.5983 25.9566 29.5812 25.9747 29.5692C25.9928 29.5572 26.014 29.5507 26.0358 29.5508H27.5042C27.5803 29.5509 27.6532 29.581 27.7069 29.6346C27.7607 29.6882 27.7909 29.7608 27.7909 29.8366Z" fill="white"/>
<path d="M31.2987 33.7207H33.2826V33.1978H33.8078V31.2222H33.2826V30.6992H31.2987V31.2222H30.7734V33.1978H31.2987V33.7207Z" fill="white"/>
</svg>
