<svg width="627" height="622" viewBox="0 0 627 622" fill="none" xmlns="http://www.w3.org/2000/svg">
<path d="M140.098 492.574C138.708 492.574 137.335 492.269 136.077 491.68C134.82 491.091 133.707 490.233 132.821 489.167C131.933 488.103 131.293 486.855 130.946 485.515C130.598 484.175 130.551 482.775 130.808 481.415L149.45 382.726C149.796 380.861 150.705 379.145 152.055 377.809L380.339 150.469C381.685 149.127 383.408 148.222 385.28 147.875L484.363 129.312C485.876 129.027 487.435 129.115 488.904 129.568C490.374 130.02 491.712 130.823 492.8 131.906C493.888 132.989 494.694 134.321 495.149 135.785C495.605 137.249 495.693 138.802 495.409 140.308L476.766 238.992C476.418 240.857 475.509 242.573 474.162 243.912L245.901 471.248C244.561 472.593 242.839 473.499 240.968 473.844L141.88 492.411C141.293 492.521 140.695 492.575 140.098 492.574ZM486.108 135.289C485.896 135.292 485.687 135.31 485.48 135.347L386.395 153.914C385.743 154.034 385.144 154.348 384.676 154.815L156.431 382.166C155.964 382.634 155.648 383.229 155.523 383.876L136.884 482.568C136.781 483.091 136.81 483.631 136.969 484.141C137.128 484.649 137.41 485.111 137.793 485.485C138.17 485.862 138.635 486.141 139.146 486.297C139.655 486.455 140.197 486.485 140.722 486.387L239.814 467.82C240.462 467.7 241.058 467.385 241.521 466.918L469.782 239.583C470.249 239.116 470.565 238.521 470.686 237.873L489.329 139.185C489.417 138.714 489.402 138.229 489.282 137.764C489.162 137.299 488.942 136.866 488.636 136.496C488.328 136.125 487.946 135.827 487.511 135.62C487.076 135.414 486.6 135.304 486.118 135.3L486.108 135.289Z" fill="white"/>
<path d="M486.115 492.574C485.526 492.574 484.942 492.519 484.364 492.412L385.272 473.845C383.398 473.502 381.673 472.596 380.331 471.25L152.057 243.914C150.708 242.574 149.799 240.859 149.452 238.992L130.808 140.308C130.523 138.802 130.612 137.249 131.065 135.785C131.52 134.32 132.326 132.989 133.415 131.905C134.503 130.822 135.841 130.018 137.311 129.567C138.782 129.115 140.341 129.028 141.853 129.312L240.949 147.875C242.819 148.224 244.539 149.129 245.883 150.47L474.161 377.806C475.509 379.147 476.417 380.864 476.766 382.731L495.409 481.415C495.665 482.775 495.619 484.175 495.269 485.515C494.923 486.856 494.281 488.103 493.394 489.169C492.506 490.235 491.394 491.091 490.137 491.68C488.878 492.269 487.506 492.574 486.115 492.574ZM140.087 135.29C139.606 135.295 139.131 135.403 138.697 135.61C138.262 135.817 137.879 136.116 137.573 136.487C137.268 136.856 137.047 137.289 136.927 137.754C136.808 138.218 136.792 138.703 136.881 139.175L155.521 237.862C155.645 238.51 155.962 239.104 156.429 239.572L384.702 466.906C385.168 467.375 385.768 467.689 386.419 467.809L485.514 486.374C486.039 486.474 486.581 486.443 487.092 486.284C487.602 486.129 488.067 485.849 488.444 485.473C488.823 485.095 489.103 484.634 489.262 484.126C489.419 483.616 489.451 483.077 489.352 482.553L470.708 383.87C470.588 383.22 470.271 382.623 469.803 382.156L241.526 154.82C241.061 154.352 240.463 154.038 239.813 153.919L140.719 135.352C140.51 135.314 140.299 135.294 140.087 135.29Z" fill="white"/>
<path d="M313.126 563.157C311.577 563.157 310.051 562.782 308.681 562.069C307.313 561.357 306.14 560.325 305.267 559.064L247.946 476.418C246.86 474.859 246.28 473.011 246.288 471.119V150.608C246.283 148.718 246.861 146.87 247.946 145.31L305.259 62.6557C306.133 61.3956 307.305 60.3646 308.675 59.652C310.043 58.9395 311.57 58.5669 313.118 58.5664C314.666 58.5675 316.191 58.9404 317.561 59.6531C318.931 60.3655 320.103 61.3961 320.977 62.6557L378.287 145.31C379.368 146.871 379.946 148.718 379.945 150.608V471.119C379.948 473.011 379.368 474.858 378.287 476.418L320.996 559.053C320.124 560.317 318.949 561.352 317.576 562.066C316.207 562.782 314.677 563.157 313.126 563.157ZM313.126 64.6849C312.584 64.679 312.049 64.806 311.57 65.0539C311.089 65.302 310.679 65.6634 310.375 66.1059L253.062 148.76C252.686 149.303 252.488 149.944 252.489 150.6V471.112C252.488 471.77 252.686 472.411 253.062 472.955L310.375 555.606C310.677 556.05 311.087 556.413 311.568 556.662C312.047 556.91 312.582 557.037 313.126 557.031C313.669 557.039 314.204 556.912 314.685 556.662C315.164 556.414 315.574 556.05 315.876 555.606L373.171 472.932C373.548 472.39 373.75 471.747 373.748 471.09V150.577C373.75 149.92 373.548 149.278 373.171 148.737L315.861 66.0827C315.559 65.6433 315.151 65.2844 314.674 65.0386C314.195 64.7925 313.664 64.667 313.126 64.6732V64.6849Z" fill="white"/>
<path d="M378.942 470.046L312.371 403.784L245.796 470.046V376.366H151.678L218.249 310.108L151.678 243.856H245.796V150.172L312.371 216.43L378.942 150.172V243.856H473.054L406.483 310.117L473.054 376.366H378.942V470.046ZM316.734 399.426L372.738 455.166V376.366H339.904L316.734 399.426ZM251.997 376.366V455.166L308.004 399.426L284.835 376.366H251.997ZM293.587 376.366L312.368 395.057L331.148 376.366H293.587ZM378.954 370.205H458.128L402.121 314.467L378.954 337.527V370.205ZM346.122 370.205H372.761V343.686L346.122 370.205ZM287.397 370.205H337.364L372.761 334.972V285.242L337.364 250.008H287.386L251.986 285.242V334.977L287.397 370.205ZM251.997 370.205H278.642L251.997 343.686V370.205ZM166.635 370.205H245.809V337.527L222.639 314.467L166.635 370.205ZM378.954 291.405V328.812L397.735 310.12L378.954 291.405ZM227.016 310.097L245.796 328.788V291.382L227.016 310.097ZM378.954 282.676L402.121 305.739L458.128 249.996H378.942L378.954 282.676ZM166.635 249.996L222.626 305.772L245.796 282.707V250.008L166.635 249.996ZM346.122 249.996L372.761 276.515V249.996H346.122ZM251.997 249.996V276.515L278.642 249.996H251.997ZM339.927 243.836H372.761V165.046L316.757 220.786L339.927 243.836ZM293.587 243.836H331.176L312.394 225.144L293.587 243.836ZM251.997 243.836H284.835L308.004 220.775L251.997 165.046V243.836Z" fill="white"/>
<path d="M475.761 376.944H150.473C148.555 376.945 146.68 376.373 145.097 375.299L61.2112 318.633C59.9338 317.769 58.8888 316.609 58.1669 315.255C57.4447 313.901 57.0674 312.395 57.0674 310.864C57.0674 309.333 57.4447 307.827 58.1669 306.471C58.8888 305.118 59.9338 303.96 61.2112 303.094L145.097 246.427C146.681 245.358 148.556 244.786 150.473 244.789H475.761C477.679 244.788 479.553 245.36 481.136 246.427L565.019 303.094C566.298 303.958 567.343 305.118 568.066 306.471C568.788 307.825 569.167 309.333 569.167 310.864C569.167 312.395 568.788 313.903 568.066 315.257C567.343 316.611 566.298 317.77 565.019 318.633L481.136 375.299C479.555 376.373 477.68 376.945 475.761 376.944ZM150.473 250.92C149.806 250.92 149.154 251.118 148.603 251.49L64.7207 308.156C64.2749 308.455 63.9101 308.859 63.6579 309.33C63.4056 309.801 63.2738 310.325 63.2738 310.858C63.2738 311.391 63.4056 311.916 63.6579 312.386C63.9101 312.858 64.2749 313.259 64.7207 313.559L148.603 370.226C149.154 370.599 149.806 370.798 150.473 370.796H475.761C476.428 370.796 477.078 370.597 477.627 370.226L561.513 313.559C561.96 313.259 562.324 312.858 562.576 312.386C562.829 311.916 562.96 311.391 562.96 310.858C562.96 310.325 562.829 309.801 562.576 309.33C562.324 308.859 561.96 308.455 561.513 308.156L477.627 251.49C477.078 251.118 476.428 250.92 475.761 250.92H150.473Z" fill="white"/>
<path d="M338.428 62.2241L384.756 129.32C385.093 129.809 385.566 130.191 386.118 130.418C386.671 130.646 387.277 130.71 387.866 130.602L469.019 115.805C469.436 115.728 469.833 115.568 470.185 115.334C470.538 115.098 470.836 114.794 471.064 114.439C471.292 114.085 471.443 113.687 471.509 113.272C471.575 112.856 471.553 112.433 471.445 112.026L442.661 2.2937C442.542 1.83533 442.317 1.41062 442.003 1.05312C441.691 0.695626 441.297 0.415151 440.857 0.233655C440.416 0.0521573 439.937 -0.0253697 439.461 0.00727491C438.984 0.0399197 438.522 0.181824 438.109 0.421752L339.415 57.8587C339.051 58.0712 338.734 58.3555 338.484 58.6944C338.234 59.0333 338.057 59.4195 337.965 59.8289C337.871 60.2382 337.865 60.6623 337.945 61.0742C338.025 61.4863 338.189 61.8776 338.428 62.2241Z" fill="white"/>
<path d="M509.273 155.65L494.136 235.406C494.022 235.988 494.083 236.593 494.311 237.143C494.538 237.692 494.923 238.164 495.419 238.5L563.393 284.795C563.743 285.033 564.139 285.198 564.555 285.278C564.971 285.358 565.402 285.352 565.816 285.263C566.231 285.171 566.622 284.996 566.965 284.749C567.308 284.501 567.597 284.187 567.811 283.825L625.809 186.248C626.052 185.841 626.196 185.383 626.227 184.913C626.261 184.441 626.183 183.969 626.001 183.531C625.818 183.094 625.535 182.706 625.174 182.395C624.814 182.085 624.385 181.861 623.922 181.742L513.089 153.279C512.681 153.173 512.255 153.152 511.836 153.215C511.42 153.279 511.019 153.426 510.662 153.648C510.305 153.87 509.996 154.162 509.757 154.507C509.519 154.851 509.355 155.24 509.273 155.65Z" fill="white"/>
<path d="M158.653 114.471L237.492 129.095C238.067 129.2 238.66 129.14 239.199 128.919C239.739 128.7 240.203 128.329 240.534 127.854L286.298 62.2083C286.535 61.8702 286.699 61.4873 286.781 61.0835C286.861 60.6796 286.856 60.2637 286.767 59.8618C286.677 59.4598 286.503 59.0806 286.259 58.7479C286.012 58.4152 285.7 58.1364 285.341 57.9289L188.88 1.9078C188.477 1.67391 188.025 1.53538 187.56 1.50332C187.094 1.47122 186.628 1.54639 186.195 1.72284C185.764 1.89928 185.38 2.1723 185.074 2.5203C184.767 2.86829 184.546 3.28183 184.428 3.72844L156.287 110.768C156.179 111.165 156.157 111.58 156.219 111.986C156.282 112.393 156.429 112.783 156.651 113.13C156.873 113.478 157.165 113.777 157.51 114.007C157.855 114.238 158.242 114.397 158.653 114.471Z" fill="white"/>
<path d="M62.9385 284.798L130.81 238.985C131.304 238.653 131.689 238.185 131.918 237.639C132.148 237.096 132.212 236.495 132.103 235.915L117.135 155.676C117.058 155.264 116.895 154.871 116.658 154.523C116.42 154.175 116.113 153.879 115.754 153.654C115.396 153.428 114.993 153.278 114.574 153.213C114.153 153.148 113.724 153.168 113.313 153.275L2.3146 181.737C1.85169 181.856 1.42307 182.08 1.06235 182.39C0.701641 182.699 0.418607 183.088 0.235568 183.524C0.0525296 183.961 -0.0255821 184.433 0.00734193 184.903C0.0402659 185.375 0.183339 185.831 0.425338 186.238L58.5212 283.823C58.7365 284.185 59.0247 284.498 59.3679 284.744C59.711 284.992 60.1016 285.165 60.5157 285.256C60.9298 285.347 61.3585 285.355 61.7751 285.276C62.1919 285.197 62.5879 285.035 62.9385 284.798Z" fill="white"/>
<path d="M116.966 466.054L132.103 386.301C132.216 385.716 132.156 385.114 131.928 384.564C131.699 384.015 131.315 383.541 130.82 383.206L62.8472 336.93C62.4976 336.692 62.102 336.527 61.6854 336.447C61.2687 336.367 60.8397 336.373 60.4252 336.462C60.0106 336.554 59.6194 336.727 59.2761 336.975C58.9326 337.221 58.6441 337.535 58.429 337.897L0.428047 435.477C0.186457 435.885 0.0437551 436.342 0.0111218 436.812C-0.0215112 437.284 0.0568498 437.758 0.240006 438.193C0.423162 438.629 0.706151 439.017 1.06674 439.327C1.42735 439.638 1.8557 439.861 2.31824 439.98L113.15 468.448C113.56 468.553 113.988 468.573 114.407 468.508C114.826 468.443 115.227 468.295 115.584 468.07C115.942 467.846 116.25 467.55 116.487 467.204C116.725 466.857 116.888 466.465 116.966 466.054Z" fill="white"/>
<path d="M287.803 559.503L241.476 492.407C241.137 491.919 240.664 491.536 240.112 491.309C239.561 491.083 238.953 491.017 238.366 491.125L157.214 505.922C156.797 505.999 156.4 506.159 156.048 506.393C155.696 506.628 155.397 506.932 155.169 507.287C154.941 507.641 154.788 508.039 154.722 508.454C154.656 508.87 154.677 509.294 154.784 509.7L183.57 619.437C183.69 619.894 183.915 620.32 184.229 620.677C184.543 621.033 184.935 621.313 185.376 621.495C185.818 621.676 186.296 621.752 186.772 621.72C187.249 621.687 187.711 621.546 188.123 621.305L286.814 563.868C287.18 563.655 287.497 563.37 287.747 563.032C287.997 562.693 288.173 562.308 288.267 561.897C288.359 561.489 288.365 561.064 288.286 560.653C288.206 560.241 288.042 559.849 287.803 559.503Z" fill="white"/>
<path d="M469.038 506.11L388.376 491.126C387.789 491.018 387.181 491.08 386.628 491.305C386.077 491.531 385.602 491.91 385.263 492.398L338.442 559.6C338.2 559.946 338.036 560.337 337.955 560.748C337.872 561.161 337.88 561.584 337.971 561.993C338.063 562.403 338.239 562.789 338.489 563.129C338.739 563.469 339.056 563.752 339.421 563.965L438.113 621.305C438.525 621.546 438.989 621.687 439.465 621.719C439.942 621.753 440.419 621.676 440.861 621.494C441.302 621.313 441.695 621.034 442.009 620.679C442.322 620.322 442.548 619.898 442.668 619.441L471.46 509.866C471.563 509.462 471.582 509.04 471.514 508.627C471.447 508.216 471.296 507.822 471.069 507.47C470.843 507.118 470.545 506.815 470.195 506.581C469.847 506.349 469.451 506.187 469.038 506.11Z" fill="white"/>
<path d="M563.297 336.918L495.427 382.722C494.93 383.06 494.543 383.53 494.313 384.079C494.084 384.629 494.021 385.232 494.134 385.817L509.103 466.044C509.179 466.457 509.342 466.85 509.579 467.197C509.816 467.547 510.124 467.842 510.483 468.066C510.842 468.292 511.244 468.443 511.664 468.508C512.084 468.574 512.513 468.552 512.924 468.446L623.915 439.987C624.379 439.868 624.807 439.645 625.169 439.334C625.53 439.025 625.813 438.636 625.997 438.2C626.18 437.764 626.259 437.292 626.227 436.821C626.194 436.349 626.05 435.893 625.808 435.485L567.713 337.913C567.501 337.55 567.215 337.234 566.871 336.986C566.529 336.737 566.139 336.561 565.725 336.467C565.31 336.374 564.882 336.366 564.463 336.443C564.045 336.522 563.648 336.683 563.297 336.918Z" fill="white"/>
<path d="M360.368 145.402L317.185 83.1478C316.736 82.5127 316.14 81.9939 315.444 81.6354C314.749 81.277 313.976 81.0898 313.191 81.0898C312.405 81.0898 311.633 81.277 310.937 81.6354C310.243 81.9939 309.644 82.5127 309.198 83.1478L266.013 145.402C261.591 151.065 266.844 156.234 269.825 159.169L289.027 178.085C289.262 178.314 289.544 178.488 289.857 178.591C290.169 178.697 290.502 178.728 290.829 178.686C291.156 178.642 291.468 178.527 291.743 178.346C292.018 178.164 292.245 177.924 292.411 177.643L311.329 145.371C311.516 145.049 311.789 144.782 312.116 144.596C312.443 144.411 312.814 144.313 313.191 144.313C313.568 144.313 313.939 144.411 314.266 144.596C314.593 144.782 314.864 145.049 315.052 145.371L333.97 177.643C334.136 177.924 334.363 178.164 334.638 178.346C334.912 178.527 335.225 178.642 335.552 178.686C335.878 178.728 336.211 178.697 336.524 178.591C336.836 178.488 337.121 178.314 337.354 178.085L356.558 159.169C359.541 156.234 364.456 151.833 360.368 145.402Z" fill="white"/>
<path d="M161.48 396.052L147.246 470.391C147.106 471.156 147.155 471.941 147.391 472.68C147.626 473.421 148.04 474.095 148.599 474.643C149.156 475.191 149.841 475.6 150.594 475.832C151.346 476.064 152.145 476.112 152.921 475.975L228.548 461.993C235.776 461.065 235.772 453.728 235.772 449.562V422.722C235.772 422.394 235.697 422.073 235.55 421.78C235.404 421.489 235.191 421.234 234.928 421.035C234.664 420.837 234.358 420.699 234.033 420.638C233.707 420.574 233.373 420.585 233.052 420.67L196.318 430.349C195.951 430.445 195.564 430.445 195.199 430.349C194.833 430.252 194.498 430.063 194.23 429.798C193.962 429.535 193.768 429.206 193.67 428.846C193.571 428.485 193.571 428.106 193.67 427.746L203.51 391.625C203.597 391.31 203.609 390.98 203.544 390.66C203.478 390.341 203.34 390.04 203.139 389.781C202.937 389.523 202.677 389.313 202.379 389.169C202.082 389.025 201.755 388.951 201.424 388.951H174.124C169.906 388.951 163.228 388.641 161.48 396.052Z" fill="white"/>
<path d="M397.686 461.98L473.307 475.975C474.083 476.113 474.883 476.063 475.635 475.832C476.389 475.599 477.073 475.192 477.631 474.644C478.188 474.094 478.602 473.422 478.839 472.681C479.074 471.942 479.123 471.155 478.983 470.393L464.763 396.051C463.819 388.946 456.356 388.949 452.117 388.949H424.813C424.483 388.949 424.155 389.024 423.858 389.169C423.56 389.313 423.301 389.521 423.098 389.781C422.896 390.039 422.758 390.34 422.695 390.66C422.63 390.979 422.641 391.31 422.727 391.624L432.569 427.734C432.668 428.093 432.668 428.475 432.572 428.835C432.475 429.196 432.28 429.526 432.012 429.789C431.743 430.054 431.409 430.243 431.04 430.339C430.674 430.436 430.287 430.435 429.92 430.337L393.181 420.664C392.86 420.579 392.525 420.567 392.2 420.631C391.875 420.694 391.568 420.83 391.305 421.029C391.043 421.228 390.829 421.481 390.683 421.774C390.537 422.067 390.461 422.388 390.461 422.716V449.55C390.453 453.716 390.139 460.266 397.686 461.98Z" fill="white"/>
<path d="M464.752 225.661L478.984 151.324C479.125 150.561 479.076 149.776 478.841 149.036C478.605 148.296 478.191 147.623 477.632 147.074C477.075 146.525 476.39 146.118 475.638 145.887C474.884 145.655 474.086 145.607 473.31 145.745L397.687 159.723C390.459 160.652 390.459 167.988 390.459 172.155V198.992C390.459 199.32 390.537 199.641 390.683 199.934C390.83 200.227 391.043 200.48 391.306 200.679C391.57 200.878 391.876 201.015 392.201 201.077C392.526 201.14 392.863 201.129 393.183 201.044L429.916 191.37C430.282 191.274 430.668 191.274 431.034 191.37C431.401 191.467 431.736 191.656 432.004 191.921C432.272 192.184 432.465 192.513 432.564 192.873C432.662 193.234 432.662 193.614 432.564 193.973L422.719 230.089C422.635 230.403 422.624 230.733 422.687 231.053C422.754 231.374 422.892 231.673 423.093 231.932C423.296 232.19 423.557 232.4 423.853 232.544C424.152 232.688 424.478 232.763 424.81 232.763H452.109C456.345 232.782 463.009 233.099 464.752 225.661Z" fill="white"/>
<path d="M146.394 264.333L83.1815 306.855C82.5366 307.295 82.0096 307.883 81.6458 308.567C81.2819 309.252 81.0918 310.014 81.0918 310.786C81.0918 311.56 81.2819 312.321 81.6458 313.006C82.0096 313.691 82.5366 314.278 83.1815 314.72L146.394 357.242C152.14 361.595 157.39 356.427 160.373 353.488L179.579 334.58C179.811 334.349 179.988 334.071 180.094 333.762C180.2 333.454 180.233 333.127 180.189 332.805C180.146 332.484 180.028 332.176 179.845 331.906C179.661 331.636 179.417 331.41 179.131 331.247L146.362 312.62C146.036 312.435 145.764 312.168 145.576 311.846C145.388 311.523 145.288 311.159 145.288 310.786C145.288 310.415 145.388 310.05 145.576 309.728C145.764 309.407 146.036 309.14 146.362 308.954L179.131 290.325C179.417 290.163 179.661 289.938 179.845 289.668C180.028 289.398 180.146 289.091 180.189 288.769C180.233 288.448 180.2 288.118 180.094 287.811C179.988 287.503 179.811 287.224 179.579 286.994L160.373 268.097C157.39 265.152 152.924 260.318 146.394 264.333Z" fill="white"/>
<path d="M265.861 476.317L309.047 538.565C309.496 539.2 310.092 539.72 310.787 540.08C311.483 540.439 312.257 540.626 313.041 540.626C313.826 540.626 314.601 540.439 315.297 540.08C315.991 539.72 316.588 539.2 317.035 538.565L360.222 476.317C364.643 470.654 359.39 465.483 356.409 462.549L337.207 443.631C336.972 443.401 336.689 443.228 336.376 443.124C336.064 443.019 335.731 442.988 335.404 443.03C335.077 443.072 334.765 443.189 334.49 443.37C334.215 443.55 333.988 443.79 333.822 444.071L314.904 476.344C314.714 476.665 314.443 476.932 314.116 477.118C313.789 477.304 313.418 477.401 313.041 477.401C312.664 477.401 312.293 477.304 311.966 477.118C311.639 476.932 311.369 476.665 311.18 476.344L292.261 444.071C292.096 443.79 291.868 443.55 291.594 443.37C291.319 443.189 291.007 443.072 290.678 443.03C290.351 442.988 290.02 443.019 289.707 443.124C289.395 443.228 289.111 443.401 288.877 443.631L269.673 462.549C266.689 465.483 261.785 469.881 265.861 476.317Z" fill="white"/>
<path d="M479.834 357.388L543.045 314.866C543.691 314.426 544.217 313.839 544.581 313.154C544.946 312.469 545.136 311.707 545.136 310.935C545.136 310.162 544.946 309.4 544.581 308.715C544.217 308.031 543.691 307.443 543.045 307.003L479.834 264.479C474.087 260.126 468.838 265.3 465.855 268.233L446.649 287.141C446.415 287.372 446.24 287.652 446.134 287.959C446.028 288.266 445.995 288.594 446.038 288.916C446.082 289.239 446.2 289.546 446.383 289.816C446.566 290.086 446.811 290.311 447.097 290.473L479.865 309.101C480.194 309.286 480.465 309.555 480.655 309.876C480.844 310.198 480.942 310.565 480.942 310.936C480.942 311.309 480.844 311.674 480.655 311.996C480.465 312.319 480.194 312.586 479.865 312.772L447.097 331.396C446.811 331.558 446.566 331.783 446.383 332.053C446.2 332.323 446.082 332.632 446.038 332.953C445.995 333.275 446.028 333.603 446.134 333.91C446.24 334.218 446.415 334.499 446.649 334.728L465.855 353.636C468.838 356.573 473.304 361.403 479.834 357.388Z" fill="white"/>
<path d="M228.673 162.259L154.336 148.745C153.573 148.613 152.787 148.66 152.047 148.884C151.306 149.108 150.633 149.501 150.085 150.031C149.537 150.561 149.129 151.21 148.897 151.925C148.665 152.64 148.616 153.398 148.753 154.135L162.734 225.913C163.662 232.77 171 232.77 175.165 232.77H202.006C202.332 232.77 202.653 232.698 202.945 232.559C203.237 232.419 203.491 232.217 203.69 231.967C203.889 231.718 204.024 231.429 204.088 231.119C204.152 230.81 204.141 230.493 204.057 230.189L194.378 195.319C194.282 194.973 194.282 194.606 194.378 194.258C194.476 193.91 194.665 193.592 194.928 193.338C195.193 193.083 195.521 192.9 195.881 192.806C196.243 192.714 196.622 192.714 196.983 192.806L233.102 202.15C233.417 202.232 233.747 202.243 234.066 202.182C234.387 202.12 234.687 201.989 234.945 201.797C235.204 201.606 235.413 201.36 235.559 201.077C235.702 200.795 235.777 200.484 235.777 200.169V174.259C235.777 170.238 236.084 163.913 228.673 162.259Z" fill="white"/>
<path d="M285.292 224.078L280.729 228.689C279.095 230.338 276.883 231.265 274.573 231.267H268.068C266.672 231.267 265.334 230.706 264.347 229.708C263.361 228.711 262.807 227.359 262.807 225.948V198.762C262.807 198.359 262.925 197.966 263.146 197.633C263.369 197.298 263.683 197.036 264.051 196.883C264.419 196.727 264.824 196.687 265.215 196.766C265.605 196.843 265.966 197.036 266.248 197.32L285.276 216.545C285.769 217.039 286.16 217.624 286.429 218.269C286.696 218.915 286.835 219.609 286.835 220.309C286.836 221.01 286.7 221.702 286.437 222.349C286.171 222.997 285.783 223.585 285.292 224.078Z" fill="white"/>
<path d="M356.653 229.765H350.19C347.881 229.762 345.667 228.877 344.033 227.302L339.433 222.861C338.943 222.389 338.554 221.83 338.289 221.213C338.025 220.595 337.889 219.935 337.889 219.267C337.889 218.599 338.025 217.938 338.289 217.32C338.554 216.703 338.943 216.144 339.433 215.67L358.473 197.294C358.756 197.023 359.115 196.837 359.507 196.764C359.897 196.689 360.302 196.727 360.67 196.876C361.038 197.023 361.354 197.271 361.575 197.591C361.797 197.911 361.915 198.287 361.917 198.671V224.681C361.917 225.349 361.781 226.009 361.517 226.626C361.251 227.242 360.864 227.803 360.376 228.275C359.886 228.747 359.306 229.122 358.668 229.378C358.027 229.633 357.343 229.765 356.653 229.765Z" fill="white"/>
<path d="M400.641 283.79L396.031 279.227C394.385 277.592 393.458 275.379 393.456 273.069V266.561C393.456 265.165 394.018 263.828 395.013 262.841C396.011 261.854 397.362 261.301 398.771 261.301H425.96C426.363 261.299 426.758 261.418 427.093 261.64C427.428 261.861 427.688 262.177 427.843 262.545C427.996 262.914 428.036 263.319 427.957 263.711C427.879 264.102 427.683 264.461 427.397 264.742L408.175 283.774C407.681 284.266 407.095 284.656 406.449 284.923C405.804 285.189 405.11 285.327 404.411 285.329C403.711 285.33 403.018 285.196 402.372 284.932C401.724 284.667 401.137 284.28 400.641 283.79Z" fill="white"/>
<path d="M393.458 353.658V347.196C393.46 344.885 394.385 342.669 396.032 341.034L400.675 336.432C401.671 335.445 403.023 334.891 404.431 334.891C405.839 334.891 407.191 335.445 408.186 336.432L427.399 355.476C427.686 355.757 427.88 356.117 427.958 356.509C428.038 356.901 427.998 357.308 427.842 357.676C427.689 358.046 427.426 358.36 427.091 358.582C426.756 358.803 426.362 358.92 425.959 358.919H398.768C397.362 358.919 396.011 358.365 395.014 357.379C394.019 356.392 393.458 355.053 393.458 353.658Z" fill="white"/>
<path d="M340.941 397.642L345.509 393.032C346.318 392.215 347.277 391.568 348.334 391.125C349.39 390.683 350.523 390.455 351.667 390.457H358.168C359.564 390.457 360.902 391.018 361.888 392.013C362.875 393.011 363.429 394.362 363.429 395.771V422.957C363.429 423.361 363.314 423.755 363.091 424.091C362.87 424.426 362.556 424.689 362.188 424.843C361.818 424.997 361.412 425.037 361.021 424.958C360.629 424.88 360.27 424.684 359.988 424.399L340.959 405.175C340.466 404.682 340.076 404.097 339.809 403.451C339.542 402.804 339.405 402.111 339.401 401.411C339.4 400.712 339.536 400.019 339.799 399.371C340.065 398.724 340.452 398.137 340.941 397.642Z" fill="white"/>
<path d="M269.578 391.953H276.035C278.347 391.956 280.563 392.842 282.197 394.419L286.798 398.86C287.784 399.812 288.339 401.105 288.339 402.453C288.339 403.799 287.784 405.092 286.798 406.045L267.757 424.421C267.476 424.693 267.116 424.879 266.724 424.954C266.332 425.03 265.926 424.99 265.557 424.843C265.188 424.696 264.873 424.447 264.65 424.125C264.429 423.805 264.311 423.428 264.311 423.042V397.037C264.312 395.689 264.867 394.396 265.855 393.443C266.842 392.491 268.182 391.955 269.578 391.953Z" fill="white"/>
<path d="M225.58 337.931L230.195 342.498C231.841 344.132 232.767 346.343 232.77 348.651V355.158C232.768 356.553 232.207 357.892 231.211 358.878C230.212 359.865 228.861 360.419 227.45 360.419H200.265C199.862 360.419 199.468 360.3 199.133 360.079C198.8 359.857 198.538 359.543 198.385 359.173C198.23 358.807 198.19 358.403 198.268 358.011C198.345 357.619 198.538 357.26 198.822 356.978L218.047 337.947C218.54 337.455 219.125 337.065 219.772 336.798C220.418 336.53 221.11 336.392 221.809 336.391C222.51 336.389 223.204 336.525 223.85 336.789C224.496 337.054 225.085 337.441 225.58 337.931Z" fill="white"/>
<path d="M231.27 268.072V274.531C231.269 276.84 230.382 279.056 228.808 280.69L224.368 285.292C223.413 286.279 222.121 286.833 220.774 286.833C219.425 286.833 218.133 286.279 217.18 285.292L198.802 266.252C198.53 265.968 198.344 265.609 198.269 265.217C198.193 264.825 198.233 264.419 198.379 264.051C198.527 263.681 198.777 263.367 199.098 263.144C199.418 262.922 199.795 262.803 200.181 262.805H226.192C227.54 262.806 228.831 263.362 229.783 264.351C230.735 265.338 231.27 266.676 231.27 268.072Z" fill="white"/>
<path d="M299.199 333.384H334.548V324.027H343.905V288.679H334.548V279.32H299.199V288.679H289.842V324.027H299.199V333.384Z" fill="white"/>
</svg>
