<svg xmlns="http://www.w3.org/2000/svg" width="512" height="512" viewBox="0 0 5120 5120">
  <path d="M1870 3908c-377-656-707-1229-734-1273a1717 1717 0 0 1-96-1690c84-168 173-289 325-441 354-355 802-523 1313-492 294 17 572 113 832 286 141 93 343 290 443 432a1703 1703 0 0 1 221 1506c-44 132-91 227-242 487-65 111-399 691-742 1290-344 598-627 1087-630 1087s-313-537-690-1192zm820-1188a1160 1160 0 0 0 523-240c4 0 117-111 117-116 0-2 23-33 50-69 145-191 225-471 199-690-44-365-264-674-594-836a890 890 0 0 0-435-102c-114 0-150 4-232 26-157 42-327 130-419 217-21 19-46 40-56 46s-23 21-29 32c-6 12-23 31-37 42-15 12-27 27-27 35 0 7-7 15-15 19-8 3-15 12-15 21 0 8-4 15-10 15-5 0-10 7-10 15s-4 15-10 15c-5 0-10 7-10 15s-4 15-9 15-14 15-21 34c-6 19-20 44-30 57a79 79 0 0 0-20 45c0 12-4 24-9 26-9 3-42 139-70 285-31 163 45 439 173 631 221 332 626 519 996 462z" fill="#E74C3C" style="transform:none"/>
  <path d="M2355 2745c-221-41-441-163-591-328a1109 1109 0 0 1-243-442c-27-102-45-265-37-330 13-98 16-120 16-142 0-12 5-25 10-28s7-12 4-19c-3-8 0-17 5-21 6-3 9-11 6-16-4-5-3-15 2-22 4-6 8-14 8-17 6-36 19-70 27-70 6 0 9-3 5-6-8-8 13-64 25-64 5 0 6-4 3-10-3-5-1-10 5-10s8-4 5-10c-3-5-1-10 5-10s9-4 6-8c-3-5 3-18 14-29 10-12 16-23 13-27-3-3 2-8 11-12 9-3 13-10 10-15s2-12 10-15c9-3 14-10 11-14-3-5 4-15 15-23 11-7 17-16 15-19-3-3 8-17 25-31 17-15 29-28 28-31-5-8 45-56 58-56 6 0 14-6 17-14 11-27 142-118 242-167 55-27 145-61 200-76 89-24 118-27 265-27s176 3 265 27c367 99 655 379 759 740 48 166 56 348 20 507l-18 90c-1 9-5 21-10 28-4 6-4 12 0 12 3 0 1 7-6 15s-9 15-4 15 3 4-4 9c-7 4-14 18-15 29-1 12-5 22-10 22-4 0-5 5-2 10 3 6 2 10-4 10-10 0-27 38-23 53 1 4-3 7-9 7-5 0-8 4-5 9s-1 12-10 15c-8 3-12 10-9 16 3 5 1 10-5 10s-9 4-6 9-1 12-10 15c-9 4-14 9-11 12 3 4-4 15-16 25s-18 18-13 19c5 0-3 9-17 21-15 11-26 23-25 27a806 806 0 0 1-165 156c-114 92-320 181-477 206-88 13-279 11-365-5zm359-415c129-33 200-74 296-170a581 581 0 0 0 190-450c0-152-34-260-116-376a644 644 0 0 0-1113 111 688 688 0 0 0 22 570c46 87 183 221 269 263 146 71 306 90 452 52z" fill="#C0392B" style="transform:none"/>
</svg>