<svg width="267" height="248" viewBox="0 0 267 248" fill="none" xmlns="http://www.w3.org/2000/svg">
<g opacity="0.05" clip-path="url(#clip0_195_30174)">
<path d="M86.1471 168.611C85.2887 168.611 84.4409 168.423 83.664 168.061C82.8871 167.7 82.2001 167.173 81.6526 166.519C81.1045 165.864 80.7094 165.098 80.4945 164.275C80.2796 163.452 80.2506 162.592 80.4097 161.757L91.9231 101.141C92.1368 99.9955 92.6983 98.9418 93.5321 98.1207L234.522 -41.5139C235.353 -42.3384 236.418 -42.8942 237.574 -43.1075L298.769 -54.5091C299.703 -54.6837 300.665 -54.6296 301.574 -54.3517C302.482 -54.0737 303.308 -53.5808 303.98 -52.9155C304.652 -52.2503 305.149 -51.4325 305.431 -50.5329C305.711 -49.6339 305.766 -48.6801 305.591 -47.7552L294.077 12.8578C293.861 14.0033 293.3 15.057 292.468 15.8803L151.492 155.513C150.664 156.338 149.601 156.895 148.445 157.106L87.2477 168.511C86.8849 168.578 86.516 168.612 86.1471 168.611ZM299.846 -50.8379C299.716 -50.8362 299.586 -50.8246 299.458 -50.802L238.263 -39.3982C237.86 -39.3247 237.49 -39.1313 237.201 -38.8445L96.2345 100.797C95.946 101.084 95.7506 101.45 95.6736 101.847L84.1624 162.465C84.0988 162.786 84.1167 163.118 84.2149 163.431C84.3126 163.744 84.4873 164.027 84.7234 164.257C84.9566 164.488 85.2435 164.659 85.5589 164.755C85.8736 164.852 86.2079 164.871 86.5322 164.81L147.732 153.406C148.133 153.333 148.501 153.139 148.787 152.853L289.763 13.2203C290.052 12.9346 290.247 12.5688 290.322 12.1704L301.835 -48.4448C301.891 -48.7343 301.88 -49.0321 301.807 -49.3178C301.733 -49.6029 301.596 -49.8693 301.407 -50.0964C301.218 -50.324 300.981 -50.5075 300.712 -50.6346C300.444 -50.7611 300.15 -50.8285 299.853 -50.8307L299.846 -50.8379Z" fill="white"/>
<path d="M299.851 168.611C299.487 168.611 299.125 168.577 298.769 168.511L237.569 157.107C236.412 156.896 235.347 156.339 234.517 155.513L93.5329 15.8811C92.7001 15.0583 92.1386 14.004 91.9243 12.858L80.4094 -47.7549C80.2336 -48.6799 80.2883 -49.6337 80.5685 -50.5332C80.8493 -51.4328 81.3472 -52.2506 82.0197 -52.9164C82.6918 -53.5817 83.5178 -54.0752 84.426 -54.3525C85.3347 -54.6299 86.2975 -54.6835 87.2313 -54.5089L148.434 -43.1073C149.588 -42.8929 150.651 -42.3371 151.481 -41.5137L292.467 98.1185C293.3 98.9424 293.861 99.9973 294.076 101.144L305.591 161.757C305.749 162.592 305.72 163.452 305.505 164.275C305.29 165.099 304.894 165.865 304.346 166.519C303.798 167.174 303.111 167.7 302.334 168.062C301.557 168.423 300.709 168.611 299.851 168.611ZM86.1401 -50.8371C85.8431 -50.8344 85.5501 -50.7675 85.2816 -50.6404C85.0132 -50.5133 84.7765 -50.3299 84.5878 -50.1022C84.3992 -49.8751 84.263 -49.6093 84.1888 -49.3237C84.1151 -49.0385 84.105 -48.7407 84.1603 -48.4512L95.6723 12.1639C95.7488 12.5618 95.9447 12.927 96.2333 13.2138L237.217 152.846C237.505 153.133 237.875 153.326 238.277 153.399L299.479 164.803C299.804 164.864 300.139 164.844 300.454 164.748C300.769 164.652 301.056 164.48 301.289 164.249C301.523 164.017 301.696 163.733 301.793 163.421C301.891 163.108 301.911 162.777 301.85 162.456L290.335 101.843C290.261 101.444 290.065 101.077 289.776 100.791L148.79 -38.8415C148.503 -39.1289 148.134 -39.3217 147.732 -39.3952L86.5308 -50.799C86.4019 -50.8222 86.2712 -50.8349 86.1401 -50.8371Z" fill="white"/>
<path d="M193.007 212.944C192.064 212.944 191.135 212.713 190.302 212.273C189.469 211.833 188.756 211.197 188.224 210.418L153.338 159.419C152.676 158.457 152.324 157.316 152.328 156.15V-41.6325C152.325 -42.7991 152.677 -43.9392 153.338 -44.9016L188.219 -95.9063C188.751 -96.6839 189.464 -97.3201 190.298 -97.7598C191.131 -98.1995 192.059 -98.4295 193.002 -98.4297C193.944 -98.429 194.872 -98.1989 195.706 -97.7592C196.539 -97.3195 197.253 -96.6836 197.785 -95.9063L232.664 -44.9016C233.322 -43.9387 233.674 -42.7991 233.673 -41.6325V156.15C233.675 157.316 233.323 158.456 232.664 159.419L197.797 210.411C197.265 211.191 196.551 211.83 195.716 212.271C194.881 212.712 193.951 212.944 193.007 212.944ZM193.007 -94.6542C192.677 -94.6577 192.351 -94.5794 192.059 -94.4264C191.767 -94.2734 191.517 -94.0503 191.333 -93.7772L156.451 -42.7726C156.223 -42.4377 156.102 -42.042 156.102 -41.6375V156.145C156.102 156.55 156.223 156.947 156.451 157.283L191.333 208.284C191.517 208.558 191.766 208.783 192.059 208.936C192.351 209.089 192.676 209.168 193.007 209.164C193.337 209.168 193.663 209.09 193.955 208.936C194.247 208.783 194.497 208.559 194.681 208.284L229.55 157.268C229.78 156.933 229.903 156.536 229.902 156.131V-41.6519C229.903 -42.057 229.78 -42.4532 229.55 -42.787L194.671 -93.7916C194.487 -94.0627 194.239 -94.2841 193.949 -94.4359C193.658 -94.5877 193.334 -94.6652 193.007 -94.6613V-94.6542Z" fill="white"/>
<path d="M233.744 154.69L192.746 114.004L151.745 154.69V97.168H93.7812L134.78 56.4836L93.7812 15.802H151.745V-41.7227L192.746 -1.03828L233.744 -41.7227V15.802H291.703L250.705 56.4886L291.703 97.168H233.744V154.69ZM195.432 111.328L229.923 145.554V97.168H209.702L195.432 111.328ZM155.564 97.168V145.554L190.057 111.328L175.787 97.168H155.564ZM181.177 97.168L192.743 108.645L204.309 97.168H181.177ZM233.751 93.3856H282.511L248.019 59.1595L233.751 73.3195V93.3856ZM213.531 93.3856H229.937V77.1019L213.531 93.3856ZM177.366 93.3856H208.138L229.937 71.7511V41.2144L208.138 19.58H177.359L155.557 41.2144V71.7533L177.366 93.3856ZM155.564 93.3856H171.973L155.564 77.1019V93.3856ZM102.993 93.3856H151.752V73.3195L137.483 59.1595L102.993 93.3856ZM233.751 44.9996V67.9682L245.317 56.4908L233.751 44.9996ZM140.179 56.4764L151.745 67.9538V44.9852L140.179 56.4764ZM233.751 39.6389L248.019 53.801L282.511 19.5728H233.744L233.751 39.6389ZM102.993 19.5728L137.476 53.8204L151.745 39.6577V19.58L102.993 19.5728ZM213.531 19.5728L229.937 35.8559V19.5728H213.531ZM155.564 19.5728V35.8559L171.973 19.5728H155.564ZM209.716 15.7898H229.937V-32.589L195.447 1.6371L209.716 15.7898ZM181.177 15.7898H204.326L192.76 4.31302L181.177 15.7898ZM155.564 15.7898H175.787L190.057 1.6299L155.564 -32.589V15.7898Z" fill="white"/>
<path d="M292.885 97.9834H93.1142C91.9359 97.9851 90.7844 97.6318 89.8124 96.9702L38.2949 62.045C37.5103 61.512 36.8686 60.7972 36.4252 59.9631C35.9818 59.1285 35.75 58.1996 35.75 57.2562C35.75 56.3129 35.9818 55.384 36.4252 54.5494C36.8686 53.7147 37.5103 53.0004 38.2949 52.4675L89.8124 17.5417C90.785 16.8823 91.9365 16.5301 93.1142 16.5313H292.885C294.064 16.5307 295.215 16.8828 296.187 17.5417L347.703 52.4675C348.488 52.9999 349.13 53.7142 349.574 54.5488C350.017 55.3834 350.249 56.3129 350.249 57.2562C350.249 58.1996 350.017 59.129 349.574 59.9636C349.13 60.7977 348.488 61.5126 347.703 62.045L296.187 96.9702C295.215 97.6318 294.064 97.9851 292.885 97.9834ZM93.1142 20.3101C92.7043 20.3101 92.3039 20.4327 91.9655 20.6617L40.4502 55.587C40.1764 55.7716 39.9523 56.0201 39.7974 56.3107C39.6425 56.6007 39.5616 56.924 39.5616 57.2523C39.5616 57.5812 39.6425 57.9045 39.7974 58.1946C39.9523 58.4851 40.1764 58.7331 40.4502 58.9177L91.9655 93.843C92.3039 94.0731 92.7043 94.1957 93.1142 94.1951H292.885C293.295 94.1951 293.694 94.0726 294.032 93.843L345.549 58.9177C345.824 58.7331 346.048 58.4851 346.203 58.1946C346.358 57.9045 346.438 57.5812 346.438 57.2523C346.438 56.924 346.358 56.6007 346.203 56.3107C346.048 56.0201 345.824 55.7716 345.549 55.587L294.032 20.6617C293.694 20.4327 293.295 20.3101 292.885 20.3101H93.1142Z" fill="white"/>
<path d="M38.7404 41.462L80.517 13.0474C80.8211 12.8407 81.0582 12.5507 81.1996 12.2123C81.341 11.8745 81.3802 11.5028 81.3131 11.1428L72.0998 -38.6247C72.0523 -38.8809 71.9522 -39.1242 71.8063 -39.3404C71.6598 -39.5559 71.4709 -39.7398 71.2501 -39.8793C71.0292 -40.0193 70.7816 -40.1121 70.5233 -40.1527C70.2645 -40.1932 70.0006 -40.1804 69.7474 -40.1143L1.4247 -22.4612C1.13976 -22.3873 0.875937 -22.2484 0.653909 -22.0561C0.43188 -21.8639 0.257665 -21.6227 0.144999 -21.3522C0.0323335 -21.0821 -0.0157465 -20.7894 0.00451916 -20.4971C0.0247848 -20.2049 0.112851 -19.9215 0.261808 -19.6687L36.0214 40.8575C36.154 41.0814 36.3314 41.2759 36.5426 41.4287C36.7538 41.5815 36.9943 41.6893 37.2491 41.7459C37.504 41.8026 37.7679 41.807 38.0244 41.7582C38.2809 41.7093 38.5246 41.6087 38.7404 41.462Z" fill="white"/>
<path d="M71.9936 152.629L81.3108 103.163C81.3805 102.801 81.3431 102.427 81.203 102.086C81.0624 101.745 80.8257 101.452 80.521 101.243L38.6819 72.5413C38.4666 72.3935 38.2232 72.2918 37.9667 72.2418C37.7102 72.1923 37.4462 72.1957 37.191 72.2518C36.9358 72.3079 36.6951 72.4162 36.4837 72.569C36.2723 72.7218 36.0948 72.9169 35.9623 73.1414L0.26107 133.664C0.112365 133.917 0.0245281 134.201 0.00444139 134.493C-0.0156452 134.785 0.0325883 135.078 0.145326 135.349C0.258064 135.62 0.432252 135.86 0.654208 136.053C0.876167 136.245 1.13983 136.383 1.42454 136.457L69.6449 154.114C69.8972 154.179 70.1606 154.192 70.4185 154.152C70.6763 154.111 70.923 154.019 71.1429 153.88C71.3634 153.74 71.5526 153.557 71.6989 153.342C71.8451 153.127 71.9456 152.885 71.9936 152.629Z" fill="white"/>
<path d="M177.386 209.698L148.831 168.398C148.623 168.097 148.331 167.863 147.991 167.723C147.651 167.583 147.277 167.543 146.914 167.609L96.8953 176.717C96.6377 176.764 96.393 176.863 96.1763 177.007C95.9591 177.152 95.7749 177.339 95.6344 177.558C95.4938 177.776 95.3998 178.021 95.3589 178.276C95.3186 178.532 95.3315 178.793 95.397 179.043L113.14 246.589C113.214 246.871 113.353 247.132 113.546 247.352C113.739 247.572 113.982 247.744 114.253 247.856C114.526 247.967 114.82 248.015 115.113 247.995C115.407 247.975 115.692 247.887 115.946 247.739L176.776 212.385C177.002 212.254 177.197 212.079 177.351 211.87C177.505 211.662 177.614 211.424 177.671 211.172C177.728 210.92 177.732 210.659 177.683 210.406C177.634 210.152 177.533 209.911 177.386 209.698Z" fill="white"/>
<path d="M289.623 176.833L239.594 167.61C239.229 167.543 238.853 167.581 238.51 167.72C238.168 167.859 237.873 168.093 237.663 168.393L208.623 209.758C208.473 209.971 208.371 210.211 208.321 210.465C208.27 210.719 208.274 210.979 208.331 211.231C208.388 211.483 208.497 211.721 208.652 211.93C208.807 212.139 209.003 212.314 209.23 212.445L270.443 247.74C270.699 247.887 270.986 247.975 271.282 247.995C271.577 248.015 271.874 247.968 272.147 247.856C272.421 247.745 272.665 247.573 272.859 247.354C273.054 247.134 273.194 246.874 273.268 246.592L291.126 179.145C291.19 178.896 291.202 178.637 291.16 178.383C291.118 178.129 291.024 177.887 290.883 177.67C290.743 177.454 290.558 177.268 290.342 177.123C290.125 176.98 289.881 176.881 289.623 176.833Z" fill="white"/>
<path d="M100.327 109.018L91.7539 154.336C91.6694 154.801 91.6995 155.28 91.8412 155.731C91.9829 156.183 92.2325 156.593 92.5687 156.927C92.9044 157.262 93.3168 157.511 93.7703 157.652C94.2233 157.794 94.7046 157.823 95.172 157.739L140.722 149.216C145.076 148.651 145.073 144.177 145.073 141.637V125.276C145.073 125.077 145.028 124.881 144.94 124.702C144.852 124.524 144.723 124.368 144.565 124.247C144.407 124.127 144.222 124.043 144.026 124.005C143.83 123.967 143.628 123.973 143.435 124.025L121.31 129.925C121.09 129.984 120.857 129.984 120.636 129.925C120.415 129.866 120.214 129.751 120.052 129.59C119.891 129.429 119.775 129.228 119.715 129.009C119.656 128.789 119.656 128.558 119.715 128.338L125.642 106.319C125.694 106.127 125.701 105.926 125.662 105.731C125.623 105.536 125.54 105.353 125.418 105.195C125.297 105.037 125.14 104.91 124.961 104.822C124.782 104.734 124.585 104.689 124.385 104.689H107.942C105.402 104.689 101.38 104.5 100.327 109.018Z" fill="white"/>
<path d="M245.28 149.208L290.827 157.74C291.294 157.824 291.776 157.793 292.229 157.652C292.683 157.511 293.095 157.262 293.431 156.928C293.767 156.593 294.016 156.183 294.158 155.732C294.3 155.28 294.33 154.802 294.245 154.336L285.681 109.017C285.112 104.685 280.617 104.688 278.064 104.688H261.619C261.42 104.688 261.222 104.733 261.043 104.821C260.864 104.909 260.708 105.036 260.586 105.194C260.464 105.351 260.381 105.535 260.342 105.729C260.303 105.925 260.31 106.126 260.362 106.318L266.29 128.331C266.35 128.55 266.35 128.782 266.291 129.002C266.233 129.222 266.116 129.423 265.954 129.584C265.793 129.745 265.591 129.861 265.37 129.919C265.148 129.978 264.915 129.977 264.695 129.918L242.566 124.021C242.373 123.969 242.172 123.962 241.975 124.001C241.78 124.039 241.595 124.122 241.437 124.243C241.278 124.364 241.15 124.52 241.061 124.698C240.974 124.876 240.927 125.072 240.928 125.271V141.631C240.923 144.17 240.733 148.163 245.28 149.208Z" fill="white"/>
<path d="M285.673 4.97964L294.245 -40.3369C294.33 -40.8024 294.3 -41.2806 294.158 -41.7322C294.017 -42.1833 293.767 -42.5935 293.431 -42.928C293.095 -43.2624 292.683 -43.5106 292.229 -43.6516C291.776 -43.7931 291.294 -43.8224 290.827 -43.7384L245.28 -35.2174C240.926 -34.6513 240.926 -30.1785 240.926 -27.6389V-11.2774C240.926 -11.0784 240.972 -10.8821 241.061 -10.7041C241.149 -10.5256 241.278 -10.3702 241.437 -10.2492C241.595 -10.1281 241.779 -10.0452 241.976 -10.0065C242.171 -9.96834 242.374 -9.97497 242.566 -10.0264L264.691 -15.9243C264.911 -15.9835 265.144 -15.9835 265.365 -15.9243C265.585 -15.8657 265.787 -15.7496 265.948 -15.5888C266.11 -15.4279 266.226 -15.2278 266.286 -15.0078C266.345 -14.7883 266.345 -14.5567 266.286 -14.3372L260.356 7.679C260.305 7.87083 260.298 8.07205 260.337 8.26719C260.377 8.46233 260.46 8.64531 260.582 8.80286C260.704 8.96041 260.86 9.08812 261.04 9.17602C261.219 9.26391 261.416 9.30924 261.616 9.30924H278.057C280.609 9.3214 284.622 9.51434 285.673 4.97964Z" fill="white"/>
<path d="M90.1971 28.3018L51.5359 54.5305C51.1414 54.8025 50.8192 55.1647 50.5966 55.5872C50.3741 56.0096 50.2578 56.4794 50.2578 56.9559C50.2578 57.433 50.3741 57.9023 50.5966 58.3247C50.8192 58.7472 51.1414 59.11 51.5359 59.382L90.1971 85.6106C93.7112 88.2958 96.9221 85.1079 98.7471 83.2955L110.493 71.6324C110.636 71.4903 110.744 71.3181 110.808 71.1281C110.873 70.9386 110.893 70.7363 110.867 70.5378C110.84 70.3389 110.768 70.1494 110.656 69.9828C110.544 69.8161 110.394 69.6773 110.219 69.577L90.1774 58.0873C89.9781 57.9725 89.8119 57.8075 89.6968 57.6091C89.5817 57.4107 89.5205 57.1856 89.5205 56.9559C89.5205 56.7269 89.5817 56.5017 89.6968 56.3033C89.8119 56.1049 89.9781 55.9399 90.1774 55.8251L110.219 44.3349C110.394 44.2351 110.544 44.0963 110.656 43.9297C110.768 43.763 110.84 43.573 110.867 43.3746C110.893 43.1762 110.873 42.9739 110.808 42.7838C110.744 42.5943 110.636 42.4216 110.493 42.28L98.7471 30.6236C96.9221 28.8073 94.1908 25.8257 90.1971 28.3018Z" fill="white"/>
<path d="M164.155 159.114L190.516 197.249C190.789 197.638 191.153 197.956 191.578 198.176C192.002 198.397 192.475 198.511 192.954 198.511C193.433 198.511 193.905 198.397 194.33 198.176C194.754 197.956 195.118 197.638 195.391 197.249L221.753 159.114C224.451 155.645 221.245 152.478 219.426 150.68L207.704 139.09C207.561 138.95 207.388 138.843 207.197 138.78C207.006 138.715 206.803 138.696 206.604 138.722C206.404 138.748 206.213 138.82 206.046 138.93C205.878 139.041 205.739 139.188 205.638 139.361L194.09 159.131C193.975 159.328 193.809 159.491 193.61 159.605C193.41 159.719 193.184 159.779 192.954 159.779C192.723 159.779 192.497 159.719 192.297 159.605C192.098 159.491 191.933 159.328 191.817 159.131L180.269 139.361C180.169 139.188 180.029 139.041 179.862 138.93C179.694 138.82 179.504 138.748 179.303 138.722C179.104 138.696 178.901 138.715 178.71 138.78C178.519 138.843 178.346 138.95 178.203 139.09L166.481 150.68C164.66 152.478 161.666 155.172 164.155 159.114Z" fill="white"/>
<path d="M141.196 -34.6913L95.2079 -43.2233C94.7359 -43.3068 94.2498 -43.277 93.7919 -43.1355C93.3339 -42.994 92.9174 -42.7458 92.5784 -42.4114C92.2389 -42.077 91.9869 -41.6668 91.8432 -41.2152C91.6995 -40.7642 91.6692 -40.2855 91.7539 -39.8201L100.404 5.49997C100.978 9.82902 105.517 9.82903 108.094 9.82903H124.698C124.9 9.82903 125.099 9.78315 125.279 9.69526C125.46 9.60738 125.618 9.47969 125.741 9.32215C125.863 9.16462 125.948 8.98167 125.987 8.78656C126.026 8.59199 126.02 8.3908 125.968 8.199L119.98 -13.8166C119.92 -14.036 119.92 -14.2676 119.98 -14.487C120.04 -14.707 120.157 -14.9071 120.321 -15.068C120.484 -15.2288 120.687 -15.3443 120.91 -15.4035C121.133 -15.4626 121.368 -15.4626 121.591 -15.4035L143.936 -9.5041C144.131 -9.45214 144.335 -9.44551 144.533 -9.4842C144.731 -9.5229 144.916 -9.6058 145.076 -9.72685C145.236 -9.8479 145.366 -10.0032 145.455 -10.1818C145.544 -10.3597 145.59 -10.556 145.59 -10.7544V-27.1143C145.59 -29.6536 145.781 -33.6461 141.196 -34.6913Z" fill="white"/>
<path d="M176.265 3.47737L173.511 6.2297C172.524 7.21434 171.188 7.76813 169.794 7.76924H165.866C165.023 7.76868 164.216 7.43364 163.62 6.83832C163.024 6.24299 162.689 5.43557 162.689 4.59381V-11.6367C162.69 -11.877 162.762 -12.1118 162.895 -12.3112C163.029 -12.5111 163.219 -12.6667 163.441 -12.7586C163.663 -12.8511 163.908 -12.8749 164.144 -12.8284C164.38 -12.7819 164.597 -12.6667 164.767 -12.4973L176.256 -1.01996C176.553 -0.725902 176.789 -0.376459 176.951 0.00897789C177.113 0.39497 177.196 0.808654 177.197 1.22677C177.198 1.64488 177.116 2.05856 176.956 2.4451C176.796 2.83109 176.561 3.1822 176.265 3.47737Z" fill="white"/>
<path d="M219.614 7.25361H215.713C214.319 7.25195 212.982 6.69959 211.996 5.71664L209.217 2.9449C208.922 2.65046 208.687 2.30067 208.527 1.91546C208.367 1.53025 208.285 1.11792 208.285 0.701161C208.285 0.284404 208.367 -0.128484 208.527 -0.513694C208.687 -0.898904 208.922 -1.24814 209.217 -1.54313L220.714 -13.0131C220.884 -13.1825 221.101 -13.2976 221.337 -13.3441C221.573 -13.3906 221.818 -13.3668 222.04 -13.2743C222.263 -13.1825 222.453 -13.0269 222.587 -12.8271C222.72 -12.6279 222.792 -12.3932 222.793 -12.153V4.08005C222.793 4.49681 222.711 4.90914 222.551 5.29435C222.391 5.679 222.158 6.02879 221.862 6.32379C221.567 6.61823 221.216 6.85234 220.831 7.01174C220.445 7.17114 220.032 7.25361 219.614 7.25361Z" fill="white"/>
<path d="M247.309 40.3542L244.543 37.6128C243.555 36.6308 242.999 35.3007 242.998 33.9132V30.0044C242.998 29.1658 243.334 28.362 243.932 27.7695C244.53 27.1764 245.341 26.8438 246.187 26.8438H262.501C262.743 26.8432 262.979 26.9138 263.18 27.0473C263.381 27.1803 263.538 27.3695 263.63 27.5913C263.723 27.8125 263.747 28.0564 263.699 28.2914C263.652 28.5264 263.535 28.7421 263.363 28.911L251.829 40.3448C251.533 40.64 251.181 40.8745 250.794 41.0345C250.407 41.195 249.991 41.2777 249.571 41.2783C249.151 41.2794 248.735 41.1983 248.347 41.04C247.959 40.8811 247.607 40.6483 247.309 40.3542Z" fill="white"/>
<path d="M242.998 83.3684V79.3474C242.999 77.9095 243.555 76.5311 244.542 75.5134L247.328 72.6502C247.926 72.0362 248.737 71.6914 249.582 71.6914C250.427 71.6914 251.238 72.0362 251.836 72.6502L263.364 84.4992C263.535 84.6742 263.652 84.8983 263.699 85.1418C263.747 85.386 263.723 85.6387 263.63 85.8679C263.537 86.0978 263.38 86.2939 263.179 86.4317C262.978 86.5694 262.741 86.6426 262.499 86.6415H246.185C245.34 86.6415 244.53 86.2967 243.932 85.6833C243.335 85.0692 242.999 84.2368 242.998 83.3684Z" fill="white"/>
<path d="M209.73 110.524L212.488 107.772C212.976 107.284 213.556 106.897 214.194 106.634C214.832 106.369 215.516 106.234 216.206 106.234H220.132C220.974 106.234 221.782 106.569 222.378 107.164C222.974 107.759 223.308 108.566 223.308 109.407V125.637C223.309 125.878 223.238 126.113 223.105 126.314C222.971 126.514 222.781 126.671 222.558 126.762C222.335 126.855 222.09 126.879 221.854 126.832C221.618 126.785 221.401 126.668 221.23 126.498L209.74 115.021C209.443 114.727 209.207 114.377 209.047 113.992C208.885 113.606 208.802 113.192 208.801 112.774C208.8 112.357 208.882 111.943 209.041 111.557C209.201 111.17 209.435 110.82 209.73 110.524Z" fill="white"/>
<path d="M166.387 106.746H170.286C171.682 106.748 173.02 107.301 174.006 108.285L176.784 111.056C177.38 111.652 177.714 112.458 177.714 113.299C177.714 114.14 177.38 114.947 176.784 115.542L165.288 127.01C165.118 127.181 164.901 127.296 164.664 127.344C164.427 127.391 164.182 127.366 163.96 127.274C163.736 127.182 163.546 127.026 163.412 126.826C163.279 126.626 163.207 126.391 163.207 126.15V109.919C163.208 109.078 163.543 108.271 164.139 107.676C164.735 107.081 165.544 106.747 166.387 106.746Z" fill="white"/>
<path d="M138.688 73.6477L141.457 76.3916C142.445 77.3729 143.001 78.7018 143.002 80.0881V83.9969C143.002 84.8348 142.665 85.6391 142.067 86.2316C141.468 86.8246 140.657 87.1572 139.81 87.1572H123.498C123.257 87.1567 123.021 87.0855 122.82 86.9526C122.62 86.8196 122.463 86.6304 122.371 86.4092C122.278 86.1885 122.254 85.9453 122.3 85.7103C122.347 85.4753 122.463 85.2596 122.633 85.0897L134.168 73.6577C134.464 73.362 134.816 73.1276 135.203 72.967C135.591 72.8065 136.006 72.7238 136.426 72.7227C136.846 72.7221 137.262 72.8032 137.651 72.9621C138.039 73.1209 138.391 73.3537 138.688 73.6477Z" fill="white"/>
<path d="M143.002 30.6366V34.6552C143.001 36.0923 142.446 37.4705 141.458 38.488L138.672 41.3508C138.074 41.9648 137.263 42.3095 136.418 42.3095C135.572 42.3095 134.761 41.9648 134.164 41.3508L122.635 29.5042C122.464 29.3281 122.348 29.1046 122.301 28.8605C122.254 28.617 122.278 28.3643 122.37 28.1345C122.463 27.9047 122.62 27.7086 122.821 27.5709C123.022 27.4325 123.258 27.3588 123.5 27.3594H139.817C140.663 27.3605 141.472 27.7064 142.069 28.3209C142.667 28.9354 143.002 29.7683 143.002 30.6366Z" fill="white"/>
<path d="M181.992 73.7549H204.011V67.9553H209.84V46.0462H204.011V40.2461H181.992V46.0462H176.162V67.9553H181.992V73.7549Z" fill="white"/>
</g>
<defs>
<clipPath id="clip0_195_30174">
<rect width="386" height="382" fill="white" transform="translate(0 -134)"/>
</clipPath>
</defs>
</svg>
