<svg width="155" height="154" viewBox="0 0 155 154" fill="none" xmlns="http://www.w3.org/2000/svg">
<path d="M34.5459 121.457C34.2031 121.457 33.8647 121.382 33.5545 121.236C33.2443 121.091 32.97 120.88 32.7514 120.617C32.5326 120.354 32.3749 120.046 32.2891 119.716C32.2033 119.386 32.1917 119.04 32.2552 118.705L36.8519 94.3705C36.9372 93.9107 37.1614 93.4876 37.4943 93.158L93.7842 37.101C94.116 36.77 94.5409 36.5469 95.0026 36.4612L119.434 31.884C119.807 31.8139 120.192 31.8356 120.554 31.9472C120.917 32.0588 121.246 32.2567 121.515 32.5238C121.783 32.7908 121.982 33.1192 122.094 33.4803C122.206 33.8412 122.228 34.2241 122.158 34.5954L117.561 58.9288C117.475 59.3887 117.251 59.8118 116.919 60.1421L60.6347 116.198C60.3041 116.53 59.8796 116.753 59.4183 116.838L34.9852 121.416C34.8404 121.444 34.6931 121.457 34.5459 121.457ZM119.864 33.3578C119.812 33.3585 119.761 33.3631 119.71 33.3722L95.2773 37.9504C95.1168 37.9799 94.9689 38.0575 94.8535 38.1726L38.5732 94.2326C38.458 94.3479 38.38 94.4947 38.3493 94.6541L33.7535 118.99C33.7281 119.118 33.7352 119.252 33.7744 119.377C33.8134 119.503 33.8832 119.616 33.9774 119.709C34.0705 119.802 34.1851 119.871 34.311 119.909C34.4367 119.948 34.5702 119.955 34.6996 119.931L59.1336 115.353C59.2934 115.323 59.4405 115.246 59.5547 115.131L115.839 59.0745C115.954 58.9595 116.032 58.8127 116.062 58.6529L120.659 34.3186C120.681 34.2023 120.677 34.0828 120.647 33.9681C120.618 33.8536 120.563 33.7467 120.488 33.6555C120.412 33.5641 120.318 33.4905 120.21 33.4394C120.103 33.3887 119.986 33.3616 119.867 33.3607L119.864 33.3578Z" fill="white"/>
<path d="M119.866 121.457C119.721 121.457 119.577 121.443 119.434 121.417L95.0006 116.839C94.5385 116.754 94.1132 116.53 93.7821 116.199L37.4946 60.1425C37.1621 59.8122 36.9379 59.3891 36.8524 58.9289L32.2551 34.5955C32.1849 34.2242 32.2068 33.8413 32.3186 33.4801C32.4307 33.119 32.6295 32.7907 32.898 32.5234C33.1663 32.2563 33.4961 32.0582 33.8587 31.9468C34.2215 31.8355 34.6059 31.814 34.9787 31.8841L59.4136 36.4613C59.8745 36.5474 60.2987 36.7706 60.6302 37.1011L116.919 93.1573C117.251 93.488 117.475 93.9114 117.561 94.3717L122.158 118.705C122.221 119.041 122.21 119.386 122.123 119.716C122.038 120.047 121.88 120.354 121.661 120.617C121.442 120.88 121.168 121.091 120.858 121.236C120.547 121.382 120.209 121.457 119.866 121.457ZM34.543 33.3581C34.4245 33.3592 34.3075 33.3861 34.2003 33.4371C34.0931 33.4881 33.9986 33.5618 33.9233 33.6532C33.848 33.7443 33.7936 33.8511 33.764 33.9657C33.7346 34.0802 33.7306 34.1998 33.7526 34.316L38.3488 58.6503C38.3793 58.8101 38.4575 58.9564 38.5727 59.0718L94.86 115.128C94.9749 115.243 95.1228 115.321 95.2834 115.35L119.718 119.928C119.847 119.953 119.981 119.945 120.107 119.906C120.233 119.867 120.347 119.798 120.441 119.706C120.534 119.613 120.603 119.499 120.642 119.374C120.681 119.248 120.689 119.115 120.664 118.986L116.067 94.6526C116.038 94.4924 115.959 94.3452 115.844 94.2299L59.5558 38.1738C59.4412 38.0585 59.2937 37.9811 59.1335 37.9516L34.699 33.3735C34.6476 33.3641 34.5954 33.359 34.543 33.3581Z" fill="white"/>
<path d="M77.2112 138.863C76.8294 138.863 76.4531 138.77 76.1153 138.594C75.7779 138.419 75.4888 138.164 75.2734 137.853L61.1393 117.475C60.8714 117.09 60.7286 116.635 60.7305 116.168V37.1369C60.7293 36.6707 60.8718 36.2152 61.1393 35.8306L75.2714 15.4497C75.4868 15.139 75.776 14.8848 76.1137 14.7091C76.4511 14.5334 76.8275 14.4415 77.2093 14.4414C77.591 14.4417 77.967 14.5336 78.3048 14.7094C78.6426 14.885 78.9317 15.1391 79.1471 15.4497L93.2785 35.8306C93.5452 36.2154 93.6877 36.6707 93.6873 37.1369V116.168C93.688 116.635 93.5452 117.09 93.2785 117.475L79.1517 137.851C78.9367 138.162 78.6472 138.418 78.3086 138.594C77.9709 138.77 77.5937 138.863 77.2112 138.863ZM77.2112 15.9501C77.0776 15.9486 76.9456 15.98 76.8275 16.0411C76.709 16.1022 76.6078 16.1914 76.533 16.3005L62.4008 36.6813C62.3081 36.8152 62.2591 36.9732 62.2595 37.1349V116.166C62.2591 116.329 62.3081 116.487 62.4008 116.621L76.533 137.001C76.6075 137.11 76.7086 137.2 76.8271 137.261C76.9452 137.322 77.0772 137.354 77.2112 137.352C77.3451 137.354 77.4772 137.323 77.5957 137.261C77.7138 137.2 77.8149 137.11 77.8894 137.001L92.017 116.615C92.11 116.481 92.1598 116.323 92.1594 116.161V37.1292C92.1598 36.9673 92.11 36.8089 92.017 36.6756L77.8856 16.2948C77.8111 16.1864 77.7107 16.0979 77.593 16.0373C77.4748 15.9766 77.344 15.9457 77.2112 15.9472V15.9501Z" fill="white"/>
<path d="M93.4408 115.902L77.0258 99.5626L60.61 115.902V92.8019H37.4023L53.8175 76.4641L37.4023 60.1278H60.61V37.0273L77.0258 53.3652L93.4408 37.0273V60.1278H116.647L100.232 76.4664L116.647 92.8019H93.4408V115.902ZM78.1016 98.488L91.911 112.232V92.8019H83.8148L78.1016 98.488ZM62.139 92.8019V112.232L75.9492 98.488L70.236 92.8019H62.139ZM72.3942 92.8019L77.025 97.4108L81.6558 92.8019H72.3942ZM93.4439 91.2828H112.967L99.1563 77.539L93.4439 83.2251V91.2828ZM85.348 91.2828H91.9168V84.7438L85.348 91.2828ZM70.8679 91.2828H83.1887L91.9168 82.5951V70.3326L83.1887 61.6449H70.8652L62.1363 70.3326V82.5963L70.8679 91.2828ZM62.139 91.2828H68.7089L62.139 84.7438V91.2828ZM41.0904 91.2828H60.613V83.2251L54.8998 77.539L41.0904 91.2828ZM93.4439 71.8524V81.0761L98.0747 76.4671L93.4439 71.8524ZM55.9791 76.4614L60.61 81.0703V71.8467L55.9791 76.4614ZM93.4439 69.6999L99.1563 75.3868L112.967 61.6418H93.4408L93.4439 69.6999ZM41.0904 61.6418L54.8968 75.3949L60.61 69.7076V61.6449L41.0904 61.6418ZM85.348 61.6418L91.9168 68.1809V61.6418H85.348ZM62.139 61.6418V68.1809L68.7089 61.6418H62.139ZM83.8206 60.1228H91.9168V40.6951L78.1074 54.4393L83.8206 60.1228ZM72.3942 60.1228H81.6627L77.0315 55.5139L72.3942 60.1228ZM62.139 60.1228H70.236L75.9492 54.4366L62.139 40.6951V60.1228Z" fill="white"/>
<path d="M117.311 92.9459H37.1022C36.6291 92.9463 36.1668 92.8052 35.7765 92.5404L15.0921 78.5677C14.7771 78.3546 14.5194 78.0686 14.3414 77.7348C14.1634 77.401 14.0703 77.0296 14.0703 76.6521C14.0703 76.2745 14.1634 75.9031 14.3414 75.5689C14.5194 75.2351 14.7771 74.9495 15.0921 74.7361L35.7765 60.7634C36.167 60.4997 36.6294 60.3586 37.1022 60.3594H117.311C117.784 60.359 118.246 60.5 118.637 60.7634L139.32 74.7361C139.636 74.9492 139.893 75.2351 140.072 75.5689C140.25 75.9027 140.343 76.2745 140.343 76.6521C140.343 77.0296 140.25 77.4014 140.072 77.7352C139.893 78.069 139.636 78.355 139.32 78.5677L118.637 92.5404C118.247 92.8052 117.784 92.9463 117.311 92.9459ZM37.1022 61.871C36.9377 61.871 36.7769 61.9201 36.641 62.0117L15.9575 75.9844C15.8475 76.058 15.7576 76.1576 15.6954 76.2738C15.6332 76.3899 15.6007 76.5191 15.6007 76.6505C15.6007 76.782 15.6332 76.9115 15.6954 77.0273C15.7576 77.1438 15.8475 77.2427 15.9575 77.3167L36.641 91.2894C36.7769 91.3814 36.9377 91.4304 37.1022 91.43H117.311C117.476 91.43 117.636 91.381 117.771 91.2894L138.456 77.3167C138.566 77.2427 138.656 77.1438 138.718 77.0273C138.78 76.9115 138.813 76.782 138.813 76.6505C138.813 76.5191 138.78 76.3899 138.718 76.2738C138.656 76.1576 138.566 76.058 138.456 75.9844L117.771 62.0117C117.636 61.9201 117.476 61.871 117.311 61.871H37.1022Z" fill="white"/>
<path d="M83.449 15.3431L94.8726 31.8876C94.9557 32.0082 95.0724 32.1022 95.2084 32.1584C95.3447 32.2145 95.4942 32.2302 95.6394 32.2036L115.65 28.555C115.753 28.5361 115.851 28.4967 115.937 28.4388C116.025 28.3806 116.098 28.3057 116.154 28.2183C116.211 28.1309 116.248 28.0329 116.264 27.9304C116.28 27.8279 116.275 27.7234 116.248 27.6232L109.151 0.565578C109.122 0.452554 109.066 0.347829 108.989 0.259677C108.912 0.171526 108.815 0.102367 108.706 0.0576142C108.597 0.0128609 108.479 -0.00625562 108.362 0.00179384C108.244 0.00984333 108.13 0.0448339 108.028 0.103995L83.6925 14.2667C83.6027 14.3191 83.5245 14.3892 83.4629 14.4728C83.4013 14.5564 83.3578 14.6516 83.335 14.7525C83.3119 14.8535 83.3104 14.958 83.33 15.0596C83.3497 15.1612 83.3901 15.2577 83.449 15.3431Z" fill="white"/>
<path d="M125.574 38.3787L121.842 58.0449C121.814 58.1884 121.829 58.3376 121.885 58.473C121.941 58.6085 122.036 58.7249 122.158 58.8077L138.919 70.2231C139.005 70.2819 139.103 70.3223 139.206 70.3421C139.308 70.362 139.414 70.3605 139.517 70.3383C139.619 70.3158 139.716 70.2727 139.8 70.2116C139.885 70.1506 139.956 70.0731 140.008 69.9838L154.31 45.9235C154.37 45.8232 154.405 45.7102 154.413 45.5942C154.421 45.4778 154.402 45.3615 154.357 45.2535C154.312 45.1459 154.242 45.0501 154.153 44.9734C154.064 44.8971 153.959 44.8417 153.844 44.8123L126.515 37.794C126.415 37.768 126.31 37.7627 126.206 37.7783C126.104 37.794 126.005 37.8302 125.917 37.885C125.829 37.9398 125.753 38.0118 125.694 38.0968C125.635 38.1817 125.595 38.2775 125.574 38.3787Z" fill="white"/>
<path d="M39.1204 28.2244L58.5603 31.8304C58.7022 31.8563 58.8484 31.8415 58.9814 31.787C59.1144 31.7328 59.2289 31.6415 59.3105 31.5244L70.5949 15.3375C70.6533 15.2541 70.6939 15.1597 70.714 15.0602C70.7337 14.9606 70.7325 14.858 70.7105 14.7589C70.6884 14.6598 70.6455 14.5663 70.5852 14.4843C70.5245 14.4022 70.4475 14.3335 70.359 14.2823L46.5737 0.468705C46.4744 0.411034 46.363 0.376875 46.2482 0.368969C46.1333 0.361054 46.0185 0.379589 45.9118 0.423097C45.8054 0.466606 45.7107 0.533926 45.6353 0.619734C45.5595 0.705542 45.505 0.807513 45.476 0.917635L38.5369 27.3113C38.5102 27.4093 38.5048 27.5115 38.5203 27.6117C38.5358 27.7121 38.5721 27.8081 38.6266 27.8938C38.6815 27.9796 38.7535 28.0531 38.8385 28.11C38.9236 28.1669 39.0191 28.206 39.1204 28.2244Z" fill="white"/>
<path d="M15.5193 70.2248L32.2548 58.9283C32.3767 58.8463 32.4716 58.7311 32.5282 58.5964C32.5849 58.4624 32.6006 58.3144 32.5737 58.1713L28.8829 38.386C28.8639 38.2843 28.8238 38.1876 28.7653 38.1016C28.7067 38.0159 28.631 37.9428 28.5425 37.8874C28.4541 37.8318 28.3548 37.7949 28.2514 37.7787C28.1477 37.7626 28.042 37.7677 27.9405 37.794L0.57073 44.8121C0.456587 44.8415 0.350897 44.8968 0.261953 44.9731C0.17301 45.0494 0.10322 45.1452 0.0580861 45.2528C0.0129527 45.3604 -0.00630799 45.4768 0.00181036 45.5928C0.0099287 45.7092 0.0452074 45.8217 0.104879 45.9221L14.4301 69.9844C14.4832 70.0737 14.5542 70.1507 14.6389 70.2114C14.7234 70.2725 14.8198 70.3152 14.9219 70.3377C15.024 70.3602 15.1297 70.3621 15.2324 70.3427C15.3352 70.3232 15.4328 70.2831 15.5193 70.2248Z" fill="white"/>
<path d="M28.8404 114.917L32.5728 95.2521C32.6008 95.1078 32.5858 94.9594 32.5296 94.8239C32.4733 94.6884 32.3785 94.5717 32.2564 94.4889L15.4958 83.0783C15.4096 83.0195 15.3121 82.9791 15.2093 82.9592C15.1066 82.9394 15.0008 82.9409 14.8986 82.963C14.7964 82.9855 14.6999 83.0283 14.6152 83.0893C14.5305 83.15 14.4594 83.2275 14.4064 83.3168L0.104584 107.378C0.045013 107.479 0.00982586 107.591 0.00177921 107.707C-0.00626741 107.823 0.0130547 107.94 0.0582171 108.047C0.103379 108.155 0.173159 108.251 0.262073 108.327C0.350989 108.404 0.456613 108.459 0.570665 108.488L27.8995 115.508C28.0006 115.534 28.1061 115.539 28.2094 115.523C28.3127 115.507 28.4115 115.47 28.4996 115.415C28.5879 115.359 28.6637 115.286 28.7223 115.201C28.7809 115.115 28.8211 115.019 28.8404 114.917Z" fill="white"/>
<path d="M70.9648 137.963L59.5415 121.418C59.4579 121.298 59.3412 121.204 59.2053 121.148C59.0693 121.092 58.9195 121.076 58.7747 121.102L38.7643 124.751C38.6615 124.77 38.5637 124.809 38.4768 124.867C38.3899 124.925 38.3162 125 38.26 125.088C38.2038 125.175 38.1662 125.273 38.1498 125.375C38.1337 125.478 38.1388 125.583 38.165 125.683L45.2632 152.741C45.2929 152.854 45.3483 152.959 45.4257 153.047C45.5031 153.135 45.5998 153.204 45.7084 153.249C45.8174 153.294 45.9353 153.312 46.0527 153.304C46.1702 153.296 46.2842 153.261 46.3859 153.202L70.721 139.039C70.8111 138.987 70.8893 138.917 70.9509 138.833C71.0125 138.749 71.056 138.654 71.0792 138.553C71.1019 138.453 71.1034 138.348 71.0838 138.246C71.0641 138.145 71.0237 138.048 70.9648 137.963Z" fill="white"/>
<path d="M115.653 124.797L95.7633 121.103C95.6185 121.076 95.4687 121.091 95.3324 121.147C95.1965 121.203 95.0794 121.296 94.9958 121.416L83.4507 137.987C83.391 138.072 83.3506 138.169 83.3306 138.27C83.3102 138.372 83.3121 138.476 83.3344 138.577C83.3572 138.678 83.4007 138.773 83.4623 138.857C83.5239 138.941 83.6021 139.011 83.6922 139.063L108.027 153.202C108.129 153.261 108.243 153.296 108.361 153.304C108.478 153.313 108.596 153.293 108.705 153.249C108.814 153.204 108.911 153.135 108.988 153.047C109.065 152.96 109.121 152.855 109.151 152.742L116.25 125.724C116.275 125.624 116.28 125.52 116.263 125.418C116.247 125.317 116.21 125.22 116.154 125.133C116.098 125.046 116.024 124.971 115.938 124.914C115.852 124.856 115.755 124.816 115.653 124.797Z" fill="white"/>
<path d="M138.896 83.0755L122.16 94.3697C122.038 94.4529 121.942 94.5689 121.886 94.7043C121.829 94.8398 121.814 94.9886 121.842 95.1328L125.533 114.915C125.551 115.017 125.592 115.114 125.65 115.199C125.709 115.286 125.784 115.358 125.873 115.414C125.962 115.469 126.061 115.506 126.164 115.522C126.268 115.539 126.374 115.534 126.475 115.507L153.843 108.49C153.957 108.461 154.063 108.406 154.152 108.329C154.241 108.253 154.311 108.157 154.356 108.049C154.401 107.942 154.421 107.825 154.413 107.709C154.405 107.593 154.369 107.48 154.31 107.38L139.985 83.3208C139.932 83.2311 139.862 83.1533 139.777 83.0922C139.693 83.0308 139.597 82.9873 139.495 82.964C139.392 82.9412 139.287 82.9392 139.183 82.9583C139.08 82.9778 138.982 83.0175 138.896 83.0755Z" fill="white"/>
<path d="M88.8574 35.8542L78.2093 20.5036C78.0987 20.3469 77.9516 20.219 77.78 20.1306C77.6087 20.0423 77.418 19.9961 77.2245 19.9961C77.0307 19.9961 76.8404 20.0423 76.6687 20.1306C76.4975 20.219 76.35 20.3469 76.2398 20.5036L65.5913 35.8542C64.5012 37.2504 65.7965 38.525 66.5313 39.2488L71.2661 43.913C71.3241 43.9696 71.3937 44.0123 71.4708 44.0377C71.5479 44.0639 71.63 44.0716 71.7106 44.0612C71.7911 44.0504 71.8682 44.0219 71.9359 43.9773C72.0036 43.9326 72.0597 43.8733 72.1005 43.804L76.7653 35.8464C76.8116 35.7671 76.8789 35.7013 76.9595 35.6554C77.0401 35.6097 77.1315 35.5857 77.2245 35.5857C77.3176 35.5857 77.409 35.6097 77.4896 35.6554C77.5702 35.7013 77.6371 35.7671 77.6834 35.8464L82.3482 43.804C82.389 43.8733 82.4451 43.9326 82.5128 43.9773C82.5805 44.0219 82.6576 44.0504 82.7381 44.0612C82.8187 44.0716 82.9008 44.0639 82.9779 44.0377C83.055 44.0123 83.125 43.9696 83.1826 43.913L87.9178 39.2488C88.6534 38.525 89.8654 37.4399 88.8574 35.8542Z" fill="white"/>
<path d="M39.818 97.6577L36.3083 115.988C36.2737 116.177 36.286 116.37 36.344 116.552C36.402 116.735 36.5042 116.901 36.6418 117.036C36.7793 117.172 36.9481 117.273 37.1338 117.33C37.3192 117.387 37.5162 117.399 37.7076 117.365L56.3555 113.917C58.138 113.689 58.1368 111.879 58.1368 110.852V104.234C58.1368 104.153 58.1184 104.074 58.0821 104.002C58.0461 103.93 57.9936 103.867 57.9287 103.818C57.8638 103.769 57.7882 103.735 57.708 103.72C57.6278 103.704 57.5453 103.707 57.4663 103.728L48.4084 106.115C48.318 106.138 48.2225 106.138 48.1326 106.115C48.0422 106.091 47.9596 106.044 47.8935 105.979C47.8274 105.914 47.7797 105.833 47.7554 105.744C47.7312 105.655 47.7312 105.562 47.7554 105.473L50.1818 96.5661C50.2034 96.4885 50.2061 96.4069 50.1901 96.3281C50.174 96.2493 50.14 96.1752 50.0903 96.1114C50.0406 96.0477 49.9764 95.9959 49.9029 95.9604C49.8297 95.9249 49.7491 95.9067 49.6674 95.9067H42.9358C41.8959 95.9067 40.2492 95.8302 39.818 97.6577Z" fill="white"/>
<path d="M98.0598 113.914L116.706 117.365C116.898 117.399 117.095 117.387 117.28 117.33C117.466 117.272 117.635 117.172 117.773 117.037C117.91 116.901 118.012 116.735 118.07 116.553C118.128 116.37 118.14 116.177 118.106 115.988L114.6 97.6574C114.367 95.9055 112.527 95.9063 111.481 95.9063H104.749C104.668 95.9063 104.587 95.9248 104.513 95.9603C104.44 95.9959 104.376 96.0472 104.326 96.1113C104.276 96.1751 104.242 96.2492 104.227 96.328C104.21 96.4068 104.213 96.4883 104.234 96.5659L106.661 105.47C106.686 105.558 106.686 105.652 106.662 105.741C106.638 105.83 106.59 105.912 106.524 105.977C106.458 106.042 106.375 106.089 106.284 106.112C106.194 106.136 106.098 106.136 106.008 106.112L96.9489 103.726C96.8699 103.706 96.7873 103.702 96.7071 103.718C96.6269 103.734 96.5514 103.767 96.4864 103.816C96.4218 103.865 96.369 103.928 96.333 104C96.297 104.072 96.2782 104.152 96.2782 104.232V110.849C96.2763 111.876 96.1988 113.492 98.0598 113.914Z" fill="white"/>
<path d="M114.596 55.6425L118.106 37.3127C118.141 37.1244 118.128 36.931 118.07 36.7483C118.012 36.5659 117.91 36.4 117.772 36.2647C117.635 36.1294 117.466 36.029 117.281 35.972C117.095 35.9148 116.898 35.9029 116.707 35.9369L98.0597 39.3836C96.2773 39.6126 96.2773 41.4215 96.2773 42.449V49.0666C96.2773 49.1473 96.2965 49.2265 96.3325 49.2987C96.3689 49.371 96.4213 49.4336 96.4863 49.4826C96.5512 49.5317 96.6267 49.5653 96.7069 49.5807C96.7871 49.5962 96.87 49.5935 96.9491 49.5726L106.007 47.187C106.097 47.1634 106.192 47.1634 106.282 47.187C106.373 47.211 106.455 47.2577 106.521 47.323C106.587 47.3879 106.635 47.469 106.659 47.5578C106.684 47.6467 106.684 47.7405 106.659 47.829L104.232 56.7345C104.211 56.8117 104.208 56.8932 104.224 56.972C104.241 57.0512 104.275 57.125 104.324 57.1887C104.374 57.2525 104.439 57.3042 104.512 57.3398C104.585 57.3753 104.666 57.3938 104.748 57.3938H111.479C112.523 57.3985 114.167 57.4765 114.596 55.6425Z" fill="white"/>
<path d="M36.0982 65.1775L20.5114 75.6625C20.3524 75.7711 20.2224 75.9162 20.1327 76.0847C20.043 76.2537 19.9961 76.4415 19.9961 76.632C19.9961 76.8229 20.043 77.0104 20.1327 77.1793C20.2224 77.3483 20.3524 77.493 20.5114 77.6019L36.0982 88.0869C37.515 89.1603 38.8095 87.886 39.5452 87.1613L44.281 82.499C44.3382 82.442 44.3818 82.3735 44.4079 82.2973C44.434 82.2215 44.4422 82.1407 44.4313 82.0614C44.4208 81.9821 44.3916 81.9063 44.3464 81.8397C44.3013 81.7731 44.2409 81.7173 44.1705 81.6773L36.0903 77.0842C36.0099 77.0384 35.9429 76.9726 35.8965 76.8933C35.8501 76.8137 35.8254 76.724 35.8254 76.632C35.8254 76.5404 35.8501 76.4504 35.8965 76.3711C35.9429 76.2918 36.0099 76.226 36.0903 76.1802L44.1705 71.5868C44.2409 71.5467 44.3013 71.4913 44.3464 71.4247C44.3916 71.3582 44.4208 71.2823 44.4313 71.2031C44.4422 71.1238 44.434 71.0426 44.4079 70.9667C44.3818 70.8909 44.3382 70.822 44.281 70.7655L39.5452 66.1058C38.8095 65.3796 37.7083 64.1877 36.0982 65.1775Z" fill="white"/>
<path d="M65.5546 117.451L76.2035 132.8C76.3141 132.956 76.4612 133.085 76.6324 133.173C76.8041 133.262 76.9948 133.308 77.1883 133.308C77.3817 133.308 77.5728 133.262 77.7445 133.173C77.9157 133.085 78.0629 132.956 78.173 132.8L88.822 117.451C89.9122 116.054 88.6168 114.779 87.882 114.056L83.147 109.391C83.089 109.334 83.0193 109.292 82.9423 109.266C82.8652 109.24 82.7831 109.232 82.7025 109.243C82.6219 109.253 82.5449 109.282 82.4771 109.327C82.4094 109.371 82.3534 109.43 82.3125 109.5L77.6476 117.457C77.6008 117.537 77.5339 117.602 77.4533 117.648C77.3728 117.694 77.2813 117.718 77.1883 117.718C77.0952 117.718 77.0038 117.694 76.9232 117.648C76.8426 117.602 76.7761 117.537 76.7294 117.457L72.0644 109.5C72.0236 109.43 71.9675 109.371 71.8998 109.327C71.8321 109.282 71.755 109.253 71.674 109.243C71.5935 109.232 71.5117 109.24 71.4347 109.266C71.3576 109.292 71.2875 109.334 71.2299 109.391L66.4946 114.056C65.7589 114.779 64.5496 115.864 65.5546 117.451Z" fill="white"/>
<path d="M118.318 88.123L133.905 77.6381C134.064 77.5295 134.194 77.3848 134.284 77.2159C134.374 77.0469 134.42 76.8591 134.42 76.6686C134.42 76.4781 134.374 76.2902 134.284 76.1213C134.194 75.9527 134.064 75.8076 133.905 75.6991L118.318 65.2137C116.901 64.1403 115.607 65.4161 114.871 66.1393L110.136 70.8016C110.078 70.8586 110.035 70.9275 110.009 71.0033C109.983 71.0791 109.974 71.1599 109.985 71.2392C109.996 71.3189 110.025 71.3947 110.07 71.4613C110.115 71.5279 110.176 71.5833 110.246 71.6233L118.326 76.2164C118.407 76.2622 118.474 76.3283 118.521 76.4076C118.567 76.4869 118.592 76.5774 118.592 76.669C118.592 76.7609 118.567 76.851 118.521 76.9303C118.474 77.0099 118.407 77.0758 118.326 77.1216L110.246 81.7138C110.176 81.7539 110.115 81.8093 110.07 81.8758C110.025 81.9424 109.996 82.0186 109.985 82.0979C109.974 82.1772 109.983 82.258 110.009 82.3338C110.035 82.4097 110.078 82.4789 110.136 82.5355L114.871 87.1978C115.607 87.9222 116.708 89.1129 118.318 88.123Z" fill="white"/>
<path d="M56.3855 40.0104L38.0555 36.6782C37.8674 36.6456 37.6737 36.6572 37.4911 36.7125C37.3086 36.7678 37.1426 36.8647 37.0075 36.9953C36.8722 37.1259 36.7717 37.2861 36.7144 37.4624C36.6572 37.6386 36.6451 37.8255 36.6789 38.0073L40.1264 55.7063C40.3553 57.397 42.1647 57.397 43.1917 57.397H49.8099C49.8903 57.397 49.9696 57.3791 50.0415 57.3448C50.1134 57.3105 50.1761 57.2605 50.2254 57.199C50.2742 57.1375 50.3077 57.0663 50.3234 56.9898C50.3392 56.9137 50.3365 56.8354 50.3158 56.7605L47.929 48.1624C47.9055 48.077 47.9055 47.9864 47.929 47.9006C47.9532 47.8149 47.9998 47.7366 48.0648 47.6739C48.1302 47.6109 48.211 47.5658 48.2998 47.5427C48.3891 47.5199 48.4825 47.5199 48.5714 47.5427L57.4775 49.8468C57.5552 49.867 57.6368 49.8696 57.7152 49.8547C57.7945 49.8394 57.8683 49.8069 57.9322 49.7596C57.996 49.7126 58.0476 49.6518 58.0833 49.5821C58.1187 49.5127 58.1372 49.4359 58.1372 49.3583V42.9694C58.1372 41.9778 58.213 40.4183 56.3855 40.0104Z" fill="white"/>
<path d="M70.3451 55.2522L69.22 56.389C68.8173 56.7956 68.2716 57.0243 67.7022 57.0247H66.0981C65.7538 57.0247 65.4239 56.8864 65.1805 56.6403C64.9375 56.3945 64.8008 56.061 64.8008 55.7133V49.0098C64.8008 48.9102 64.83 48.8134 64.8845 48.7312C64.9394 48.6486 65.0169 48.5842 65.1077 48.5463C65.1984 48.508 65.2981 48.4981 65.3947 48.5175C65.4909 48.5364 65.5797 48.5842 65.6494 48.6542L70.3412 53.3946C70.4627 53.5163 70.5593 53.6606 70.6255 53.8198C70.6913 53.979 70.7256 54.1501 70.7256 54.3228C70.726 54.4955 70.6925 54.6662 70.6275 54.8258C70.562 54.9854 70.4662 55.1305 70.3451 55.2522Z" fill="white"/>
<path d="M87.9432 56.6544H86.3497C85.7804 56.6537 85.2344 56.4354 84.8315 56.0471L83.6971 54.952C83.5763 54.8357 83.4805 54.6978 83.415 54.5456C83.3499 54.3934 83.3164 54.2306 83.3164 54.0659C83.3164 53.9012 83.3499 53.738 83.415 53.5858C83.4805 53.4335 83.5763 53.2957 83.6971 53.179L88.3921 48.6477C88.4618 48.5809 88.5503 48.5352 88.647 48.517C88.7432 48.4985 88.843 48.508 88.9338 48.5446C89.0246 48.5809 89.1025 48.6421 89.1571 48.721C89.2116 48.7999 89.2408 48.8925 89.2412 48.9873V55.4008C89.2412 55.5654 89.2077 55.7282 89.1426 55.8805C89.0772 56.0323 88.9817 56.1706 88.8613 56.2869C88.7405 56.4032 88.5975 56.4958 88.44 56.5589C88.2822 56.622 88.1135 56.6544 87.9432 56.6544Z" fill="white"/>
<path d="M98.7912 69.9751L97.6545 68.85C97.2485 68.4467 97.0199 67.901 97.0195 67.3315V65.7268C97.0195 65.3826 97.158 65.0528 97.4035 64.8095C97.6494 64.5662 97.9827 64.4297 98.3301 64.4297H105.034C105.134 64.4293 105.231 64.4586 105.314 64.5134C105.396 64.5678 105.46 64.6456 105.499 64.7364C105.536 64.8275 105.546 64.9273 105.527 65.0239C105.508 65.1205 105.459 65.2089 105.389 65.2782L100.649 69.9711C100.527 70.0924 100.383 70.1886 100.223 70.2544C100.064 70.3201 99.8932 70.3541 99.7209 70.3545C99.5482 70.3549 99.3774 70.3216 99.2181 70.2567C99.0583 70.1914 98.9135 70.0959 98.7912 69.9751Z" fill="white"/>
<path d="M97.0195 87.2058V85.6124C97.0199 85.0425 97.248 84.496 97.6542 84.0929L98.7992 82.9582C99.0446 82.7147 99.378 82.5781 99.7252 82.5781C100.072 82.5781 100.406 82.7147 100.651 82.9582L105.389 87.654C105.459 87.7232 105.507 87.8121 105.527 87.9088C105.546 88.0055 105.536 88.1057 105.498 88.1965C105.46 88.2877 105.395 88.3652 105.313 88.42C105.23 88.4744 105.133 88.5033 105.034 88.5029H98.3289C97.9821 88.5029 97.6491 88.3663 97.4033 88.1233C97.1579 87.8798 97.0195 87.5498 97.0195 87.2058Z" fill="white"/>
<path d="M84.0672 98.0491L85.1936 96.9123C85.393 96.7108 85.6295 96.5512 85.89 96.4421C86.1506 96.3331 86.4299 96.277 86.7118 96.2773H88.315C88.6593 96.2773 88.9891 96.4156 89.2322 96.661C89.4756 96.9072 89.6123 97.2402 89.6123 97.5876V104.291C89.6123 104.391 89.5839 104.488 89.529 104.571C89.4744 104.653 89.3969 104.718 89.3062 104.756C89.215 104.794 89.1149 104.804 89.0184 104.785C88.9218 104.765 88.8334 104.717 88.7636 104.647L84.0715 99.9065C83.95 99.7848 83.8538 99.6406 83.788 99.4814C83.7222 99.3217 83.6883 99.151 83.6875 98.9784C83.6871 98.8061 83.7206 98.635 83.7857 98.4754C83.8511 98.3158 83.9465 98.1711 84.0672 98.0491Z" fill="white"/>
<path d="M66.4707 96.6484H68.063C68.6331 96.6492 69.1794 96.8675 69.5824 97.2565L70.7167 98.3514C70.9599 98.5863 71.0967 98.9051 71.0967 99.2375C71.0967 99.5695 70.9599 99.8882 70.7167 100.123L66.0218 104.654C65.9524 104.721 65.8636 104.767 65.7669 104.786C65.6703 104.805 65.5701 104.795 65.4793 104.758C65.3881 104.722 65.3106 104.661 65.2557 104.581C65.2011 104.502 65.1719 104.409 65.1719 104.314V97.902C65.1723 97.5696 65.309 97.2508 65.5526 97.0159C65.7962 96.781 66.1266 96.6488 66.4707 96.6484Z" fill="white"/>
<path d="M55.6229 83.3251L56.7608 84.4513C57.1668 84.8541 57.395 85.3994 57.3958 85.9685V87.5731C57.3954 87.9169 57.2569 88.247 57.0114 88.4903C56.7651 88.7336 56.4319 88.8701 56.084 88.8701H49.3807C49.2816 88.8701 49.1844 88.8408 49.1018 88.7864C49.0195 88.7317 48.955 88.6542 48.9172 88.5631C48.8791 88.4727 48.8692 88.373 48.8885 88.2764C48.9074 88.1797 48.955 88.0913 49.025 88.0217L53.7654 83.329C53.887 83.2078 54.0314 83.1116 54.1907 83.0458C54.3501 82.9797 54.5208 82.9457 54.6932 82.9453C54.8659 82.9449 55.0371 82.9786 55.1964 83.0435C55.3558 83.1088 55.5009 83.2043 55.6229 83.3251Z" fill="white"/>
<path d="M57.0255 66.0997V67.6922C57.0252 68.2616 56.8066 68.8079 56.4185 69.211L55.3235 70.3456C55.0881 70.589 54.7695 70.7256 54.4374 70.7256C54.1049 70.7256 53.7863 70.589 53.5512 70.3456L49.0195 65.6508C48.9526 65.5808 48.9067 65.4923 48.8883 65.3957C48.8695 65.299 48.8792 65.1988 48.9154 65.108C48.9518 65.0168 49.0135 64.9393 49.0925 64.8845C49.1715 64.8297 49.2644 64.8004 49.3596 64.8008H55.7734C56.1059 64.8012 56.4241 64.9382 56.6588 65.182C56.8935 65.4254 57.0255 65.7553 57.0255 66.0997Z" fill="white"/>
<path d="M73.7761 82.2058H82.4922V79.8986H84.7996V71.1826H82.4922V68.875H73.7761V71.1826H71.4688V79.8986H73.7761V82.2058Z" fill="white"/>
</svg>
